<svg version="1.1" viewBox="0.0 0.0 600.0 371.0" fill="none" stroke="none" stroke-linecap="square" stroke-miterlimit="10" width="600" height="371" xmlns:xlink="http://www.w3.org/1999/xlink" xmlns="http://www.w3.org/2000/svg"><path fill="#ffffff" d="M0 0L600.0 0L600.0 371.0L0 371.0L0 0Z" fill-rule="nonzero"/><path stroke="#333333" stroke-width="1.0" stroke-linecap="butt" d="M80.5 25.5L80.5 300.5" fill-rule="nonzero"/><path stroke="#cccccc" stroke-width="1.0" stroke-linecap="butt" d="M176.5 25.5L176.5 300.5" fill-rule="nonzero"/><path stroke="#cccccc" stroke-width="1.0" stroke-linecap="butt" d="M273.5 25.5L273.5 300.5" fill-rule="nonzero"/><path stroke="#cccccc" stroke-width="1.0" stroke-linecap="butt" d="M369.5 25.5L369.5 300.5" fill-rule="nonzero"/><path stroke="#cccccc" stroke-width="1.0" stroke-linecap="butt" d="M465.5 25.5L465.5 300.5" fill-rule="nonzero"/><path stroke="#cccccc" stroke-width="1.0" stroke-linecap="butt" d="M562.5 25.5L562.5 300.5" fill-rule="nonzero"/><path stroke="#cccccc" stroke-width="1.0" stroke-linecap="butt" d="M80.5 300.5L581.5 300.5" fill-rule="nonzero"/><path stroke="#cccccc" stroke-width="1.0" stroke-linecap="butt" d="M80.5 231.5L581.5 231.5" fill-rule="nonzero"/><path stroke="#cccccc" stroke-width="1.0" stroke-linecap="butt" d="M80.5 163.5L581.5 163.5" fill-rule="nonzero"/><path stroke="#cccccc" stroke-width="1.0" stroke-linecap="butt" d="M80.5 94.5L581.5 94.5" fill-rule="nonzero"/><path stroke="#cccccc" stroke-width="1.0" stroke-linecap="butt" d="M80.5 25.5L581.5 25.5" fill-rule="nonzero"/><clipPath id="id_0"><path d="M80.55 25.55L581.45 25.55L581.45 300.45L80.55 300.45L80.55 25.55Z" clip-rule="nonzero"/></clipPath><path stroke="#4285f4" stroke-width="2.0" stroke-linecap="butt" clip-path="url(#id_0)" d="M80.55 68.03387C80.55 68.03387 86.971794 69.81487 90.18269 70.821526C93.39359 71.82818 96.604485 72.60252 99.815384 74.07379C103.02628 75.54505 106.23718 77.55836 109.448074 79.6491C112.65897 81.739845 115.86987 84.450066 119.08077 86.61824C122.291664 88.786415 125.50256 91.80637 128.71346 92.65816C131.92436 93.50994 135.13525 91.57407 138.34616 91.72894C141.55705 91.88381 144.76794 92.19355 147.97885 93.58738C151.18974 94.98121 154.40063 98.54321 157.61154 100.09191C160.82243 101.6406 164.03334 102.33752 167.24423 102.87956C170.45512 103.42161 173.66603 102.260086 176.87692 103.34417C180.08781 104.42826 186.50961 109.384094 186.50961 109.384094" fill-rule="nonzero"/><path stroke="#4285f4" stroke-width="2.0" stroke-linecap="butt" stroke-opacity="0.4" clip-path="url(#id_0)" d="M0 34.316185C0 34.316185 2.6666667 35.489307 4.0 36.074234C5.3333335 36.65916 6.6666665 37.242996 8.0 37.825745C9.333333 38.408493 10.666667 38.99015 12.0 39.570732C13.333333 40.151314 14.666667 40.73081 16.0 41.309227C17.333334 41.887646 18.666666 42.46498 20.0 43.04125C21.333334 43.617516 22.666666 44.192703 24.0 44.766823C25.333334 45.340946 26.666666 45.913994 28.0 46.485977C29.333334 47.05796 30.666666 47.628876 32.0 48.19873C33.333332 48.768585 34.666668 49.33737 36.0 49.905106C37.333332 50.472843 38.666668 51.039513 40.0 51.605133C41.333332 52.170753 42.666668 52.735317 44.0 53.298832C45.333332 53.862347 46.666668 54.42481 48.0 54.986225C49.333332 55.547646 50.666668 56.10801 52.0 56.66734C53.333332 57.226665 54.666668 57.78495 56.0 58.342194C57.333332 58.89944 58.666668 59.455643 60.0 60.010815C61.333332 60.565987 62.666668 61.12012 64.0 61.673225C65.333336 62.226334 66.666664 62.778404 68.0 63.32945C69.333336 63.880497 70.666664 64.43051 72.0 64.97951C73.333336 65.5285 74.666664 66.07647 76.0 66.62342C77.333336 67.17037 78.666664 67.7163 80.0 68.261215C81.333336 68.80614 82.666664 69.35003 84.0 69.89292C85.333336 70.43581 86.666664 70.97768 88.0 71.51855C89.333336 72.05941 90.666664 72.599266 92.0 73.13812C93.333336 73.67697 94.666664 74.21482 96.0 74.75167C97.333336 75.28851 98.666664 75.82436 100.0 76.35921C101.333336 76.89406 102.666664 77.42791 104.0 77.96077C105.333336 78.49363 106.666664 79.02549 108.0 79.556366C109.333336 80.08724 110.666664 80.61712 112.0 81.14602C113.333336 81.67492 114.666664 82.20283 116.0 82.72976C117.333336 83.25669 118.666664 83.78264 120.0 84.3076C121.333336 84.83257 122.666664 85.35656 124.0 85.87958C125.333336 86.402596 126.666664 86.92463 128.0 87.445694C129.33333 87.96677 130.66667 88.48686 132.0 89.00599C133.33333 89.525116 134.66667 90.043274 136.0 90.56047C137.33333 91.07767 138.66667 91.593895 140.0 92.10917C141.33333 92.624435 142.66667 93.13875 144.0 93.6521C145.33333 94.16545 146.66667 94.67785 148.0 95.189285C149.33333 95.70073 150.66667 96.21122 152.0 96.72076C153.33333 97.23029 154.66667 97.738884 156.0 98.24652C157.33333 98.754166 158.66667 99.26086 160.0 99.76661C161.33333 100.27236 162.66667 100.77717 164.0 101.28104C165.33333 101.78491 166.66667 102.287834 168.0 102.78983C169.33333 103.291824 170.66667 103.792885 172.0 104.29301C173.33333 104.79314 174.66667 105.29232 176.0 105.79059C177.33333 106.28886 178.66667 106.78619 180.0 107.28259C181.33333 107.77901 182.66667 108.27448 184.0 108.76905C185.33333 109.26361 186.66667 109.75725 188.0 110.24997C189.33333 110.74269 190.66667 111.23449 192.0 111.72537C193.33333 112.21626 194.66667 112.70623 196.0 113.19529C197.33333 113.68435 198.66667 114.17249 200.0 114.65974C201.33333 115.14697 202.66667 115.6333 204.0 116.11873C205.33333 116.60416 206.66667 117.08867 208.0 117.57229C209.33333 118.05591 210.66667 118.53863 212.0 119.02045C213.33333 119.502266 214.66667 119.98318 216.0 120.4632C217.33333 120.94323 218.66667 121.422356 220.0 121.9006C221.33333 122.37884 222.66667 122.85618 224.0 123.332634C225.33333 123.8091 226.66667 124.28466 228.0 124.759346C229.33333 125.23403 230.66667 125.70783 232.0 126.18075C233.33333 126.65366 234.66667 127.1257 236.0 127.596855C237.33333 128.06801 238.66667 128.53828 240.0 129.00769C241.33333 129.4771 242.66667 129.94562 244.0 130.41328C245.33333 130.88094 246.66667 131.34772 248.0 131.81363C249.33333 132.27956 250.66667 132.7446 252.0 133.20879C253.33333 133.67296 254.66667 134.13628 256.0 134.59872C257.33334 135.06119 258.66666 135.52277 260.0 135.9835C261.33334 136.44423 262.66666 136.90411 264.0 137.36313C265.33334 137.82214 266.66666 138.2803 268.0 138.73761C269.33334 139.19492 270.66666 139.65137 272.0 140.10698C273.33334 140.56259 274.66666 141.01733 276.0 141.47125C277.33334 141.92516 278.66666 142.37822 280.0 142.83044C281.33334 143.28267 282.66666 143.73404 284.0 144.18459C285.33334 144.63512 286.66666 145.08481 288.0 145.53368C289.33334 145.98253 290.66666 146.43056 292.0 146.87775C293.33334 147.32494 294.66666 147.77129 296.0 148.21681C297.33334 148.66234 298.66666 149.10704 300.0 149.5509C301.33334 149.99477 302.66666 150.4378 304.0 150.88002C305.33334 151.32224 306.66666 151.76363 308.0 152.2042C309.33334 152.64476 310.66666 153.0845 312.0 153.52344C313.33334 153.96237 314.66666 154.40048 316.0 154.83777C317.33334 155.27507 318.66666 155.71155 320.0 156.14722C321.33334 156.58289 322.66666 157.01773 324.0 157.45178C325.33334 157.88582 326.66666 158.31906 328.0 158.7515C329.33334 159.18391 330.66666 159.61554 332.0 160.04636C333.33334 160.47719 334.66666 160.9072 336.0 161.33641C337.33334 161.76562 338.66666 162.19405 340.0 162.62166C341.33334 163.04929 342.66666 163.4761 344.0 163.90213C345.33334 164.32816 346.66666 164.75339 348.0 165.17783C349.33334 165.60228 350.66666 166.02592 352.0 166.44879C353.33334 166.87164 354.66666 167.29372 356.0 167.71501C357.33334 168.13629 358.66666 168.5568 360.0 168.97652C361.33334 169.39624 362.66666 169.81517 364.0 170.23332C365.33334 170.65149 366.66666 171.06886 368.0 171.48546C369.33334 171.90207 370.66666 172.31789 372.0 172.73294C373.33334 173.14798 374.66666 173.56226 376.0 173.97577C377.33334 174.38927 378.66666 174.802 380.0 175.21397C381.33334 175.62593 382.66666 176.03712 384.0 176.44757C385.33334 176.858 386.66666 177.26767 388.0 177.67657C389.33334 178.08548 390.66666 178.4936 392.0 178.901C393.33334 179.30838 394.66666 179.715 396.0 180.12086C397.33334 180.52673 398.66666 180.93184 400.0 181.3362C401.33334 181.74055 402.66666 182.14415 404.0 182.54701C405.33334 182.94986 406.66666 183.35196 408.0 183.75331C409.33334 184.15466 410.66666 184.55525 412.0 184.95511C413.33334 185.35498 414.66666 185.75409 416.0 186.15245C417.33334 186.55083 418.66666 186.94844 420.0 187.34534C421.33334 187.74222 422.66666 188.13837 424.0 188.53377C425.33334 188.92918 426.66666 189.32385 428.0 189.71779C429.33334 190.11172 430.66666 190.50493 432.0 190.8974C433.33334 191.28987 434.66666 191.6816 436.0 192.07262C437.33334 192.46362 438.66666 192.8539 440.0 193.24345C441.33334 193.63301 442.66666 194.02184 444.0 194.40994C445.33334 194.79805 446.66666 195.18542 448.0 195.57208C449.33334 195.95874 450.66666 196.34468 452.0 196.7299C453.33334 197.11513 454.66666 197.49962 456.0 197.8834C457.33334 198.2672 458.66666 198.65027 460.0 199.03262C461.33334 199.41498 462.66666 199.79662 464.0 200.17755C465.33334 200.55849 466.66666 200.93872 468.0 201.31824C469.33334 201.69775 470.66666 202.07655 472.0 202.45467C473.33334 202.83276 474.66666 203.21016 476.0 203.58685C477.33334 203.96356 478.66666 204.33955 480.0 204.71484C481.33334 205.09013 482.66666 205.46474 484.0 205.83862C485.33334 206.21252 486.66666 206.58572 488.0 206.95824C489.33334 207.33073 490.66666 207.70255 492.0 208.07367C493.33334 208.4448 494.66666 208.81522 496.0 209.18495C497.33334 209.55469 498.66666 209.92374 500.0 210.2921C501.33334 210.66046 502.66666 211.02814 504.0 211.39513C505.33334 211.76212 506.66666 212.12842 508.0 212.49405C509.33334 212.85966 510.66666 213.22461 512.0 213.58887C513.3333 213.95314 514.6667 214.31671 516.0 214.67963C517.3333 215.04253 518.6667 215.40477 520.0 215.76633C521.3333 216.12788 522.6667 216.48875 524.0 216.84897C525.3333 217.20918 526.6667 217.56871 528.0 217.92758C529.3333 218.28645 530.6667 218.64465 532.0 219.0022C533.3333 219.35973 534.6667 219.7166 536.0 220.0728C537.3333 220.429 538.6667 220.78455 540.0 221.13942C541.3333 221.4943 542.6667 221.84851 544.0 222.20207C545.3333 222.55562 546.6667 222.90852 548.0 223.26076C549.3333 223.613 550.6667 223.96458 552.0 224.3155C553.3333 224.66644 554.6667 225.01671 556.0 225.36633C557.3333 225.71596 558.6667 226.06493 560.0 226.41325C561.3333 226.76158 562.6667 227.10925 564.0 227.45627C565.3333 227.8033 566.6667 228.14967 568.0 228.4954C569.3333 228.84114 570.6667 229.18623 572.0 229.53069C573.3333 229.87512 574.6667 230.21893 576.0 230.56209C577.3333 230.90526 580.0 231.58968 580.0 231.58968" fill-rule="nonzero"/><path fill="#000000" fill-opacity="0.0" clip-path="url(#id_0)" d="M83.55 68.03387C83.55 69.69073 82.206856 71.03387 80.55 71.03387C78.89314 71.03387 77.55 69.69073 77.55 68.03387C77.55 66.377014 78.89314 65.03387 80.55 65.03387C82.206856 65.03387 83.55 66.377014 83.55 68.03387Z" fill-rule="nonzero"/><path fill="#000000" fill-opacity="0.0" clip-path="url(#id_0)" d="M93.18269 70.821526C93.18269 72.47838 91.83955 73.821526 90.18269 73.821526C88.52584 73.821526 87.18269 72.47838 87.18269 70.821526C87.18269 69.16467 88.52584 67.821526 90.18269 67.821526C91.83955 67.821526 93.18269 69.16467 93.18269 70.821526Z" fill-rule="nonzero"/><path fill="#000000" fill-opacity="0.0" clip-path="url(#id_0)" d="M102.815384 74.07379C102.815384 75.730644 101.47224 77.07379 99.815384 77.07379C98.15853 77.07379 96.815384 75.730644 96.815384 74.07379C96.815384 72.41694 98.15853 71.07379 99.815384 71.07379C101.47224 71.07379 102.815384 72.41694 102.815384 74.07379Z" fill-rule="nonzero"/><path fill="#000000" fill-opacity="0.0" clip-path="url(#id_0)" d="M112.448074 79.6491C112.448074 81.305954 111.104935 82.6491 109.448074 82.6491C107.79122 82.6491 106.448074 81.305954 106.448074 79.6491C106.448074 77.99225 107.79122 76.6491 109.448074 76.6491C111.104935 76.6491 112.448074 77.99225 112.448074 79.6491Z" fill-rule="nonzero"/><path fill="#000000" fill-opacity="0.0" clip-path="url(#id_0)" d="M122.08077 86.61824C122.08077 88.27509 120.737625 89.61824 119.08077 89.61824C117.42391 89.61824 116.08077 88.27509 116.08077 86.61824C116.08077 84.96139 117.42391 83.61824 119.08077 83.61824C120.737625 83.61824 122.08077 84.96139 122.08077 86.61824Z" fill-rule="nonzero"/><path fill="#000000" fill-opacity="0.0" clip-path="url(#id_0)" d="M131.71346 92.65816C131.71346 94.31502 130.37032 95.65816 128.71346 95.65816C127.05661 95.65816 125.71346 94.31502 125.71346 92.65816C125.71346 91.001305 127.05661 89.65816 128.71346 89.65816C130.37032 89.65816 131.71346 91.001305 131.71346 92.65816Z" fill-rule="nonzero"/><path fill="#000000" fill-opacity="0.0" clip-path="url(#id_0)" d="M141.34616 91.72894C141.34616 93.385796 140.003 94.72894 138.34616 94.72894C136.6893 94.72894 135.34616 93.385796 135.34616 91.72894C135.34616 90.07209 136.6893 88.72894 138.34616 88.72894C140.003 88.72894 141.34616 90.07209 141.34616 91.72894Z" fill-rule="nonzero"/><path fill="#000000" fill-opacity="0.0" clip-path="url(#id_0)" d="M150.97885 93.58738C150.97885 95.24423 149.6357 96.58738 147.97885 96.58738C146.32199 96.58738 144.97885 95.24423 144.97885 93.58738C144.97885 91.93053 146.32199 90.58738 147.97885 90.58738C149.6357 90.58738 150.97885 91.93053 150.97885 93.58738Z" fill-rule="nonzero"/><path fill="#000000" fill-opacity="0.0" clip-path="url(#id_0)" d="M160.61154 100.09191C160.61154 101.748764 159.26839 103.09191 157.61154 103.09191C155.95468 103.09191 154.61154 101.748764 154.61154 100.09191C154.61154 98.43505 155.95468 97.09191 157.61154 97.09191C159.26839 97.09191 160.61154 98.43505 160.61154 100.09191Z" fill-rule="nonzero"/><path fill="#000000" fill-opacity="0.0" clip-path="url(#id_0)" d="M170.24423 102.87956C170.24423 104.536415 168.9011 105.87956 167.24423 105.87956C165.58737 105.87956 164.24423 104.536415 164.24423 102.87956C164.24423 101.22271 165.58737 99.87956 167.24423 99.87956C168.9011 99.87956 170.24423 101.22271 170.24423 102.87956Z" fill-rule="nonzero"/><path fill="#000000" fill-opacity="0.0" clip-path="url(#id_0)" d="M179.87692 103.34417C179.87692 105.00103 178.53378 106.34417 176.87692 106.34417C175.22006 106.34417 173.87692 105.00103 173.87692 103.34417C173.87692 101.68732 175.22006 100.34417 176.87692 100.34417C178.53378 100.34417 179.87692 101.68732 179.87692 103.34417Z" fill-rule="nonzero"/><path fill="#000000" fill-opacity="0.0" clip-path="url(#id_0)" d="M189.50961 109.384094C189.50961 111.04095 188.16647 112.384094 186.50961 112.384094C184.85277 112.384094 183.50961 111.04095 183.50961 109.384094C183.50961 107.72724 184.85277 106.384094 186.50961 106.384094C188.16647 106.384094 189.50961 107.72724 189.50961 109.384094Z" fill-rule="nonzero"/><path fill="#000000" d="M317.92188 349.45L315.64062 340.85626L316.8125 340.85626L318.125 346.4969Q318.32812 347.3719 318.48438 348.2469Q318.8125 346.8719 318.875 346.65314L320.5 340.85626L321.875 340.85626L323.10938 345.2Q323.5625 346.825 323.78125 348.2469Q323.9375 347.4344 324.20312 346.3719L325.54688 340.85626L326.6875 340.85626L324.34375 349.45L323.23438 349.45L321.4375 342.90314Q321.20312 342.09064 321.15625 341.90314Q321.03125 342.48126 320.90625 342.90314L319.09375 349.45L317.92188 349.45ZM331.54688 347.45L332.64062 347.575Q332.39062 348.52814 331.6875 349.0594Q330.98438 349.59064 329.90625 349.59064Q328.54688 349.59064 327.73438 348.7469Q326.9375 347.90314 326.9375 346.3875Q326.9375 344.825 327.75 343.96564Q328.5625 343.09064 329.84375 343.09064Q331.09375 343.09064 331.875 343.9344Q332.67188 344.77814 332.67188 346.325Q332.67188 346.41876 332.67188 346.60626L328.03125 346.60626Q328.09375 347.6375 328.60938 348.1844Q329.125 348.71564 329.90625 348.71564Q330.48438 348.71564 330.89062 348.41876Q331.3125 348.10626 331.54688 347.45ZM328.09375 345.7469L331.5625 345.7469Q331.5 344.95 331.17188 344.5594Q330.65625 343.95 329.85938 343.95Q329.125 343.95 328.625 344.4344Q328.14062 344.91876 328.09375 345.7469ZM338.54688 347.45L339.64062 347.575Q339.39062 348.52814 338.6875 349.0594Q337.98438 349.59064 336.90625 349.59064Q335.54688 349.59064 334.73438 348.7469Q333.9375 347.90314 333.9375 346.3875Q333.9375 344.825 334.75 343.96564Q335.5625 343.09064 336.84375 343.09064Q338.09375 343.09064 338.875 343.9344Q339.67188 344.77814 339.67188 346.325Q339.67188 346.41876 339.67188 346.60626L335.03125 346.60626Q335.09375 347.6375 335.60938 348.1844Q336.125 348.71564 336.90625 348.71564Q337.48438 348.71564 337.89062 348.41876Q338.3125 348.10626 338.54688 347.45ZM335.09375 345.7469L338.5625 345.7469Q338.5 344.95 338.17188 344.5594Q337.65625 343.95 336.85938 343.95Q336.125 343.95 335.625 344.4344Q335.14062 344.91876 335.09375 345.7469ZM341.29688 349.45L341.29688 340.85626L342.35938 340.85626L342.35938 345.7625L344.84375 343.23126L346.21875 343.23126L343.82812 345.52814L346.45312 349.45L345.15625 349.45L343.09375 346.2625L342.35938 346.98126L342.35938 349.45L341.29688 349.45Z" fill-rule="nonzero"/><path fill="#000000" d="M29.550013 178.625L20.956263 178.625L20.956263 175.39062Q20.956263 174.40625 21.221888 173.8125Q21.487513 173.21875 22.034388 172.89062Q22.565638 172.54688 23.159388 172.54688Q23.706263 172.54688 24.190638 172.84375Q24.675013 173.14062 24.971888 173.75Q25.206263 172.96875 25.768763 172.5625Q26.315638 172.14062 27.065638 172.14062Q27.659388 172.14062 28.190638 172.39062Q28.706263 172.64062 28.987513 173.01562Q29.268763 173.39062 29.409388 173.96875Q29.550013 174.53125 29.550013 175.34375L29.550013 178.625ZM24.565638 177.48438L24.565638 175.625Q24.565638 174.875 24.471888 174.54688Q24.346888 174.10938 24.050013 173.89062Q23.737513 173.67188 23.284388 173.67188Q22.862513 173.67188 22.534388 173.875Q22.206263 174.07812 22.096888 174.46875Q21.971888 174.84375 21.971888 175.76562L21.971888 177.48438L24.565638 177.48438ZM28.534388 177.48438L28.534388 175.34375Q28.534388 174.79688 28.487513 174.57812Q28.425013 174.17188 28.268763 173.92188Q28.096888 173.65625 27.784388 173.48438Q27.471888 173.3125 27.065638 173.3125Q26.581263 173.3125 26.221888 173.5625Q25.862513 173.79688 25.721888 174.23438Q25.581263 174.67188 25.581263 175.5L25.581263 177.48438L28.534388 177.48438ZM29.550013 170.60938L20.956263 170.60938L20.956263 168.89062L27.034388 166.85938Q27.893763 166.57812 28.315638 166.45312Q27.846888 166.3125 26.940638 166.0L20.956263 163.9375L20.956263 162.40625L29.550013 162.40625L29.550013 163.5L22.362513 163.5L29.550013 166.0L29.550013 167.03125L22.237513 169.51562L29.550013 169.51562L29.550013 170.60938ZM29.550013 161.375L20.956263 161.375L20.956263 160.25L29.550013 160.25L29.550013 161.375Z" fill-rule="nonzero"/><path fill="#000000" d="M55.01875 304.45L53.971874 304.45L53.971874 297.73126Q53.58125 298.09064 52.95625 298.46564Q52.346874 298.825 51.8625 298.9969L51.8625 297.98126Q52.7375 297.5594 53.39375 296.98126Q54.065624 296.3875 54.346874 295.825L55.01875 295.825L55.01875 304.45ZM58.05 302.2L59.159374 302.10626Q59.284374 302.91876 59.721874 303.325Q60.175 303.73126 60.815624 303.73126Q61.565624 303.73126 62.096874 303.15314Q62.628124 302.575 62.628124 301.6375Q62.628124 300.73126 62.1125 300.21564Q61.6125 299.6844 60.784374 299.6844Q60.284374 299.6844 59.8625 299.91876Q59.45625 300.15314 59.221874 300.5125L58.2375 300.3875L59.065624 295.98126L63.346874 295.98126L63.346874 296.98126L59.909374 296.98126L59.45625 299.29376Q60.221874 298.7469 61.065624 298.7469Q62.190624 298.7469 62.95625 299.52814Q63.7375 300.3094 63.7375 301.54376Q63.7375 302.7 63.065624 303.5594Q62.2375 304.59064 60.815624 304.59064Q59.64375 304.59064 58.89375 303.9344Q58.159374 303.27814 58.05 302.2ZM65.64375 304.45L65.64375 303.2469L66.84688 303.2469L66.84688 304.45L65.64375 304.45ZM68.05 300.21564Q68.05 298.6844 68.3625 297.7625Q68.675 296.825 69.28438 296.325Q69.90938 295.825 70.84688 295.825Q71.53438 295.825 72.05 296.10626Q72.58125 296.3875 72.925 296.91876Q73.26875 297.4344 73.45625 298.1844Q73.64375 298.9344 73.64375 300.21564Q73.64375 301.73126 73.33125 302.65314Q73.03438 303.575 72.40938 304.09064Q71.8 304.59064 70.84688 304.59064Q69.6125 304.59064 68.89375 303.7Q68.05 302.6375 68.05 300.21564ZM69.12813 300.21564Q69.12813 302.325 69.62813 303.02814Q70.12813 303.73126 70.84688 303.73126Q71.58125 303.73126 72.06563 303.02814Q72.56563 302.325 72.56563 300.21564Q72.56563 298.09064 72.06563 297.40314Q71.58125 296.7 70.83125 296.7Q70.1125 296.7 69.675 297.3094Q69.12813 298.09064 69.12813 300.21564Z" fill-rule="nonzero"/><path fill="#000000" d="M56.596874 234.70938L56.596874 235.725L50.909374 235.725Q50.909374 235.35 51.034374 234.99063Q51.253124 234.4125 51.721874 233.85Q52.20625 233.2875 53.1125 232.55313Q54.51875 231.39688 55.003124 230.725Q55.503124 230.05313 55.503124 229.45938Q55.503124 228.83438 55.05 228.4125Q54.596874 227.975 53.878124 227.975Q53.1125 227.975 52.659374 228.42813Q52.20625 228.88126 52.190624 229.69376L51.1125 229.58438Q51.221874 228.36563 51.940624 227.74063Q52.675 227.1 53.909374 227.1Q55.14375 227.1 55.8625 227.7875Q56.58125 228.475 56.58125 229.49063Q56.58125 230.00626 56.3625 230.50626Q56.159374 230.99063 55.659374 231.55313Q55.175 232.1 54.05 233.05313Q53.096874 233.85 52.815624 234.14688Q52.55 234.42813 52.378124 234.70938L56.596874 234.70938ZM58.05 231.49063Q58.05 229.95938 58.3625 229.0375Q58.675 228.1 59.284374 227.6Q59.909374 227.1 60.846874 227.1Q61.534374 227.1 62.05 227.38126Q62.58125 227.6625 62.925 228.19376Q63.26875 228.70938 63.45625 229.45938Q63.64375 230.20938 63.64375 231.49063Q63.64375 233.00626 63.33125 233.92813Q63.034374 234.85 62.409374 235.36563Q61.8 235.86563 60.846874 235.86563Q59.6125 235.86563 58.89375 234.975Q58.05 233.9125 58.05 231.49063ZM59.128124 231.49063Q59.128124 233.6 59.628124 234.30313Q60.128124 235.00626 60.846874 235.00626Q61.58125 235.00626 62.065624 234.30313Q62.565624 233.6 62.565624 231.49063Q62.565624 229.36563 62.065624 228.67813Q61.58125 227.975 60.83125 227.975Q60.1125 227.975 59.675 228.58438Q59.128124 229.36563 59.128124 231.49063ZM65.64375 235.725L65.64375 234.52188L66.84688 234.52188L66.84688 235.725L65.64375 235.725ZM68.05 231.49063Q68.05 229.95938 68.3625 229.0375Q68.675 228.1 69.28438 227.6Q69.90938 227.1 70.84688 227.1Q71.53438 227.1 72.05 227.38126Q72.58125 227.6625 72.925 228.19376Q73.26875 228.70938 73.45625 229.45938Q73.64375 230.20938 73.64375 231.49063Q73.64375 233.00626 73.33125 233.92813Q73.03438 234.85 72.40938 235.36563Q71.8 235.86563 70.84688 235.86563Q69.6125 235.86563 68.89375 234.975Q68.05 233.9125 68.05 231.49063ZM69.12813 231.49063Q69.12813 233.6 69.62813 234.30313Q70.12813 235.00626 70.84688 235.00626Q71.58125 235.00626 72.06563 234.30313Q72.56563 233.6 72.56563 231.49063Q72.56563 229.36563 72.06563 228.67813Q71.58125 227.975 70.83125 227.975Q70.1125 227.975 69.675 228.58438Q69.12813 229.36563 69.12813 231.49063Z" fill-rule="nonzero"/><path fill="#000000" d="M56.596874 165.98438L56.596874 167.0L50.909374 167.0Q50.909374 166.625 51.034374 166.26562Q51.253124 165.6875 51.721874 165.125Q52.20625 164.5625 53.1125 163.82812Q54.51875 162.67188 55.003124 162.0Q55.503124 161.32812 55.503124 160.73438Q55.503124 160.10938 55.05 159.6875Q54.596874 159.25 53.878124 159.25Q53.1125 159.25 52.659374 159.70312Q52.20625 160.15625 52.190624 160.96875L51.1125 160.85938Q51.221874 159.64062 51.940624 159.01562Q52.675 158.375 53.909374 158.375Q55.14375 158.375 55.8625 159.0625Q56.58125 159.75 56.58125 160.76562Q56.58125 161.28125 56.3625 161.78125Q56.159374 162.26562 55.659374 162.82812Q55.175 163.375 54.05 164.32812Q53.096874 165.125 52.815624 165.42188Q52.55 165.70312 52.378124 165.98438L56.596874 165.98438ZM58.05 164.75L59.159374 164.65625Q59.284374 165.46875 59.721874 165.875Q60.175 166.28125 60.815624 166.28125Q61.565624 166.28125 62.096874 165.70312Q62.628124 165.125 62.628124 164.1875Q62.628124 163.28125 62.1125 162.76562Q61.6125 162.23438 60.784374 162.23438Q60.284374 162.23438 59.8625 162.46875Q59.45625 162.70312 59.221874 163.0625L58.2375 162.9375L59.065624 158.53125L63.346874 158.53125L63.346874 159.53125L59.909374 159.53125L59.45625 161.84375Q60.221874 161.29688 61.065624 161.29688Q62.190624 161.29688 62.95625 162.07812Q63.7375 162.85938 63.7375 164.09375Q63.7375 165.25 63.065624 166.10938Q62.2375 167.14062 60.815624 167.14062Q59.64375 167.14062 58.89375 166.48438Q58.159374 165.82812 58.05 164.75ZM65.64375 167.0L65.64375 165.79688L66.84688 165.79688L66.84688 167.0L65.64375 167.0ZM68.05 162.76562Q68.05 161.23438 68.3625 160.3125Q68.675 159.375 69.28438 158.875Q69.90938 158.375 70.84688 158.375Q71.53438 158.375 72.05 158.65625Q72.58125 158.9375 72.925 159.46875Q73.26875 159.98438 73.45625 160.73438Q73.64375 161.48438 73.64375 162.76562Q73.64375 164.28125 73.33125 165.20312Q73.03438 166.125 72.40938 166.64062Q71.8 167.14062 70.84688 167.14062Q69.6125 167.14062 68.89375 166.25Q68.05 165.1875 68.05 162.76562ZM69.12813 162.76562Q69.12813 164.875 69.62813 165.57812Q70.12813 166.28125 70.84688 166.28125Q71.58125 166.28125 72.06563 165.57812Q72.56563 164.875 72.56563 162.76562Q72.56563 160.64062 72.06563 159.95312Q71.58125 159.25 70.83125 159.25Q70.1125 159.25 69.675 159.85938Q69.12813 160.64062 69.12813 162.76562Z" fill-rule="nonzero"/><path fill="#000000" d="M51.05 96.00938L52.1125 95.86875Q52.284374 96.75938 52.721874 97.16563Q53.159374 97.55625 53.784374 97.55625Q54.534374 97.55625 55.05 97.04063Q55.565624 96.525 55.565624 95.75938Q55.565624 95.04063 55.08125 94.57188Q54.6125 94.0875 53.878124 94.0875Q53.58125 94.0875 53.128124 94.2125L53.253124 93.275Q53.3625 93.29063 53.425 93.29063Q54.096874 93.29063 54.628124 92.94688Q55.175 92.5875 55.175 91.85313Q55.175 91.275 54.784374 90.9Q54.39375 90.50938 53.76875 90.50938Q53.159374 90.50938 52.7375 90.9Q52.33125 91.29063 52.221874 92.05625L51.159374 91.86875Q51.346874 90.82188 52.034374 90.24375Q52.721874 89.65 53.7375 89.65Q54.440624 89.65 55.034374 89.9625Q55.628124 90.25938 55.940624 90.775Q56.253124 91.29063 56.253124 91.88438Q56.253124 92.43125 55.95625 92.9Q55.659374 93.35313 55.08125 93.61875Q55.83125 93.79063 56.253124 94.35313Q56.675 94.9 56.675 95.74375Q56.675 96.86875 55.846874 97.65Q55.034374 98.43125 53.784374 98.43125Q52.659374 98.43125 51.909374 97.75938Q51.159374 97.07188 51.05 96.00938ZM58.05 94.04063Q58.05 92.50938 58.3625 91.5875Q58.675 90.65 59.284374 90.15Q59.909374 89.65 60.846874 89.65Q61.534374 89.65 62.05 89.93125Q62.58125 90.2125 62.925 90.74375Q63.26875 91.25938 63.45625 92.00938Q63.64375 92.75938 63.64375 94.04063Q63.64375 95.55625 63.33125 96.47813Q63.034374 97.4 62.409374 97.91563Q61.8 98.41563 60.846874 98.41563Q59.6125 98.41563 58.89375 97.525Q58.05 96.4625 58.05 94.04063ZM59.128124 94.04063Q59.128124 96.15 59.628124 96.85313Q60.128124 97.55625 60.846874 97.55625Q61.58125 97.55625 62.065624 96.85313Q62.565624 96.15 62.565624 94.04063Q62.565624 91.91563 62.065624 91.22813Q61.58125 90.525 60.83125 90.525Q60.1125 90.525 59.675 91.13438Q59.128124 91.91563 59.128124 94.04063ZM65.64375 98.275L65.64375 97.07188L66.84688 97.07188L66.84688 98.275L65.64375 98.275ZM68.05 94.04063Q68.05 92.50938 68.3625 91.5875Q68.675 90.65 69.28438 90.15Q69.90938 89.65 70.84688 89.65Q71.53438 89.65 72.05 89.93125Q72.58125 90.2125 72.925 90.74375Q73.26875 91.25938 73.45625 92.00938Q73.64375 92.75938 73.64375 94.04063Q73.64375 95.55625 73.33125 96.47813Q73.03438 97.4 72.40938 97.91563Q71.8 98.41563 70.84688 98.41563Q69.6125 98.41563 68.89375 97.525Q68.05 96.4625 68.05 94.04063ZM69.12813 94.04063Q69.12813 96.15 69.62813 96.85313Q70.12813 97.55625 70.84688 97.55625Q71.58125 97.55625 72.06563 96.85313Q72.56563 96.15 72.56563 94.04063Q72.56563 91.91563 72.06563 91.22813Q71.58125 90.525 70.83125 90.525Q70.1125 90.525 69.675 91.13438Q69.12813 91.91563 69.12813 94.04063Z" fill-rule="nonzero"/><path fill="#000000" d="M51.05 27.284374L52.1125 27.14375Q52.284374 28.034374 52.721874 28.440624Q53.159374 28.83125 53.784374 28.83125Q54.534374 28.83125 55.05 28.315624Q55.565624 27.8 55.565624 27.034374Q55.565624 26.315624 55.08125 25.846874Q54.6125 25.3625 53.878124 25.3625Q53.58125 25.3625 53.128124 25.4875L53.253124 24.55Q53.3625 24.565624 53.425 24.565624Q54.096874 24.565624 54.628124 24.221874Q55.175 23.8625 55.175 23.128124Q55.175 22.55 54.784374 22.175Q54.39375 21.784374 53.76875 21.784374Q53.159374 21.784374 52.7375 22.175Q52.33125 22.565624 52.221874 23.33125L51.159374 23.14375Q51.346874 22.096874 52.034374 21.51875Q52.721874 20.925 53.7375 20.925Q54.440624 20.925 55.034374 21.2375Q55.628124 21.534374 55.940624 22.05Q56.253124 22.565624 56.253124 23.159374Q56.253124 23.70625 55.95625 24.175Q55.659374 24.628124 55.08125 24.89375Q55.83125 25.065624 56.253124 25.628124Q56.675 26.175 56.675 27.01875Q56.675 28.14375 55.846874 28.925Q55.034374 29.70625 53.784374 29.70625Q52.659374 29.70625 51.909374 29.034374Q51.159374 28.346874 51.05 27.284374ZM58.05 27.3L59.159374 27.20625Q59.284374 28.01875 59.721874 28.425Q60.175 28.83125 60.815624 28.83125Q61.565624 28.83125 62.096874 28.253124Q62.628124 27.675 62.628124 26.7375Q62.628124 25.83125 62.1125 25.315624Q61.6125 24.784374 60.784374 24.784374Q60.284374 24.784374 59.8625 25.01875Q59.45625 25.253124 59.221874 25.6125L58.2375 25.4875L59.065624 21.08125L63.346874 21.08125L63.346874 22.08125L59.909374 22.08125L59.45625 24.39375Q60.221874 23.846874 61.065624 23.846874Q62.190624 23.846874 62.95625 24.628124Q63.7375 25.409374 63.7375 26.64375Q63.7375 27.8 63.065624 28.659374Q62.2375 29.690624 60.815624 29.690624Q59.64375 29.690624 58.89375 29.034374Q58.159374 28.378124 58.05 27.3ZM65.64375 29.55L65.64375 28.346874L66.84688 28.346874L66.84688 29.55L65.64375 29.55ZM68.05 25.315624Q68.05 23.784374 68.3625 22.8625Q68.675 21.925 69.28438 21.425Q69.90938 20.925 70.84688 20.925Q71.53438 20.925 72.05 21.20625Q72.58125 21.4875 72.925 22.01875Q73.26875 22.534374 73.45625 23.284374Q73.64375 24.034374 73.64375 25.315624Q73.64375 26.83125 73.33125 27.753124Q73.03438 28.675 72.40938 29.190624Q71.8 29.690624 70.84688 29.690624Q69.6125 29.690624 68.89375 28.8Q68.05 27.7375 68.05 25.315624ZM69.12813 25.315624Q69.12813 27.425 69.62813 28.128124Q70.12813 28.83125 70.84688 28.83125Q71.58125 28.83125 72.06563 28.128124Q72.56563 27.425 72.56563 25.315624Q72.56563 23.190624 72.06563 22.503124Q71.58125 21.8 70.83125 21.8Q70.1125 21.8 69.675 22.409374Q69.12813 23.190624 69.12813 25.315624Z" fill-rule="nonzero"/><path fill="#000000" d="M77.55 313.21564Q77.55 311.6844 77.8625 310.7625Q78.175 309.825 78.78438 309.325Q79.40938 308.825 80.34688 308.825Q81.03438 308.825 81.55 309.10626Q82.08125 309.3875 82.425 309.91876Q82.76875 310.4344 82.95625 311.1844Q83.14375 311.9344 83.14375 313.21564Q83.14375 314.73126 82.83125 315.65314Q82.53438 316.575 81.90938 317.09064Q81.3 317.59064 80.34688 317.59064Q79.1125 317.59064 78.39375 316.7Q77.55 315.6375 77.55 313.21564ZM78.62813 313.21564Q78.62813 315.325 79.12813 316.02814Q79.62813 316.73126 80.34688 316.73126Q81.08125 316.73126 81.56563 316.02814Q82.06563 315.325 82.06563 313.21564Q82.06563 311.09064 81.56563 310.40314Q81.08125 309.7 80.33125 309.7Q79.6125 309.7 79.175 310.3094Q78.62813 311.09064 78.62813 313.21564Z" fill-rule="nonzero"/><path fill="#000000" d="M174.34567 317.45L173.2988 317.45L173.2988 310.73126Q172.90817 311.09064 172.28317 311.46564Q171.6738 311.825 171.18942 311.9969L171.18942 310.98126Q172.06442 310.5594 172.72067 309.98126Q173.39255 309.3875 173.6738 308.825L174.34567 308.825L174.34567 317.45ZM177.37692 313.21564Q177.37692 311.6844 177.68942 310.7625Q178.00192 309.825 178.6113 309.325Q179.2363 308.825 180.1738 308.825Q180.8613 308.825 181.37692 309.10626Q181.90817 309.3875 182.25192 309.91876Q182.59567 310.4344 182.78317 311.1844Q182.97067 311.9344 182.97067 313.21564Q182.97067 314.73126 182.65817 315.65314Q182.3613 316.575 181.7363 317.09064Q181.12692 317.59064 180.1738 317.59064Q178.93942 317.59064 178.22067 316.7Q177.37692 315.6375 177.37692 313.21564ZM178.45505 313.21564Q178.45505 315.325 178.95505 316.02814Q179.45505 316.73126 180.1738 316.73126Q180.90817 316.73126 181.39255 316.02814Q181.89255 315.325 181.89255 313.21564Q181.89255 311.09064 181.39255 310.40314Q180.90817 309.7 180.15817 309.7Q179.43942 309.7 179.00192 310.3094Q178.45505 311.09064 178.45505 313.21564Z" fill-rule="nonzero"/><path fill="#000000" d="M272.25073 316.4344L272.25073 317.45L266.56323 317.45Q266.56323 317.075 266.68823 316.71564Q266.90698 316.1375 267.37573 315.575Q267.8601 315.0125 268.76636 314.27814Q270.1726 313.1219 270.65698 312.45Q271.15698 311.77814 271.15698 311.1844Q271.15698 310.5594 270.70386 310.1375Q270.25073 309.7 269.53198 309.7Q268.76636 309.7 268.31323 310.15314Q267.8601 310.60626 267.84448 311.41876L266.76636 311.3094Q266.87573 310.09064 267.59448 309.46564Q268.32886 308.825 269.56323 308.825Q270.7976 308.825 271.51636 309.5125Q272.2351 310.2 272.2351 311.21564Q272.2351 311.73126 272.01636 312.23126Q271.81323 312.71564 271.31323 313.27814Q270.82886 313.825 269.70386 314.77814Q268.75073 315.575 268.46948 315.8719Q268.20386 316.15314 268.03198 316.4344L272.25073 316.4344ZM273.70386 313.21564Q273.70386 311.6844 274.01636 310.7625Q274.32886 309.825 274.93823 309.325Q275.56323 308.825 276.50073 308.825Q277.18823 308.825 277.70386 309.10626Q278.2351 309.3875 278.57886 309.91876Q278.9226 310.4344 279.1101 311.1844Q279.2976 311.9344 279.2976 313.21564Q279.2976 314.73126 278.9851 315.65314Q278.68823 316.575 278.06323 317.09064Q277.45386 317.59064 276.50073 317.59064Q275.26636 317.59064 274.5476 316.7Q273.70386 315.6375 273.70386 313.21564ZM274.78198 313.21564Q274.78198 315.325 275.28198 316.02814Q275.78198 316.73126 276.50073 316.73126Q277.2351 316.73126 277.71948 316.02814Q278.21948 315.325 278.21948 313.21564Q278.21948 311.09064 277.71948 310.40314Q277.2351 309.7 276.4851 309.7Q275.76636 309.7 275.32886 310.3094Q274.78198 311.09064 274.78198 313.21564Z" fill-rule="nonzero"/><path fill="#000000" d="M363.03076 315.1844L364.09326 315.04376Q364.26514 315.9344 364.70264 316.34064Q365.14014 316.73126 365.76514 316.73126Q366.51514 316.73126 367.03076 316.21564Q367.5464 315.7 367.5464 314.9344Q367.5464 314.21564 367.062 313.7469Q366.59326 313.2625 365.8589 313.2625Q365.562 313.2625 365.1089 313.3875L365.2339 312.45Q365.34326 312.46564 365.40576 312.46564Q366.07764 312.46564 366.6089 312.1219Q367.15576 311.7625 367.15576 311.02814Q367.15576 310.45 366.76514 310.075Q366.3745 309.6844 365.7495 309.6844Q365.14014 309.6844 364.71826 310.075Q364.312 310.46564 364.20264 311.23126L363.14014 311.04376Q363.32764 309.9969 364.01514 309.41876Q364.70264 308.825 365.71826 308.825Q366.4214 308.825 367.01514 309.1375Q367.6089 309.4344 367.9214 309.95Q368.2339 310.46564 368.2339 311.0594Q368.2339 311.60626 367.937 312.075Q367.64014 312.52814 367.062 312.79376Q367.812 312.96564 368.2339 313.52814Q368.65576 314.075 368.65576 314.91876Q368.65576 316.04376 367.82764 316.825Q367.01514 317.60626 365.76514 317.60626Q364.64014 317.60626 363.89014 316.9344Q363.14014 316.2469 363.03076 315.1844ZM370.03076 313.21564Q370.03076 311.6844 370.34326 310.7625Q370.65576 309.825 371.26514 309.325Q371.89014 308.825 372.82764 308.825Q373.51514 308.825 374.03076 309.10626Q374.562 309.3875 374.90576 309.91876Q375.2495 310.4344 375.437 311.1844Q375.6245 311.9344 375.6245 313.21564Q375.6245 314.73126 375.312 315.65314Q375.01514 316.575 374.39014 317.09064Q373.78076 317.59064 372.82764 317.59064Q371.59326 317.59064 370.8745 316.7Q370.03076 315.6375 370.03076 313.21564ZM371.1089 313.21564Q371.1089 315.325 371.6089 316.02814Q372.1089 316.73126 372.82764 316.73126Q373.562 316.73126 374.0464 316.02814Q374.5464 315.325 374.5464 313.21564Q374.5464 311.09064 374.0464 310.40314Q373.562 309.7 372.812 309.7Q372.09326 309.7 371.65576 310.3094Q371.1089 311.09064 371.1089 313.21564Z" fill-rule="nonzero"/><path fill="#000000" d="M462.7327 317.45L462.7327 315.3875L459.01395 315.3875L459.01395 314.41876L462.93582 308.85626L463.7952 308.85626L463.7952 314.41876L464.95145 314.41876L464.95145 315.3875L463.7952 315.3875L463.7952 317.45L462.7327 317.45ZM462.7327 314.41876L462.7327 310.5594L460.0452 314.41876L462.7327 314.41876ZM466.3577 313.21564Q466.3577 311.6844 466.6702 310.7625Q466.9827 309.825 467.59207 309.325Q468.21707 308.825 469.15457 308.825Q469.84207 308.825 470.3577 309.10626Q470.88895 309.3875 471.2327 309.91876Q471.57645 310.4344 471.76395 311.1844Q471.95145 311.9344 471.95145 313.21564Q471.95145 314.73126 471.63895 315.65314Q471.34207 316.575 470.71707 317.09064Q470.1077 317.59064 469.15457 317.59064Q467.9202 317.59064 467.20145 316.7Q466.3577 315.6375 466.3577 313.21564ZM467.43582 313.21564Q467.43582 315.325 467.93582 316.02814Q468.43582 316.73126 469.15457 316.73126Q469.88895 316.73126 470.37332 316.02814Q470.87332 315.325 470.87332 313.21564Q470.87332 311.09064 470.37332 310.40314Q469.88895 309.7 469.13895 309.7Q468.4202 309.7 467.9827 310.3094Q467.43582 311.09064 467.43582 313.21564Z" fill-rule="nonzero"/><path fill="#000000" d="M555.68463 315.2L556.794 315.10626Q556.919 315.91876 557.3565 316.325Q557.80963 316.73126 558.45026 316.73126Q559.20026 316.73126 559.7315 316.15314Q560.26276 315.575 560.26276 314.6375Q560.26276 313.73126 559.74713 313.21564Q559.24713 312.6844 558.419 312.6844Q557.919 312.6844 557.49713 312.91876Q557.0909 313.15314 556.8565 313.5125L555.87213 313.3875L556.70026 308.98126L560.9815 308.98126L560.9815 309.98126L557.544 309.98126L557.0909 312.29376Q557.8565 311.7469 558.70026 311.7469Q559.82526 311.7469 560.5909 312.52814Q561.37213 313.3094 561.37213 314.54376Q561.37213 315.7 560.70026 316.5594Q559.87213 317.59064 558.45026 317.59064Q557.2784 317.59064 556.5284 316.9344Q555.794 316.27814 555.68463 315.2ZM562.68463 313.21564Q562.68463 311.6844 562.99713 310.7625Q563.30963 309.825 563.919 309.325Q564.544 308.825 565.4815 308.825Q566.169 308.825 566.68463 309.10626Q567.2159 309.3875 567.55963 309.91876Q567.9034 310.4344 568.0909 311.1844Q568.2784 311.9344 568.2784 313.21564Q568.2784 314.73126 567.9659 315.65314Q567.669 316.575 567.044 317.09064Q566.43463 317.59064 565.4815 317.59064Q564.24713 317.59064 563.5284 316.7Q562.68463 315.6375 562.68463 313.21564ZM563.76276 313.21564Q563.76276 315.325 564.26276 316.02814Q564.76276 316.73126 565.4815 316.73126Q566.2159 316.73126 566.70026 316.02814Q567.20026 315.325 567.20026 313.21564Q567.20026 311.09064 566.70026 310.40314Q566.2159 309.7 565.4659 309.7Q564.74713 309.7 564.30963 310.3094Q563.76276 311.09064 563.76276 313.21564Z" fill-rule="nonzero"/></svg>