<svg version="1.1" viewBox="0.0 0.0 600.0 371.0" fill="none" stroke="none" stroke-linecap="square" stroke-miterlimit="10" width="600" height="371" xmlns:xlink="http://www.w3.org/1999/xlink" xmlns="http://www.w3.org/2000/svg"><path fill="#ffffff" d="M0 0L600.0 0L600.0 371.0L0 371.0L0 0Z" fill-rule="nonzero"/><path stroke="#333333" stroke-width="1.0" stroke-linecap="butt" d="M80.5 25.5L80.5 300.5" fill-rule="nonzero"/><path stroke="#cccccc" stroke-width="1.0" stroke-linecap="butt" d="M176.5 25.5L176.5 300.5" fill-rule="nonzero"/><path stroke="#cccccc" stroke-width="1.0" stroke-linecap="butt" d="M273.5 25.5L273.5 300.5" fill-rule="nonzero"/><path stroke="#cccccc" stroke-width="1.0" stroke-linecap="butt" d="M369.5 25.5L369.5 300.5" fill-rule="nonzero"/><path stroke="#cccccc" stroke-width="1.0" stroke-linecap="butt" d="M465.5 25.5L465.5 300.5" fill-rule="nonzero"/><path stroke="#cccccc" stroke-width="1.0" stroke-linecap="butt" d="M562.5 25.5L562.5 300.5" fill-rule="nonzero"/><path stroke="#cccccc" stroke-width="1.0" stroke-linecap="butt" d="M80.5 300.5L581.5 300.5" fill-rule="nonzero"/><path stroke="#cccccc" stroke-width="1.0" stroke-linecap="butt" d="M80.5 231.5L581.5 231.5" fill-rule="nonzero"/><path stroke="#cccccc" stroke-width="1.0" stroke-linecap="butt" d="M80.5 163.5L581.5 163.5" fill-rule="nonzero"/><path stroke="#cccccc" stroke-width="1.0" stroke-linecap="butt" d="M80.5 94.5L581.5 94.5" fill-rule="nonzero"/><path stroke="#cccccc" stroke-width="1.0" stroke-linecap="butt" d="M80.5 25.5L581.5 25.5" fill-rule="nonzero"/><clipPath id="id_0"><path d="M80.55 25.55L581.45 25.55L581.45 300.45L80.55 300.45L80.55 25.55Z" clip-rule="nonzero"/></clipPath><path stroke="#4285f4" stroke-width="2.0" stroke-linecap="butt" clip-path="url(#id_0)" d="M80.55 68.03387L90.18269 70.821526L99.815384 74.07379L109.448074 79.6491L119.08077 86.61824L128.71346 92.65816L138.34616 91.72894L147.97885 93.58738L157.61154 100.09191L167.24423 102.87956" fill-rule="nonzero"/><path stroke="#4285f4" stroke-width="2.0" stroke-linecap="butt" stroke-opacity="0.4" clip-path="url(#id_0)" d="M0 31.597399C0 31.597399 2.6666667 32.843773 4.0 33.465122C5.3333335 34.08647 6.6666665 34.706593 8.0 35.3255C9.333333 35.94441 10.666667 36.56209 12.0 37.178566C13.333333 37.79504 14.666667 38.410294 16.0 39.024345C17.333334 39.638393 18.666666 40.251232 20.0 40.862865C21.333334 41.474503 22.666666 42.084927 24.0 42.69416C25.333334 43.30339 26.666666 43.911415 28.0 44.518253C29.333334 45.125088 30.666666 45.730724 32.0 46.33517C33.333332 46.93962 34.666668 47.542877 36.0 48.144947C37.333332 48.74702 38.666668 49.347904 40.0 49.94761C41.333332 50.547318 42.666668 51.145836 44.0 51.743183C45.333332 52.34053 46.666668 52.9367 48.0 53.531696C49.333332 54.126694 50.666668 54.720516 52.0 55.31318C53.333332 55.905838 54.666668 56.497326 56.0 57.087654C57.333332 57.677982 58.666668 58.267147 60.0 58.855156C61.333332 59.44316 62.666668 60.03001 64.0 60.615704C65.333336 61.2014 66.666664 61.78594 68.0 62.36933C69.333336 62.95273 70.666664 63.534966 72.0 64.116066C73.333336 64.69717 74.666664 65.277115 76.0 65.855934C77.333336 66.434746 78.666664 67.01242 80.0 67.58896C81.333336 68.1655 82.666664 68.7409 84.0 69.31517C85.333336 69.88944 86.666664 70.46258 88.0 71.03459C89.333336 71.606606 90.666664 72.17749 92.0 72.74725C93.333336 73.31702 94.666664 73.88566 96.0 74.453186C97.333336 75.020706 98.666664 75.58711 100.0 76.152405C101.333336 76.7177 102.666664 77.281876 104.0 77.84495C105.333336 78.40801 106.666664 78.96997 108.0 79.53083C109.333336 80.09169 110.666664 80.651436 112.0 81.21009C113.333336 81.76874 114.666664 82.32629 116.0 82.882744C117.333336 83.4392 118.666664 83.99455 120.0 84.54882C121.333336 85.10309 122.666664 85.65626 124.0 86.20835C125.333336 86.76044 126.666664 87.31143 128.0 87.86135C129.33333 88.41127 130.66667 88.9601 132.0 89.50786C133.33333 90.05561 134.66667 90.60228 136.0 91.14788C137.33333 91.69349 138.66667 92.23801 140.0 92.78146C141.33333 93.32492 142.66667 93.8673 144.0 94.40862C145.33333 94.94994 146.66667 95.4902 148.0 96.02938C149.33333 96.56857 150.66667 97.1067 152.0 97.64377C153.33333 98.18084 154.66667 98.71685 156.0 99.251816C157.33333 99.78677 158.66667 100.32067 160.0 100.85353C161.33333 101.38638 162.66667 101.91819 164.0 102.44895C165.33333 102.97971 166.66667 103.50942 168.0 104.0381C169.33333 104.56677 170.66667 105.0944 172.0 105.620995C173.33333 106.14759 174.66667 106.67315 176.0 107.19767C177.33333 107.7222 178.66667 108.24569 180.0 108.76815C181.33333 109.29061 182.66667 109.81204 184.0 110.33245C185.33333 110.85286 186.66667 111.37224 188.0 111.8906C189.33333 112.408966 190.66667 112.9263 192.0 113.44263C193.33333 113.958954 194.66667 114.47425 196.0 114.98855C197.33333 115.502846 198.66667 116.01612 200.0 116.52839C201.33333 117.040665 202.66667 117.551926 204.0 118.06218C205.33333 118.57244 206.66667 119.08169 208.0 119.58994C209.33333 120.09819 210.66667 120.60544 212.0 121.111694C213.33333 121.61794 214.66667 122.1232 216.0 122.627464C217.33333 123.13172 218.66667 123.634995 220.0 124.13727C221.33333 124.63955 222.66667 125.14084 224.0 125.64114C225.33333 126.14145 226.66667 126.64076 228.0 127.13911C229.33333 127.63744 230.66667 128.1348 232.0 128.63118C233.33333 129.12755 234.66667 129.62296 236.0 130.11737C237.33333 130.6118 238.66667 131.10526 240.0 131.59773C241.33333 132.09023 242.66667 132.58173 244.0 133.07228C245.33333 133.56282 246.66667 134.0524 248.0 134.54102C249.33333 135.02963 250.66667 135.51729 252.0 136.00398C253.33333 136.49068 254.66667 136.97643 256.0 137.4612C257.33334 137.94598 258.66666 138.42981 260.0 138.91269C261.33334 139.39557 262.66666 139.87749 264.0 140.35846C265.33334 140.83945 266.66666 141.31947 268.0 141.79855C269.33334 142.27765 270.66666 142.75578 272.0 143.23299C273.33334 143.71019 274.66666 144.18646 276.0 144.66179C277.33334 145.13712 278.66666 145.6115 280.0 146.08496C281.33334 146.55841 282.66666 147.03094 284.0 147.50253C285.33334 147.97414 286.66666 148.4448 288.0 148.91454C289.33334 149.38428 290.66666 149.8531 292.0 150.321C293.33334 150.7889 294.66666 151.25586 296.0 151.72192C297.33334 152.18797 298.66666 152.6531 300.0 153.11732C301.33334 153.58156 302.66666 154.04486 304.0 154.50726C305.33334 154.96967 306.66666 155.43114 308.0 155.89172C309.33334 156.35231 310.66666 156.81198 312.0 157.27075C313.33334 157.7295 314.66666 158.18738 316.0 158.64435C317.33334 159.1013 318.66666 159.55737 320.0 160.01254C321.33334 160.46771 322.66666 160.92198 324.0 161.37535C325.33334 161.82874 326.66666 162.28122 328.0 162.73282C329.33334 163.18442 330.66666 163.63512 332.0 164.08495C333.33334 164.53476 334.66666 164.98369 336.0 165.43175C337.33334 165.87979 338.66666 166.32697 340.0 166.77325C341.33334 167.21954 342.66666 167.66495 344.0 168.1095C345.33334 168.55403 346.66666 168.99768 348.0 169.44048C349.33334 169.88326 350.66666 170.32518 352.0 170.76622C353.33334 171.20728 354.66666 171.64745 356.0 172.08676C357.33334 172.52608 358.66666 172.96452 360.0 173.4021C361.33334 173.83969 362.66666 174.27641 364.0 174.71228C365.33334 175.14815 366.66666 175.58315 368.0 176.01729C369.33334 176.45145 370.66666 176.88474 372.0 177.31718C373.33334 177.74963 374.66666 178.18121 376.0 178.61197C377.33334 179.04271 378.66666 179.4726 380.0 179.90166C381.33334 180.3307 382.66666 180.75891 384.0 181.18626C385.33334 181.61363 386.66666 182.04015 388.0 182.46584C389.33334 182.89153 390.66666 183.31636 392.0 183.74037C393.33334 184.16438 394.66666 184.58755 396.0 185.0099C397.33334 185.43224 398.66666 185.85374 400.0 186.27443C401.33334 186.69511 402.66666 187.11496 404.0 187.534C405.33334 187.95302 406.66666 188.37122 408.0 188.7886C409.33334 189.20598 410.66666 189.62253 412.0 190.03827C413.33334 190.45401 414.66666 190.86893 416.0 191.28304C417.33334 191.69714 418.66666 192.11043 420.0 192.5229C421.33334 192.93538 422.66666 193.34705 424.0 193.75789C425.33334 194.16875 426.66666 194.5788 428.0 194.98804C429.33334 195.39728 430.66666 195.80571 432.0 196.21333C433.33334 196.62096 434.66666 197.02779 436.0 197.43382C437.33334 197.83984 438.66666 198.24507 440.0 198.6495C441.33334 199.05392 442.66666 199.45757 444.0 199.8604C445.33334 200.26324 446.66666 200.66528 448.0 201.06654C449.33334 201.4678 450.66666 201.86827 452.0 202.26794C453.33334 202.66763 454.66666 203.06651 456.0 203.46463C457.33334 203.86273 458.66666 204.26006 460.0 204.6566C461.33334 205.05315 462.66666 205.4489 464.0 205.84389C465.33334 206.23886 466.66666 206.63307 468.0 207.0265C469.33334 207.41994 470.66666 207.81258 472.0 208.20447C473.33334 208.59634 474.66666 208.98746 476.0 209.3778C477.33334 209.76814 478.66666 210.15771 480.0 210.54652C481.33334 210.93533 482.66666 211.32338 484.0 211.71065C485.33334 212.09793 486.66666 212.48445 488.0 212.87021C489.33334 213.25597 490.66666 213.64096 492.0 214.02519C493.33334 214.40944 494.66666 214.79291 496.0 215.17564C497.33334 215.55838 498.66666 215.94034 500.0 216.32156C501.33334 216.70279 502.66666 217.08327 504.0 217.463C505.33334 217.84271 506.66666 218.2217 508.0 218.59993C509.33334 218.97815 510.66666 219.35564 512.0 219.73239C513.3333 220.10913 514.6667 220.48514 516.0 220.8604C517.3333 221.23566 518.6667 221.61018 520.0 221.98398C521.3333 222.35776 522.6667 222.7308 524.0 223.10313C525.3333 223.47545 526.6667 223.84703 528.0 224.21788C529.3333 224.58875 530.6667 224.95886 532.0 225.32826C533.3333 225.69766 534.6667 226.06633 536.0 226.43427C537.3333 226.80222 538.6667 227.16943 540.0 227.53593C541.3333 227.90242 542.6667 228.2682 544.0 228.63326C545.3333 228.9983 546.6667 229.36264 548.0 229.72627C549.3333 230.08989 550.6667 230.45279 552.0 230.81499C553.3333 231.17717 554.6667 231.53865 556.0 231.89941C557.3333 232.2602 558.6667 232.62024 560.0 232.97958C561.3333 233.33894 562.6667 233.69759 564.0 234.05551C565.3333 234.41345 566.6667 234.77068 568.0 235.12721C569.3333 235.48373 570.6667 235.83957 572.0 236.19469C573.3333 236.54982 574.6667 236.90424 576.0 237.25798C577.3333 237.61171 580.0 238.31708 580.0 238.31708" fill-rule="nonzero"/><path fill="#000000" fill-opacity="0.0" clip-path="url(#id_0)" d="M83.55 68.03387C83.55 69.69073 82.206856 71.03387 80.55 71.03387C78.89314 71.03387 77.55 69.69073 77.55 68.03387C77.55 66.377014 78.89314 65.03387 80.55 65.03387C82.206856 65.03387 83.55 66.377014 83.55 68.03387Z" fill-rule="nonzero"/><path fill="#000000" fill-opacity="0.0" clip-path="url(#id_0)" d="M93.18269 70.821526C93.18269 72.47838 91.83955 73.821526 90.18269 73.821526C88.52584 73.821526 87.18269 72.47838 87.18269 70.821526C87.18269 69.16467 88.52584 67.821526 90.18269 67.821526C91.83955 67.821526 93.18269 69.16467 93.18269 70.821526Z" fill-rule="nonzero"/><path fill="#000000" fill-opacity="0.0" clip-path="url(#id_0)" d="M102.815384 74.07379C102.815384 75.730644 101.47224 77.07379 99.815384 77.07379C98.15853 77.07379 96.815384 75.730644 96.815384 74.07379C96.815384 72.41694 98.15853 71.07379 99.815384 71.07379C101.47224 71.07379 102.815384 72.41694 102.815384 74.07379Z" fill-rule="nonzero"/><path fill="#000000" fill-opacity="0.0" clip-path="url(#id_0)" d="M112.448074 79.6491C112.448074 81.305954 111.104935 82.6491 109.448074 82.6491C107.79122 82.6491 106.448074 81.305954 106.448074 79.6491C106.448074 77.99225 107.79122 76.6491 109.448074 76.6491C111.104935 76.6491 112.448074 77.99225 112.448074 79.6491Z" fill-rule="nonzero"/><path fill="#000000" fill-opacity="0.0" clip-path="url(#id_0)" d="M122.08077 86.61824C122.08077 88.27509 120.737625 89.61824 119.08077 89.61824C117.42391 89.61824 116.08077 88.27509 116.08077 86.61824C116.08077 84.96139 117.42391 83.61824 119.08077 83.61824C120.737625 83.61824 122.08077 84.96139 122.08077 86.61824Z" fill-rule="nonzero"/><path fill="#000000" fill-opacity="0.0" clip-path="url(#id_0)" d="M131.71346 92.65816C131.71346 94.31502 130.37032 95.65816 128.71346 95.65816C127.05661 95.65816 125.71346 94.31502 125.71346 92.65816C125.71346 91.001305 127.05661 89.65816 128.71346 89.65816C130.37032 89.65816 131.71346 91.001305 131.71346 92.65816Z" fill-rule="nonzero"/><path fill="#000000" fill-opacity="0.0" clip-path="url(#id_0)" d="M141.34616 91.72894C141.34616 93.385796 140.003 94.72894 138.34616 94.72894C136.6893 94.72894 135.34616 93.385796 135.34616 91.72894C135.34616 90.07209 136.6893 88.72894 138.34616 88.72894C140.003 88.72894 141.34616 90.07209 141.34616 91.72894Z" fill-rule="nonzero"/><path fill="#000000" fill-opacity="0.0" clip-path="url(#id_0)" d="M150.97885 93.58738C150.97885 95.24423 149.6357 96.58738 147.97885 96.58738C146.32199 96.58738 144.97885 95.24423 144.97885 93.58738C144.97885 91.93053 146.32199 90.58738 147.97885 90.58738C149.6357 90.58738 150.97885 91.93053 150.97885 93.58738Z" fill-rule="nonzero"/><path fill="#000000" fill-opacity="0.0" clip-path="url(#id_0)" d="M160.61154 100.09191C160.61154 101.748764 159.26839 103.09191 157.61154 103.09191C155.95468 103.09191 154.61154 101.748764 154.61154 100.09191C154.61154 98.43505 155.95468 97.09191 157.61154 97.09191C159.26839 97.09191 160.61154 98.43505 160.61154 100.09191Z" fill-rule="nonzero"/><path fill="#000000" fill-opacity="0.0" clip-path="url(#id_0)" d="M170.24423 102.87956C170.24423 104.536415 168.9011 105.87956 167.24423 105.87956C165.58737 105.87956 164.24423 104.536415 164.24423 102.87956C164.24423 101.22271 165.58737 99.87956 167.24423 99.87956C168.9011 99.87956 170.24423 101.22271 170.24423 102.87956Z" fill-rule="nonzero"/><path fill="#000000" d="M317.92188 349.45L315.64062 340.85626L316.8125 340.85626L318.125 346.4969Q318.32812 347.3719 318.48438 348.2469Q318.8125 346.8719 318.875 346.65314L320.5 340.85626L321.875 340.85626L323.10938 345.2Q323.5625 346.825 323.78125 348.2469Q323.9375 347.4344 324.20312 346.3719L325.54688 340.85626L326.6875 340.85626L324.34375 349.45L323.23438 349.45L321.4375 342.90314Q321.20312 342.09064 321.15625 341.90314Q321.03125 342.48126 320.90625 342.90314L319.09375 349.45L317.92188 349.45ZM331.54688 347.45L332.64062 347.575Q332.39062 348.52814 331.6875 349.0594Q330.98438 349.59064 329.90625 349.59064Q328.54688 349.59064 327.73438 348.7469Q326.9375 347.90314 326.9375 346.3875Q326.9375 344.825 327.75 343.96564Q328.5625 343.09064 329.84375 343.09064Q331.09375 343.09064 331.875 343.9344Q332.67188 344.77814 332.67188 346.325Q332.67188 346.41876 332.67188 346.60626L328.03125 346.60626Q328.09375 347.6375 328.60938 348.1844Q329.125 348.71564 329.90625 348.71564Q330.48438 348.71564 330.89062 348.41876Q331.3125 348.10626 331.54688 347.45ZM328.09375 345.7469L331.5625 345.7469Q331.5 344.95 331.17188 344.5594Q330.65625 343.95 329.85938 343.95Q329.125 343.95 328.625 344.4344Q328.14062 344.91876 328.09375 345.7469ZM338.54688 347.45L339.64062 347.575Q339.39062 348.52814 338.6875 349.0594Q337.98438 349.59064 336.90625 349.59064Q335.54688 349.59064 334.73438 348.7469Q333.9375 347.90314 333.9375 346.3875Q333.9375 344.825 334.75 343.96564Q335.5625 343.09064 336.84375 343.09064Q338.09375 343.09064 338.875 343.9344Q339.67188 344.77814 339.67188 346.325Q339.67188 346.41876 339.67188 346.60626L335.03125 346.60626Q335.09375 347.6375 335.60938 348.1844Q336.125 348.71564 336.90625 348.71564Q337.48438 348.71564 337.89062 348.41876Q338.3125 348.10626 338.54688 347.45ZM335.09375 345.7469L338.5625 345.7469Q338.5 344.95 338.17188 344.5594Q337.65625 343.95 336.85938 343.95Q336.125 343.95 335.625 344.4344Q335.14062 344.91876 335.09375 345.7469ZM341.29688 349.45L341.29688 340.85626L342.35938 340.85626L342.35938 345.7625L344.84375 343.23126L346.21875 343.23126L343.82812 345.52814L346.45312 349.45L345.15625 349.45L343.09375 346.2625L342.35938 346.98126L342.35938 349.45L341.29688 349.45Z" fill-rule="nonzero"/><path fill="#000000" d="M29.550013 178.625L20.956263 178.625L20.956263 175.39062Q20.956263 174.40625 21.221888 173.8125Q21.487513 173.21875 22.034388 172.89062Q22.565638 172.54688 23.159388 172.54688Q23.706263 172.54688 24.190638 172.84375Q24.675013 173.14062 24.971888 173.75Q25.206263 172.96875 25.768763 172.5625Q26.315638 172.14062 27.065638 172.14062Q27.659388 172.14062 28.190638 172.39062Q28.706263 172.64062 28.987513 173.01562Q29.268763 173.39062 29.409388 173.96875Q29.550013 174.53125 29.550013 175.34375L29.550013 178.625ZM24.565638 177.48438L24.565638 175.625Q24.565638 174.875 24.471888 174.54688Q24.346888 174.10938 24.050013 173.89062Q23.737513 173.67188 23.284388 173.67188Q22.862513 173.67188 22.534388 173.875Q22.206263 174.07812 22.096888 174.46875Q21.971888 174.84375 21.971888 175.76562L21.971888 177.48438L24.565638 177.48438ZM28.534388 177.48438L28.534388 175.34375Q28.534388 174.79688 28.487513 174.57812Q28.425013 174.17188 28.268763 173.92188Q28.096888 173.65625 27.784388 173.48438Q27.471888 173.3125 27.065638 173.3125Q26.581263 173.3125 26.221888 173.5625Q25.862513 173.79688 25.721888 174.23438Q25.581263 174.67188 25.581263 175.5L25.581263 177.48438L28.534388 177.48438ZM29.550013 170.60938L20.956263 170.60938L20.956263 168.89062L27.034388 166.85938Q27.893763 166.57812 28.315638 166.45312Q27.846888 166.3125 26.940638 166.0L20.956263 163.9375L20.956263 162.40625L29.550013 162.40625L29.550013 163.5L22.362513 163.5L29.550013 166.0L29.550013 167.03125L22.237513 169.51562L29.550013 169.51562L29.550013 170.60938ZM29.550013 161.375L20.956263 161.375L20.956263 160.25L29.550013 160.25L29.550013 161.375Z" fill-rule="nonzero"/><path fill="#000000" d="M55.01875 304.45L53.971874 304.45L53.971874 297.73126Q53.58125 298.09064 52.95625 298.46564Q52.346874 298.825 51.8625 298.9969L51.8625 297.98126Q52.7375 297.5594 53.39375 296.98126Q54.065624 296.3875 54.346874 295.825L55.01875 295.825L55.01875 304.45ZM58.05 302.2L59.159374 302.10626Q59.284374 302.91876 59.721874 303.325Q60.175 303.73126 60.815624 303.73126Q61.565624 303.73126 62.096874 303.15314Q62.628124 302.575 62.628124 301.6375Q62.628124 300.73126 62.1125 300.21564Q61.6125 299.6844 60.784374 299.6844Q60.284374 299.6844 59.8625 299.91876Q59.45625 300.15314 59.221874 300.5125L58.2375 300.3875L59.065624 295.98126L63.346874 295.98126L63.346874 296.98126L59.909374 296.98126L59.45625 299.29376Q60.221874 298.7469 61.065624 298.7469Q62.190624 298.7469 62.95625 299.52814Q63.7375 300.3094 63.7375 301.54376Q63.7375 302.7 63.065624 303.5594Q62.2375 304.59064 60.815624 304.59064Q59.64375 304.59064 58.89375 303.9344Q58.159374 303.27814 58.05 302.2ZM65.64375 304.45L65.64375 303.2469L66.84688 303.2469L66.84688 304.45L65.64375 304.45ZM68.05 300.21564Q68.05 298.6844 68.3625 297.7625Q68.675 296.825 69.28438 296.325Q69.90938 295.825 70.84688 295.825Q71.53438 295.825 72.05 296.10626Q72.58125 296.3875 72.925 296.91876Q73.26875 297.4344 73.45625 298.1844Q73.64375 298.9344 73.64375 300.21564Q73.64375 301.73126 73.33125 302.65314Q73.03438 303.575 72.40938 304.09064Q71.8 304.59064 70.84688 304.59064Q69.6125 304.59064 68.89375 303.7Q68.05 302.6375 68.05 300.21564ZM69.12813 300.21564Q69.12813 302.325 69.62813 303.02814Q70.12813 303.73126 70.84688 303.73126Q71.58125 303.73126 72.06563 303.02814Q72.56563 302.325 72.56563 300.21564Q72.56563 298.09064 72.06563 297.40314Q71.58125 296.7 70.83125 296.7Q70.1125 296.7 69.675 297.3094Q69.12813 298.09064 69.12813 300.21564Z" fill-rule="nonzero"/><path fill="#000000" d="M56.596874 234.70938L56.596874 235.725L50.909374 235.725Q50.909374 235.35 51.034374 234.99063Q51.253124 234.4125 51.721874 233.85Q52.20625 233.2875 53.1125 232.55313Q54.51875 231.39688 55.003124 230.725Q55.503124 230.05313 55.503124 229.45938Q55.503124 228.83438 55.05 228.4125Q54.596874 227.975 53.878124 227.975Q53.1125 227.975 52.659374 228.42813Q52.20625 228.88126 52.190624 229.69376L51.1125 229.58438Q51.221874 228.36563 51.940624 227.74063Q52.675 227.1 53.909374 227.1Q55.14375 227.1 55.8625 227.7875Q56.58125 228.475 56.58125 229.49063Q56.58125 230.00626 56.3625 230.50626Q56.159374 230.99063 55.659374 231.55313Q55.175 232.1 54.05 233.05313Q53.096874 233.85 52.815624 234.14688Q52.55 234.42813 52.378124 234.70938L56.596874 234.70938ZM58.05 231.49063Q58.05 229.95938 58.3625 229.0375Q58.675 228.1 59.284374 227.6Q59.909374 227.1 60.846874 227.1Q61.534374 227.1 62.05 227.38126Q62.58125 227.6625 62.925 228.19376Q63.26875 228.70938 63.45625 229.45938Q63.64375 230.20938 63.64375 231.49063Q63.64375 233.00626 63.33125 233.92813Q63.034374 234.85 62.409374 235.36563Q61.8 235.86563 60.846874 235.86563Q59.6125 235.86563 58.89375 234.975Q58.05 233.9125 58.05 231.49063ZM59.128124 231.49063Q59.128124 233.6 59.628124 234.30313Q60.128124 235.00626 60.846874 235.00626Q61.58125 235.00626 62.065624 234.30313Q62.565624 233.6 62.565624 231.49063Q62.565624 229.36563 62.065624 228.67813Q61.58125 227.975 60.83125 227.975Q60.1125 227.975 59.675 228.58438Q59.128124 229.36563 59.128124 231.49063ZM65.64375 235.725L65.64375 234.52188L66.84688 234.52188L66.84688 235.725L65.64375 235.725ZM68.05 231.49063Q68.05 229.95938 68.3625 229.0375Q68.675 228.1 69.28438 227.6Q69.90938 227.1 70.84688 227.1Q71.53438 227.1 72.05 227.38126Q72.58125 227.6625 72.925 228.19376Q73.26875 228.70938 73.45625 229.45938Q73.64375 230.20938 73.64375 231.49063Q73.64375 233.00626 73.33125 233.92813Q73.03438 234.85 72.40938 235.36563Q71.8 235.86563 70.84688 235.86563Q69.6125 235.86563 68.89375 234.975Q68.05 233.9125 68.05 231.49063ZM69.12813 231.49063Q69.12813 233.6 69.62813 234.30313Q70.12813 235.00626 70.84688 235.00626Q71.58125 235.00626 72.06563 234.30313Q72.56563 233.6 72.56563 231.49063Q72.56563 229.36563 72.06563 228.67813Q71.58125 227.975 70.83125 227.975Q70.1125 227.975 69.675 228.58438Q69.12813 229.36563 69.12813 231.49063Z" fill-rule="nonzero"/><path fill="#000000" d="M56.596874 165.98438L56.596874 167.0L50.909374 167.0Q50.909374 166.625 51.034374 166.26562Q51.253124 165.6875 51.721874 165.125Q52.20625 164.5625 53.1125 163.82812Q54.51875 162.67188 55.003124 162.0Q55.503124 161.32812 55.503124 160.73438Q55.503124 160.10938 55.05 159.6875Q54.596874 159.25 53.878124 159.25Q53.1125 159.25 52.659374 159.70312Q52.20625 160.15625 52.190624 160.96875L51.1125 160.85938Q51.221874 159.64062 51.940624 159.01562Q52.675 158.375 53.909374 158.375Q55.14375 158.375 55.8625 159.0625Q56.58125 159.75 56.58125 160.76562Q56.58125 161.28125 56.3625 161.78125Q56.159374 162.26562 55.659374 162.82812Q55.175 163.375 54.05 164.32812Q53.096874 165.125 52.815624 165.42188Q52.55 165.70312 52.378124 165.98438L56.596874 165.98438ZM58.05 164.75L59.159374 164.65625Q59.284374 165.46875 59.721874 165.875Q60.175 166.28125 60.815624 166.28125Q61.565624 166.28125 62.096874 165.70312Q62.628124 165.125 62.628124 164.1875Q62.628124 163.28125 62.1125 162.76562Q61.6125 162.23438 60.784374 162.23438Q60.284374 162.23438 59.8625 162.46875Q59.45625 162.70312 59.221874 163.0625L58.2375 162.9375L59.065624 158.53125L63.346874 158.53125L63.346874 159.53125L59.909374 159.53125L59.45625 161.84375Q60.221874 161.29688 61.065624 161.29688Q62.190624 161.29688 62.95625 162.07812Q63.7375 162.85938 63.7375 164.09375Q63.7375 165.25 63.065624 166.10938Q62.2375 167.14062 60.815624 167.14062Q59.64375 167.14062 58.89375 166.48438Q58.159374 165.82812 58.05 164.75ZM65.64375 167.0L65.64375 165.79688L66.84688 165.79688L66.84688 167.0L65.64375 167.0ZM68.05 162.76562Q68.05 161.23438 68.3625 160.3125Q68.675 159.375 69.28438 158.875Q69.90938 158.375 70.84688 158.375Q71.53438 158.375 72.05 158.65625Q72.58125 158.9375 72.925 159.46875Q73.26875 159.98438 73.45625 160.73438Q73.64375 161.48438 73.64375 162.76562Q73.64375 164.28125 73.33125 165.20312Q73.03438 166.125 72.40938 166.64062Q71.8 167.14062 70.84688 167.14062Q69.6125 167.14062 68.89375 166.25Q68.05 165.1875 68.05 162.76562ZM69.12813 162.76562Q69.12813 164.875 69.62813 165.57812Q70.12813 166.28125 70.84688 166.28125Q71.58125 166.28125 72.06563 165.57812Q72.56563 164.875 72.56563 162.76562Q72.56563 160.64062 72.06563 159.95312Q71.58125 159.25 70.83125 159.25Q70.1125 159.25 69.675 159.85938Q69.12813 160.64062 69.12813 162.76562Z" fill-rule="nonzero"/><path fill="#000000" d="M51.05 96.00938L52.1125 95.86875Q52.284374 96.75938 52.721874 97.16563Q53.159374 97.55625 53.784374 97.55625Q54.534374 97.55625 55.05 97.04063Q55.565624 96.525 55.565624 95.75938Q55.565624 95.04063 55.08125 94.57188Q54.6125 94.0875 53.878124 94.0875Q53.58125 94.0875 53.128124 94.2125L53.253124 93.275Q53.3625 93.29063 53.425 93.29063Q54.096874 93.29063 54.628124 92.94688Q55.175 92.5875 55.175 91.85313Q55.175 91.275 54.784374 90.9Q54.39375 90.50938 53.76875 90.50938Q53.159374 90.50938 52.7375 90.9Q52.33125 91.29063 52.221874 92.05625L51.159374 91.86875Q51.346874 90.82188 52.034374 90.24375Q52.721874 89.65 53.7375 89.65Q54.440624 89.65 55.034374 89.9625Q55.628124 90.25938 55.940624 90.775Q56.253124 91.29063 56.253124 91.88438Q56.253124 92.43125 55.95625 92.9Q55.659374 93.35313 55.08125 93.61875Q55.83125 93.79063 56.253124 94.35313Q56.675 94.9 56.675 95.74375Q56.675 96.86875 55.846874 97.65Q55.034374 98.43125 53.784374 98.43125Q52.659374 98.43125 51.909374 97.75938Q51.159374 97.07188 51.05 96.00938ZM58.05 94.04063Q58.05 92.50938 58.3625 91.5875Q58.675 90.65 59.284374 90.15Q59.909374 89.65 60.846874 89.65Q61.534374 89.65 62.05 89.93125Q62.58125 90.2125 62.925 90.74375Q63.26875 91.25938 63.45625 92.00938Q63.64375 92.75938 63.64375 94.04063Q63.64375 95.55625 63.33125 96.47813Q63.034374 97.4 62.409374 97.91563Q61.8 98.41563 60.846874 98.41563Q59.6125 98.41563 58.89375 97.525Q58.05 96.4625 58.05 94.04063ZM59.128124 94.04063Q59.128124 96.15 59.628124 96.85313Q60.128124 97.55625 60.846874 97.55625Q61.58125 97.55625 62.065624 96.85313Q62.565624 96.15 62.565624 94.04063Q62.565624 91.91563 62.065624 91.22813Q61.58125 90.525 60.83125 90.525Q60.1125 90.525 59.675 91.13438Q59.128124 91.91563 59.128124 94.04063ZM65.64375 98.275L65.64375 97.07188L66.84688 97.07188L66.84688 98.275L65.64375 98.275ZM68.05 94.04063Q68.05 92.50938 68.3625 91.5875Q68.675 90.65 69.28438 90.15Q69.90938 89.65 70.84688 89.65Q71.53438 89.65 72.05 89.93125Q72.58125 90.2125 72.925 90.74375Q73.26875 91.25938 73.45625 92.00938Q73.64375 92.75938 73.64375 94.04063Q73.64375 95.55625 73.33125 96.47813Q73.03438 97.4 72.40938 97.91563Q71.8 98.41563 70.84688 98.41563Q69.6125 98.41563 68.89375 97.525Q68.05 96.4625 68.05 94.04063ZM69.12813 94.04063Q69.12813 96.15 69.62813 96.85313Q70.12813 97.55625 70.84688 97.55625Q71.58125 97.55625 72.06563 96.85313Q72.56563 96.15 72.56563 94.04063Q72.56563 91.91563 72.06563 91.22813Q71.58125 90.525 70.83125 90.525Q70.1125 90.525 69.675 91.13438Q69.12813 91.91563 69.12813 94.04063Z" fill-rule="nonzero"/><path fill="#000000" d="M51.05 27.284374L52.1125 27.14375Q52.284374 28.034374 52.721874 28.440624Q53.159374 28.83125 53.784374 28.83125Q54.534374 28.83125 55.05 28.315624Q55.565624 27.8 55.565624 27.034374Q55.565624 26.315624 55.08125 25.846874Q54.6125 25.3625 53.878124 25.3625Q53.58125 25.3625 53.128124 25.4875L53.253124 24.55Q53.3625 24.565624 53.425 24.565624Q54.096874 24.565624 54.628124 24.221874Q55.175 23.8625 55.175 23.128124Q55.175 22.55 54.784374 22.175Q54.39375 21.784374 53.76875 21.784374Q53.159374 21.784374 52.7375 22.175Q52.33125 22.565624 52.221874 23.33125L51.159374 23.14375Q51.346874 22.096874 52.034374 21.51875Q52.721874 20.925 53.7375 20.925Q54.440624 20.925 55.034374 21.2375Q55.628124 21.534374 55.940624 22.05Q56.253124 22.565624 56.253124 23.159374Q56.253124 23.70625 55.95625 24.175Q55.659374 24.628124 55.08125 24.89375Q55.83125 25.065624 56.253124 25.628124Q56.675 26.175 56.675 27.01875Q56.675 28.14375 55.846874 28.925Q55.034374 29.70625 53.784374 29.70625Q52.659374 29.70625 51.909374 29.034374Q51.159374 28.346874 51.05 27.284374ZM58.05 27.3L59.159374 27.20625Q59.284374 28.01875 59.721874 28.425Q60.175 28.83125 60.815624 28.83125Q61.565624 28.83125 62.096874 28.253124Q62.628124 27.675 62.628124 26.7375Q62.628124 25.83125 62.1125 25.315624Q61.6125 24.784374 60.784374 24.784374Q60.284374 24.784374 59.8625 25.01875Q59.45625 25.253124 59.221874 25.6125L58.2375 25.4875L59.065624 21.08125L63.346874 21.08125L63.346874 22.08125L59.909374 22.08125L59.45625 24.39375Q60.221874 23.846874 61.065624 23.846874Q62.190624 23.846874 62.95625 24.628124Q63.7375 25.409374 63.7375 26.64375Q63.7375 27.8 63.065624 28.659374Q62.2375 29.690624 60.815624 29.690624Q59.64375 29.690624 58.89375 29.034374Q58.159374 28.378124 58.05 27.3ZM65.64375 29.55L65.64375 28.346874L66.84688 28.346874L66.84688 29.55L65.64375 29.55ZM68.05 25.315624Q68.05 23.784374 68.3625 22.8625Q68.675 21.925 69.28438 21.425Q69.90938 20.925 70.84688 20.925Q71.53438 20.925 72.05 21.20625Q72.58125 21.4875 72.925 22.01875Q73.26875 22.534374 73.45625 23.284374Q73.64375 24.034374 73.64375 25.315624Q73.64375 26.83125 73.33125 27.753124Q73.03438 28.675 72.40938 29.190624Q71.8 29.690624 70.84688 29.690624Q69.6125 29.690624 68.89375 28.8Q68.05 27.7375 68.05 25.315624ZM69.12813 25.315624Q69.12813 27.425 69.62813 28.128124Q70.12813 28.83125 70.84688 28.83125Q71.58125 28.83125 72.06563 28.128124Q72.56563 27.425 72.56563 25.315624Q72.56563 23.190624 72.06563 22.503124Q71.58125 21.8 70.83125 21.8Q70.1125 21.8 69.675 22.409374Q69.12813 23.190624 69.12813 25.315624Z" fill-rule="nonzero"/><path fill="#000000" d="M77.55 313.21564Q77.55 311.6844 77.8625 310.7625Q78.175 309.825 78.78438 309.325Q79.40938 308.825 80.34688 308.825Q81.03438 308.825 81.55 309.10626Q82.08125 309.3875 82.425 309.91876Q82.76875 310.4344 82.95625 311.1844Q83.14375 311.9344 83.14375 313.21564Q83.14375 314.73126 82.83125 315.65314Q82.53438 316.575 81.90938 317.09064Q81.3 317.59064 80.34688 317.59064Q79.1125 317.59064 78.39375 316.7Q77.55 315.6375 77.55 313.21564ZM78.62813 313.21564Q78.62813 315.325 79.12813 316.02814Q79.62813 316.73126 80.34688 316.73126Q81.08125 316.73126 81.56563 316.02814Q82.06563 315.325 82.06563 313.21564Q82.06563 311.09064 81.56563 310.40314Q81.08125 309.7 80.33125 309.7Q79.6125 309.7 79.175 310.3094Q78.62813 311.09064 78.62813 313.21564Z" fill-rule="nonzero"/><path fill="#000000" d="M174.34567 317.45L173.2988 317.45L173.2988 310.73126Q172.90817 311.09064 172.28317 311.46564Q171.6738 311.825 171.18942 311.9969L171.18942 310.98126Q172.06442 310.5594 172.72067 309.98126Q173.39255 309.3875 173.6738 308.825L174.34567 308.825L174.34567 317.45ZM177.37692 313.21564Q177.37692 311.6844 177.68942 310.7625Q178.00192 309.825 178.6113 309.325Q179.2363 308.825 180.1738 308.825Q180.8613 308.825 181.37692 309.10626Q181.90817 309.3875 182.25192 309.91876Q182.59567 310.4344 182.78317 311.1844Q182.97067 311.9344 182.97067 313.21564Q182.97067 314.73126 182.65817 315.65314Q182.3613 316.575 181.7363 317.09064Q181.12692 317.59064 180.1738 317.59064Q178.93942 317.59064 178.22067 316.7Q177.37692 315.6375 177.37692 313.21564ZM178.45505 313.21564Q178.45505 315.325 178.95505 316.02814Q179.45505 316.73126 180.1738 316.73126Q180.90817 316.73126 181.39255 316.02814Q181.89255 315.325 181.89255 313.21564Q181.89255 311.09064 181.39255 310.40314Q180.90817 309.7 180.15817 309.7Q179.43942 309.7 179.00192 310.3094Q178.45505 311.09064 178.45505 313.21564Z" fill-rule="nonzero"/><path fill="#000000" d="M272.25073 316.4344L272.25073 317.45L266.56323 317.45Q266.56323 317.075 266.68823 316.71564Q266.90698 316.1375 267.37573 315.575Q267.8601 315.0125 268.76636 314.27814Q270.1726 313.1219 270.65698 312.45Q271.15698 311.77814 271.15698 311.1844Q271.15698 310.5594 270.70386 310.1375Q270.25073 309.7 269.53198 309.7Q268.76636 309.7 268.31323 310.15314Q267.8601 310.60626 267.84448 311.41876L266.76636 311.3094Q266.87573 310.09064 267.59448 309.46564Q268.32886 308.825 269.56323 308.825Q270.7976 308.825 271.51636 309.5125Q272.2351 310.2 272.2351 311.21564Q272.2351 311.73126 272.01636 312.23126Q271.81323 312.71564 271.31323 313.27814Q270.82886 313.825 269.70386 314.77814Q268.75073 315.575 268.46948 315.8719Q268.20386 316.15314 268.03198 316.4344L272.25073 316.4344ZM273.70386 313.21564Q273.70386 311.6844 274.01636 310.7625Q274.32886 309.825 274.93823 309.325Q275.56323 308.825 276.50073 308.825Q277.18823 308.825 277.70386 309.10626Q278.2351 309.3875 278.57886 309.91876Q278.9226 310.4344 279.1101 311.1844Q279.2976 311.9344 279.2976 313.21564Q279.2976 314.73126 278.9851 315.65314Q278.68823 316.575 278.06323 317.09064Q277.45386 317.59064 276.50073 317.59064Q275.26636 317.59064 274.5476 316.7Q273.70386 315.6375 273.70386 313.21564ZM274.78198 313.21564Q274.78198 315.325 275.28198 316.02814Q275.78198 316.73126 276.50073 316.73126Q277.2351 316.73126 277.71948 316.02814Q278.21948 315.325 278.21948 313.21564Q278.21948 311.09064 277.71948 310.40314Q277.2351 309.7 276.4851 309.7Q275.76636 309.7 275.32886 310.3094Q274.78198 311.09064 274.78198 313.21564Z" fill-rule="nonzero"/><path fill="#000000" d="M363.03076 315.1844L364.09326 315.04376Q364.26514 315.9344 364.70264 316.34064Q365.14014 316.73126 365.76514 316.73126Q366.51514 316.73126 367.03076 316.21564Q367.5464 315.7 367.5464 314.9344Q367.5464 314.21564 367.062 313.7469Q366.59326 313.2625 365.8589 313.2625Q365.562 313.2625 365.1089 313.3875L365.2339 312.45Q365.34326 312.46564 365.40576 312.46564Q366.07764 312.46564 366.6089 312.1219Q367.15576 311.7625 367.15576 311.02814Q367.15576 310.45 366.76514 310.075Q366.3745 309.6844 365.7495 309.6844Q365.14014 309.6844 364.71826 310.075Q364.312 310.46564 364.20264 311.23126L363.14014 311.04376Q363.32764 309.9969 364.01514 309.41876Q364.70264 308.825 365.71826 308.825Q366.4214 308.825 367.01514 309.1375Q367.6089 309.4344 367.9214 309.95Q368.2339 310.46564 368.2339 311.0594Q368.2339 311.60626 367.937 312.075Q367.64014 312.52814 367.062 312.79376Q367.812 312.96564 368.2339 313.52814Q368.65576 314.075 368.65576 314.91876Q368.65576 316.04376 367.82764 316.825Q367.01514 317.60626 365.76514 317.60626Q364.64014 317.60626 363.89014 316.9344Q363.14014 316.2469 363.03076 315.1844ZM370.03076 313.21564Q370.03076 311.6844 370.34326 310.7625Q370.65576 309.825 371.26514 309.325Q371.89014 308.825 372.82764 308.825Q373.51514 308.825 374.03076 309.10626Q374.562 309.3875 374.90576 309.91876Q375.2495 310.4344 375.437 311.1844Q375.6245 311.9344 375.6245 313.21564Q375.6245 314.73126 375.312 315.65314Q375.01514 316.575 374.39014 317.09064Q373.78076 317.59064 372.82764 317.59064Q371.59326 317.59064 370.8745 316.7Q370.03076 315.6375 370.03076 313.21564ZM371.1089 313.21564Q371.1089 315.325 371.6089 316.02814Q372.1089 316.73126 372.82764 316.73126Q373.562 316.73126 374.0464 316.02814Q374.5464 315.325 374.5464 313.21564Q374.5464 311.09064 374.0464 310.40314Q373.562 309.7 372.812 309.7Q372.09326 309.7 371.65576 310.3094Q371.1089 311.09064 371.1089 313.21564Z" fill-rule="nonzero"/><path fill="#000000" d="M462.7327 317.45L462.7327 315.3875L459.01395 315.3875L459.01395 314.41876L462.93582 308.85626L463.7952 308.85626L463.7952 314.41876L464.95145 314.41876L464.95145 315.3875L463.7952 315.3875L463.7952 317.45L462.7327 317.45ZM462.7327 314.41876L462.7327 310.5594L460.0452 314.41876L462.7327 314.41876ZM466.3577 313.21564Q466.3577 311.6844 466.6702 310.7625Q466.9827 309.825 467.59207 309.325Q468.21707 308.825 469.15457 308.825Q469.84207 308.825 470.3577 309.10626Q470.88895 309.3875 471.2327 309.91876Q471.57645 310.4344 471.76395 311.1844Q471.95145 311.9344 471.95145 313.21564Q471.95145 314.73126 471.63895 315.65314Q471.34207 316.575 470.71707 317.09064Q470.1077 317.59064 469.15457 317.59064Q467.9202 317.59064 467.20145 316.7Q466.3577 315.6375 466.3577 313.21564ZM467.43582 313.21564Q467.43582 315.325 467.93582 316.02814Q468.43582 316.73126 469.15457 316.73126Q469.88895 316.73126 470.37332 316.02814Q470.87332 315.325 470.87332 313.21564Q470.87332 311.09064 470.37332 310.40314Q469.88895 309.7 469.13895 309.7Q468.4202 309.7 467.9827 310.3094Q467.43582 311.09064 467.43582 313.21564Z" fill-rule="nonzero"/><path fill="#000000" d="M555.68463 315.2L556.794 315.10626Q556.919 315.91876 557.3565 316.325Q557.80963 316.73126 558.45026 316.73126Q559.20026 316.73126 559.7315 316.15314Q560.26276 315.575 560.26276 314.6375Q560.26276 313.73126 559.74713 313.21564Q559.24713 312.6844 558.419 312.6844Q557.919 312.6844 557.49713 312.91876Q557.0909 313.15314 556.8565 313.5125L555.87213 313.3875L556.70026 308.98126L560.9815 308.98126L560.9815 309.98126L557.544 309.98126L557.0909 312.29376Q557.8565 311.7469 558.70026 311.7469Q559.82526 311.7469 560.5909 312.52814Q561.37213 313.3094 561.37213 314.54376Q561.37213 315.7 560.70026 316.5594Q559.87213 317.59064 558.45026 317.59064Q557.2784 317.59064 556.5284 316.9344Q555.794 316.27814 555.68463 315.2ZM562.68463 313.21564Q562.68463 311.6844 562.99713 310.7625Q563.30963 309.825 563.919 309.325Q564.544 308.825 565.4815 308.825Q566.169 308.825 566.68463 309.10626Q567.2159 309.3875 567.55963 309.91876Q567.9034 310.4344 568.0909 311.1844Q568.2784 311.9344 568.2784 313.21564Q568.2784 314.73126 567.9659 315.65314Q567.669 316.575 567.044 317.09064Q566.43463 317.59064 565.4815 317.59064Q564.24713 317.59064 563.5284 316.7Q562.68463 315.6375 562.68463 313.21564ZM563.76276 313.21564Q563.76276 315.325 564.26276 316.02814Q564.76276 316.73126 565.4815 316.73126Q566.2159 316.73126 566.70026 316.02814Q567.20026 315.325 567.20026 313.21564Q567.20026 311.09064 566.70026 310.40314Q566.2159 309.7 565.4659 309.7Q564.74713 309.7 564.30963 310.3094Q563.76276 311.09064 563.76276 313.21564Z" fill-rule="nonzero"/></svg>