<svg version="1.1" viewBox="0.0 0.0 600.0 371.0" fill="none" stroke="none" stroke-linecap="square" stroke-miterlimit="10" width="600" height="371" xmlns:xlink="http://www.w3.org/1999/xlink" xmlns="http://www.w3.org/2000/svg"><path fill="#ffffff" d="M0 0L600.0 0L600.0 371.0L0 371.0L0 0Z" fill-rule="nonzero"/><path stroke="#cccccc" stroke-width="1.0" stroke-linecap="butt" d="M84.5 25.5L84.5 300.5" fill-rule="nonzero"/><path stroke="#cccccc" stroke-width="1.0" stroke-linecap="butt" d="M168.5 25.5L168.5 300.5" fill-rule="nonzero"/><path stroke="#cccccc" stroke-width="1.0" stroke-linecap="butt" d="M253.5 25.5L253.5 300.5" fill-rule="nonzero"/><path stroke="#cccccc" stroke-width="1.0" stroke-linecap="butt" d="M334.5 25.5L334.5 300.5" fill-rule="nonzero"/><path stroke="#cccccc" stroke-width="1.0" stroke-linecap="butt" d="M418.5 25.5L418.5 300.5" fill-rule="nonzero"/><path stroke="#cccccc" stroke-width="1.0" stroke-linecap="butt" d="M502.5 25.5L502.5 300.5" fill-rule="nonzero"/><path stroke="#cccccc" stroke-width="1.0" stroke-linecap="butt" d="M80.5 300.5L581.5 300.5" fill-rule="nonzero"/><path stroke="#cccccc" stroke-width="1.0" stroke-linecap="butt" d="M80.5 245.5L581.5 245.5" fill-rule="nonzero"/><path stroke="#cccccc" stroke-width="1.0" stroke-linecap="butt" d="M80.5 190.5L581.5 190.5" fill-rule="nonzero"/><path stroke="#cccccc" stroke-width="1.0" stroke-linecap="butt" d="M80.5 135.5L581.5 135.5" fill-rule="nonzero"/><path stroke="#cccccc" stroke-width="1.0" stroke-linecap="butt" d="M80.5 80.5L581.5 80.5" fill-rule="nonzero"/><path stroke="#cccccc" stroke-width="1.0" stroke-linecap="butt" d="M80.5 25.5L581.5 25.5" fill-rule="nonzero"/><clipPath id="id_0"><path d="M80.55 25.55L581.45 25.55L581.45 300.45L80.55 300.45L80.55 25.55Z" clip-rule="nonzero"/></clipPath><path stroke="#4285f4" stroke-width="2.0" stroke-linecap="butt" clip-path="url(#id_0)" d="M80.55 28.047739C80.55 28.047739 86.98949 31.609743 90.20923 33.62305C93.42897 35.636356 96.64871 37.742584 99.868454 40.12758C103.0882 42.512573 110.44761 47.65425 113.66736 51.278202C116.8871 54.902153 120.10684 60.880127 123.326584 65.21648C126.546326 69.55283 129.76607 75.59275 132.98581 77.29632C136.20555 78.999886 139.4253 75.12814 142.64503 75.43788C145.86478 75.74762 149.08453 76.3671 152.30428 79.154755C155.52402 81.94241 158.74376 89.06642 161.9635 92.16382C165.18324 95.26121 168.40298 96.6744 171.62273 97.73913C174.84247 98.803856 179.90207 96.53889 182.66185 98.66834C185.42163 100.797806 188.18141 108.73488 190.94118 110.748184C193.70096 112.76149 197.38068 109.97384 200.60042 110.748184C203.82016 111.52254 207.0399 113.8972 210.25964 115.39428C213.47939 116.89135 220.37883 121.22771 222.67865 120.96959C224.97847 120.71147 227.27829 116.212875 229.5781 116.323494C231.87791 116.43412 236.01758 122.51829 239.23734 123.75725C242.45708 124.9962 245.67682 123.137764 248.89656 123.75725C252.1163 124.376724 255.33604 125.092995 258.5558 127.47412C261.77554 129.85524 266.37515 137.01796 269.5949 139.55396C272.81464 142.08995 276.0344 143.4257 279.25412 144.20006C282.47388 144.9744 286.1536 142.96109 288.91336 144.20006C291.67313 145.43901 294.43292 149.86386 297.1927 151.6338C299.95248 153.40373 303.63217 154.42145 306.85193 155.35068C310.0717 156.27989 313.2914 156.43477 316.51117 157.2091C319.7309 157.98346 322.95065 158.71909 326.17038 159.99677C329.39014 161.27444 334.44974 163.01672 337.2095 165.57208C339.96927 168.12743 342.72906 174.86426 345.48883 176.7227C348.24863 178.58113 354.6881 175.79349 357.90784 176.7227C361.1276 177.65192 365.26727 181.63428 367.56708 182.298C369.86688 182.96173 372.16672 182.298 374.46652 182.298C376.76636 182.298 380.906 180.12984 384.12576 182.298C387.3455 184.46619 390.56525 193.44864 393.78497 195.30707C397.00473 197.16551 400.22446 193.13889 403.4442 193.44864C406.66397 193.75838 409.8837 197.08807 413.10345 197.16551C416.32318 197.24294 421.38278 191.74507 424.14255 193.44864C426.90234 195.1522 429.6621 203.0948 432.4219 206.45769C435.18167 209.82057 438.8614 213.89143 442.08112 214.82066C445.30087 215.74988 448.52063 211.68454 451.74036 212.033C454.9601 212.38145 459.55972 215.24655 462.77948 217.6083C465.9992 219.97008 469.21896 226.30038 472.4387 226.9005C475.65845 227.50061 480.71805 221.20903 483.4778 220.39597C486.2376 219.5829 488.99738 219.73224 491.75717 220.39597C494.51694 221.0597 498.19666 222.71901 501.41638 225.04205C504.63614 227.36511 507.85587 231.85632 511.07562 234.33424C514.29535 236.81216 517.5151 238.98033 520.73486 239.90956C523.9546 240.83878 528.5542 239.90956 531.774 239.90956C534.9937 239.90956 538.21344 238.05112 541.43317 239.90956C544.65295 241.76799 547.8727 248.27252 551.0924 251.06018C554.3122 253.84784 559.37177 255.4629 560.75165 256.6355C562.13153 257.80807 563.5114 260.6621 564.8913 261.2816C566.27124 261.90106 581.45 257.5647 581.45 257.5647" fill-rule="nonzero"/><path fill="#000000" fill-opacity="0.0" clip-path="url(#id_0)" d="M83.55 28.047739C83.55 29.704594 82.206856 31.047739 80.55 31.047739C78.89314 31.047739 77.55 29.704594 77.55 28.047739C77.55 26.390884 78.89314 25.047739 80.55 25.047739C82.206856 25.047739 83.55 26.390884 83.55 28.047739Z" fill-rule="nonzero"/><path fill="#000000" fill-opacity="0.0" clip-path="url(#id_0)" d="M93.20923 33.62305C93.20923 35.279903 91.86608 36.62305 90.20923 36.62305C88.552376 36.62305 87.20923 35.279903 87.20923 33.62305C87.20923 31.966196 88.552376 30.62305 90.20923 30.62305C91.86608 30.62305 93.20923 31.966196 93.20923 33.62305Z" fill-rule="nonzero"/><path fill="#000000" fill-opacity="0.0" clip-path="url(#id_0)" d="M102.868454 40.12758C102.868454 41.784435 101.525314 43.12758 99.868454 43.12758C98.2116 43.12758 96.868454 41.784435 96.868454 40.12758C96.868454 38.470726 98.2116 37.12758 99.868454 37.12758C101.525314 37.12758 102.868454 38.470726 102.868454 40.12758Z" fill-rule="nonzero"/><path fill="#000000" fill-opacity="0.0" clip-path="url(#id_0)" d="M116.66736 51.278202C116.66736 52.935055 115.32421 54.278202 113.66736 54.278202C112.0105 54.278202 110.66736 52.935055 110.66736 51.278202C110.66736 49.62135 112.0105 48.278202 113.66736 48.278202C115.32421 48.278202 116.66736 49.62135 116.66736 51.278202Z" fill-rule="nonzero"/><path fill="#000000" fill-opacity="0.0" clip-path="url(#id_0)" d="M126.326584 65.21648C126.326584 66.87334 124.98344 68.21648 123.326584 68.21648C121.66973 68.21648 120.326584 66.87334 120.326584 65.21648C120.326584 63.559624 121.66973 62.21648 123.326584 62.21648C124.98344 62.21648 126.326584 63.559624 126.326584 65.21648Z" fill-rule="nonzero"/><path fill="#000000" fill-opacity="0.0" clip-path="url(#id_0)" d="M135.98581 77.29632C135.98581 78.95317 134.64267 80.29632 132.98581 80.29632C131.32896 80.29632 129.98581 78.95317 129.98581 77.29632C129.98581 75.639465 131.32896 74.29632 132.98581 74.29632C134.64267 74.29632 135.98581 75.639465 135.98581 77.29632Z" fill-rule="nonzero"/><path fill="#000000" fill-opacity="0.0" clip-path="url(#id_0)" d="M145.64503 75.43788C145.64503 77.094734 144.3019 78.43788 142.64503 78.43788C140.98819 78.43788 139.64503 77.094734 139.64503 75.43788C139.64503 73.78103 140.98819 72.43788 142.64503 72.43788C144.3019 72.43788 145.64503 73.78103 145.64503 75.43788Z" fill-rule="nonzero"/><path fill="#000000" fill-opacity="0.0" clip-path="url(#id_0)" d="M155.30428 79.154755C155.30428 80.81161 153.96112 82.154755 152.30428 82.154755C150.64742 82.154755 149.30428 80.81161 149.30428 79.154755C149.30428 77.4979 150.64742 76.154755 152.30428 76.154755C153.96112 76.154755 155.30428 77.4979 155.30428 79.154755Z" fill-rule="nonzero"/><path fill="#000000" fill-opacity="0.0" clip-path="url(#id_0)" d="M164.9635 92.16382C164.9635 93.82067 163.62035 95.16382 161.9635 95.16382C160.30664 95.16382 158.9635 93.82067 158.9635 92.16382C158.9635 90.50696 160.30664 89.16382 161.9635 89.16382C163.62035 89.16382 164.9635 90.50696 164.9635 92.16382Z" fill-rule="nonzero"/><path fill="#000000" fill-opacity="0.0" clip-path="url(#id_0)" d="M174.62273 97.73913C174.62273 99.39598 173.27959 100.73913 171.62273 100.73913C169.96587 100.73913 168.62273 99.39598 168.62273 97.73913C168.62273 96.082275 169.96587 94.73913 171.62273 94.73913C173.27959 94.73913 174.62273 96.082275 174.62273 97.73913Z" fill-rule="nonzero"/><path fill="#000000" fill-opacity="0.0" clip-path="url(#id_0)" d="M185.66185 98.66834C185.66185 100.3252 184.3187 101.66834 182.66185 101.66834C181.00499 101.66834 179.66185 100.3252 179.66185 98.66834C179.66185 97.01149 181.00499 95.66834 182.66185 95.66834C184.3187 95.66834 185.66185 97.01149 185.66185 98.66834Z" fill-rule="nonzero"/><path fill="#000000" fill-opacity="0.0" clip-path="url(#id_0)" d="M193.94118 110.748184C193.94118 112.40504 192.59804 113.748184 190.94118 113.748184C189.28433 113.748184 187.94118 112.40504 187.94118 110.748184C187.94118 109.09133 189.28433 107.748184 190.94118 107.748184C192.59804 107.748184 193.94118 109.09133 193.94118 110.748184Z" fill-rule="nonzero"/><path fill="#000000" fill-opacity="0.0" clip-path="url(#id_0)" d="M203.60042 110.748184C203.60042 112.40504 202.25726 113.748184 200.60042 113.748184C198.94356 113.748184 197.60042 112.40504 197.60042 110.748184C197.60042 109.09133 198.94356 107.748184 200.60042 107.748184C202.25726 107.748184 203.60042 109.09133 203.60042 110.748184Z" fill-rule="nonzero"/><path fill="#000000" fill-opacity="0.0" clip-path="url(#id_0)" d="M213.25964 115.39428C213.25964 117.05113 211.91649 118.39428 210.25964 118.39428C208.60278 118.39428 207.25964 117.05113 207.25964 115.39428C207.25964 113.73743 208.60278 112.39428 210.25964 112.39428C211.91649 112.39428 213.25964 113.73743 213.25964 115.39428Z" fill-rule="nonzero"/><path fill="#000000" fill-opacity="0.0" clip-path="url(#id_0)" d="M225.67865 120.96959C225.67865 122.62644 224.33551 123.96959 222.67865 123.96959C221.02179 123.96959 219.67865 122.62644 219.67865 120.96959C219.67865 119.31274 221.02179 117.96959 222.67865 117.96959C224.33551 117.96959 225.67865 119.31274 225.67865 120.96959Z" fill-rule="nonzero"/><path fill="#000000" fill-opacity="0.0" clip-path="url(#id_0)" d="M232.5781 116.323494C232.5781 117.980354 231.23495 119.323494 229.5781 119.323494C227.92125 119.323494 226.5781 117.980354 226.5781 116.323494C226.5781 114.66664 227.92125 113.323494 229.5781 113.323494C231.23495 113.323494 232.5781 114.66664 232.5781 116.323494Z" fill-rule="nonzero"/><path fill="#000000" fill-opacity="0.0" clip-path="url(#id_0)" d="M242.23734 123.75725C242.23734 125.4141 240.89418 126.75725 239.23734 126.75725C237.58047 126.75725 236.23734 125.4141 236.23734 123.75725C236.23734 122.10039 237.58047 120.75725 239.23734 120.75725C240.89418 120.75725 242.23734 122.10039 242.23734 123.75725Z" fill-rule="nonzero"/><path fill="#000000" fill-opacity="0.0" clip-path="url(#id_0)" d="M251.89656 123.75725C251.89656 125.4141 250.5534 126.75725 248.89656 126.75725C247.2397 126.75725 245.89656 125.4141 245.89656 123.75725C245.89656 122.10039 247.2397 120.75725 248.89656 120.75725C250.5534 120.75725 251.89656 122.10039 251.89656 123.75725Z" fill-rule="nonzero"/><path fill="#000000" fill-opacity="0.0" clip-path="url(#id_0)" d="M261.5558 127.47412C261.5558 129.13097 260.21265 130.47412 258.5558 130.47412C256.89893 130.47412 255.55579 129.13097 255.55579 127.47412C255.55579 125.81726 256.89893 124.47412 258.5558 124.47412C260.21265 124.47412 261.5558 125.81726 261.5558 127.47412Z" fill-rule="nonzero"/><path fill="#000000" fill-opacity="0.0" clip-path="url(#id_0)" d="M272.5949 139.55396C272.5949 141.21082 271.25177 142.55396 269.5949 142.55396C267.93805 142.55396 266.5949 141.21082 266.5949 139.55396C266.5949 137.89711 267.93805 136.55396 269.5949 136.55396C271.25177 136.55396 272.5949 137.89711 272.5949 139.55396Z" fill-rule="nonzero"/><path fill="#000000" fill-opacity="0.0" clip-path="url(#id_0)" d="M282.25412 144.20006C282.25412 145.8569 280.91098 147.20006 279.25412 147.20006C277.5973 147.20006 276.25412 145.8569 276.25412 144.20006C276.25412 142.5432 277.5973 141.20006 279.25412 141.20006C280.91098 141.20006 282.25412 142.5432 282.25412 144.20006Z" fill-rule="nonzero"/><path fill="#000000" fill-opacity="0.0" clip-path="url(#id_0)" d="M291.91336 144.20006C291.91336 145.8569 290.57022 147.20006 288.91336 147.20006C287.2565 147.20006 285.91336 145.8569 285.91336 144.20006C285.91336 142.5432 287.2565 141.20006 288.91336 141.20006C290.57022 141.20006 291.91336 142.5432 291.91336 144.20006Z" fill-rule="nonzero"/><path fill="#000000" fill-opacity="0.0" clip-path="url(#id_0)" d="M300.1927 151.6338C300.1927 153.29065 298.84955 154.6338 297.1927 154.6338C295.53586 154.6338 294.1927 153.29065 294.1927 151.6338C294.1927 149.97694 295.53586 148.6338 297.1927 148.6338C298.84955 148.6338 300.1927 149.97694 300.1927 151.6338Z" fill-rule="nonzero"/><path fill="#000000" fill-opacity="0.0" clip-path="url(#id_0)" d="M309.85193 155.35068C309.85193 157.00752 308.5088 158.35068 306.85193 158.35068C305.19507 158.35068 303.85193 157.00752 303.85193 155.35068C303.85193 153.69382 305.19507 152.35068 306.85193 152.35068C308.5088 152.35068 309.85193 153.69382 309.85193 155.35068Z" fill-rule="nonzero"/><path fill="#000000" fill-opacity="0.0" clip-path="url(#id_0)" d="M319.51117 157.2091C319.51117 158.86597 318.168 160.2091 316.51117 160.2091C314.8543 160.2091 313.51117 158.86597 313.51117 157.2091C313.51117 155.55226 314.8543 154.2091 316.51117 154.2091C318.168 154.2091 319.51117 155.55226 319.51117 157.2091Z" fill-rule="nonzero"/><path fill="#000000" fill-opacity="0.0" clip-path="url(#id_0)" d="M329.17038 159.99677C329.17038 161.65363 327.82724 162.99677 326.17038 162.99677C324.51352 162.99677 323.17038 161.65363 323.17038 159.99677C323.17038 158.3399 324.51352 156.99677 326.17038 156.99677C327.82724 156.99677 329.17038 158.3399 329.17038 159.99677Z" fill-rule="nonzero"/><path fill="#000000" fill-opacity="0.0" clip-path="url(#id_0)" d="M340.2095 165.57208C340.2095 167.22893 338.86636 168.57208 337.2095 168.57208C335.55264 168.57208 334.2095 167.22893 334.2095 165.57208C334.2095 163.91522 335.55264 162.57208 337.2095 162.57208C338.86636 162.57208 340.2095 163.91522 340.2095 165.57208Z" fill-rule="nonzero"/><path fill="#000000" fill-opacity="0.0" clip-path="url(#id_0)" d="M348.48883 176.7227C348.48883 178.37955 347.1457 179.7227 345.48883 179.7227C343.832 179.7227 342.48883 178.37955 342.48883 176.7227C342.48883 175.06584 343.832 173.7227 345.48883 173.7227C347.1457 173.7227 348.48883 175.06584 348.48883 176.7227Z" fill-rule="nonzero"/><path fill="#000000" fill-opacity="0.0" clip-path="url(#id_0)" d="M360.90784 176.7227C360.90784 178.37955 359.5647 179.7227 357.90784 179.7227C356.251 179.7227 354.90784 178.37955 354.90784 176.7227C354.90784 175.06584 356.251 173.7227 357.90784 173.7227C359.5647 173.7227 360.90784 175.06584 360.90784 176.7227Z" fill-rule="nonzero"/><path fill="#000000" fill-opacity="0.0" clip-path="url(#id_0)" d="M370.56708 182.298C370.56708 183.95486 369.22394 185.298 367.56708 185.298C365.91022 185.298 364.56708 183.95486 364.56708 182.298C364.56708 180.64116 365.91022 179.298 367.56708 179.298C369.22394 179.298 370.56708 180.64116 370.56708 182.298Z" fill-rule="nonzero"/><path fill="#000000" fill-opacity="0.0" clip-path="url(#id_0)" d="M377.46652 182.298C377.46652 183.95486 376.12338 185.298 374.46652 185.298C372.80966 185.298 371.46652 183.95486 371.46652 182.298C371.46652 180.64116 372.80966 179.298 374.46652 179.298C376.12338 179.298 377.46652 180.64116 377.46652 182.298Z" fill-rule="nonzero"/><path fill="#000000" fill-opacity="0.0" clip-path="url(#id_0)" d="M387.12576 182.298C387.12576 183.95486 385.78262 185.298 384.12576 185.298C382.4689 185.298 381.12576 183.95486 381.12576 182.298C381.12576 180.64116 382.4689 179.298 384.12576 179.298C385.78262 179.298 387.12576 180.64116 387.12576 182.298Z" fill-rule="nonzero"/><path fill="#000000" fill-opacity="0.0" clip-path="url(#id_0)" d="M396.78497 195.30707C396.78497 196.96393 395.44183 198.30707 393.78497 198.30707C392.12814 198.30707 390.78497 196.96393 390.78497 195.30707C390.78497 193.6502 392.12814 192.30707 393.78497 192.30707C395.44183 192.30707 396.78497 193.6502 396.78497 195.30707Z" fill-rule="nonzero"/><path fill="#000000" fill-opacity="0.0" clip-path="url(#id_0)" d="M406.4442 193.44864C406.4442 195.10548 405.10107 196.44864 403.4442 196.44864C401.78735 196.44864 400.4442 195.10548 400.4442 193.44864C400.4442 191.79178 401.78735 190.44864 403.4442 190.44864C405.10107 190.44864 406.4442 191.79178 406.4442 193.44864Z" fill-rule="nonzero"/><path fill="#000000" fill-opacity="0.0" clip-path="url(#id_0)" d="M416.10345 197.16551C416.10345 198.82236 414.76028 200.16551 413.10345 200.16551C411.4466 200.16551 410.10345 198.82236 410.10345 197.16551C410.10345 195.50865 411.4466 194.16551 413.10345 194.16551C414.76028 194.16551 416.10345 195.50865 416.10345 197.16551Z" fill-rule="nonzero"/><path fill="#000000" fill-opacity="0.0" clip-path="url(#id_0)" d="M427.14255 193.44864C427.14255 195.10548 425.7994 196.44864 424.14255 196.44864C422.48572 196.44864 421.14255 195.10548 421.14255 193.44864C421.14255 191.79178 422.48572 190.44864 424.14255 190.44864C425.7994 190.44864 427.14255 191.79178 427.14255 193.44864Z" fill-rule="nonzero"/><path fill="#000000" fill-opacity="0.0" clip-path="url(#id_0)" d="M435.4219 206.45769C435.4219 208.11455 434.07877 209.45769 432.4219 209.45769C430.76505 209.45769 429.4219 208.11455 429.4219 206.45769C429.4219 204.80084 430.76505 203.45769 432.4219 203.45769C434.07877 203.45769 435.4219 204.80084 435.4219 206.45769Z" fill-rule="nonzero"/><path fill="#000000" fill-opacity="0.0" clip-path="url(#id_0)" d="M445.08112 214.82066C445.08112 216.47751 443.73798 217.82066 442.08112 217.82066C440.4243 217.82066 439.08112 216.47751 439.08112 214.82066C439.08112 213.1638 440.4243 211.82066 442.08112 211.82066C443.73798 211.82066 445.08112 213.1638 445.08112 214.82066Z" fill-rule="nonzero"/><path fill="#000000" fill-opacity="0.0" clip-path="url(#id_0)" d="M454.74036 212.033C454.74036 213.68985 453.39722 215.033 451.74036 215.033C450.0835 215.033 448.74036 213.68985 448.74036 212.033C448.74036 210.37614 450.0835 209.033 451.74036 209.033C453.39722 209.033 454.74036 210.37614 454.74036 212.033Z" fill-rule="nonzero"/><path fill="#000000" fill-opacity="0.0" clip-path="url(#id_0)" d="M465.77948 217.6083C465.77948 219.26517 464.43634 220.6083 462.77948 220.6083C461.12262 220.6083 459.77948 219.26517 459.77948 217.6083C459.77948 215.95146 461.12262 214.6083 462.77948 214.6083C464.43634 214.6083 465.77948 215.95146 465.77948 217.6083Z" fill-rule="nonzero"/><path fill="#000000" fill-opacity="0.0" clip-path="url(#id_0)" d="M475.4387 226.9005C475.4387 228.55736 474.09555 229.9005 472.4387 229.9005C470.78186 229.9005 469.4387 228.55736 469.4387 226.9005C469.4387 225.24364 470.78186 223.9005 472.4387 223.9005C474.09555 223.9005 475.4387 225.24364 475.4387 226.9005Z" fill-rule="nonzero"/><path fill="#000000" fill-opacity="0.0" clip-path="url(#id_0)" d="M486.4778 220.39597C486.4778 222.05283 485.13467 223.39597 483.4778 223.39597C481.82098 223.39597 480.4778 222.05283 480.4778 220.39597C480.4778 218.73912 481.82098 217.39597 483.4778 217.39597C485.13467 217.39597 486.4778 218.73912 486.4778 220.39597Z" fill-rule="nonzero"/><path fill="#000000" fill-opacity="0.0" clip-path="url(#id_0)" d="M494.75717 220.39597C494.75717 222.05283 493.41403 223.39597 491.75717 223.39597C490.1003 223.39597 488.75717 222.05283 488.75717 220.39597C488.75717 218.73912 490.1003 217.39597 491.75717 217.39597C493.41403 217.39597 494.75717 218.73912 494.75717 220.39597Z" fill-rule="nonzero"/><path fill="#000000" fill-opacity="0.0" clip-path="url(#id_0)" d="M504.41638 225.04205C504.41638 226.69891 503.07324 228.04205 501.41638 228.04205C499.75955 228.04205 498.41638 226.69891 498.41638 225.04205C498.41638 223.38521 499.75955 222.04205 501.41638 222.04205C503.07324 222.04205 504.41638 223.38521 504.41638 225.04205Z" fill-rule="nonzero"/><path fill="#000000" fill-opacity="0.0" clip-path="url(#id_0)" d="M514.0756 234.33424C514.0756 235.9911 512.7325 237.33424 511.07562 237.33424C509.41876 237.33424 508.07562 235.9911 508.07562 234.33424C508.07562 232.6774 509.41876 231.33424 511.07562 231.33424C512.7325 231.33424 514.0756 232.6774 514.0756 234.33424Z" fill-rule="nonzero"/><path fill="#000000" fill-opacity="0.0" clip-path="url(#id_0)" d="M523.73486 239.90956C523.73486 241.5664 522.3917 242.90956 520.73486 242.90956C519.078 242.90956 517.73486 241.5664 517.73486 239.90956C517.73486 238.2527 519.078 236.90956 520.73486 236.90956C522.3917 236.90956 523.73486 238.2527 523.73486 239.90956Z" fill-rule="nonzero"/><path fill="#000000" fill-opacity="0.0" clip-path="url(#id_0)" d="M534.774 239.90956C534.774 241.5664 533.43085 242.90956 531.774 242.90956C530.1171 242.90956 528.774 241.5664 528.774 239.90956C528.774 238.2527 530.1171 236.90956 531.774 236.90956C533.43085 236.90956 534.774 238.2527 534.774 239.90956Z" fill-rule="nonzero"/><path fill="#000000" fill-opacity="0.0" clip-path="url(#id_0)" d="M544.43317 239.90956C544.43317 241.5664 543.09 242.90956 541.43317 242.90956C539.77637 242.90956 538.43317 241.5664 538.43317 239.90956C538.43317 238.2527 539.77637 236.90956 541.43317 236.90956C543.09 236.90956 544.43317 238.2527 544.43317 239.90956Z" fill-rule="nonzero"/><path fill="#000000" fill-opacity="0.0" clip-path="url(#id_0)" d="M554.0924 251.06018C554.0924 252.71703 552.74927 254.06018 551.0924 254.06018C549.43555 254.06018 548.0924 252.71703 548.0924 251.06018C548.0924 249.40332 549.43555 248.06018 551.0924 248.06018C552.74927 248.06018 554.0924 249.40332 554.0924 251.06018Z" fill-rule="nonzero"/><path fill="#000000" fill-opacity="0.0" clip-path="url(#id_0)" d="M563.75165 256.6355C563.75165 258.29236 562.4085 259.6355 560.75165 259.6355C559.0948 259.6355 557.75165 258.29236 557.75165 256.6355C557.75165 254.97864 559.0948 253.63548 560.75165 253.63548C562.4085 253.63548 563.75165 254.97864 563.75165 256.6355Z" fill-rule="nonzero"/><path fill="#000000" fill-opacity="0.0" clip-path="url(#id_0)" d="M567.8913 261.2816C567.8913 262.93845 566.54816 264.2816 564.8913 264.2816C563.2345 264.2816 561.8913 262.93845 561.8913 261.2816C561.8913 259.62473 563.2345 258.2816 564.8913 258.2816C566.54816 258.2816 567.8913 259.62473 567.8913 261.2816Z" fill-rule="nonzero"/><path fill="#000000" fill-opacity="0.0" clip-path="url(#id_0)" d="M584.45 257.5647C584.45 259.22156 583.1069 260.5647 581.45 260.5647C579.79315 260.5647 578.45 259.22156 578.45 257.5647C578.45 255.90785 579.79315 254.56471 581.45 254.56471C583.1069 254.56471 584.45 255.90785 584.45 257.5647Z" fill-rule="nonzero"/><path fill="#000000" d="M318.92188 349.45L318.92188 340.85626L321.89062 340.85626Q322.89062 340.85626 323.42188 340.98126Q324.15625 341.15314 324.67188 341.59064Q325.35938 342.16876 325.6875 343.075Q326.03125 343.96564 326.03125 345.10626Q326.03125 346.09064 325.79688 346.84064Q325.57812 347.59064 325.21875 348.09064Q324.85938 348.59064 324.42188 348.8719Q324.0 349.15314 323.40625 349.3094Q322.8125 349.45 322.03125 349.45L318.92188 349.45ZM320.0625 348.4344L321.89062 348.4344Q322.75 348.4344 323.23438 348.27814Q323.71875 348.1219 324.0 347.825Q324.40625 347.4344 324.625 346.7469Q324.85938 346.0594 324.85938 345.09064Q324.85938 343.7469 324.40625 343.02814Q323.96875 342.29376 323.34375 342.04376Q322.875 341.8719 321.875 341.8719L320.0625 341.8719L320.0625 348.4344ZM331.85938 348.6844Q331.26562 349.1844 330.71875 349.3875Q330.1875 349.59064 329.5625 349.59064Q328.53125 349.59064 327.98438 349.09064Q327.4375 348.59064 327.4375 347.8094Q327.4375 347.35626 327.64062 346.98126Q327.84375 346.59064 328.1875 346.3719Q328.53125 346.1375 328.95312 346.02814Q329.25 345.9344 329.89062 345.85626Q331.15625 345.71564 331.76562 345.4969Q331.76562 345.27814 331.76562 345.23126Q331.76562 344.575 331.46875 344.3094Q331.0625 343.96564 330.26562 343.96564Q329.53125 343.96564 329.17188 344.23126Q328.8125 344.48126 328.64062 345.1375L327.60938 344.9969Q327.75 344.34064 328.07812 343.9344Q328.40625 343.52814 329.01562 343.3094Q329.625 343.09064 330.42188 343.09064Q331.21875 343.09064 331.71875 343.27814Q332.21875 343.46564 332.45312 343.7469Q332.6875 344.02814 332.78125 344.46564Q332.82812 344.73126 332.82812 345.4344L332.82812 346.84064Q332.82812 348.3094 332.89062 348.7Q332.96875 349.09064 333.17188 349.45L332.0625 349.45Q331.90625 349.1219 331.85938 348.6844ZM331.76562 346.325Q331.1875 346.5594 330.04688 346.73126Q329.39062 346.825 329.125 346.95Q328.85938 347.0594 328.70312 347.27814Q328.5625 347.4969 328.5625 347.77814Q328.5625 348.2 328.875 348.48126Q329.20312 348.7625 329.8125 348.7625Q330.42188 348.7625 330.89062 348.4969Q331.375 348.23126 331.59375 347.7625Q331.76562 347.40314 331.76562 346.71564L331.76562 346.325ZM337.09375 348.5125L337.25 349.4344Q336.79688 349.52814 336.45312 349.52814Q335.875 349.52814 335.5625 349.35626Q335.25 349.16876 335.10938 348.8719Q334.98438 348.575 334.98438 347.6219L334.98438 344.04376L334.21875 344.04376L334.21875 343.23126L334.98438 343.23126L334.98438 341.6844L336.03125 341.0594L336.03125 343.23126L337.09375 343.23126L337.09375 344.04376L336.03125 344.04376L336.03125 347.6844Q336.03125 348.1375 336.07812 348.2625Q336.14062 348.3875 336.26562 348.46564Q336.39062 348.54376 336.625 348.54376Q336.8125 348.54376 337.09375 348.5125ZM342.04688 347.45L343.14062 347.575Q342.89062 348.52814 342.1875 349.0594Q341.48438 349.59064 340.40625 349.59064Q339.04688 349.59064 338.23438 348.7469Q337.4375 347.90314 337.4375 346.3875Q337.4375 344.825 338.25 343.96564Q339.0625 343.09064 340.34375 343.09064Q341.59375 343.09064 342.375 343.9344Q343.17188 344.77814 343.17188 346.325Q343.17188 346.41876 343.17188 346.60626L338.53125 346.60626Q338.59375 347.6375 339.10938 348.1844Q339.625 348.71564 340.40625 348.71564Q340.98438 348.71564 341.39062 348.41876Q341.8125 348.10626 342.04688 347.45ZM338.59375 345.7469L342.0625 345.7469Q342.0 344.95 341.67188 344.5594Q341.15625 343.95 340.35938 343.95Q339.625 343.95 339.125 344.4344Q338.64062 344.91876 338.59375 345.7469Z" fill-rule="nonzero"/><path fill="#000000" d="M29.550013 178.625L20.956263 178.625L20.956263 175.39062Q20.956263 174.40625 21.221888 173.8125Q21.487513 173.21875 22.034388 172.89062Q22.565638 172.54688 23.159388 172.54688Q23.706263 172.54688 24.190638 172.84375Q24.675013 173.14062 24.971888 173.75Q25.206263 172.96875 25.768763 172.5625Q26.315638 172.14062 27.065638 172.14062Q27.659388 172.14062 28.190638 172.39062Q28.706263 172.64062 28.987513 173.01562Q29.268763 173.39062 29.409388 173.96875Q29.550013 174.53125 29.550013 175.34375L29.550013 178.625ZM24.565638 177.48438L24.565638 175.625Q24.565638 174.875 24.471888 174.54688Q24.346888 174.10938 24.050013 173.89062Q23.737513 173.67188 23.284388 173.67188Q22.862513 173.67188 22.534388 173.875Q22.206263 174.07812 22.096888 174.46875Q21.971888 174.84375 21.971888 175.76562L21.971888 177.48438L24.565638 177.48438ZM28.534388 177.48438L28.534388 175.34375Q28.534388 174.79688 28.487513 174.57812Q28.425013 174.17188 28.268763 173.92188Q28.096888 173.65625 27.784388 173.48438Q27.471888 173.3125 27.065638 173.3125Q26.581263 173.3125 26.221888 173.5625Q25.862513 173.79688 25.721888 174.23438Q25.581263 174.67188 25.581263 175.5L25.581263 177.48438L28.534388 177.48438ZM29.550013 170.60938L20.956263 170.60938L20.956263 168.89062L27.034388 166.85938Q27.893763 166.57812 28.315638 166.45312Q27.846888 166.3125 26.940638 166.0L20.956263 163.9375L20.956263 162.40625L29.550013 162.40625L29.550013 163.5L22.362513 163.5L29.550013 166.0L29.550013 167.03125L22.237513 169.51562L29.550013 169.51562L29.550013 170.60938ZM29.550013 161.375L20.956263 161.375L20.956263 160.25L29.550013 160.25L29.550013 161.375Z" fill-rule="nonzero"/><path fill="#000000" d="M56.596874 303.4344L56.596874 304.45L50.909374 304.45Q50.909374 304.075 51.034374 303.71564Q51.253124 303.1375 51.721874 302.575Q52.20625 302.0125 53.1125 301.27814Q54.51875 300.1219 55.003124 299.45Q55.503124 298.77814 55.503124 298.1844Q55.503124 297.5594 55.05 297.1375Q54.596874 296.7 53.878124 296.7Q53.1125 296.7 52.659374 297.15314Q52.20625 297.60626 52.190624 298.41876L51.1125 298.3094Q51.221874 297.09064 51.940624 296.46564Q52.675 295.825 53.909374 295.825Q55.14375 295.825 55.8625 296.5125Q56.58125 297.2 56.58125 298.21564Q56.58125 298.73126 56.3625 299.23126Q56.159374 299.71564 55.659374 300.27814Q55.175 300.825 54.05 301.77814Q53.096874 302.575 52.815624 302.8719Q52.55 303.15314 52.378124 303.4344L56.596874 303.4344ZM63.596874 303.4344L63.596874 304.45L57.909374 304.45Q57.909374 304.075 58.034374 303.71564Q58.253124 303.1375 58.721874 302.575Q59.20625 302.0125 60.1125 301.27814Q61.51875 300.1219 62.003124 299.45Q62.503124 298.77814 62.503124 298.1844Q62.503124 297.5594 62.05 297.1375Q61.596874 296.7 60.878124 296.7Q60.1125 296.7 59.659374 297.15314Q59.20625 297.60626 59.190624 298.41876L58.1125 298.3094Q58.221874 297.09064 58.940624 296.46564Q59.675 295.825 60.909374 295.825Q62.14375 295.825 62.8625 296.5125Q63.58125 297.2 63.58125 298.21564Q63.58125 298.73126 63.3625 299.23126Q63.159374 299.71564 62.659374 300.27814Q62.175 300.825 61.05 301.77814Q60.096874 302.575 59.815624 302.8719Q59.55 303.15314 59.378124 303.4344L63.596874 303.4344ZM65.64375 304.45L65.64375 303.2469L66.84688 303.2469L66.84688 304.45L65.64375 304.45ZM68.05 300.21564Q68.05 298.6844 68.3625 297.7625Q68.675 296.825 69.28438 296.325Q69.90938 295.825 70.84688 295.825Q71.53438 295.825 72.05 296.10626Q72.58125 296.3875 72.925 296.91876Q73.26875 297.4344 73.45625 298.1844Q73.64375 298.9344 73.64375 300.21564Q73.64375 301.73126 73.33125 302.65314Q73.03438 303.575 72.40938 304.09064Q71.8 304.59064 70.84688 304.59064Q69.6125 304.59064 68.89375 303.7Q68.05 302.6375 68.05 300.21564ZM69.12813 300.21564Q69.12813 302.325 69.62813 303.02814Q70.12813 303.73126 70.84688 303.73126Q71.58125 303.73126 72.06563 303.02814Q72.56563 302.325 72.56563 300.21564Q72.56563 298.09064 72.06563 297.40314Q71.58125 296.7 70.83125 296.7Q70.1125 296.7 69.675 297.3094Q69.12813 298.09064 69.12813 300.21564Z" fill-rule="nonzero"/><path fill="#000000" d="M56.596874 248.45438L56.596874 249.47L50.909374 249.47Q50.909374 249.095 51.034374 248.73563Q51.253124 248.1575 51.721874 247.595Q52.20625 247.0325 53.1125 246.29813Q54.51875 245.14188 55.003124 244.47Q55.503124 243.79813 55.503124 243.20438Q55.503124 242.57938 55.05 242.1575Q54.596874 241.72 53.878124 241.72Q53.1125 241.72 52.659374 242.17313Q52.20625 242.62625 52.190624 243.43875L51.1125 243.32938Q51.221874 242.11063 51.940624 241.48563Q52.675 240.845 53.909374 240.845Q55.14375 240.845 55.8625 241.5325Q56.58125 242.22 56.58125 243.23563Q56.58125 243.75125 56.3625 244.25125Q56.159374 244.73563 55.659374 245.29813Q55.175 245.845 54.05 246.79813Q53.096874 247.595 52.815624 247.89188Q52.55 248.17313 52.378124 248.45438L56.596874 248.45438ZM61.425 249.47L61.425 247.4075L57.70625 247.4075L57.70625 246.43875L61.628124 240.87625L62.4875 240.87625L62.4875 246.43875L63.64375 246.43875L63.64375 247.4075L62.4875 247.4075L62.4875 249.47L61.425 249.47ZM61.425 246.43875L61.425 242.57938L58.7375 246.43875L61.425 246.43875ZM65.64375 249.47L65.64375 248.26688L66.84688 248.26688L66.84688 249.47L65.64375 249.47ZM68.05 245.23563Q68.05 243.70438 68.3625 242.7825Q68.675 241.845 69.28438 241.345Q69.90938 240.845 70.84688 240.845Q71.53438 240.845 72.05 241.12625Q72.58125 241.4075 72.925 241.93875Q73.26875 242.45438 73.45625 243.20438Q73.64375 243.95438 73.64375 245.23563Q73.64375 246.75125 73.33125 247.67313Q73.03438 248.595 72.40938 249.11063Q71.8 249.61063 70.84688 249.61063Q69.6125 249.61063 68.89375 248.72Q68.05 247.6575 68.05 245.23563ZM69.12813 245.23563Q69.12813 247.345 69.62813 248.04813Q70.12813 248.75125 70.84688 248.75125Q71.58125 248.75125 72.06563 248.04813Q72.56563 247.345 72.56563 245.23563Q72.56563 243.11063 72.06563 242.42313Q71.58125 241.72 70.83125 241.72Q70.1125 241.72 69.675 242.32938Q69.12813 243.11063 69.12813 245.23563Z" fill-rule="nonzero"/><path fill="#000000" d="M56.596874 193.47438L56.596874 194.49L50.909374 194.49Q50.909374 194.115 51.034374 193.75563Q51.253124 193.1775 51.721874 192.615Q52.20625 192.0525 53.1125 191.31813Q54.51875 190.16188 55.003124 189.49Q55.503124 188.81813 55.503124 188.22438Q55.503124 187.59938 55.05 187.1775Q54.596874 186.74 53.878124 186.74Q53.1125 186.74 52.659374 187.19313Q52.20625 187.64626 52.190624 188.45876L51.1125 188.34938Q51.221874 187.13063 51.940624 186.50563Q52.675 185.865 53.909374 185.865Q55.14375 185.865 55.8625 186.5525Q56.58125 187.24 56.58125 188.25563Q56.58125 188.77126 56.3625 189.27126Q56.159374 189.75563 55.659374 190.31813Q55.175 190.865 54.05 191.81813Q53.096874 192.615 52.815624 192.91188Q52.55 193.19313 52.378124 193.47438L56.596874 193.47438ZM63.51875 188.00563L62.471874 188.08376Q62.33125 187.45876 62.08125 187.1775Q61.64375 186.72438 61.01875 186.72438Q60.51875 186.72438 60.128124 187.00563Q59.64375 187.38063 59.346874 188.08376Q59.065624 188.77126 59.05 190.0525Q59.425 189.47438 59.971874 189.19313Q60.534374 188.91188 61.14375 188.91188Q62.190624 188.91188 62.925 189.69313Q63.675 190.47438 63.675 191.69313Q63.675 192.50563 63.315624 193.20876Q62.971874 193.89626 62.3625 194.27126Q61.753124 194.63063 60.9875 194.63063Q59.659374 194.63063 58.83125 193.66188Q58.003124 192.69313 58.003124 190.47438Q58.003124 187.97438 58.925 186.84938Q59.721874 185.865 61.08125 185.865Q62.096874 185.865 62.7375 186.44313Q63.39375 187.00563 63.51875 188.00563ZM59.221874 191.70876Q59.221874 192.25563 59.440624 192.75563Q59.675 193.24 60.08125 193.50563Q60.503124 193.77126 60.971874 193.77126Q61.628124 193.77126 62.1125 193.24Q62.596874 192.69313 62.596874 191.77126Q62.596874 190.88063 62.1125 190.365Q61.64375 189.84938 60.925 189.84938Q60.20625 189.84938 59.70625 190.365Q59.221874 190.88063 59.221874 191.70876ZM65.64375 194.49L65.64375 193.28688L66.84688 193.28688L66.84688 194.49L65.64375 194.49ZM68.05 190.25563Q68.05 188.72438 68.3625 187.8025Q68.675 186.865 69.28438 186.365Q69.90938 185.865 70.84688 185.865Q71.53438 185.865 72.05 186.14626Q72.58125 186.4275 72.925 186.95876Q73.26875 187.47438 73.45625 188.22438Q73.64375 188.97438 73.64375 190.25563Q73.64375 191.77126 73.33125 192.69313Q73.03438 193.615 72.40938 194.13063Q71.8 194.63063 70.84688 194.63063Q69.6125 194.63063 68.89375 193.74Q68.05 192.6775 68.05 190.25563ZM69.12813 190.25563Q69.12813 192.365 69.62813 193.06813Q70.12813 193.77126 70.84688 193.77126Q71.58125 193.77126 72.06563 193.06813Q72.56563 192.365 72.56563 190.25563Q72.56563 188.13063 72.06563 187.44313Q71.58125 186.74 70.83125 186.74Q70.1125 186.74 69.675 187.34938Q69.12813 188.13063 69.12813 190.25563Z" fill-rule="nonzero"/><path fill="#000000" d="M56.596874 138.49437L56.596874 139.51L50.909374 139.51Q50.909374 139.135 51.034374 138.77562Q51.253124 138.1975 51.721874 137.635Q52.20625 137.0725 53.1125 136.33812Q54.51875 135.18187 55.003124 134.51Q55.503124 133.83812 55.503124 133.24437Q55.503124 132.61937 55.05 132.1975Q54.596874 131.76 53.878124 131.76Q53.1125 131.76 52.659374 132.21312Q52.20625 132.66624 52.190624 133.47874L51.1125 133.36937Q51.221874 132.15062 51.940624 131.52562Q52.675 130.885 53.909374 130.885Q55.14375 130.885 55.8625 131.5725Q56.58125 132.26 56.58125 133.27562Q56.58125 133.79124 56.3625 134.29124Q56.159374 134.77562 55.659374 135.33812Q55.175 135.885 54.05 136.83812Q53.096874 137.635 52.815624 137.93187Q52.55 138.21312 52.378124 138.49437L56.596874 138.49437ZM59.675 134.85374Q59.01875 134.60374 58.690624 134.16624Q58.378124 133.71312 58.378124 133.10374Q58.378124 132.16624 59.05 131.52562Q59.7375 130.885 60.846874 130.885Q61.971874 130.885 62.659374 131.54124Q63.346874 132.1975 63.346874 133.135Q63.346874 133.72874 63.034374 134.16624Q62.721874 134.60374 62.08125 134.85374Q62.878124 135.10374 63.284374 135.68187Q63.690624 136.26 63.690624 137.05687Q63.690624 138.15062 62.909374 138.90062Q62.14375 139.65062 60.8625 139.65062Q59.596874 139.65062 58.815624 138.90062Q58.034374 138.15062 58.034374 137.02562Q58.034374 136.18187 58.45625 135.61937Q58.89375 135.05687 59.675 134.85374ZM59.45625 133.05687Q59.45625 133.66624 59.846874 134.05687Q60.253124 134.4475 60.878124 134.4475Q61.4875 134.4475 61.878124 134.0725Q62.26875 133.68187 62.26875 133.11937Q62.26875 132.54124 61.8625 132.15062Q61.45625 131.74437 60.8625 131.74437Q60.253124 131.74437 59.846874 132.135Q59.45625 132.52562 59.45625 133.05687ZM59.128124 137.02562Q59.128124 137.47874 59.33125 137.90062Q59.55 138.3225 59.971874 138.55687Q60.39375 138.79124 60.878124 138.79124Q61.628124 138.79124 62.1125 138.30687Q62.6125 137.8225 62.6125 137.0725Q62.6125 136.30687 62.1125 135.80687Q61.6125 135.30687 60.846874 135.30687Q60.096874 135.30687 59.6125 135.80687Q59.128124 136.29124 59.128124 137.02562ZM65.64375 139.51L65.64375 138.30687L66.84688 138.30687L66.84688 139.51L65.64375 139.51ZM68.05 135.27562Q68.05 133.74437 68.3625 132.8225Q68.675 131.885 69.28438 131.385Q69.90938 130.885 70.84688 130.885Q71.53438 130.885 72.05 131.16624Q72.58125 131.4475 72.925 131.97874Q73.26875 132.49437 73.45625 133.24437Q73.64375 133.99437 73.64375 135.27562Q73.64375 136.79124 73.33125 137.71312Q73.03438 138.635 72.40938 139.15062Q71.8 139.65062 70.84688 139.65062Q69.6125 139.65062 68.89375 138.76Q68.05 137.6975 68.05 135.27562ZM69.12813 135.27562Q69.12813 137.385 69.62813 138.08812Q70.12813 138.79124 70.84688 138.79124Q71.58125 138.79124 72.06563 138.08812Q72.56563 137.385 72.56563 135.27562Q72.56563 133.15062 72.06563 132.46312Q71.58125 131.76 70.83125 131.76Q70.1125 131.76 69.675 132.36937Q69.12813 133.15062 69.12813 135.27562Z" fill-rule="nonzero"/><path fill="#000000" d="M51.05 82.26437L52.1125 82.12375Q52.284374 83.01437 52.721874 83.42062Q53.159374 83.81125 53.784374 83.81125Q54.534374 83.81125 55.05 83.29562Q55.565624 82.78 55.565624 82.01437Q55.565624 81.29562 55.08125 80.82687Q54.6125 80.3425 53.878124 80.3425Q53.58125 80.3425 53.128124 80.4675L53.253124 79.53Q53.3625 79.54562 53.425 79.54562Q54.096874 79.54562 54.628124 79.20187Q55.175 78.8425 55.175 78.10812Q55.175 77.53 54.784374 77.155Q54.39375 76.76437 53.76875 76.76437Q53.159374 76.76437 52.7375 77.155Q52.33125 77.54562 52.221874 78.31125L51.159374 78.12375Q51.346874 77.07687 52.034374 76.49875Q52.721874 75.905 53.7375 75.905Q54.440624 75.905 55.034374 76.2175Q55.628124 76.51437 55.940624 77.03Q56.253124 77.54562 56.253124 78.13937Q56.253124 78.68625 55.95625 79.155Q55.659374 79.60812 55.08125 79.87375Q55.83125 80.04562 56.253124 80.60812Q56.675 81.155 56.675 81.99875Q56.675 83.12375 55.846874 83.905Q55.034374 84.68625 53.784374 84.68625Q52.659374 84.68625 51.909374 84.01437Q51.159374 83.32687 51.05 82.26437ZM58.05 80.29562Q58.05 78.76437 58.3625 77.8425Q58.675 76.905 59.284374 76.405Q59.909374 75.905 60.846874 75.905Q61.534374 75.905 62.05 76.18625Q62.58125 76.4675 62.925 76.99875Q63.26875 77.51437 63.45625 78.26437Q63.64375 79.01437 63.64375 80.29562Q63.64375 81.81125 63.33125 82.73312Q63.034374 83.655 62.409374 84.17062Q61.8 84.67062 60.846874 84.67062Q59.6125 84.67062 58.89375 83.78Q58.05 82.7175 58.05 80.29562ZM59.128124 80.29562Q59.128124 82.405 59.628124 83.10812Q60.128124 83.81125 60.846874 83.81125Q61.58125 83.81125 62.065624 83.10812Q62.565624 82.405 62.565624 80.29562Q62.565624 78.17062 62.065624 77.48312Q61.58125 76.78 60.83125 76.78Q60.1125 76.78 59.675 77.38937Q59.128124 78.17062 59.128124 80.29562ZM65.64375 84.53L65.64375 83.32687L66.84688 83.32687L66.84688 84.53L65.64375 84.53ZM68.05 80.29562Q68.05 78.76437 68.3625 77.8425Q68.675 76.905 69.28438 76.405Q69.90938 75.905 70.84688 75.905Q71.53438 75.905 72.05 76.18625Q72.58125 76.4675 72.925 76.99875Q73.26875 77.51437 73.45625 78.26437Q73.64375 79.01437 73.64375 80.29562Q73.64375 81.81125 73.33125 82.73312Q73.03438 83.655 72.40938 84.17062Q71.8 84.67062 70.84688 84.67062Q69.6125 84.67062 68.89375 83.78Q68.05 82.7175 68.05 80.29562ZM69.12813 80.29562Q69.12813 82.405 69.62813 83.10812Q70.12813 83.81125 70.84688 83.81125Q71.58125 83.81125 72.06563 83.10812Q72.56563 82.405 72.56563 80.29562Q72.56563 78.17062 72.06563 77.48312Q71.58125 76.78 70.83125 76.78Q70.1125 76.78 69.675 77.38937Q69.12813 78.17062 69.12813 80.29562Z" fill-rule="nonzero"/><path fill="#000000" d="M51.05 27.284374L52.1125 27.14375Q52.284374 28.034374 52.721874 28.440624Q53.159374 28.83125 53.784374 28.83125Q54.534374 28.83125 55.05 28.315624Q55.565624 27.8 55.565624 27.034374Q55.565624 26.315624 55.08125 25.846874Q54.6125 25.3625 53.878124 25.3625Q53.58125 25.3625 53.128124 25.4875L53.253124 24.55Q53.3625 24.565624 53.425 24.565624Q54.096874 24.565624 54.628124 24.221874Q55.175 23.8625 55.175 23.128124Q55.175 22.55 54.784374 22.175Q54.39375 21.784374 53.76875 21.784374Q53.159374 21.784374 52.7375 22.175Q52.33125 22.565624 52.221874 23.33125L51.159374 23.14375Q51.346874 22.096874 52.034374 21.51875Q52.721874 20.925 53.7375 20.925Q54.440624 20.925 55.034374 21.2375Q55.628124 21.534374 55.940624 22.05Q56.253124 22.565624 56.253124 23.159374Q56.253124 23.70625 55.95625 24.175Q55.659374 24.628124 55.08125 24.89375Q55.83125 25.065624 56.253124 25.628124Q56.675 26.175 56.675 27.01875Q56.675 28.14375 55.846874 28.925Q55.034374 29.70625 53.784374 29.70625Q52.659374 29.70625 51.909374 29.034374Q51.159374 28.346874 51.05 27.284374ZM63.596874 28.534374L63.596874 29.55L57.909374 29.55Q57.909374 29.175 58.034374 28.815624Q58.253124 28.2375 58.721874 27.675Q59.20625 27.1125 60.1125 26.378124Q61.51875 25.221874 62.003124 24.55Q62.503124 23.878124 62.503124 23.284374Q62.503124 22.659374 62.05 22.2375Q61.596874 21.8 60.878124 21.8Q60.1125 21.8 59.659374 22.253124Q59.20625 22.70625 59.190624 23.51875L58.1125 23.409374Q58.221874 22.190624 58.940624 21.565624Q59.675 20.925 60.909374 20.925Q62.14375 20.925 62.8625 21.6125Q63.58125 22.3 63.58125 23.315624Q63.58125 23.83125 63.3625 24.33125Q63.159374 24.815624 62.659374 25.378124Q62.175 25.925 61.05 26.878124Q60.096874 27.675 59.815624 27.971874Q59.55 28.253124 59.378124 28.534374L63.596874 28.534374ZM65.64375 29.55L65.64375 28.346874L66.84688 28.346874L66.84688 29.55L65.64375 29.55ZM68.05 25.315624Q68.05 23.784374 68.3625 22.8625Q68.675 21.925 69.28438 21.425Q69.90938 20.925 70.84688 20.925Q71.53438 20.925 72.05 21.20625Q72.58125 21.4875 72.925 22.01875Q73.26875 22.534374 73.45625 23.284374Q73.64375 24.034374 73.64375 25.315624Q73.64375 26.83125 73.33125 27.753124Q73.03438 28.675 72.40938 29.190624Q71.8 29.690624 70.84688 29.690624Q69.6125 29.690624 68.89375 28.8Q68.05 27.7375 68.05 25.315624ZM69.12813 25.315624Q69.12813 27.425 69.62813 28.128124Q70.12813 28.83125 70.84688 28.83125Q71.58125 28.83125 72.06563 28.128124Q72.56563 27.425 72.56563 25.315624Q72.56563 23.190624 72.06563 22.503124Q71.58125 21.8 70.83125 21.8Q70.1125 21.8 69.675 22.409374Q69.12813 23.190624 69.12813 25.315624Z" fill-rule="nonzero"/><path fill="#000000" d="M54.18967 313.21564Q54.18967 311.6844 54.50217 310.7625Q54.81467 309.825 55.424046 309.325Q56.049046 308.825 56.986546 308.825Q57.674046 308.825 58.18967 309.10626Q58.72092 309.3875 59.06467 309.91876Q59.40842 310.4344 59.59592 311.1844Q59.78342 311.9344 59.78342 313.21564Q59.78342 314.73126 59.47092 315.65314Q59.174046 316.575 58.549046 317.09064Q57.93967 317.59064 56.986546 317.59064Q55.75217 317.59064 55.03342 316.7Q54.18967 315.6375 54.18967 313.21564ZM55.267796 313.21564Q55.267796 315.325 55.767796 316.02814Q56.267796 316.73126 56.986546 316.73126Q57.72092 316.73126 58.205296 316.02814Q58.705296 315.325 58.705296 313.21564Q58.705296 311.09064 58.205296 310.40314Q57.72092 309.7 56.97092 309.7Q56.25217 309.7 55.81467 310.3094Q55.267796 311.09064 55.267796 313.21564ZM65.15842 317.45L64.11154 317.45L64.11154 310.73126Q63.72092 311.09064 63.09592 311.46564Q62.486546 311.825 62.00217 311.9969L62.00217 310.98126Q62.87717 310.5594 63.53342 309.98126Q64.20529 309.3875 64.48654 308.825L65.15842 308.825L65.15842 317.45ZM67.68967 317.59064L70.17404 308.71564L71.01779 308.71564L68.53342 317.59064L67.68967 317.59064ZM71.18967 313.21564Q71.18967 311.6844 71.50217 310.7625Q71.81467 309.825 72.42404 309.325Q73.04904 308.825 73.98654 308.825Q74.67404 308.825 75.18967 309.10626Q75.72092 309.3875 76.06467 309.91876Q76.40842 310.4344 76.59592 311.1844Q76.78342 311.9344 76.78342 313.21564Q76.78342 314.73126 76.47092 315.65314Q76.17404 316.575 75.54904 317.09064Q74.93967 317.59064 73.98654 317.59064Q72.75217 317.59064 72.03342 316.7Q71.18967 315.6375 71.18967 313.21564ZM72.26779 313.21564Q72.26779 315.325 72.76779 316.02814Q73.26779 316.73126 73.98654 316.73126Q74.72092 316.73126 75.20529 316.02814Q75.70529 315.325 75.70529 313.21564Q75.70529 311.09064 75.20529 310.40314Q74.72092 309.7 73.97092 309.7Q73.25217 309.7 72.81467 310.3094Q72.26779 311.09064 72.26779 313.21564ZM78.34592 315.46564L79.36154 315.3719Q79.48654 316.09064 79.84592 316.41876Q80.22092 316.73126 80.78342 316.73126Q81.26779 316.73126 81.62717 316.5125Q82.00217 316.27814 82.23654 315.91876Q82.47092 315.54376 82.62717 314.91876Q82.78342 314.27814 82.78342 313.6219Q82.78342 313.54376 82.78342 313.40314Q82.47092 313.90314 81.92404 314.23126Q81.37717 314.54376 80.73654 314.54376Q79.65842 314.54376 78.92404 313.77814Q78.18967 312.9969 78.18967 311.73126Q78.18967 310.41876 78.95529 309.6219Q79.73654 308.825 80.89279 308.825Q81.72092 308.825 82.40842 309.27814Q83.11154 309.73126 83.47092 310.575Q83.83029 311.40314 83.83029 312.98126Q83.83029 314.6219 83.47092 315.60626Q83.12717 316.575 82.40842 317.09064Q81.70529 317.59064 80.76779 317.59064Q79.75217 317.59064 79.11154 317.04376Q78.47092 316.48126 78.34592 315.46564ZM82.65842 311.66876Q82.65842 310.7625 82.17404 310.23126Q81.70529 309.7 81.01779 309.7Q80.31467 309.7 79.78342 310.27814Q79.26779 310.84064 79.26779 311.7625Q79.26779 312.575 79.76779 313.09064Q80.26779 313.60626 80.98654 313.60626Q81.72092 313.60626 82.18967 313.09064Q82.65842 312.575 82.65842 311.66876ZM84.68967 317.59064L87.17404 308.71564L88.01779 308.71564L85.53342 317.59064L84.68967 317.59064ZM93.73654 316.4344L93.73654 317.45L88.04904 317.45Q88.04904 317.075 88.17404 316.71564Q88.39279 316.1375 88.86154 315.575Q89.34592 315.0125 90.25217 314.27814Q91.65842 313.1219 92.14279 312.45Q92.64279 311.77814 92.64279 311.1844Q92.64279 310.5594 92.18967 310.1375Q91.73654 309.7 91.01779 309.7Q90.25217 309.7 89.79904 310.15314Q89.34592 310.60626 89.33029 311.41876L88.25217 311.3094Q88.36154 310.09064 89.08029 309.46564Q89.81467 308.825 91.04904 308.825Q92.28342 308.825 93.00217 309.5125Q93.72092 310.2 93.72092 311.21564Q93.72092 311.73126 93.50217 312.23126Q93.29904 312.71564 92.79904 313.27814Q92.31467 313.825 91.18967 314.77814Q90.23654 315.575 89.95529 315.8719Q89.68967 316.15314 89.51779 316.4344L93.73654 316.4344ZM95.18967 313.21564Q95.18967 311.6844 95.50217 310.7625Q95.81467 309.825 96.42404 309.325Q97.04904 308.825 97.98654 308.825Q98.67404 308.825 99.18967 309.10626Q99.72092 309.3875 100.06467 309.91876Q100.40842 310.4344 100.59592 311.1844Q100.78342 311.9344 100.78342 313.21564Q100.78342 314.73126 100.47092 315.65314Q100.17404 316.575 99.54904 317.09064Q98.93967 317.59064 97.98654 317.59064Q96.75217 317.59064 96.03342 316.7Q95.18967 315.6375 95.18967 313.21564ZM96.26779 313.21564Q96.26779 315.325 96.76779 316.02814Q97.26779 316.73126 97.98654 316.73126Q98.72092 316.73126 99.20529 316.02814Q99.70529 315.325 99.70529 313.21564Q99.70529 311.09064 99.20529 310.40314Q98.72092 309.7 97.97092 309.7Q97.25217 309.7 96.81467 310.3094Q96.26779 311.09064 96.26779 313.21564ZM107.73654 316.4344L107.73654 317.45L102.04904 317.45Q102.04904 317.075 102.17404 316.71564Q102.39279 316.1375 102.86154 315.575Q103.34592 315.0125 104.25217 314.27814Q105.65842 313.1219 106.14279 312.45Q106.64279 311.77814 106.64279 311.1844Q106.64279 310.5594 106.18967 310.1375Q105.73654 309.7 105.01779 309.7Q104.25217 309.7 103.79904 310.15314Q103.34592 310.60626 103.33029 311.41876L102.25217 311.3094Q102.36154 310.09064 103.08029 309.46564Q103.81467 308.825 105.04904 308.825Q106.28342 308.825 107.00217 309.5125Q107.72092 310.2 107.72092 311.21564Q107.72092 311.73126 107.50217 312.23126Q107.29904 312.71564 106.79904 313.27814Q106.31467 313.825 105.18967 314.77814Q104.23654 315.575 103.95529 315.8719Q103.68967 316.15314 103.51779 316.4344L107.73654 316.4344ZM112.56467 317.45L112.56467 315.3875L108.84592 315.3875L108.84592 314.41876L112.76779 308.85626L113.62717 308.85626L113.62717 314.41876L114.78342 314.41876L114.78342 315.3875L113.62717 315.3875L113.62717 317.45L112.56467 317.45ZM112.56467 314.41876L112.56467 310.5594L109.87717 314.41876L112.56467 314.41876Z" fill-rule="nonzero"/><path fill="#000000" d="M138.36295 313.21564Q138.36295 311.6844 138.67545 310.7625Q138.98795 309.825 139.59732 309.325Q140.22232 308.825 141.15982 308.825Q141.84732 308.825 142.36295 309.10626Q142.8942 309.3875 143.23795 309.91876Q143.5817 310.4344 143.7692 311.1844Q143.9567 311.9344 143.9567 313.21564Q143.9567 314.73126 143.6442 315.65314Q143.34732 316.575 142.72232 317.09064Q142.11295 317.59064 141.15982 317.59064Q139.92545 317.59064 139.2067 316.7Q138.36295 315.6375 138.36295 313.21564ZM139.44107 313.21564Q139.44107 315.325 139.94107 316.02814Q140.44107 316.73126 141.15982 316.73126Q141.8942 316.73126 142.37857 316.02814Q142.87857 315.325 142.87857 313.21564Q142.87857 311.09064 142.37857 310.40314Q141.8942 309.7 141.1442 309.7Q140.42545 309.7 139.98795 310.3094Q139.44107 311.09064 139.44107 313.21564ZM149.3317 317.45L148.28482 317.45L148.28482 310.73126Q147.8942 311.09064 147.2692 311.46564Q146.65982 311.825 146.17545 311.9969L146.17545 310.98126Q147.05045 310.5594 147.7067 309.98126Q148.37857 309.3875 148.65982 308.825L149.3317 308.825L149.3317 317.45ZM151.86295 317.59064L154.34732 308.71564L155.19107 308.71564L152.7067 317.59064L151.86295 317.59064ZM159.3317 317.45L158.28482 317.45L158.28482 310.73126Q157.8942 311.09064 157.2692 311.46564Q156.65982 311.825 156.17545 311.9969L156.17545 310.98126Q157.05045 310.5594 157.7067 309.98126Q158.37857 309.3875 158.65982 308.825L159.3317 308.825L159.3317 317.45ZM166.3317 317.45L165.28482 317.45L165.28482 310.73126Q164.8942 311.09064 164.2692 311.46564Q163.65982 311.825 163.17545 311.9969L163.17545 310.98126Q164.05045 310.5594 164.7067 309.98126Q165.37857 309.3875 165.65982 308.825L166.3317 308.825L166.3317 317.45ZM168.86295 317.59064L171.34732 308.71564L172.19107 308.71564L169.7067 317.59064L168.86295 317.59064ZM177.90982 316.4344L177.90982 317.45L172.22232 317.45Q172.22232 317.075 172.34732 316.71564Q172.56607 316.1375 173.03482 315.575Q173.5192 315.0125 174.42545 314.27814Q175.8317 313.1219 176.31607 312.45Q176.81607 311.77814 176.81607 311.1844Q176.81607 310.5594 176.36295 310.1375Q175.90982 309.7 175.19107 309.7Q174.42545 309.7 173.97232 310.15314Q173.5192 310.60626 173.50357 311.41876L172.42545 311.3094Q172.53482 310.09064 173.25357 309.46564Q173.98795 308.825 175.22232 308.825Q176.4567 308.825 177.17545 309.5125Q177.8942 310.2 177.8942 311.21564Q177.8942 311.73126 177.67545 312.23126Q177.47232 312.71564 176.97232 313.27814Q176.48795 313.825 175.36295 314.77814Q174.40982 315.575 174.12857 315.8719Q173.86295 316.15314 173.69107 316.4344L177.90982 316.4344ZM179.36295 313.21564Q179.36295 311.6844 179.67545 310.7625Q179.98795 309.825 180.59732 309.325Q181.22232 308.825 182.15982 308.825Q182.84732 308.825 183.36295 309.10626Q183.8942 309.3875 184.23795 309.91876Q184.5817 310.4344 184.7692 311.1844Q184.9567 311.9344 184.9567 313.21564Q184.9567 314.73126 184.6442 315.65314Q184.34732 316.575 183.72232 317.09064Q183.11295 317.59064 182.15982 317.59064Q180.92545 317.59064 180.2067 316.7Q179.36295 315.6375 179.36295 313.21564ZM180.44107 313.21564Q180.44107 315.325 180.94107 316.02814Q181.44107 316.73126 182.15982 316.73126Q182.8942 316.73126 183.37857 316.02814Q183.87857 315.325 183.87857 313.21564Q183.87857 311.09064 183.37857 310.40314Q182.8942 309.7 182.1442 309.7Q181.42545 309.7 180.98795 310.3094Q180.44107 311.09064 180.44107 313.21564ZM191.90982 316.4344L191.90982 317.45L186.22232 317.45Q186.22232 317.075 186.34732 316.71564Q186.56607 316.1375 187.03482 315.575Q187.5192 315.0125 188.42545 314.27814Q189.8317 313.1219 190.31607 312.45Q190.81607 311.77814 190.81607 311.1844Q190.81607 310.5594 190.36295 310.1375Q189.90982 309.7 189.19107 309.7Q188.42545 309.7 187.97232 310.15314Q187.5192 310.60626 187.50357 311.41876L186.42545 311.3094Q186.53482 310.09064 187.25357 309.46564Q187.98795 308.825 189.22232 308.825Q190.4567 308.825 191.17545 309.5125Q191.8942 310.2 191.8942 311.21564Q191.8942 311.73126 191.67545 312.23126Q191.47232 312.71564 190.97232 313.27814Q190.48795 313.825 189.36295 314.77814Q188.40982 315.575 188.12857 315.8719Q187.86295 316.15314 187.69107 316.4344L191.90982 316.4344ZM196.73795 317.45L196.73795 315.3875L193.0192 315.3875L193.0192 314.41876L196.94107 308.85626L197.80045 308.85626L197.80045 314.41876L198.9567 314.41876L198.9567 315.3875L197.80045 315.3875L197.80045 317.45L196.73795 317.45ZM196.73795 314.41876L196.73795 310.5594L194.05045 314.41876L196.73795 314.41876Z" fill-rule="nonzero"/><path fill="#000000" d="M222.53622 313.21564Q222.53622 311.6844 222.84872 310.7625Q223.16122 309.825 223.7706 309.325Q224.3956 308.825 225.3331 308.825Q226.0206 308.825 226.53622 309.10626Q227.06747 309.3875 227.41122 309.91876Q227.75497 310.4344 227.94247 311.1844Q228.12997 311.9344 228.12997 313.21564Q228.12997 314.73126 227.81747 315.65314Q227.5206 316.575 226.8956 317.09064Q226.28622 317.59064 225.3331 317.59064Q224.09872 317.59064 223.37997 316.7Q222.53622 315.6375 222.53622 313.21564ZM223.61435 313.21564Q223.61435 315.325 224.11435 316.02814Q224.61435 316.73126 225.3331 316.73126Q226.06747 316.73126 226.55185 316.02814Q227.05185 315.325 227.05185 313.21564Q227.05185 311.09064 226.55185 310.40314Q226.06747 309.7 225.31747 309.7Q224.59872 309.7 224.16122 310.3094Q223.61435 311.09064 223.61435 313.21564ZM233.50497 317.45L232.4581 317.45L232.4581 310.73126Q232.06747 311.09064 231.44247 311.46564Q230.8331 311.825 230.34872 311.9969L230.34872 310.98126Q231.22372 310.5594 231.87997 309.98126Q232.55185 309.3875 232.8331 308.825L233.50497 308.825L233.50497 317.45ZM236.03622 317.59064L238.5206 308.71564L239.36435 308.71564L236.87997 317.59064L236.03622 317.59064ZM239.53622 313.21564Q239.53622 311.6844 239.84872 310.7625Q240.16122 309.825 240.7706 309.325Q241.3956 308.825 242.3331 308.825Q243.0206 308.825 243.53622 309.10626Q244.06747 309.3875 244.41122 309.91876Q244.75497 310.4344 244.94247 311.1844Q245.12997 311.9344 245.12997 313.21564Q245.12997 314.73126 244.81747 315.65314Q244.5206 316.575 243.8956 317.09064Q243.28622 317.59064 242.3331 317.59064Q241.09872 317.59064 240.37997 316.7Q239.53622 315.6375 239.53622 313.21564ZM240.61435 313.21564Q240.61435 315.325 241.11435 316.02814Q241.61435 316.73126 242.3331 316.73126Q243.06747 316.73126 243.55185 316.02814Q244.05185 315.325 244.05185 313.21564Q244.05185 311.09064 243.55185 310.40314Q243.06747 309.7 242.31747 309.7Q241.59872 309.7 241.16122 310.3094Q240.61435 311.09064 240.61435 313.21564ZM250.50497 317.45L249.4581 317.45L249.4581 310.73126Q249.06747 311.09064 248.44247 311.46564Q247.8331 311.825 247.34872 311.9969L247.34872 310.98126Q248.22372 310.5594 248.87997 309.98126Q249.55185 309.3875 249.8331 308.825L250.50497 308.825L250.50497 317.45ZM253.03622 317.59064L255.5206 308.71564L256.36435 308.71564L253.87997 317.59064L253.03622 317.59064ZM262.0831 316.4344L262.0831 317.45L256.3956 317.45Q256.3956 317.075 256.5206 316.71564Q256.73935 316.1375 257.2081 315.575Q257.69247 315.0125 258.59872 314.27814Q260.00497 313.1219 260.48935 312.45Q260.98935 311.77814 260.98935 311.1844Q260.98935 310.5594 260.53622 310.1375Q260.0831 309.7 259.36435 309.7Q258.59872 309.7 258.1456 310.15314Q257.69247 310.60626 257.67685 311.41876L256.59872 311.3094Q256.7081 310.09064 257.42685 309.46564Q258.16122 308.825 259.3956 308.825Q260.62997 308.825 261.34872 309.5125Q262.06747 310.2 262.06747 311.21564Q262.06747 311.73126 261.84872 312.23126Q261.6456 312.71564 261.1456 313.27814Q260.66122 313.825 259.53622 314.77814Q258.5831 315.575 258.30185 315.8719Q258.03622 316.15314 257.86435 316.4344L262.0831 316.4344ZM263.53622 313.21564Q263.53622 311.6844 263.84872 310.7625Q264.16122 309.825 264.7706 309.325Q265.3956 308.825 266.3331 308.825Q267.0206 308.825 267.53622 309.10626Q268.06747 309.3875 268.41122 309.91876Q268.75497 310.4344 268.94247 311.1844Q269.12997 311.9344 269.12997 313.21564Q269.12997 314.73126 268.81747 315.65314Q268.5206 316.575 267.8956 317.09064Q267.28622 317.59064 266.3331 317.59064Q265.09872 317.59064 264.37997 316.7Q263.53622 315.6375 263.53622 313.21564ZM264.61435 313.21564Q264.61435 315.325 265.11435 316.02814Q265.61435 316.73126 266.3331 316.73126Q267.06747 316.73126 267.55185 316.02814Q268.05185 315.325 268.05185 313.21564Q268.05185 311.09064 267.55185 310.40314Q267.06747 309.7 266.31747 309.7Q265.59872 309.7 265.16122 310.3094Q264.61435 311.09064 264.61435 313.21564ZM276.0831 316.4344L276.0831 317.45L270.3956 317.45Q270.3956 317.075 270.5206 316.71564Q270.73935 316.1375 271.2081 315.575Q271.69247 315.0125 272.59872 314.27814Q274.00497 313.1219 274.48935 312.45Q274.98935 311.77814 274.98935 311.1844Q274.98935 310.5594 274.53622 310.1375Q274.0831 309.7 273.36435 309.7Q272.59872 309.7 272.1456 310.15314Q271.69247 310.60626 271.67685 311.41876L270.59872 311.3094Q270.7081 310.09064 271.42685 309.46564Q272.16122 308.825 273.3956 308.825Q274.62997 308.825 275.34872 309.5125Q276.06747 310.2 276.06747 311.21564Q276.06747 311.73126 275.84872 312.23126Q275.6456 312.71564 275.1456 313.27814Q274.66122 313.825 273.53622 314.77814Q272.5831 315.575 272.30185 315.8719Q272.03622 316.15314 271.86435 316.4344L276.0831 316.4344ZM277.53622 315.2L278.6456 315.10626Q278.7706 315.91876 279.2081 316.325Q279.66122 316.73126 280.30185 316.73126Q281.05185 316.73126 281.5831 316.15314Q282.11435 315.575 282.11435 314.6375Q282.11435 313.73126 281.59872 313.21564Q281.09872 312.6844 280.2706 312.6844Q279.7706 312.6844 279.34872 312.91876Q278.94247 313.15314 278.7081 313.5125L277.72372 313.3875L278.55185 308.98126L282.8331 308.98126L282.8331 309.98126L279.3956 309.98126L278.94247 312.29376Q279.7081 311.7469 280.55185 311.7469Q281.67685 311.7469 282.44247 312.52814Q283.22372 313.3094 283.22372 314.54376Q283.22372 315.7 282.55185 316.5594Q281.72372 317.59064 280.30185 317.59064Q279.12997 317.59064 278.37997 316.9344Q277.6456 316.27814 277.53622 315.2Z" fill-rule="nonzero"/><path fill="#000000" d="M303.94974 313.21564Q303.94974 311.6844 304.26224 310.7625Q304.57474 309.825 305.1841 309.325Q305.8091 308.825 306.7466 308.825Q307.4341 308.825 307.94974 309.10626Q308.481 309.3875 308.82474 309.91876Q309.1685 310.4344 309.356 311.1844Q309.5435 311.9344 309.5435 313.21564Q309.5435 314.73126 309.231 315.65314Q308.9341 316.575 308.3091 317.09064Q307.69974 317.59064 306.7466 317.59064Q305.51224 317.59064 304.7935 316.7Q303.94974 315.6375 303.94974 313.21564ZM305.02786 313.21564Q305.02786 315.325 305.52786 316.02814Q306.02786 316.73126 306.7466 316.73126Q307.481 316.73126 307.96536 316.02814Q308.46536 315.325 308.46536 313.21564Q308.46536 311.09064 307.96536 310.40314Q307.481 309.7 306.731 309.7Q306.01224 309.7 305.57474 310.3094Q305.02786 311.09064 305.02786 313.21564ZM314.9185 317.45L313.8716 317.45L313.8716 310.73126Q313.481 311.09064 312.856 311.46564Q312.2466 311.825 311.76224 311.9969L311.76224 310.98126Q312.63724 310.5594 313.2935 309.98126Q313.96536 309.3875 314.2466 308.825L314.9185 308.825L314.9185 317.45ZM317.44974 317.59064L319.9341 308.71564L320.77786 308.71564L318.2935 317.59064L317.44974 317.59064ZM320.94974 313.21564Q320.94974 311.6844 321.26224 310.7625Q321.57474 309.825 322.1841 309.325Q322.8091 308.825 323.7466 308.825Q324.4341 308.825 324.94974 309.10626Q325.481 309.3875 325.82474 309.91876Q326.1685 310.4344 326.356 311.1844Q326.5435 311.9344 326.5435 313.21564Q326.5435 314.73126 326.231 315.65314Q325.9341 316.575 325.3091 317.09064Q324.69974 317.59064 323.7466 317.59064Q322.51224 317.59064 321.7935 316.7Q320.94974 315.6375 320.94974 313.21564ZM322.02786 313.21564Q322.02786 315.325 322.52786 316.02814Q323.02786 316.73126 323.7466 316.73126Q324.481 316.73126 324.96536 316.02814Q325.46536 315.325 325.46536 313.21564Q325.46536 311.09064 324.96536 310.40314Q324.481 309.7 323.731 309.7Q323.01224 309.7 322.57474 310.3094Q322.02786 311.09064 322.02786 313.21564ZM327.94974 315.1844L329.01224 315.04376Q329.1841 315.9344 329.6216 316.34064Q330.0591 316.73126 330.6841 316.73126Q331.4341 316.73126 331.94974 316.21564Q332.46536 315.7 332.46536 314.9344Q332.46536 314.21564 331.981 313.7469Q331.51224 313.2625 330.77786 313.2625Q330.481 313.2625 330.02786 313.3875L330.15286 312.45Q330.26224 312.46564 330.32474 312.46564Q330.9966 312.46564 331.52786 312.1219Q332.07474 311.7625 332.07474 311.02814Q332.07474 310.45 331.6841 310.075Q331.2935 309.6844 330.6685 309.6844Q330.0591 309.6844 329.63724 310.075Q329.231 310.46564 329.1216 311.23126L328.0591 311.04376Q328.2466 309.9969 328.9341 309.41876Q329.6216 308.825 330.63724 308.825Q331.34036 308.825 331.9341 309.1375Q332.52786 309.4344 332.84036 309.95Q333.15286 310.46564 333.15286 311.0594Q333.15286 311.60626 332.856 312.075Q332.5591 312.52814 331.981 312.79376Q332.731 312.96564 333.15286 313.52814Q333.57474 314.075 333.57474 314.91876Q333.57474 316.04376 332.7466 316.825Q331.9341 317.60626 330.6841 317.60626Q329.5591 317.60626 328.8091 316.9344Q328.0591 316.2469 327.94974 315.1844ZM334.44974 317.59064L336.9341 308.71564L337.77786 308.71564L335.2935 317.59064L334.44974 317.59064ZM343.4966 316.4344L343.4966 317.45L337.8091 317.45Q337.8091 317.075 337.9341 316.71564Q338.15286 316.1375 338.6216 315.575Q339.106 315.0125 340.01224 314.27814Q341.4185 313.1219 341.90286 312.45Q342.40286 311.77814 342.40286 311.1844Q342.40286 310.5594 341.94974 310.1375Q341.4966 309.7 340.77786 309.7Q340.01224 309.7 339.5591 310.15314Q339.106 310.60626 339.09036 311.41876L338.01224 311.3094Q338.1216 310.09064 338.84036 309.46564Q339.57474 308.825 340.8091 308.825Q342.0435 308.825 342.76224 309.5125Q343.481 310.2 343.481 311.21564Q343.481 311.73126 343.26224 312.23126Q343.0591 312.71564 342.5591 313.27814Q342.07474 313.825 340.94974 314.77814Q339.9966 315.575 339.71536 315.8719Q339.44974 316.15314 339.27786 316.4344L343.4966 316.4344ZM344.94974 313.21564Q344.94974 311.6844 345.26224 310.7625Q345.57474 309.825 346.1841 309.325Q346.8091 308.825 347.7466 308.825Q348.4341 308.825 348.94974 309.10626Q349.481 309.3875 349.82474 309.91876Q350.1685 310.4344 350.356 311.1844Q350.5435 311.9344 350.5435 313.21564Q350.5435 314.73126 350.231 315.65314Q349.9341 316.575 349.3091 317.09064Q348.69974 317.59064 347.7466 317.59064Q346.51224 317.59064 345.7935 316.7Q344.94974 315.6375 344.94974 313.21564ZM346.02786 313.21564Q346.02786 315.325 346.52786 316.02814Q347.02786 316.73126 347.7466 316.73126Q348.481 316.73126 348.96536 316.02814Q349.46536 315.325 349.46536 313.21564Q349.46536 311.09064 348.96536 310.40314Q348.481 309.7 347.731 309.7Q347.01224 309.7 346.57474 310.3094Q346.02786 311.09064 346.02786 313.21564ZM357.4966 316.4344L357.4966 317.45L351.8091 317.45Q351.8091 317.075 351.9341 316.71564Q352.15286 316.1375 352.6216 315.575Q353.106 315.0125 354.01224 314.27814Q355.4185 313.1219 355.90286 312.45Q356.40286 311.77814 356.40286 311.1844Q356.40286 310.5594 355.94974 310.1375Q355.4966 309.7 354.77786 309.7Q354.01224 309.7 353.5591 310.15314Q353.106 310.60626 353.09036 311.41876L352.01224 311.3094Q352.1216 310.09064 352.84036 309.46564Q353.57474 308.825 354.8091 308.825Q356.0435 308.825 356.76224 309.5125Q357.481 310.2 357.481 311.21564Q357.481 311.73126 357.26224 312.23126Q357.0591 312.71564 356.5591 313.27814Q356.07474 313.825 354.94974 314.77814Q353.9966 315.575 353.71536 315.8719Q353.44974 316.15314 353.27786 316.4344L357.4966 316.4344ZM358.94974 315.2L360.0591 315.10626Q360.1841 315.91876 360.6216 316.325Q361.07474 316.73126 361.71536 316.73126Q362.46536 316.73126 362.9966 316.15314Q363.52786 315.575 363.52786 314.6375Q363.52786 313.73126 363.01224 313.21564Q362.51224 312.6844 361.6841 312.6844Q361.1841 312.6844 360.76224 312.91876Q360.356 313.15314 360.1216 313.5125L359.13724 313.3875L359.96536 308.98126L364.2466 308.98126L364.2466 309.98126L360.8091 309.98126L360.356 312.29376Q361.1216 311.7469 361.96536 311.7469Q363.09036 311.7469 363.856 312.52814Q364.63724 313.3094 364.63724 314.54376Q364.63724 315.7 363.96536 316.5594Q363.13724 317.59064 361.71536 317.59064Q360.5435 317.59064 359.7935 316.9344Q359.0591 316.27814 358.94974 315.2Z" fill-rule="nonzero"/><path fill="#000000" d="M388.12302 313.21564Q388.12302 311.6844 388.43552 310.7625Q388.74802 309.825 389.3574 309.325Q389.9824 308.825 390.9199 308.825Q391.6074 308.825 392.12302 309.10626Q392.65427 309.3875 392.99802 309.91876Q393.34177 310.4344 393.52927 311.1844Q393.71677 311.9344 393.71677 313.21564Q393.71677 314.73126 393.40427 315.65314Q393.1074 316.575 392.4824 317.09064Q391.87302 317.59064 390.9199 317.59064Q389.68552 317.59064 388.96677 316.7Q388.12302 315.6375 388.12302 313.21564ZM389.20114 313.21564Q389.20114 315.325 389.70114 316.02814Q390.20114 316.73126 390.9199 316.73126Q391.65427 316.73126 392.13864 316.02814Q392.63864 315.325 392.63864 313.21564Q392.63864 311.09064 392.13864 310.40314Q391.65427 309.7 390.90427 309.7Q390.18552 309.7 389.74802 310.3094Q389.20114 311.09064 389.20114 313.21564ZM399.09177 317.45L398.0449 317.45L398.0449 310.73126Q397.65427 311.09064 397.02927 311.46564Q396.4199 311.825 395.93552 311.9969L395.93552 310.98126Q396.81052 310.5594 397.46677 309.98126Q398.13864 309.3875 398.4199 308.825L399.09177 308.825L399.09177 317.45ZM401.62302 317.59064L404.1074 308.71564L404.95114 308.71564L402.46677 317.59064L401.62302 317.59064ZM405.12302 313.21564Q405.12302 311.6844 405.43552 310.7625Q405.74802 309.825 406.3574 309.325Q406.9824 308.825 407.9199 308.825Q408.6074 308.825 409.12302 309.10626Q409.65427 309.3875 409.99802 309.91876Q410.34177 310.4344 410.52927 311.1844Q410.71677 311.9344 410.71677 313.21564Q410.71677 314.73126 410.40427 315.65314Q410.1074 316.575 409.4824 317.09064Q408.87302 317.59064 407.9199 317.59064Q406.68552 317.59064 405.96677 316.7Q405.12302 315.6375 405.12302 313.21564ZM406.20114 313.21564Q406.20114 315.325 406.70114 316.02814Q407.20114 316.73126 407.9199 316.73126Q408.65427 316.73126 409.13864 316.02814Q409.63864 315.325 409.63864 313.21564Q409.63864 311.09064 409.13864 310.40314Q408.65427 309.7 407.90427 309.7Q407.18552 309.7 406.74802 310.3094Q406.20114 311.09064 406.20114 313.21564ZM412.12302 315.2L413.2324 315.10626Q413.3574 315.91876 413.7949 316.325Q414.24802 316.73126 414.88864 316.73126Q415.63864 316.73126 416.1699 316.15314Q416.70114 315.575 416.70114 314.6375Q416.70114 313.73126 416.18552 313.21564Q415.68552 312.6844 414.8574 312.6844Q414.3574 312.6844 413.93552 312.91876Q413.52927 313.15314 413.2949 313.5125L412.31052 313.3875L413.13864 308.98126L417.4199 308.98126L417.4199 309.98126L413.9824 309.98126L413.52927 312.29376Q414.2949 311.7469 415.13864 311.7469Q416.26364 311.7469 417.02927 312.52814Q417.81052 313.3094 417.81052 314.54376Q417.81052 315.7 417.13864 316.5594Q416.31052 317.59064 414.88864 317.59064Q413.71677 317.59064 412.96677 316.9344Q412.2324 316.27814 412.12302 315.2ZM418.62302 317.59064L421.1074 308.71564L421.95114 308.71564L419.46677 317.59064L418.62302 317.59064ZM427.6699 316.4344L427.6699 317.45L421.9824 317.45Q421.9824 317.075 422.1074 316.71564Q422.32614 316.1375 422.7949 315.575Q423.27927 315.0125 424.18552 314.27814Q425.59177 313.1219 426.07614 312.45Q426.57614 311.77814 426.57614 311.1844Q426.57614 310.5594 426.12302 310.1375Q425.6699 309.7 424.95114 309.7Q424.18552 309.7 423.7324 310.15314Q423.27927 310.60626 423.26364 311.41876L422.18552 311.3094Q422.2949 310.09064 423.01364 309.46564Q423.74802 308.825 424.9824 308.825Q426.21677 308.825 426.93552 309.5125Q427.65427 310.2 427.65427 311.21564Q427.65427 311.73126 427.43552 312.23126Q427.2324 312.71564 426.7324 313.27814Q426.24802 313.825 425.12302 314.77814Q424.1699 315.575 423.88864 315.8719Q423.62302 316.15314 423.45114 316.4344L427.6699 316.4344ZM429.12302 313.21564Q429.12302 311.6844 429.43552 310.7625Q429.74802 309.825 430.3574 309.325Q430.9824 308.825 431.9199 308.825Q432.6074 308.825 433.12302 309.10626Q433.65427 309.3875 433.99802 309.91876Q434.34177 310.4344 434.52927 311.1844Q434.71677 311.9344 434.71677 313.21564Q434.71677 314.73126 434.40427 315.65314Q434.1074 316.575 433.4824 317.09064Q432.87302 317.59064 431.9199 317.59064Q430.68552 317.59064 429.96677 316.7Q429.12302 315.6375 429.12302 313.21564ZM430.20114 313.21564Q430.20114 315.325 430.70114 316.02814Q431.20114 316.73126 431.9199 316.73126Q432.65427 316.73126 433.13864 316.02814Q433.63864 315.325 433.63864 313.21564Q433.63864 311.09064 433.13864 310.40314Q432.65427 309.7 431.90427 309.7Q431.18552 309.7 430.74802 310.3094Q430.20114 311.09064 430.20114 313.21564ZM441.6699 316.4344L441.6699 317.45L435.9824 317.45Q435.9824 317.075 436.1074 316.71564Q436.32614 316.1375 436.7949 315.575Q437.27927 315.0125 438.18552 314.27814Q439.59177 313.1219 440.07614 312.45Q440.57614 311.77814 440.57614 311.1844Q440.57614 310.5594 440.12302 310.1375Q439.6699 309.7 438.95114 309.7Q438.18552 309.7 437.7324 310.15314Q437.27927 310.60626 437.26364 311.41876L436.18552 311.3094Q436.2949 310.09064 437.01364 309.46564Q437.74802 308.825 438.9824 308.825Q440.21677 308.825 440.93552 309.5125Q441.65427 310.2 441.65427 311.21564Q441.65427 311.73126 441.43552 312.23126Q441.2324 312.71564 440.7324 313.27814Q440.24802 313.825 439.12302 314.77814Q438.1699 315.575 437.88864 315.8719Q437.62302 316.15314 437.45114 316.4344L441.6699 316.4344ZM443.12302 315.2L444.2324 315.10626Q444.3574 315.91876 444.7949 316.325Q445.24802 316.73126 445.88864 316.73126Q446.63864 316.73126 447.1699 316.15314Q447.70114 315.575 447.70114 314.6375Q447.70114 313.73126 447.18552 313.21564Q446.68552 312.6844 445.8574 312.6844Q445.3574 312.6844 444.93552 312.91876Q444.52927 313.15314 444.2949 313.5125L443.31052 313.3875L444.13864 308.98126L448.4199 308.98126L448.4199 309.98126L444.9824 309.98126L444.52927 312.29376Q445.2949 311.7469 446.13864 311.7469Q447.26364 311.7469 448.02927 312.52814Q448.81052 313.3094 448.81052 314.54376Q448.81052 315.7 448.13864 316.5594Q447.31052 317.59064 445.88864 317.59064Q444.71677 317.59064 443.96677 316.9344Q443.2324 316.27814 443.12302 315.2Z" fill-rule="nonzero"/><path fill="#000000" d="M472.2963 313.21564Q472.2963 311.6844 472.6088 310.7625Q472.9213 309.825 473.53067 309.325Q474.15567 308.825 475.09317 308.825Q475.78067 308.825 476.2963 309.10626Q476.82755 309.3875 477.1713 309.91876Q477.51505 310.4344 477.70255 311.1844Q477.89005 311.9344 477.89005 313.21564Q477.89005 314.73126 477.57755 315.65314Q477.28067 316.575 476.65567 317.09064Q476.0463 317.59064 475.09317 317.59064Q473.8588 317.59064 473.14005 316.7Q472.2963 315.6375 472.2963 313.21564ZM473.37442 313.21564Q473.37442 315.325 473.87442 316.02814Q474.37442 316.73126 475.09317 316.73126Q475.82755 316.73126 476.31192 316.02814Q476.81192 315.325 476.81192 313.21564Q476.81192 311.09064 476.31192 310.40314Q475.82755 309.7 475.07755 309.7Q474.3588 309.7 473.9213 310.3094Q473.37442 311.09064 473.37442 313.21564ZM483.26505 317.45L482.21817 317.45L482.21817 310.73126Q481.82755 311.09064 481.20255 311.46564Q480.59317 311.825 480.1088 311.9969L480.1088 310.98126Q480.9838 310.5594 481.64005 309.98126Q482.31192 309.3875 482.59317 308.825L483.26505 308.825L483.26505 317.45ZM485.7963 317.59064L488.28067 308.71564L489.12442 308.71564L486.64005 317.59064L485.7963 317.59064ZM489.2963 313.21564Q489.2963 311.6844 489.6088 310.7625Q489.9213 309.825 490.53067 309.325Q491.15567 308.825 492.09317 308.825Q492.78067 308.825 493.2963 309.10626Q493.82755 309.3875 494.1713 309.91876Q494.51505 310.4344 494.70255 311.1844Q494.89005 311.9344 494.89005 313.21564Q494.89005 314.73126 494.57755 315.65314Q494.28067 316.575 493.65567 317.09064Q493.0463 317.59064 492.09317 317.59064Q490.8588 317.59064 490.14005 316.7Q489.2963 315.6375 489.2963 313.21564ZM490.37442 313.21564Q490.37442 315.325 490.87442 316.02814Q491.37442 316.73126 492.09317 316.73126Q492.82755 316.73126 493.31192 316.02814Q493.81192 315.325 493.81192 313.21564Q493.81192 311.09064 493.31192 310.40314Q492.82755 309.7 492.07755 309.7Q491.3588 309.7 490.9213 310.3094Q490.37442 311.09064 490.37442 313.21564ZM496.3588 309.98126L496.3588 308.96564L501.9213 308.96564L501.9213 309.79376Q501.1088 310.66876 500.2963 312.1219Q499.49942 313.5594 499.06192 315.09064Q498.7338 316.16876 498.65567 317.45L497.56192 317.45Q497.57755 316.4344 497.95255 314.9969Q498.34317 313.5594 499.0463 312.23126Q499.76505 310.90314 500.57755 309.98126L496.3588 309.98126ZM502.7963 317.59064L505.28067 308.71564L506.12442 308.71564L503.64005 317.59064L502.7963 317.59064ZM511.84317 316.4344L511.84317 317.45L506.15567 317.45Q506.15567 317.075 506.28067 316.71564Q506.49942 316.1375 506.96817 315.575Q507.45255 315.0125 508.3588 314.27814Q509.76505 313.1219 510.24942 312.45Q510.74942 311.77814 510.74942 311.1844Q510.74942 310.5594 510.2963 310.1375Q509.84317 309.7 509.12442 309.7Q508.3588 309.7 507.90567 310.15314Q507.45255 310.60626 507.43692 311.41876L506.3588 311.3094Q506.46817 310.09064 507.18692 309.46564Q507.9213 308.825 509.15567 308.825Q510.39005 308.825 511.1088 309.5125Q511.82755 310.2 511.82755 311.21564Q511.82755 311.73126 511.6088 312.23126Q511.40567 312.71564 510.90567 313.27814Q510.4213 313.825 509.2963 314.77814Q508.34317 315.575 508.06192 315.8719Q507.7963 316.15314 507.62442 316.4344L511.84317 316.4344ZM513.29626 313.21564Q513.29626 311.6844 513.60876 310.7625Q513.92126 309.825 514.53064 309.325Q515.15564 308.825 516.09314 308.825Q516.78064 308.825 517.29626 309.10626Q517.8275 309.3875 518.17126 309.91876Q518.515 310.4344 518.7025 311.1844Q518.89 311.9344 518.89 313.21564Q518.89 314.73126 518.5775 315.65314Q518.28064 316.575 517.65564 317.09064Q517.04626 317.59064 516.09314 317.59064Q514.85876 317.59064 514.14 316.7Q513.29626 315.6375 513.29626 313.21564ZM514.3744 313.21564Q514.3744 315.325 514.8744 316.02814Q515.3744 316.73126 516.09314 316.73126Q516.8275 316.73126 517.3119 316.02814Q517.8119 315.325 517.8119 313.21564Q517.8119 311.09064 517.3119 310.40314Q516.8275 309.7 516.0775 309.7Q515.35876 309.7 514.92126 310.3094Q514.3744 311.09064 514.3744 313.21564ZM525.84314 316.4344L525.84314 317.45L520.15564 317.45Q520.15564 317.075 520.28064 316.71564Q520.4994 316.1375 520.96814 315.575Q521.4525 315.0125 522.35876 314.27814Q523.765 313.1219 524.2494 312.45Q524.7494 311.77814 524.7494 311.1844Q524.7494 310.5594 524.29626 310.1375Q523.84314 309.7 523.1244 309.7Q522.35876 309.7 521.90564 310.15314Q521.4525 310.60626 521.4369 311.41876L520.35876 311.3094Q520.46814 310.09064 521.1869 309.46564Q521.92126 308.825 523.15564 308.825Q524.39 308.825 525.10876 309.5125Q525.8275 310.2 525.8275 311.21564Q525.8275 311.73126 525.60876 312.23126Q525.40564 312.71564 524.90564 313.27814Q524.42126 313.825 523.29626 314.77814Q522.34314 315.575 522.0619 315.8719Q521.79626 316.15314 521.6244 316.4344L525.84314 316.4344ZM527.29626 315.2L528.40564 315.10626Q528.53064 315.91876 528.96814 316.325Q529.42126 316.73126 530.0619 316.73126Q530.8119 316.73126 531.34314 316.15314Q531.8744 315.575 531.8744 314.6375Q531.8744 313.73126 531.35876 313.21564Q530.85876 312.6844 530.03064 312.6844Q529.53064 312.6844 529.10876 312.91876Q528.7025 313.15314 528.46814 313.5125L527.48376 313.3875L528.3119 308.98126L532.59314 308.98126L532.59314 309.98126L529.15564 309.98126L528.7025 312.29376Q529.46814 311.7469 530.3119 311.7469Q531.4369 311.7469 532.2025 312.52814Q532.98376 313.3094 532.98376 314.54376Q532.98376 315.7 532.3119 316.5594Q531.48376 317.59064 530.0619 317.59064Q528.89 317.59064 528.14 316.9344Q527.40564 316.27814 527.29626 315.2Z" fill-rule="nonzero"/></svg>