<svg version="1.1" viewBox="0.0 0.0 600.0 371.0" fill="none" stroke="none" stroke-linecap="square" stroke-miterlimit="10" width="600" height="371" xmlns:xlink="http://www.w3.org/1999/xlink" xmlns="http://www.w3.org/2000/svg"><path fill="#ffffff" d="M0 0L600.0 0L600.0 371.0L0 371.0L0 0Z" fill-rule="nonzero"/><path stroke="#333333" stroke-width="1.0" stroke-linecap="butt" d="M80.5 25.5L80.5 300.5" fill-rule="nonzero"/><path stroke="#cccccc" stroke-width="1.0" stroke-linecap="butt" d="M176.5 25.5L176.5 300.5" fill-rule="nonzero"/><path stroke="#cccccc" stroke-width="1.0" stroke-linecap="butt" d="M273.5 25.5L273.5 300.5" fill-rule="nonzero"/><path stroke="#cccccc" stroke-width="1.0" stroke-linecap="butt" d="M369.5 25.5L369.5 300.5" fill-rule="nonzero"/><path stroke="#cccccc" stroke-width="1.0" stroke-linecap="butt" d="M465.5 25.5L465.5 300.5" fill-rule="nonzero"/><path stroke="#cccccc" stroke-width="1.0" stroke-linecap="butt" d="M562.5 25.5L562.5 300.5" fill-rule="nonzero"/><path stroke="#cccccc" stroke-width="1.0" stroke-linecap="butt" d="M80.5 300.5L581.5 300.5" fill-rule="nonzero"/><path stroke="#cccccc" stroke-width="1.0" stroke-linecap="butt" d="M80.5 231.5L581.5 231.5" fill-rule="nonzero"/><path stroke="#cccccc" stroke-width="1.0" stroke-linecap="butt" d="M80.5 163.5L581.5 163.5" fill-rule="nonzero"/><path stroke="#cccccc" stroke-width="1.0" stroke-linecap="butt" d="M80.5 94.5L581.5 94.5" fill-rule="nonzero"/><path stroke="#cccccc" stroke-width="1.0" stroke-linecap="butt" d="M80.5 25.5L581.5 25.5" fill-rule="nonzero"/><clipPath id="id_0"><path d="M80.55 25.55L581.45 25.55L581.45 300.45L80.55 300.45L80.55 25.55Z" clip-rule="nonzero"/></clipPath><path stroke="#4285f4" stroke-width="2.0" stroke-linecap="butt" clip-path="url(#id_0)" d="M80.55 68.03387C80.55 68.03387 86.971794 69.81487 90.18269 70.821526C93.39359 71.82818 96.604485 72.60252 99.815384 74.07379C103.02628 75.54505 106.23718 77.55836 109.448074 79.6491C112.65897 81.739845 115.86987 84.450066 119.08077 86.61824C122.291664 88.786415 125.50256 91.80637 128.71346 92.65816C131.92436 93.50994 135.13525 91.57407 138.34616 91.72894C141.55705 91.88381 144.76794 92.19355 147.97885 93.58738C151.18974 94.98121 154.40063 98.54321 157.61154 100.09191C160.82243 101.6406 164.03334 102.33752 167.24423 102.87956C170.45512 103.42161 173.66603 102.260086 176.87692 103.34417C180.08781 104.42826 183.29872 108.37744 186.50961 109.384094C189.72052 110.39075 192.93141 108.99692 196.1423 109.384094C199.35321 109.77127 202.5641 110.855354 205.775 111.70714C208.9859 112.55892 212.1968 114.41736 215.4077 114.4948C218.61859 114.57223 221.82948 111.939445 225.04039 112.171745C228.25128 112.40405 231.46217 115.26914 234.67308 115.88862C237.88397 116.5081 241.09488 115.57888 244.30577 115.88862C247.51666 116.198364 250.72757 116.430664 253.93846 117.74706C257.14935 119.06345 260.36026 122.39315 263.57117 123.78698C266.78204 125.18081 269.99295 125.722855 273.20386 126.11002C276.41473 126.4972 279.62564 125.49055 282.83655 126.11002C286.04742 126.72951 289.25833 128.89767 292.46924 129.8269C295.6801 130.75612 298.89102 131.22073 302.10193 131.68533C305.31284 132.14995 308.5237 132.22739 311.73462 132.61455C314.94553 133.00172 318.1564 133.31146 321.3673 134.00838C324.57822 134.70529 327.7891 135.4022 331.0 136.79604C334.2109 138.18987 337.42178 141.44212 340.6327 142.37135C343.8436 143.30057 347.05447 141.90674 350.26538 142.37135C353.4763 142.83595 356.68716 144.6944 359.89807 145.15901C363.10898 145.62361 366.3199 145.15901 369.53076 145.15901C372.74167 145.15901 375.95258 144.07492 379.16345 145.15901C382.37436 146.24309 388.79614 151.66353 388.79614 151.66353" fill-rule="nonzero"/><path stroke="#4285f4" stroke-width="2.0" stroke-linecap="butt" stroke-opacity="0.4" clip-path="url(#id_0)" d="M0 52.56972C0 52.56972 2.6666667 53.336143 4.0 53.718628C5.3333335 54.101112 6.6666665 54.48311 8.0 54.864624C9.333333 55.24614 10.666667 55.627174 12.0 56.007725C13.333333 56.388275 14.666667 56.76834 16.0 57.14793C17.333334 57.52752 18.666666 57.906624 20.0 58.28525C21.333334 58.66388 22.666666 59.042027 24.0 59.419693C25.333334 59.797363 26.666666 60.174553 28.0 60.551266C29.333334 60.927982 30.666666 61.304214 32.0 61.679977C33.333332 62.055737 34.666668 62.43102 36.0 62.80583C37.333332 63.18064 38.666668 63.554974 40.0 63.928833C41.333332 64.3027 42.666668 64.67608 44.0 65.048996C45.333332 65.42191 46.666668 65.79436 48.0 66.16633C49.333332 66.5383 50.666668 66.9098 52.0 67.28083C53.333332 67.651855 54.666668 68.022415 56.0 68.39251C57.333332 68.7626 58.666668 69.132225 60.0 69.50138C61.333332 69.87054 62.666668 70.23922 64.0 70.60744C65.333336 70.97566 66.666664 71.343414 68.0 71.71071C69.333336 72.077995 70.666664 72.44482 72.0 72.81118C73.333336 73.177536 74.666664 73.543434 76.0 73.90887C77.333336 74.2743 78.666664 74.63927 80.0 75.00378C81.333336 75.368286 82.666664 75.73233 84.0 76.09592C85.333336 76.4595 86.666664 76.822624 88.0 77.185295C89.333336 77.54796 90.666664 77.910164 92.0 78.27191C93.333336 78.63366 94.666664 78.99495 96.0 79.35578C97.333336 79.71661 98.666664 80.07699 100.0 80.43691C101.333336 80.79683 102.666664 81.156296 104.0 81.515305C105.333336 81.87431 106.666664 82.232864 108.0 82.590965C109.333336 82.949066 110.666664 83.30672 112.0 83.66391C113.333336 84.0211 114.666664 84.377846 116.0 84.73414C117.333336 85.09043 118.666664 85.446266 120.0 85.80166C121.333336 86.15704 122.666664 86.511986 124.0 86.86647C125.333336 87.22096 126.666664 87.575005 128.0 87.9286C129.33333 88.28219 130.66667 88.63534 132.0 88.98803C133.33333 89.34073 134.66667 89.692986 136.0 90.044785C137.33333 90.39659 138.66667 90.747955 140.0 91.09887C141.33333 91.44978 142.66667 91.800255 144.0 92.15028C145.33333 92.50031 146.66667 92.8499 148.0 93.199036C149.33333 93.54818 150.66667 93.89688 152.0 94.24514C153.33333 94.5934 154.66667 94.941216 156.0 95.28859C157.33333 95.63597 158.66667 95.9829 160.0 96.32941C161.33333 96.6759 162.66667 97.021965 164.0 97.367584C165.33333 97.7132 166.66667 98.05839 168.0 98.40314C169.33333 98.74789 170.66667 99.09219 172.0 99.436066C173.33333 99.779945 174.66667 100.12338 176.0 100.466385C177.33333 100.809395 178.66667 101.15196 180.0 101.494095C181.33333 101.836235 182.66667 102.17794 184.0 102.51921C185.33333 102.86048 186.66667 103.20132 188.0 103.541725C189.33333 103.88213 190.66667 104.22211 192.0 104.56165C193.33333 104.9012 194.66667 105.24032 196.0 105.579C197.33333 105.917694 198.66667 106.25595 200.0 106.59378C201.33333 106.93161 202.66667 107.26901 204.0 107.60599C205.33333 107.94296 206.66667 108.27951 208.0 108.61563C209.33333 108.95176 210.66667 109.28745 212.0 109.62273C213.33333 109.958 214.66667 110.29285 216.0 110.627266C217.33333 110.96169 218.66667 111.29569 220.0 111.629265C221.33333 111.962845 222.66667 112.296 224.0 112.62873C225.33333 112.961464 226.66667 113.29378 228.0 113.62567C229.33333 113.957565 230.66667 114.28903 232.0 114.62009C233.33333 114.95113 234.66667 115.28177 236.0 115.611984C237.33333 115.9422 238.66667 116.271996 240.0 116.60137C241.33333 116.93075 242.66667 117.25971 244.0 117.58826C245.33333 117.9168 246.66667 118.24493 248.0 118.57265C249.33333 118.90036 250.66667 119.22765 252.0 119.55454C253.33333 119.881424 254.66667 120.20789 256.0 120.53395C257.33334 120.86001 258.66666 121.18565 260.0 121.51089C261.33334 121.83612 262.66666 122.16094 264.0 122.48535C265.33334 122.80976 266.66666 123.13376 268.0 123.457344C269.33334 123.78094 270.66666 124.10411 272.0 124.42688C273.33334 124.74965 274.66666 125.072014 276.0 125.39397C277.33334 125.71592 278.66666 126.03746 280.0 126.358604C281.33334 126.67974 282.66666 127.00047 284.0 127.3208C285.33334 127.64112 286.66666 127.961044 288.0 128.28056C289.33334 128.60008 290.66666 128.91919 292.0 129.2379C293.33334 129.5566 294.66666 129.87491 296.0 130.19281C297.33334 130.5107 298.66666 130.8282 300.0 131.1453C301.33334 131.46239 302.66666 131.77908 304.0 132.09538C305.33334 132.41168 306.66666 132.72757 308.0 133.04306C309.33334 133.35855 310.66666 133.67365 312.0 133.98834C313.33334 134.30304 314.66666 134.61734 316.0 134.93123C317.33334 135.24513 318.66666 135.55864 320.0 135.87173C321.33334 136.18484 322.66666 136.49754 324.0 136.80986C325.33334 137.12218 326.66666 137.4341 328.0 137.7456C329.33334 138.05713 330.66666 138.36826 332.0 138.679C333.33334 138.98973 334.66666 139.30006 336.0 139.61002C337.33334 139.91997 338.66666 140.22952 340.0 140.53868C341.33334 140.84784 342.66666 141.15662 344.0 141.465C345.33334 141.77338 346.66666 142.08138 348.0 142.38898C349.33334 142.69656 350.66666 143.00378 352.0 143.31061C353.33334 143.61743 354.66666 143.92386 356.0 144.2299C357.33334 144.53595 358.66666 144.84161 360.0 145.14688C361.33334 145.45215 362.66666 145.75703 364.0 146.06154C365.33334 146.36604 366.66666 146.67015 368.0 146.97388C369.33334 147.2776 370.66666 147.58095 372.0 147.88391C373.33334 148.18687 374.66666 148.48944 376.0 148.79164C377.33334 149.09384 378.66666 149.39565 380.0 149.69707C381.33334 149.9985 382.66666 150.29955 384.0 150.60022C385.33334 150.90088 386.66666 151.20117 388.0 151.50107C389.33334 151.80098 390.66666 152.10051 392.0 152.39964C393.33334 152.69879 394.66666 152.99756 396.0 153.29596C397.33334 153.59435 398.66666 153.89235 400.0 154.18999C401.33334 154.48763 402.66666 154.78488 404.0 155.08176C405.33334 155.37865 406.66666 155.67516 408.0 155.97128C409.33334 156.26741 410.66666 156.56317 412.0 156.85855C413.33334 157.15393 414.66666 157.44893 416.0 157.74356C417.33334 158.03821 418.66666 158.33246 420.0 158.62634C421.33334 158.92024 422.66666 159.21375 424.0 159.5069C425.33334 159.80005 426.66666 160.09282 428.0 160.38522C429.33334 160.67761 430.66666 160.96965 432.0 161.2613C433.33334 161.55298 434.66666 161.84427 436.0 162.1352C437.33334 162.42612 438.66666 162.71667 440.0 163.00687C441.33334 163.29706 442.66666 163.58687 444.0 163.87633C445.33334 164.16579 446.66666 164.45486 448.0 164.74359C449.33334 165.03232 450.66666 165.32066 452.0 165.60866C453.33334 165.89665 454.66666 166.18428 456.0 166.47154C457.33334 166.7588 458.66666 167.0457 460.0 167.33224C461.33334 167.61877 462.66666 167.90495 464.0 168.19077C465.33334 168.47658 466.66666 168.76202 468.0 169.0471C469.33334 169.3322 470.66666 169.61691 472.0 169.90129C473.33334 170.18565 474.66666 170.46967 476.0 170.75331C477.33334 171.03696 478.66666 171.32024 480.0 171.60316C481.33334 171.8861 482.66666 172.16867 484.0 172.45088C485.33334 172.7331 486.66666 173.01495 488.0 173.29645C489.33334 173.57794 490.66666 173.85909 492.0 174.13988C493.33334 174.42067 494.66666 174.7011 496.0 174.98117C497.33334 175.26125 498.66666 175.54097 500.0 175.82034C501.33334 176.0997 502.66666 176.37872 504.0 176.65738C505.33334 176.93604 506.66666 177.21434 508.0 177.4923C509.33334 177.77026 510.66666 178.04787 512.0 178.32512C513.3333 178.60237 514.6667 178.87927 516.0 179.15582C517.3333 179.43237 518.6667 179.70857 520.0 179.98442C521.3333 180.26027 522.6667 180.53577 524.0 180.81093C525.3333 181.08607 526.6667 181.36089 528.0 181.63533C529.3333 181.90979 530.6667 182.1839 532.0 182.45767C533.3333 182.73143 534.6667 183.00484 536.0 183.27791C537.3333 183.55098 538.6667 183.8237 540.0 184.09608C541.3333 184.36847 542.6667 184.6405 544.0 184.91219C545.3333 185.18387 546.6667 185.45522 548.0 185.72623C549.3333 185.99722 550.6667 186.26788 552.0 186.5382C553.3333 186.80852 554.6667 187.07849 556.0 187.34811C557.3333 187.61775 558.6667 187.88704 560.0 188.15599C561.3333 188.42494 562.6667 188.69356 564.0 188.96182C565.3333 189.23009 566.6667 189.49802 568.0 189.76561C569.3333 190.0332 570.6667 190.30046 572.0 190.56737C573.3333 190.83429 574.6667 191.10086 576.0 191.3671C577.3333 191.63333 580.0 192.1648 580.0 192.1648" fill-rule="nonzero"/><path fill="#000000" fill-opacity="0.0" clip-path="url(#id_0)" d="M83.55 68.03387C83.55 69.69073 82.206856 71.03387 80.55 71.03387C78.89314 71.03387 77.55 69.69073 77.55 68.03387C77.55 66.377014 78.89314 65.03387 80.55 65.03387C82.206856 65.03387 83.55 66.377014 83.55 68.03387Z" fill-rule="nonzero"/><path fill="#000000" fill-opacity="0.0" clip-path="url(#id_0)" d="M93.18269 70.821526C93.18269 72.47838 91.83955 73.821526 90.18269 73.821526C88.52584 73.821526 87.18269 72.47838 87.18269 70.821526C87.18269 69.16467 88.52584 67.821526 90.18269 67.821526C91.83955 67.821526 93.18269 69.16467 93.18269 70.821526Z" fill-rule="nonzero"/><path fill="#000000" fill-opacity="0.0" clip-path="url(#id_0)" d="M102.815384 74.07379C102.815384 75.730644 101.47224 77.07379 99.815384 77.07379C98.15853 77.07379 96.815384 75.730644 96.815384 74.07379C96.815384 72.41694 98.15853 71.07379 99.815384 71.07379C101.47224 71.07379 102.815384 72.41694 102.815384 74.07379Z" fill-rule="nonzero"/><path fill="#000000" fill-opacity="0.0" clip-path="url(#id_0)" d="M112.448074 79.6491C112.448074 81.305954 111.104935 82.6491 109.448074 82.6491C107.79122 82.6491 106.448074 81.305954 106.448074 79.6491C106.448074 77.99225 107.79122 76.6491 109.448074 76.6491C111.104935 76.6491 112.448074 77.99225 112.448074 79.6491Z" fill-rule="nonzero"/><path fill="#000000" fill-opacity="0.0" clip-path="url(#id_0)" d="M122.08077 86.61824C122.08077 88.27509 120.737625 89.61824 119.08077 89.61824C117.42391 89.61824 116.08077 88.27509 116.08077 86.61824C116.08077 84.96139 117.42391 83.61824 119.08077 83.61824C120.737625 83.61824 122.08077 84.96139 122.08077 86.61824Z" fill-rule="nonzero"/><path fill="#000000" fill-opacity="0.0" clip-path="url(#id_0)" d="M131.71346 92.65816C131.71346 94.31502 130.37032 95.65816 128.71346 95.65816C127.05661 95.65816 125.71346 94.31502 125.71346 92.65816C125.71346 91.001305 127.05661 89.65816 128.71346 89.65816C130.37032 89.65816 131.71346 91.001305 131.71346 92.65816Z" fill-rule="nonzero"/><path fill="#000000" fill-opacity="0.0" clip-path="url(#id_0)" d="M141.34616 91.72894C141.34616 93.385796 140.003 94.72894 138.34616 94.72894C136.6893 94.72894 135.34616 93.385796 135.34616 91.72894C135.34616 90.07209 136.6893 88.72894 138.34616 88.72894C140.003 88.72894 141.34616 90.07209 141.34616 91.72894Z" fill-rule="nonzero"/><path fill="#000000" fill-opacity="0.0" clip-path="url(#id_0)" d="M150.97885 93.58738C150.97885 95.24423 149.6357 96.58738 147.97885 96.58738C146.32199 96.58738 144.97885 95.24423 144.97885 93.58738C144.97885 91.93053 146.32199 90.58738 147.97885 90.58738C149.6357 90.58738 150.97885 91.93053 150.97885 93.58738Z" fill-rule="nonzero"/><path fill="#000000" fill-opacity="0.0" clip-path="url(#id_0)" d="M160.61154 100.09191C160.61154 101.748764 159.26839 103.09191 157.61154 103.09191C155.95468 103.09191 154.61154 101.748764 154.61154 100.09191C154.61154 98.43505 155.95468 97.09191 157.61154 97.09191C159.26839 97.09191 160.61154 98.43505 160.61154 100.09191Z" fill-rule="nonzero"/><path fill="#000000" fill-opacity="0.0" clip-path="url(#id_0)" d="M170.24423 102.87956C170.24423 104.536415 168.9011 105.87956 167.24423 105.87956C165.58737 105.87956 164.24423 104.536415 164.24423 102.87956C164.24423 101.22271 165.58737 99.87956 167.24423 99.87956C168.9011 99.87956 170.24423 101.22271 170.24423 102.87956Z" fill-rule="nonzero"/><path fill="#000000" fill-opacity="0.0" clip-path="url(#id_0)" d="M179.87692 103.34417C179.87692 105.00103 178.53378 106.34417 176.87692 106.34417C175.22006 106.34417 173.87692 105.00103 173.87692 103.34417C173.87692 101.68732 175.22006 100.34417 176.87692 100.34417C178.53378 100.34417 179.87692 101.68732 179.87692 103.34417Z" fill-rule="nonzero"/><path fill="#000000" fill-opacity="0.0" clip-path="url(#id_0)" d="M189.50961 109.384094C189.50961 111.04095 188.16647 112.384094 186.50961 112.384094C184.85277 112.384094 183.50961 111.04095 183.50961 109.384094C183.50961 107.72724 184.85277 106.384094 186.50961 106.384094C188.16647 106.384094 189.50961 107.72724 189.50961 109.384094Z" fill-rule="nonzero"/><path fill="#000000" fill-opacity="0.0" clip-path="url(#id_0)" d="M199.1423 109.384094C199.1423 111.04095 197.79916 112.384094 196.1423 112.384094C194.48546 112.384094 193.1423 111.04095 193.1423 109.384094C193.1423 107.72724 194.48546 106.384094 196.1423 106.384094C197.79916 106.384094 199.1423 107.72724 199.1423 109.384094Z" fill-rule="nonzero"/><path fill="#000000" fill-opacity="0.0" clip-path="url(#id_0)" d="M208.775 111.70714C208.775 113.36399 207.43185 114.70714 205.775 114.70714C204.11815 114.70714 202.775 113.36399 202.775 111.70714C202.775 110.050285 204.11815 108.70714 205.775 108.70714C207.43185 108.70714 208.775 110.050285 208.775 111.70714Z" fill-rule="nonzero"/><path fill="#000000" fill-opacity="0.0" clip-path="url(#id_0)" d="M218.4077 114.4948C218.4077 116.15165 217.06454 117.4948 215.4077 117.4948C213.75084 117.4948 212.4077 116.15165 212.4077 114.4948C212.4077 112.837944 213.75084 111.4948 215.4077 111.4948C217.06454 111.4948 218.4077 112.837944 218.4077 114.4948Z" fill-rule="nonzero"/><path fill="#000000" fill-opacity="0.0" clip-path="url(#id_0)" d="M228.04039 112.171745C228.04039 113.828606 226.69724 115.171745 225.04039 115.171745C223.38353 115.171745 222.04039 113.828606 222.04039 112.171745C222.04039 110.51489 223.38353 109.171745 225.04039 109.171745C226.69724 109.171745 228.04039 110.51489 228.04039 112.171745Z" fill-rule="nonzero"/><path fill="#000000" fill-opacity="0.0" clip-path="url(#id_0)" d="M237.67308 115.88862C237.67308 117.54548 236.32993 118.88862 234.67308 118.88862C233.01622 118.88862 231.67308 117.54548 231.67308 115.88862C231.67308 114.231766 233.01622 112.88862 234.67308 112.88862C236.32993 112.88862 237.67308 114.231766 237.67308 115.88862Z" fill-rule="nonzero"/><path fill="#000000" fill-opacity="0.0" clip-path="url(#id_0)" d="M247.30577 115.88862C247.30577 117.54548 245.96262 118.88862 244.30577 118.88862C242.64891 118.88862 241.30577 117.54548 241.30577 115.88862C241.30577 114.231766 242.64891 112.88862 244.30577 112.88862C245.96262 112.88862 247.30577 114.231766 247.30577 115.88862Z" fill-rule="nonzero"/><path fill="#000000" fill-opacity="0.0" clip-path="url(#id_0)" d="M256.93848 117.74706C256.93848 119.403915 255.59532 120.74706 253.93846 120.74706C252.2816 120.74706 250.93846 119.403915 250.93846 117.74706C250.93846 116.0902 252.2816 114.74706 253.93846 114.74706C255.59532 114.74706 256.93848 116.0902 256.93848 117.74706Z" fill-rule="nonzero"/><path fill="#000000" fill-opacity="0.0" clip-path="url(#id_0)" d="M266.57117 123.78698C266.57117 125.44383 265.228 126.78698 263.57117 126.78698C261.9143 126.78698 260.57117 125.44383 260.57117 123.78698C260.57117 122.13013 261.9143 120.78698 263.57117 120.78698C265.228 120.78698 266.57117 122.13013 266.57117 123.78698Z" fill-rule="nonzero"/><path fill="#000000" fill-opacity="0.0" clip-path="url(#id_0)" d="M276.20386 126.11002C276.20386 127.76688 274.8607 129.11003 273.20386 129.11003C271.547 129.11003 270.20386 127.76688 270.20386 126.11002C270.20386 124.45317 271.547 123.11002 273.20386 123.11002C274.8607 123.11002 276.20386 124.45317 276.20386 126.11002Z" fill-rule="nonzero"/><path fill="#000000" fill-opacity="0.0" clip-path="url(#id_0)" d="M285.83655 126.11002C285.83655 127.76688 284.49338 129.11003 282.83655 129.11003C281.1797 129.11003 279.83655 127.76688 279.83655 126.11002C279.83655 124.45317 281.1797 123.11002 282.83655 123.11002C284.49338 123.11002 285.83655 124.45317 285.83655 126.11002Z" fill-rule="nonzero"/><path fill="#000000" fill-opacity="0.0" clip-path="url(#id_0)" d="M295.46924 129.8269C295.46924 131.48375 294.1261 132.8269 292.46924 132.8269C290.81238 132.8269 289.46924 131.48375 289.46924 129.8269C289.46924 128.17004 290.81238 126.8269 292.46924 126.8269C294.1261 126.8269 295.46924 128.17004 295.46924 129.8269Z" fill-rule="nonzero"/><path fill="#000000" fill-opacity="0.0" clip-path="url(#id_0)" d="M305.10193 131.68533C305.10193 133.3422 303.7588 134.68533 302.10193 134.68533C300.44507 134.68533 299.10193 133.3422 299.10193 131.68533C299.10193 130.02849 300.44507 128.68533 302.10193 128.68533C303.7588 128.68533 305.10193 130.02849 305.10193 131.68533Z" fill-rule="nonzero"/><path fill="#000000" fill-opacity="0.0" clip-path="url(#id_0)" d="M314.73462 132.61455C314.73462 134.27141 313.39148 135.61455 311.73462 135.61455C310.07776 135.61455 308.73462 134.27141 308.73462 132.61455C308.73462 130.9577 310.07776 129.61455 311.73462 129.61455C313.39148 129.61455 314.73462 130.9577 314.73462 132.61455Z" fill-rule="nonzero"/><path fill="#000000" fill-opacity="0.0" clip-path="url(#id_0)" d="M324.3673 134.00838C324.3673 135.66524 323.02417 137.00838 321.3673 137.00838C319.71045 137.00838 318.3673 135.66524 318.3673 134.00838C318.3673 132.35153 319.71045 131.00838 321.3673 131.00838C323.02417 131.00838 324.3673 132.35153 324.3673 134.00838Z" fill-rule="nonzero"/><path fill="#000000" fill-opacity="0.0" clip-path="url(#id_0)" d="M334.0 136.79604C334.0 138.4529 332.65686 139.79604 331.0 139.79604C329.34314 139.79604 328.0 138.4529 328.0 136.79604C328.0 135.13919 329.34314 133.79604 331.0 133.79604C332.65686 133.79604 334.0 135.13919 334.0 136.79604Z" fill-rule="nonzero"/><path fill="#000000" fill-opacity="0.0" clip-path="url(#id_0)" d="M343.6327 142.37135C343.6327 144.0282 342.28955 145.37135 340.6327 145.37135C338.97583 145.37135 337.6327 144.0282 337.6327 142.37135C337.6327 140.7145 338.97583 139.37135 340.6327 139.37135C342.28955 139.37135 343.6327 140.7145 343.6327 142.37135Z" fill-rule="nonzero"/><path fill="#000000" fill-opacity="0.0" clip-path="url(#id_0)" d="M353.26538 142.37135C353.26538 144.0282 351.92224 145.37135 350.26538 145.37135C348.60852 145.37135 347.26538 144.0282 347.26538 142.37135C347.26538 140.7145 348.60852 139.37135 350.26538 139.37135C351.92224 139.37135 353.26538 140.7145 353.26538 142.37135Z" fill-rule="nonzero"/><path fill="#000000" fill-opacity="0.0" clip-path="url(#id_0)" d="M362.89807 145.15901C362.89807 146.81586 361.55493 148.15901 359.89807 148.15901C358.2412 148.15901 356.89807 146.81586 356.89807 145.15901C356.89807 143.50215 358.2412 142.15901 359.89807 142.15901C361.55493 142.15901 362.89807 143.50215 362.89807 145.15901Z" fill-rule="nonzero"/><path fill="#000000" fill-opacity="0.0" clip-path="url(#id_0)" d="M372.53076 145.15901C372.53076 146.81586 371.18762 148.15901 369.53076 148.15901C367.8739 148.15901 366.53076 146.81586 366.53076 145.15901C366.53076 143.50215 367.8739 142.15901 369.53076 142.15901C371.18762 142.15901 372.53076 143.50215 372.53076 145.15901Z" fill-rule="nonzero"/><path fill="#000000" fill-opacity="0.0" clip-path="url(#id_0)" d="M382.16345 145.15901C382.16345 146.81586 380.8203 148.15901 379.16345 148.15901C377.50662 148.15901 376.16345 146.81586 376.16345 145.15901C376.16345 143.50215 377.50662 142.15901 379.16345 142.15901C380.8203 142.15901 382.16345 143.50215 382.16345 145.15901Z" fill-rule="nonzero"/><path fill="#000000" fill-opacity="0.0" clip-path="url(#id_0)" d="M391.79614 151.66353C391.79614 153.32039 390.453 154.66353 388.79614 154.66353C387.1393 154.66353 385.79614 153.32039 385.79614 151.66353C385.79614 150.00668 387.1393 148.66353 388.79614 148.66353C390.453 148.66353 391.79614 150.00668 391.79614 151.66353Z" fill-rule="nonzero"/><path fill="#000000" d="M317.92188 349.45L315.64062 340.85626L316.8125 340.85626L318.125 346.4969Q318.32812 347.3719 318.48438 348.2469Q318.8125 346.8719 318.875 346.65314L320.5 340.85626L321.875 340.85626L323.10938 345.2Q323.5625 346.825 323.78125 348.2469Q323.9375 347.4344 324.20312 346.3719L325.54688 340.85626L326.6875 340.85626L324.34375 349.45L323.23438 349.45L321.4375 342.90314Q321.20312 342.09064 321.15625 341.90314Q321.03125 342.48126 320.90625 342.90314L319.09375 349.45L317.92188 349.45ZM331.54688 347.45L332.64062 347.575Q332.39062 348.52814 331.6875 349.0594Q330.98438 349.59064 329.90625 349.59064Q328.54688 349.59064 327.73438 348.7469Q326.9375 347.90314 326.9375 346.3875Q326.9375 344.825 327.75 343.96564Q328.5625 343.09064 329.84375 343.09064Q331.09375 343.09064 331.875 343.9344Q332.67188 344.77814 332.67188 346.325Q332.67188 346.41876 332.67188 346.60626L328.03125 346.60626Q328.09375 347.6375 328.60938 348.1844Q329.125 348.71564 329.90625 348.71564Q330.48438 348.71564 330.89062 348.41876Q331.3125 348.10626 331.54688 347.45ZM328.09375 345.7469L331.5625 345.7469Q331.5 344.95 331.17188 344.5594Q330.65625 343.95 329.85938 343.95Q329.125 343.95 328.625 344.4344Q328.14062 344.91876 328.09375 345.7469ZM338.54688 347.45L339.64062 347.575Q339.39062 348.52814 338.6875 349.0594Q337.98438 349.59064 336.90625 349.59064Q335.54688 349.59064 334.73438 348.7469Q333.9375 347.90314 333.9375 346.3875Q333.9375 344.825 334.75 343.96564Q335.5625 343.09064 336.84375 343.09064Q338.09375 343.09064 338.875 343.9344Q339.67188 344.77814 339.67188 346.325Q339.67188 346.41876 339.67188 346.60626L335.03125 346.60626Q335.09375 347.6375 335.60938 348.1844Q336.125 348.71564 336.90625 348.71564Q337.48438 348.71564 337.89062 348.41876Q338.3125 348.10626 338.54688 347.45ZM335.09375 345.7469L338.5625 345.7469Q338.5 344.95 338.17188 344.5594Q337.65625 343.95 336.85938 343.95Q336.125 343.95 335.625 344.4344Q335.14062 344.91876 335.09375 345.7469ZM341.29688 349.45L341.29688 340.85626L342.35938 340.85626L342.35938 345.7625L344.84375 343.23126L346.21875 343.23126L343.82812 345.52814L346.45312 349.45L345.15625 349.45L343.09375 346.2625L342.35938 346.98126L342.35938 349.45L341.29688 349.45Z" fill-rule="nonzero"/><path fill="#000000" d="M29.550013 178.625L20.956263 178.625L20.956263 175.39062Q20.956263 174.40625 21.221888 173.8125Q21.487513 173.21875 22.034388 172.89062Q22.565638 172.54688 23.159388 172.54688Q23.706263 172.54688 24.190638 172.84375Q24.675013 173.14062 24.971888 173.75Q25.206263 172.96875 25.768763 172.5625Q26.315638 172.14062 27.065638 172.14062Q27.659388 172.14062 28.190638 172.39062Q28.706263 172.64062 28.987513 173.01562Q29.268763 173.39062 29.409388 173.96875Q29.550013 174.53125 29.550013 175.34375L29.550013 178.625ZM24.565638 177.48438L24.565638 175.625Q24.565638 174.875 24.471888 174.54688Q24.346888 174.10938 24.050013 173.89062Q23.737513 173.67188 23.284388 173.67188Q22.862513 173.67188 22.534388 173.875Q22.206263 174.07812 22.096888 174.46875Q21.971888 174.84375 21.971888 175.76562L21.971888 177.48438L24.565638 177.48438ZM28.534388 177.48438L28.534388 175.34375Q28.534388 174.79688 28.487513 174.57812Q28.425013 174.17188 28.268763 173.92188Q28.096888 173.65625 27.784388 173.48438Q27.471888 173.3125 27.065638 173.3125Q26.581263 173.3125 26.221888 173.5625Q25.862513 173.79688 25.721888 174.23438Q25.581263 174.67188 25.581263 175.5L25.581263 177.48438L28.534388 177.48438ZM29.550013 170.60938L20.956263 170.60938L20.956263 168.89062L27.034388 166.85938Q27.893763 166.57812 28.315638 166.45312Q27.846888 166.3125 26.940638 166.0L20.956263 163.9375L20.956263 162.40625L29.550013 162.40625L29.550013 163.5L22.362513 163.5L29.550013 166.0L29.550013 167.03125L22.237513 169.51562L29.550013 169.51562L29.550013 170.60938ZM29.550013 161.375L20.956263 161.375L20.956263 160.25L29.550013 160.25L29.550013 161.375Z" fill-rule="nonzero"/><path fill="#000000" d="M55.01875 304.45L53.971874 304.45L53.971874 297.73126Q53.58125 298.09064 52.95625 298.46564Q52.346874 298.825 51.8625 298.9969L51.8625 297.98126Q52.7375 297.5594 53.39375 296.98126Q54.065624 296.3875 54.346874 295.825L55.01875 295.825L55.01875 304.45ZM58.05 302.2L59.159374 302.10626Q59.284374 302.91876 59.721874 303.325Q60.175 303.73126 60.815624 303.73126Q61.565624 303.73126 62.096874 303.15314Q62.628124 302.575 62.628124 301.6375Q62.628124 300.73126 62.1125 300.21564Q61.6125 299.6844 60.784374 299.6844Q60.284374 299.6844 59.8625 299.91876Q59.45625 300.15314 59.221874 300.5125L58.2375 300.3875L59.065624 295.98126L63.346874 295.98126L63.346874 296.98126L59.909374 296.98126L59.45625 299.29376Q60.221874 298.7469 61.065624 298.7469Q62.190624 298.7469 62.95625 299.52814Q63.7375 300.3094 63.7375 301.54376Q63.7375 302.7 63.065624 303.5594Q62.2375 304.59064 60.815624 304.59064Q59.64375 304.59064 58.89375 303.9344Q58.159374 303.27814 58.05 302.2ZM65.64375 304.45L65.64375 303.2469L66.84688 303.2469L66.84688 304.45L65.64375 304.45ZM68.05 300.21564Q68.05 298.6844 68.3625 297.7625Q68.675 296.825 69.28438 296.325Q69.90938 295.825 70.84688 295.825Q71.53438 295.825 72.05 296.10626Q72.58125 296.3875 72.925 296.91876Q73.26875 297.4344 73.45625 298.1844Q73.64375 298.9344 73.64375 300.21564Q73.64375 301.73126 73.33125 302.65314Q73.03438 303.575 72.40938 304.09064Q71.8 304.59064 70.84688 304.59064Q69.6125 304.59064 68.89375 303.7Q68.05 302.6375 68.05 300.21564ZM69.12813 300.21564Q69.12813 302.325 69.62813 303.02814Q70.12813 303.73126 70.84688 303.73126Q71.58125 303.73126 72.06563 303.02814Q72.56563 302.325 72.56563 300.21564Q72.56563 298.09064 72.06563 297.40314Q71.58125 296.7 70.83125 296.7Q70.1125 296.7 69.675 297.3094Q69.12813 298.09064 69.12813 300.21564Z" fill-rule="nonzero"/><path fill="#000000" d="M56.596874 234.70938L56.596874 235.725L50.909374 235.725Q50.909374 235.35 51.034374 234.99063Q51.253124 234.4125 51.721874 233.85Q52.20625 233.2875 53.1125 232.55313Q54.51875 231.39688 55.003124 230.725Q55.503124 230.05313 55.503124 229.45938Q55.503124 228.83438 55.05 228.4125Q54.596874 227.975 53.878124 227.975Q53.1125 227.975 52.659374 228.42813Q52.20625 228.88126 52.190624 229.69376L51.1125 229.58438Q51.221874 228.36563 51.940624 227.74063Q52.675 227.1 53.909374 227.1Q55.14375 227.1 55.8625 227.7875Q56.58125 228.475 56.58125 229.49063Q56.58125 230.00626 56.3625 230.50626Q56.159374 230.99063 55.659374 231.55313Q55.175 232.1 54.05 233.05313Q53.096874 233.85 52.815624 234.14688Q52.55 234.42813 52.378124 234.70938L56.596874 234.70938ZM58.05 231.49063Q58.05 229.95938 58.3625 229.0375Q58.675 228.1 59.284374 227.6Q59.909374 227.1 60.846874 227.1Q61.534374 227.1 62.05 227.38126Q62.58125 227.6625 62.925 228.19376Q63.26875 228.70938 63.45625 229.45938Q63.64375 230.20938 63.64375 231.49063Q63.64375 233.00626 63.33125 233.92813Q63.034374 234.85 62.409374 235.36563Q61.8 235.86563 60.846874 235.86563Q59.6125 235.86563 58.89375 234.975Q58.05 233.9125 58.05 231.49063ZM59.128124 231.49063Q59.128124 233.6 59.628124 234.30313Q60.128124 235.00626 60.846874 235.00626Q61.58125 235.00626 62.065624 234.30313Q62.565624 233.6 62.565624 231.49063Q62.565624 229.36563 62.065624 228.67813Q61.58125 227.975 60.83125 227.975Q60.1125 227.975 59.675 228.58438Q59.128124 229.36563 59.128124 231.49063ZM65.64375 235.725L65.64375 234.52188L66.84688 234.52188L66.84688 235.725L65.64375 235.725ZM68.05 231.49063Q68.05 229.95938 68.3625 229.0375Q68.675 228.1 69.28438 227.6Q69.90938 227.1 70.84688 227.1Q71.53438 227.1 72.05 227.38126Q72.58125 227.6625 72.925 228.19376Q73.26875 228.70938 73.45625 229.45938Q73.64375 230.20938 73.64375 231.49063Q73.64375 233.00626 73.33125 233.92813Q73.03438 234.85 72.40938 235.36563Q71.8 235.86563 70.84688 235.86563Q69.6125 235.86563 68.89375 234.975Q68.05 233.9125 68.05 231.49063ZM69.12813 231.49063Q69.12813 233.6 69.62813 234.30313Q70.12813 235.00626 70.84688 235.00626Q71.58125 235.00626 72.06563 234.30313Q72.56563 233.6 72.56563 231.49063Q72.56563 229.36563 72.06563 228.67813Q71.58125 227.975 70.83125 227.975Q70.1125 227.975 69.675 228.58438Q69.12813 229.36563 69.12813 231.49063Z" fill-rule="nonzero"/><path fill="#000000" d="M56.596874 165.98438L56.596874 167.0L50.909374 167.0Q50.909374 166.625 51.034374 166.26562Q51.253124 165.6875 51.721874 165.125Q52.20625 164.5625 53.1125 163.82812Q54.51875 162.67188 55.003124 162.0Q55.503124 161.32812 55.503124 160.73438Q55.503124 160.10938 55.05 159.6875Q54.596874 159.25 53.878124 159.25Q53.1125 159.25 52.659374 159.70312Q52.20625 160.15625 52.190624 160.96875L51.1125 160.85938Q51.221874 159.64062 51.940624 159.01562Q52.675 158.375 53.909374 158.375Q55.14375 158.375 55.8625 159.0625Q56.58125 159.75 56.58125 160.76562Q56.58125 161.28125 56.3625 161.78125Q56.159374 162.26562 55.659374 162.82812Q55.175 163.375 54.05 164.32812Q53.096874 165.125 52.815624 165.42188Q52.55 165.70312 52.378124 165.98438L56.596874 165.98438ZM58.05 164.75L59.159374 164.65625Q59.284374 165.46875 59.721874 165.875Q60.175 166.28125 60.815624 166.28125Q61.565624 166.28125 62.096874 165.70312Q62.628124 165.125 62.628124 164.1875Q62.628124 163.28125 62.1125 162.76562Q61.6125 162.23438 60.784374 162.23438Q60.284374 162.23438 59.8625 162.46875Q59.45625 162.70312 59.221874 163.0625L58.2375 162.9375L59.065624 158.53125L63.346874 158.53125L63.346874 159.53125L59.909374 159.53125L59.45625 161.84375Q60.221874 161.29688 61.065624 161.29688Q62.190624 161.29688 62.95625 162.07812Q63.7375 162.85938 63.7375 164.09375Q63.7375 165.25 63.065624 166.10938Q62.2375 167.14062 60.815624 167.14062Q59.64375 167.14062 58.89375 166.48438Q58.159374 165.82812 58.05 164.75ZM65.64375 167.0L65.64375 165.79688L66.84688 165.79688L66.84688 167.0L65.64375 167.0ZM68.05 162.76562Q68.05 161.23438 68.3625 160.3125Q68.675 159.375 69.28438 158.875Q69.90938 158.375 70.84688 158.375Q71.53438 158.375 72.05 158.65625Q72.58125 158.9375 72.925 159.46875Q73.26875 159.98438 73.45625 160.73438Q73.64375 161.48438 73.64375 162.76562Q73.64375 164.28125 73.33125 165.20312Q73.03438 166.125 72.40938 166.64062Q71.8 167.14062 70.84688 167.14062Q69.6125 167.14062 68.89375 166.25Q68.05 165.1875 68.05 162.76562ZM69.12813 162.76562Q69.12813 164.875 69.62813 165.57812Q70.12813 166.28125 70.84688 166.28125Q71.58125 166.28125 72.06563 165.57812Q72.56563 164.875 72.56563 162.76562Q72.56563 160.64062 72.06563 159.95312Q71.58125 159.25 70.83125 159.25Q70.1125 159.25 69.675 159.85938Q69.12813 160.64062 69.12813 162.76562Z" fill-rule="nonzero"/><path fill="#000000" d="M51.05 96.00938L52.1125 95.86875Q52.284374 96.75938 52.721874 97.16563Q53.159374 97.55625 53.784374 97.55625Q54.534374 97.55625 55.05 97.04063Q55.565624 96.525 55.565624 95.75938Q55.565624 95.04063 55.08125 94.57188Q54.6125 94.0875 53.878124 94.0875Q53.58125 94.0875 53.128124 94.2125L53.253124 93.275Q53.3625 93.29063 53.425 93.29063Q54.096874 93.29063 54.628124 92.94688Q55.175 92.5875 55.175 91.85313Q55.175 91.275 54.784374 90.9Q54.39375 90.50938 53.76875 90.50938Q53.159374 90.50938 52.7375 90.9Q52.33125 91.29063 52.221874 92.05625L51.159374 91.86875Q51.346874 90.82188 52.034374 90.24375Q52.721874 89.65 53.7375 89.65Q54.440624 89.65 55.034374 89.9625Q55.628124 90.25938 55.940624 90.775Q56.253124 91.29063 56.253124 91.88438Q56.253124 92.43125 55.95625 92.9Q55.659374 93.35313 55.08125 93.61875Q55.83125 93.79063 56.253124 94.35313Q56.675 94.9 56.675 95.74375Q56.675 96.86875 55.846874 97.65Q55.034374 98.43125 53.784374 98.43125Q52.659374 98.43125 51.909374 97.75938Q51.159374 97.07188 51.05 96.00938ZM58.05 94.04063Q58.05 92.50938 58.3625 91.5875Q58.675 90.65 59.284374 90.15Q59.909374 89.65 60.846874 89.65Q61.534374 89.65 62.05 89.93125Q62.58125 90.2125 62.925 90.74375Q63.26875 91.25938 63.45625 92.00938Q63.64375 92.75938 63.64375 94.04063Q63.64375 95.55625 63.33125 96.47813Q63.034374 97.4 62.409374 97.91563Q61.8 98.41563 60.846874 98.41563Q59.6125 98.41563 58.89375 97.525Q58.05 96.4625 58.05 94.04063ZM59.128124 94.04063Q59.128124 96.15 59.628124 96.85313Q60.128124 97.55625 60.846874 97.55625Q61.58125 97.55625 62.065624 96.85313Q62.565624 96.15 62.565624 94.04063Q62.565624 91.91563 62.065624 91.22813Q61.58125 90.525 60.83125 90.525Q60.1125 90.525 59.675 91.13438Q59.128124 91.91563 59.128124 94.04063ZM65.64375 98.275L65.64375 97.07188L66.84688 97.07188L66.84688 98.275L65.64375 98.275ZM68.05 94.04063Q68.05 92.50938 68.3625 91.5875Q68.675 90.65 69.28438 90.15Q69.90938 89.65 70.84688 89.65Q71.53438 89.65 72.05 89.93125Q72.58125 90.2125 72.925 90.74375Q73.26875 91.25938 73.45625 92.00938Q73.64375 92.75938 73.64375 94.04063Q73.64375 95.55625 73.33125 96.47813Q73.03438 97.4 72.40938 97.91563Q71.8 98.41563 70.84688 98.41563Q69.6125 98.41563 68.89375 97.525Q68.05 96.4625 68.05 94.04063ZM69.12813 94.04063Q69.12813 96.15 69.62813 96.85313Q70.12813 97.55625 70.84688 97.55625Q71.58125 97.55625 72.06563 96.85313Q72.56563 96.15 72.56563 94.04063Q72.56563 91.91563 72.06563 91.22813Q71.58125 90.525 70.83125 90.525Q70.1125 90.525 69.675 91.13438Q69.12813 91.91563 69.12813 94.04063Z" fill-rule="nonzero"/><path fill="#000000" d="M51.05 27.284374L52.1125 27.14375Q52.284374 28.034374 52.721874 28.440624Q53.159374 28.83125 53.784374 28.83125Q54.534374 28.83125 55.05 28.315624Q55.565624 27.8 55.565624 27.034374Q55.565624 26.315624 55.08125 25.846874Q54.6125 25.3625 53.878124 25.3625Q53.58125 25.3625 53.128124 25.4875L53.253124 24.55Q53.3625 24.565624 53.425 24.565624Q54.096874 24.565624 54.628124 24.221874Q55.175 23.8625 55.175 23.128124Q55.175 22.55 54.784374 22.175Q54.39375 21.784374 53.76875 21.784374Q53.159374 21.784374 52.7375 22.175Q52.33125 22.565624 52.221874 23.33125L51.159374 23.14375Q51.346874 22.096874 52.034374 21.51875Q52.721874 20.925 53.7375 20.925Q54.440624 20.925 55.034374 21.2375Q55.628124 21.534374 55.940624 22.05Q56.253124 22.565624 56.253124 23.159374Q56.253124 23.70625 55.95625 24.175Q55.659374 24.628124 55.08125 24.89375Q55.83125 25.065624 56.253124 25.628124Q56.675 26.175 56.675 27.01875Q56.675 28.14375 55.846874 28.925Q55.034374 29.70625 53.784374 29.70625Q52.659374 29.70625 51.909374 29.034374Q51.159374 28.346874 51.05 27.284374ZM58.05 27.3L59.159374 27.20625Q59.284374 28.01875 59.721874 28.425Q60.175 28.83125 60.815624 28.83125Q61.565624 28.83125 62.096874 28.253124Q62.628124 27.675 62.628124 26.7375Q62.628124 25.83125 62.1125 25.315624Q61.6125 24.784374 60.784374 24.784374Q60.284374 24.784374 59.8625 25.01875Q59.45625 25.253124 59.221874 25.6125L58.2375 25.4875L59.065624 21.08125L63.346874 21.08125L63.346874 22.08125L59.909374 22.08125L59.45625 24.39375Q60.221874 23.846874 61.065624 23.846874Q62.190624 23.846874 62.95625 24.628124Q63.7375 25.409374 63.7375 26.64375Q63.7375 27.8 63.065624 28.659374Q62.2375 29.690624 60.815624 29.690624Q59.64375 29.690624 58.89375 29.034374Q58.159374 28.378124 58.05 27.3ZM65.64375 29.55L65.64375 28.346874L66.84688 28.346874L66.84688 29.55L65.64375 29.55ZM68.05 25.315624Q68.05 23.784374 68.3625 22.8625Q68.675 21.925 69.28438 21.425Q69.90938 20.925 70.84688 20.925Q71.53438 20.925 72.05 21.20625Q72.58125 21.4875 72.925 22.01875Q73.26875 22.534374 73.45625 23.284374Q73.64375 24.034374 73.64375 25.315624Q73.64375 26.83125 73.33125 27.753124Q73.03438 28.675 72.40938 29.190624Q71.8 29.690624 70.84688 29.690624Q69.6125 29.690624 68.89375 28.8Q68.05 27.7375 68.05 25.315624ZM69.12813 25.315624Q69.12813 27.425 69.62813 28.128124Q70.12813 28.83125 70.84688 28.83125Q71.58125 28.83125 72.06563 28.128124Q72.56563 27.425 72.56563 25.315624Q72.56563 23.190624 72.06563 22.503124Q71.58125 21.8 70.83125 21.8Q70.1125 21.8 69.675 22.409374Q69.12813 23.190624 69.12813 25.315624Z" fill-rule="nonzero"/><path fill="#000000" d="M77.55 313.21564Q77.55 311.6844 77.8625 310.7625Q78.175 309.825 78.78438 309.325Q79.40938 308.825 80.34688 308.825Q81.03438 308.825 81.55 309.10626Q82.08125 309.3875 82.425 309.91876Q82.76875 310.4344 82.95625 311.1844Q83.14375 311.9344 83.14375 313.21564Q83.14375 314.73126 82.83125 315.65314Q82.53438 316.575 81.90938 317.09064Q81.3 317.59064 80.34688 317.59064Q79.1125 317.59064 78.39375 316.7Q77.55 315.6375 77.55 313.21564ZM78.62813 313.21564Q78.62813 315.325 79.12813 316.02814Q79.62813 316.73126 80.34688 316.73126Q81.08125 316.73126 81.56563 316.02814Q82.06563 315.325 82.06563 313.21564Q82.06563 311.09064 81.56563 310.40314Q81.08125 309.7 80.33125 309.7Q79.6125 309.7 79.175 310.3094Q78.62813 311.09064 78.62813 313.21564Z" fill-rule="nonzero"/><path fill="#000000" d="M174.34567 317.45L173.2988 317.45L173.2988 310.73126Q172.90817 311.09064 172.28317 311.46564Q171.6738 311.825 171.18942 311.9969L171.18942 310.98126Q172.06442 310.5594 172.72067 309.98126Q173.39255 309.3875 173.6738 308.825L174.34567 308.825L174.34567 317.45ZM177.37692 313.21564Q177.37692 311.6844 177.68942 310.7625Q178.00192 309.825 178.6113 309.325Q179.2363 308.825 180.1738 308.825Q180.8613 308.825 181.37692 309.10626Q181.90817 309.3875 182.25192 309.91876Q182.59567 310.4344 182.78317 311.1844Q182.97067 311.9344 182.97067 313.21564Q182.97067 314.73126 182.65817 315.65314Q182.3613 316.575 181.7363 317.09064Q181.12692 317.59064 180.1738 317.59064Q178.93942 317.59064 178.22067 316.7Q177.37692 315.6375 177.37692 313.21564ZM178.45505 313.21564Q178.45505 315.325 178.95505 316.02814Q179.45505 316.73126 180.1738 316.73126Q180.90817 316.73126 181.39255 316.02814Q181.89255 315.325 181.89255 313.21564Q181.89255 311.09064 181.39255 310.40314Q180.90817 309.7 180.15817 309.7Q179.43942 309.7 179.00192 310.3094Q178.45505 311.09064 178.45505 313.21564Z" fill-rule="nonzero"/><path fill="#000000" d="M272.25073 316.4344L272.25073 317.45L266.56323 317.45Q266.56323 317.075 266.68823 316.71564Q266.90698 316.1375 267.37573 315.575Q267.8601 315.0125 268.76636 314.27814Q270.1726 313.1219 270.65698 312.45Q271.15698 311.77814 271.15698 311.1844Q271.15698 310.5594 270.70386 310.1375Q270.25073 309.7 269.53198 309.7Q268.76636 309.7 268.31323 310.15314Q267.8601 310.60626 267.84448 311.41876L266.76636 311.3094Q266.87573 310.09064 267.59448 309.46564Q268.32886 308.825 269.56323 308.825Q270.7976 308.825 271.51636 309.5125Q272.2351 310.2 272.2351 311.21564Q272.2351 311.73126 272.01636 312.23126Q271.81323 312.71564 271.31323 313.27814Q270.82886 313.825 269.70386 314.77814Q268.75073 315.575 268.46948 315.8719Q268.20386 316.15314 268.03198 316.4344L272.25073 316.4344ZM273.70386 313.21564Q273.70386 311.6844 274.01636 310.7625Q274.32886 309.825 274.93823 309.325Q275.56323 308.825 276.50073 308.825Q277.18823 308.825 277.70386 309.10626Q278.2351 309.3875 278.57886 309.91876Q278.9226 310.4344 279.1101 311.1844Q279.2976 311.9344 279.2976 313.21564Q279.2976 314.73126 278.9851 315.65314Q278.68823 316.575 278.06323 317.09064Q277.45386 317.59064 276.50073 317.59064Q275.26636 317.59064 274.5476 316.7Q273.70386 315.6375 273.70386 313.21564ZM274.78198 313.21564Q274.78198 315.325 275.28198 316.02814Q275.78198 316.73126 276.50073 316.73126Q277.2351 316.73126 277.71948 316.02814Q278.21948 315.325 278.21948 313.21564Q278.21948 311.09064 277.71948 310.40314Q277.2351 309.7 276.4851 309.7Q275.76636 309.7 275.32886 310.3094Q274.78198 311.09064 274.78198 313.21564Z" fill-rule="nonzero"/><path fill="#000000" d="M363.03076 315.1844L364.09326 315.04376Q364.26514 315.9344 364.70264 316.34064Q365.14014 316.73126 365.76514 316.73126Q366.51514 316.73126 367.03076 316.21564Q367.5464 315.7 367.5464 314.9344Q367.5464 314.21564 367.062 313.7469Q366.59326 313.2625 365.8589 313.2625Q365.562 313.2625 365.1089 313.3875L365.2339 312.45Q365.34326 312.46564 365.40576 312.46564Q366.07764 312.46564 366.6089 312.1219Q367.15576 311.7625 367.15576 311.02814Q367.15576 310.45 366.76514 310.075Q366.3745 309.6844 365.7495 309.6844Q365.14014 309.6844 364.71826 310.075Q364.312 310.46564 364.20264 311.23126L363.14014 311.04376Q363.32764 309.9969 364.01514 309.41876Q364.70264 308.825 365.71826 308.825Q366.4214 308.825 367.01514 309.1375Q367.6089 309.4344 367.9214 309.95Q368.2339 310.46564 368.2339 311.0594Q368.2339 311.60626 367.937 312.075Q367.64014 312.52814 367.062 312.79376Q367.812 312.96564 368.2339 313.52814Q368.65576 314.075 368.65576 314.91876Q368.65576 316.04376 367.82764 316.825Q367.01514 317.60626 365.76514 317.60626Q364.64014 317.60626 363.89014 316.9344Q363.14014 316.2469 363.03076 315.1844ZM370.03076 313.21564Q370.03076 311.6844 370.34326 310.7625Q370.65576 309.825 371.26514 309.325Q371.89014 308.825 372.82764 308.825Q373.51514 308.825 374.03076 309.10626Q374.562 309.3875 374.90576 309.91876Q375.2495 310.4344 375.437 311.1844Q375.6245 311.9344 375.6245 313.21564Q375.6245 314.73126 375.312 315.65314Q375.01514 316.575 374.39014 317.09064Q373.78076 317.59064 372.82764 317.59064Q371.59326 317.59064 370.8745 316.7Q370.03076 315.6375 370.03076 313.21564ZM371.1089 313.21564Q371.1089 315.325 371.6089 316.02814Q372.1089 316.73126 372.82764 316.73126Q373.562 316.73126 374.0464 316.02814Q374.5464 315.325 374.5464 313.21564Q374.5464 311.09064 374.0464 310.40314Q373.562 309.7 372.812 309.7Q372.09326 309.7 371.65576 310.3094Q371.1089 311.09064 371.1089 313.21564Z" fill-rule="nonzero"/><path fill="#000000" d="M462.7327 317.45L462.7327 315.3875L459.01395 315.3875L459.01395 314.41876L462.93582 308.85626L463.7952 308.85626L463.7952 314.41876L464.95145 314.41876L464.95145 315.3875L463.7952 315.3875L463.7952 317.45L462.7327 317.45ZM462.7327 314.41876L462.7327 310.5594L460.0452 314.41876L462.7327 314.41876ZM466.3577 313.21564Q466.3577 311.6844 466.6702 310.7625Q466.9827 309.825 467.59207 309.325Q468.21707 308.825 469.15457 308.825Q469.84207 308.825 470.3577 309.10626Q470.88895 309.3875 471.2327 309.91876Q471.57645 310.4344 471.76395 311.1844Q471.95145 311.9344 471.95145 313.21564Q471.95145 314.73126 471.63895 315.65314Q471.34207 316.575 470.71707 317.09064Q470.1077 317.59064 469.15457 317.59064Q467.9202 317.59064 467.20145 316.7Q466.3577 315.6375 466.3577 313.21564ZM467.43582 313.21564Q467.43582 315.325 467.93582 316.02814Q468.43582 316.73126 469.15457 316.73126Q469.88895 316.73126 470.37332 316.02814Q470.87332 315.325 470.87332 313.21564Q470.87332 311.09064 470.37332 310.40314Q469.88895 309.7 469.13895 309.7Q468.4202 309.7 467.9827 310.3094Q467.43582 311.09064 467.43582 313.21564Z" fill-rule="nonzero"/><path fill="#000000" d="M555.68463 315.2L556.794 315.10626Q556.919 315.91876 557.3565 316.325Q557.80963 316.73126 558.45026 316.73126Q559.20026 316.73126 559.7315 316.15314Q560.26276 315.575 560.26276 314.6375Q560.26276 313.73126 559.74713 313.21564Q559.24713 312.6844 558.419 312.6844Q557.919 312.6844 557.49713 312.91876Q557.0909 313.15314 556.8565 313.5125L555.87213 313.3875L556.70026 308.98126L560.9815 308.98126L560.9815 309.98126L557.544 309.98126L557.0909 312.29376Q557.8565 311.7469 558.70026 311.7469Q559.82526 311.7469 560.5909 312.52814Q561.37213 313.3094 561.37213 314.54376Q561.37213 315.7 560.70026 316.5594Q559.87213 317.59064 558.45026 317.59064Q557.2784 317.59064 556.5284 316.9344Q555.794 316.27814 555.68463 315.2ZM562.68463 313.21564Q562.68463 311.6844 562.99713 310.7625Q563.30963 309.825 563.919 309.325Q564.544 308.825 565.4815 308.825Q566.169 308.825 566.68463 309.10626Q567.2159 309.3875 567.55963 309.91876Q567.9034 310.4344 568.0909 311.1844Q568.2784 311.9344 568.2784 313.21564Q568.2784 314.73126 567.9659 315.65314Q567.669 316.575 567.044 317.09064Q566.43463 317.59064 565.4815 317.59064Q564.24713 317.59064 563.5284 316.7Q562.68463 315.6375 562.68463 313.21564ZM563.76276 313.21564Q563.76276 315.325 564.26276 316.02814Q564.76276 316.73126 565.4815 316.73126Q566.2159 316.73126 566.70026 316.02814Q567.20026 315.325 567.20026 313.21564Q567.20026 311.09064 566.70026 310.40314Q566.2159 309.7 565.4659 309.7Q564.74713 309.7 564.30963 310.3094Q563.76276 311.09064 563.76276 313.21564Z" fill-rule="nonzero"/></svg>