<svg version="1.1" viewBox="0.0 0.0 600.0 371.0" fill="none" stroke="none" stroke-linecap="square" stroke-miterlimit="10" width="600" height="371" xmlns:xlink="http://www.w3.org/1999/xlink" xmlns="http://www.w3.org/2000/svg"><path fill="#ffffff" d="M0 0L600.0 0L600.0 371.0L0 371.0L0 0Z" fill-rule="nonzero"/><path stroke="#333333" stroke-width="1.0" stroke-linecap="butt" d="M80.5 25.5L80.5 300.5" fill-rule="nonzero"/><path stroke="#cccccc" stroke-width="1.0" stroke-linecap="butt" d="M176.5 25.5L176.5 300.5" fill-rule="nonzero"/><path stroke="#cccccc" stroke-width="1.0" stroke-linecap="butt" d="M273.5 25.5L273.5 300.5" fill-rule="nonzero"/><path stroke="#cccccc" stroke-width="1.0" stroke-linecap="butt" d="M369.5 25.5L369.5 300.5" fill-rule="nonzero"/><path stroke="#cccccc" stroke-width="1.0" stroke-linecap="butt" d="M465.5 25.5L465.5 300.5" fill-rule="nonzero"/><path stroke="#cccccc" stroke-width="1.0" stroke-linecap="butt" d="M562.5 25.5L562.5 300.5" fill-rule="nonzero"/><path stroke="#cccccc" stroke-width="1.0" stroke-linecap="butt" d="M80.5 300.5L581.5 300.5" fill-rule="nonzero"/><path stroke="#cccccc" stroke-width="1.0" stroke-linecap="butt" d="M80.5 231.5L581.5 231.5" fill-rule="nonzero"/><path stroke="#cccccc" stroke-width="1.0" stroke-linecap="butt" d="M80.5 163.5L581.5 163.5" fill-rule="nonzero"/><path stroke="#cccccc" stroke-width="1.0" stroke-linecap="butt" d="M80.5 94.5L581.5 94.5" fill-rule="nonzero"/><path stroke="#cccccc" stroke-width="1.0" stroke-linecap="butt" d="M80.5 25.5L581.5 25.5" fill-rule="nonzero"/><clipPath id="id_0"><path d="M80.55 25.55L581.45 25.55L581.45 300.45L80.55 300.45L80.55 25.55Z" clip-rule="nonzero"/></clipPath><path stroke="#4285f4" stroke-width="2.0" stroke-linecap="butt" clip-path="url(#id_0)" d="M80.55 68.03387C80.55 68.03387 86.971794 69.81487 90.18269 70.821526C93.39359 71.82818 96.604485 72.60252 99.815384 74.07379C103.02628 75.54505 106.23718 77.55836 109.448074 79.6491C112.65897 81.739845 115.86987 84.450066 119.08077 86.61824C122.291664 88.786415 125.50256 91.80637 128.71346 92.65816C131.92436 93.50994 135.13525 91.57407 138.34616 91.72894C141.55705 91.88381 144.76794 92.19355 147.97885 93.58738C151.18974 94.98121 154.40063 98.54321 157.61154 100.09191C160.82243 101.6406 164.03334 102.33752 167.24423 102.87956C170.45512 103.42161 173.66603 102.260086 176.87692 103.34417C180.08781 104.42826 183.29872 108.37744 186.50961 109.384094C189.72052 110.39075 192.93141 108.99692 196.1423 109.384094C199.35321 109.77127 202.5641 110.855354 205.775 111.70714C208.9859 112.55892 212.1968 114.41736 215.4077 114.4948C218.61859 114.57223 221.82948 111.939445 225.04039 112.171745C228.25128 112.40405 231.46217 115.26914 234.67308 115.88862C237.88397 116.5081 241.09488 115.57888 244.30577 115.88862C247.51666 116.198364 250.72757 116.430664 253.93846 117.74706C257.14935 119.06345 260.36026 122.39315 263.57117 123.78698C266.78204 125.18081 269.99295 125.722855 273.20386 126.11002C276.41473 126.4972 279.62564 125.49055 282.83655 126.11002C286.04742 126.72951 289.25833 128.89767 292.46924 129.8269C295.6801 130.75612 298.89102 131.22073 302.10193 131.68533C305.31284 132.14995 308.5237 132.22739 311.73462 132.61455C314.94553 133.00172 318.1564 133.31146 321.3673 134.00838C324.57822 134.70529 327.7891 135.4022 331.0 136.79604C334.2109 138.18987 337.42178 141.44212 340.6327 142.37135C343.8436 143.30057 347.05447 141.90674 350.26538 142.37135C353.4763 142.83595 356.68716 144.6944 359.89807 145.15901C363.10898 145.62361 366.3199 145.15901 369.53076 145.15901C372.74167 145.15901 375.95258 144.07492 379.16345 145.15901C382.37436 146.24309 385.58527 150.73431 388.79614 151.66353C392.00705 152.59276 395.21796 150.57945 398.42883 150.73431C401.63974 150.88919 404.85065 152.59276 408.06152 152.59276C411.27243 152.59276 414.48334 149.95996 417.69424 150.73431C420.90512 151.50867 424.11603 155.45784 427.32693 157.23885C430.5378 159.01985 433.74872 160.95572 436.95963 161.42033C440.1705 161.88493 443.3814 159.79419 446.59232 160.0265C449.8032 160.2588 453.0141 161.5752 456.225 162.81416C459.43588 164.05312 462.6468 167.22795 465.8577 167.46025C469.0686 167.69255 472.27948 164.75003 475.4904 164.20798C478.7013 163.66594 481.91217 163.82082 485.12308 164.20798C488.33398 164.59515 491.54486 165.3695 494.75577 166.53104C497.96667 167.69255 504.38846 171.17712 504.38846 171.17712" fill-rule="nonzero"/><path stroke="#4285f4" stroke-width="2.0" stroke-linecap="butt" stroke-opacity="0.4" clip-path="url(#id_0)" d="M0 55.827324C0 55.827324 2.6666667 56.543766 4.0 56.901344C5.3333335 57.258926 6.6666665 57.61608 8.0 57.972813C9.333333 58.32954 10.666667 58.685844 12.0 59.041725C13.333333 59.397602 14.666667 59.75306 16.0 60.10809C17.333334 60.46312 18.666666 60.81773 20.0 61.171913C21.333334 61.5261 22.666666 61.879864 24.0 62.233204C25.333334 62.586548 26.666666 62.93947 28.0 63.291965C29.333334 63.644466 30.666666 63.996548 32.0 64.348206C33.333332 64.69987 34.666668 65.05111 36.0 65.40193C37.333332 65.752754 38.666668 66.10316 40.0 66.45314C41.333332 66.80313 42.666668 67.152695 44.0 67.50185C45.333332 67.851006 46.666668 68.19974 48.0 68.54806C49.333332 68.89638 50.666668 69.244286 52.0 69.591774C53.333332 69.93927 54.666668 70.28635 56.0 70.633C57.333332 70.97967 58.666668 71.32592 60.0 71.67175C61.333332 72.01759 62.666668 72.363014 64.0 72.70803C65.333336 73.05305 66.666664 73.397644 68.0 73.74184C69.333336 74.08603 70.666664 74.42981 72.0 74.77318C73.333336 75.11655 74.666664 75.45951 76.0 75.80206C77.333336 76.144615 78.666664 76.48676 80.0 76.8285C81.333336 77.170235 82.666664 77.511566 84.0 77.852486C85.333336 78.19341 86.666664 78.53393 88.0 78.87404C89.333336 79.21415 90.666664 79.55385 92.0 79.89315C93.333336 80.23245 94.666664 80.57135 96.0 80.909836C97.333336 81.24833 98.666664 81.58642 100.0 81.9241C101.333336 82.26179 102.666664 82.59907 104.0 82.93595C105.333336 83.272835 106.666664 83.609314 108.0 83.94539C109.333336 84.28147 110.666664 84.61714 112.0 84.95242C113.333336 85.2877 114.666664 85.622574 116.0 85.957054C117.333336 86.291534 118.666664 86.62562 120.0 86.9593C121.333336 87.29298 122.666664 87.62626 124.0 87.95915C125.333336 88.29204 126.666664 88.62453 128.0 88.95662C129.33333 89.28871 130.66667 89.62041 132.0 89.95171C133.33333 90.28301 134.66667 90.61392 136.0 90.944435C137.33333 91.27495 138.66667 91.605064 140.0 91.93479C141.33333 92.26452 142.66667 92.59385 144.0 92.92279C145.33333 93.25173 146.66667 93.58028 148.0 93.90843C149.33333 94.23659 150.66667 94.564354 152.0 94.89173C153.33333 95.21911 154.66667 95.54609 156.0 95.87268C157.33333 96.19928 158.66667 96.52548 160.0 96.8513C161.33333 97.17712 162.66667 97.50254 164.0 97.82758C165.33333 98.152626 166.66667 98.47728 168.0 98.801544C169.33333 99.12581 170.66667 99.449684 172.0 99.77318C173.33333 100.09667 174.66667 100.419785 176.0 100.7425C177.33333 101.06522 178.66667 101.387566 180.0 101.70952C181.33333 102.03147 182.66667 102.35304 184.0 102.674225C185.33333 102.995415 186.66667 103.316216 188.0 103.636635C189.33333 103.95706 190.66667 104.2771 192.0 104.596756C193.33333 104.91641 194.66667 105.235695 196.0 105.55459C197.33333 105.87348 198.66667 106.192 200.0 106.51014C201.33333 106.82827 202.66667 107.14603 204.0 107.46341C205.33333 107.780785 206.66667 108.097786 208.0 108.41441C209.33333 108.73103 210.66667 109.04728 212.0 109.363144C213.33333 109.679016 214.66667 109.99451 216.0 110.30962C217.33333 110.62473 218.66667 110.939476 220.0 111.25384C221.33333 111.56821 222.66667 111.882195 224.0 112.19581C225.33333 112.50943 226.66667 112.82267 228.0 113.13554C229.33333 113.44841 230.66667 113.7609 232.0 114.07303C233.33333 114.38515 234.66667 114.6969 236.0 115.00828C237.33333 115.31966 238.66667 115.63067 240.0 115.94131C241.33333 116.251945 242.66667 116.56221 244.0 116.87211C245.33333 117.18201 246.66667 117.49153 248.0 117.80069C249.33333 118.10985 250.66667 118.41864 252.0 118.727066C253.33333 119.035484 254.66667 119.343544 256.0 119.65123C257.33334 119.958916 258.66666 120.266235 260.0 120.5732C261.33334 120.88015 262.66666 121.18674 264.0 121.49296C265.33334 121.79919 266.66666 122.10504 268.0 122.41054C269.33334 122.716034 270.66666 123.02116 272.0 123.32593C273.33334 123.63069 274.66666 123.9351 276.0 124.239136C277.33334 124.543175 278.66666 124.846855 280.0 125.15017C281.33334 125.45348 282.66666 125.75644 284.0 126.05903C285.33334 126.361626 286.66666 126.66386 288.0 126.96573C289.33334 127.2676 290.66666 127.569115 292.0 127.87026C293.33334 128.17142 294.66666 128.47221 296.0 128.77264C297.33334 129.07309 298.66666 129.37315 300.0 129.67288C301.33334 129.9726 302.66666 130.27196 304.0 130.57097C305.33334 130.86996 306.66666 131.16862 308.0 131.46692C309.33334 131.76521 310.66666 132.06314 312.0 132.36073C313.33334 132.65831 314.66666 132.95554 316.0 133.25241C317.33334 133.54929 318.66666 133.8458 320.0 134.14197C321.33334 134.43814 322.66666 134.73395 324.0 135.0294C325.33334 135.32487 326.66666 135.61998 328.0 135.91473C329.33334 136.20949 330.66666 136.50389 332.0 136.79794C333.33334 137.09201 334.66666 137.38571 336.0 137.67906C337.33334 137.97241 338.66666 138.26541 340.0 138.55807C341.33334 138.85072 342.66666 139.14304 344.0 139.435C345.33334 139.72694 346.66666 140.01855 348.0 140.30981C349.33334 140.60109 350.66666 140.892 352.0 141.18257C353.33334 141.47313 354.66666 141.76335 356.0 142.05324C357.33334 142.34311 358.66666 142.63263 360.0 142.92183C361.33334 143.21101 362.66666 143.49985 364.0 143.78835C365.33334 144.07684 366.66666 144.36499 368.0 144.6528C369.33334 144.94061 370.66666 145.22807 372.0 145.5152C373.33334 145.80232 374.66666 146.0891 376.0 146.37553C377.33334 146.66199 378.66666 146.94807 380.0 147.23384C381.33334 147.51959 382.66666 147.80501 384.0 148.09009C385.33334 148.37515 386.66666 148.6599 388.0 148.94429C389.33334 149.22868 390.66666 149.51274 392.0 149.79646C393.33334 150.08018 394.66666 150.36356 396.0 150.6466C397.33334 150.92966 398.66666 151.21236 400.0 151.49472C401.33334 151.7771 402.66666 152.05913 404.0 152.34082C405.33334 152.62251 406.66666 152.90387 408.0 153.1849C409.33334 153.46593 410.66666 153.74661 412.0 154.02698C413.33334 154.30733 414.66666 154.58734 416.0 154.86703C417.33334 155.14673 418.66666 155.42607 420.0 155.7051C421.33334 155.98412 422.66666 156.2628 424.0 156.54117C425.33334 156.81952 426.66666 157.09755 428.0 157.37523C429.33334 157.65292 430.66666 157.9303 432.0 158.20732C433.33334 158.48436 434.66666 158.76106 436.0 159.03743C437.33334 159.3138 438.66666 159.58984 440.0 159.86555C441.33334 160.14127 442.66666 160.41666 444.0 160.69171C445.33334 160.96677 446.66666 161.24149 448.0 161.51588C449.33334 161.7903 450.66666 162.06436 452.0 162.33812C453.33334 162.61186 454.66666 162.88528 456.0 163.15837C457.33334 163.43147 458.66666 163.70424 460.0 163.97668C461.33334 164.24913 462.66666 164.52124 464.0 164.79305C465.33334 165.06483 466.66666 165.3363 468.0 165.60745C469.33334 165.8786 470.66666 166.14943 472.0 166.41992C473.33334 166.69043 474.66666 166.9606 476.0 167.23047C477.33334 167.50032 478.66666 167.76985 480.0 168.03908C481.33334 168.30829 482.66666 168.57718 484.0 168.84575C485.33334 169.11432 486.66666 169.38258 488.0 169.65051C489.33334 169.91844 490.66666 170.18605 492.0 170.45335C493.33334 170.72064 494.66666 170.98763 496.0 171.25427C497.33334 171.52094 498.66666 171.78728 500.0 172.0533C501.33334 172.31932 502.66666 172.58502 504.0 172.85042C505.33334 173.1158 506.66666 173.38087 508.0 173.64563C509.33334 173.91039 510.66666 174.17482 512.0 174.43895C513.3333 174.70308 514.6667 174.96689 516.0 175.2304C517.3333 175.49388 518.6667 175.75706 520.0 176.01993C521.3333 176.2828 522.6667 176.54535 524.0 176.8076C525.3333 177.06984 526.6667 177.33177 528.0 177.59338C529.3333 177.85501 530.6667 178.1163 532.0 178.3773C533.3333 178.63829 534.6667 178.89899 536.0 179.15935C537.3333 179.41972 538.6667 179.67978 540.0 179.93954C541.3333 180.1993 542.6667 180.45872 544.0 180.71786C545.3333 180.977 546.6667 181.23582 548.0 181.49434C549.3333 181.75285 550.6667 182.01106 552.0 182.26897C553.3333 182.52686 554.6667 182.78445 556.0 183.04173C557.3333 183.29903 558.6667 183.556 560.0 183.81267C561.3333 184.06935 562.6667 184.32571 564.0 184.58177C565.3333 184.83783 566.6667 185.09358 568.0 185.34904C569.3333 185.60449 570.6667 185.85963 572.0 186.11447C573.3333 186.36932 574.6667 186.62386 576.0 186.8781C577.3333 187.13232 580.0 187.6399 580.0 187.6399" fill-rule="nonzero"/><path fill="#000000" fill-opacity="0.0" clip-path="url(#id_0)" d="M83.55 68.03387C83.55 69.69073 82.206856 71.03387 80.55 71.03387C78.89314 71.03387 77.55 69.69073 77.55 68.03387C77.55 66.377014 78.89314 65.03387 80.55 65.03387C82.206856 65.03387 83.55 66.377014 83.55 68.03387Z" fill-rule="nonzero"/><path fill="#000000" fill-opacity="0.0" clip-path="url(#id_0)" d="M93.18269 70.821526C93.18269 72.47838 91.83955 73.821526 90.18269 73.821526C88.52584 73.821526 87.18269 72.47838 87.18269 70.821526C87.18269 69.16467 88.52584 67.821526 90.18269 67.821526C91.83955 67.821526 93.18269 69.16467 93.18269 70.821526Z" fill-rule="nonzero"/><path fill="#000000" fill-opacity="0.0" clip-path="url(#id_0)" d="M102.815384 74.07379C102.815384 75.730644 101.47224 77.07379 99.815384 77.07379C98.15853 77.07379 96.815384 75.730644 96.815384 74.07379C96.815384 72.41694 98.15853 71.07379 99.815384 71.07379C101.47224 71.07379 102.815384 72.41694 102.815384 74.07379Z" fill-rule="nonzero"/><path fill="#000000" fill-opacity="0.0" clip-path="url(#id_0)" d="M112.448074 79.6491C112.448074 81.305954 111.104935 82.6491 109.448074 82.6491C107.79122 82.6491 106.448074 81.305954 106.448074 79.6491C106.448074 77.99225 107.79122 76.6491 109.448074 76.6491C111.104935 76.6491 112.448074 77.99225 112.448074 79.6491Z" fill-rule="nonzero"/><path fill="#000000" fill-opacity="0.0" clip-path="url(#id_0)" d="M122.08077 86.61824C122.08077 88.27509 120.737625 89.61824 119.08077 89.61824C117.42391 89.61824 116.08077 88.27509 116.08077 86.61824C116.08077 84.96139 117.42391 83.61824 119.08077 83.61824C120.737625 83.61824 122.08077 84.96139 122.08077 86.61824Z" fill-rule="nonzero"/><path fill="#000000" fill-opacity="0.0" clip-path="url(#id_0)" d="M131.71346 92.65816C131.71346 94.31502 130.37032 95.65816 128.71346 95.65816C127.05661 95.65816 125.71346 94.31502 125.71346 92.65816C125.71346 91.001305 127.05661 89.65816 128.71346 89.65816C130.37032 89.65816 131.71346 91.001305 131.71346 92.65816Z" fill-rule="nonzero"/><path fill="#000000" fill-opacity="0.0" clip-path="url(#id_0)" d="M141.34616 91.72894C141.34616 93.385796 140.003 94.72894 138.34616 94.72894C136.6893 94.72894 135.34616 93.385796 135.34616 91.72894C135.34616 90.07209 136.6893 88.72894 138.34616 88.72894C140.003 88.72894 141.34616 90.07209 141.34616 91.72894Z" fill-rule="nonzero"/><path fill="#000000" fill-opacity="0.0" clip-path="url(#id_0)" d="M150.97885 93.58738C150.97885 95.24423 149.6357 96.58738 147.97885 96.58738C146.32199 96.58738 144.97885 95.24423 144.97885 93.58738C144.97885 91.93053 146.32199 90.58738 147.97885 90.58738C149.6357 90.58738 150.97885 91.93053 150.97885 93.58738Z" fill-rule="nonzero"/><path fill="#000000" fill-opacity="0.0" clip-path="url(#id_0)" d="M160.61154 100.09191C160.61154 101.748764 159.26839 103.09191 157.61154 103.09191C155.95468 103.09191 154.61154 101.748764 154.61154 100.09191C154.61154 98.43505 155.95468 97.09191 157.61154 97.09191C159.26839 97.09191 160.61154 98.43505 160.61154 100.09191Z" fill-rule="nonzero"/><path fill="#000000" fill-opacity="0.0" clip-path="url(#id_0)" d="M170.24423 102.87956C170.24423 104.536415 168.9011 105.87956 167.24423 105.87956C165.58737 105.87956 164.24423 104.536415 164.24423 102.87956C164.24423 101.22271 165.58737 99.87956 167.24423 99.87956C168.9011 99.87956 170.24423 101.22271 170.24423 102.87956Z" fill-rule="nonzero"/><path fill="#000000" fill-opacity="0.0" clip-path="url(#id_0)" d="M179.87692 103.34417C179.87692 105.00103 178.53378 106.34417 176.87692 106.34417C175.22006 106.34417 173.87692 105.00103 173.87692 103.34417C173.87692 101.68732 175.22006 100.34417 176.87692 100.34417C178.53378 100.34417 179.87692 101.68732 179.87692 103.34417Z" fill-rule="nonzero"/><path fill="#000000" fill-opacity="0.0" clip-path="url(#id_0)" d="M189.50961 109.384094C189.50961 111.04095 188.16647 112.384094 186.50961 112.384094C184.85277 112.384094 183.50961 111.04095 183.50961 109.384094C183.50961 107.72724 184.85277 106.384094 186.50961 106.384094C188.16647 106.384094 189.50961 107.72724 189.50961 109.384094Z" fill-rule="nonzero"/><path fill="#000000" fill-opacity="0.0" clip-path="url(#id_0)" d="M199.1423 109.384094C199.1423 111.04095 197.79916 112.384094 196.1423 112.384094C194.48546 112.384094 193.1423 111.04095 193.1423 109.384094C193.1423 107.72724 194.48546 106.384094 196.1423 106.384094C197.79916 106.384094 199.1423 107.72724 199.1423 109.384094Z" fill-rule="nonzero"/><path fill="#000000" fill-opacity="0.0" clip-path="url(#id_0)" d="M208.775 111.70714C208.775 113.36399 207.43185 114.70714 205.775 114.70714C204.11815 114.70714 202.775 113.36399 202.775 111.70714C202.775 110.050285 204.11815 108.70714 205.775 108.70714C207.43185 108.70714 208.775 110.050285 208.775 111.70714Z" fill-rule="nonzero"/><path fill="#000000" fill-opacity="0.0" clip-path="url(#id_0)" d="M218.4077 114.4948C218.4077 116.15165 217.06454 117.4948 215.4077 117.4948C213.75084 117.4948 212.4077 116.15165 212.4077 114.4948C212.4077 112.837944 213.75084 111.4948 215.4077 111.4948C217.06454 111.4948 218.4077 112.837944 218.4077 114.4948Z" fill-rule="nonzero"/><path fill="#000000" fill-opacity="0.0" clip-path="url(#id_0)" d="M228.04039 112.171745C228.04039 113.828606 226.69724 115.171745 225.04039 115.171745C223.38353 115.171745 222.04039 113.828606 222.04039 112.171745C222.04039 110.51489 223.38353 109.171745 225.04039 109.171745C226.69724 109.171745 228.04039 110.51489 228.04039 112.171745Z" fill-rule="nonzero"/><path fill="#000000" fill-opacity="0.0" clip-path="url(#id_0)" d="M237.67308 115.88862C237.67308 117.54548 236.32993 118.88862 234.67308 118.88862C233.01622 118.88862 231.67308 117.54548 231.67308 115.88862C231.67308 114.231766 233.01622 112.88862 234.67308 112.88862C236.32993 112.88862 237.67308 114.231766 237.67308 115.88862Z" fill-rule="nonzero"/><path fill="#000000" fill-opacity="0.0" clip-path="url(#id_0)" d="M247.30577 115.88862C247.30577 117.54548 245.96262 118.88862 244.30577 118.88862C242.64891 118.88862 241.30577 117.54548 241.30577 115.88862C241.30577 114.231766 242.64891 112.88862 244.30577 112.88862C245.96262 112.88862 247.30577 114.231766 247.30577 115.88862Z" fill-rule="nonzero"/><path fill="#000000" fill-opacity="0.0" clip-path="url(#id_0)" d="M256.93848 117.74706C256.93848 119.403915 255.59532 120.74706 253.93846 120.74706C252.2816 120.74706 250.93846 119.403915 250.93846 117.74706C250.93846 116.0902 252.2816 114.74706 253.93846 114.74706C255.59532 114.74706 256.93848 116.0902 256.93848 117.74706Z" fill-rule="nonzero"/><path fill="#000000" fill-opacity="0.0" clip-path="url(#id_0)" d="M266.57117 123.78698C266.57117 125.44383 265.228 126.78698 263.57117 126.78698C261.9143 126.78698 260.57117 125.44383 260.57117 123.78698C260.57117 122.13013 261.9143 120.78698 263.57117 120.78698C265.228 120.78698 266.57117 122.13013 266.57117 123.78698Z" fill-rule="nonzero"/><path fill="#000000" fill-opacity="0.0" clip-path="url(#id_0)" d="M276.20386 126.11002C276.20386 127.76688 274.8607 129.11003 273.20386 129.11003C271.547 129.11003 270.20386 127.76688 270.20386 126.11002C270.20386 124.45317 271.547 123.11002 273.20386 123.11002C274.8607 123.11002 276.20386 124.45317 276.20386 126.11002Z" fill-rule="nonzero"/><path fill="#000000" fill-opacity="0.0" clip-path="url(#id_0)" d="M285.83655 126.11002C285.83655 127.76688 284.49338 129.11003 282.83655 129.11003C281.1797 129.11003 279.83655 127.76688 279.83655 126.11002C279.83655 124.45317 281.1797 123.11002 282.83655 123.11002C284.49338 123.11002 285.83655 124.45317 285.83655 126.11002Z" fill-rule="nonzero"/><path fill="#000000" fill-opacity="0.0" clip-path="url(#id_0)" d="M295.46924 129.8269C295.46924 131.48375 294.1261 132.8269 292.46924 132.8269C290.81238 132.8269 289.46924 131.48375 289.46924 129.8269C289.46924 128.17004 290.81238 126.8269 292.46924 126.8269C294.1261 126.8269 295.46924 128.17004 295.46924 129.8269Z" fill-rule="nonzero"/><path fill="#000000" fill-opacity="0.0" clip-path="url(#id_0)" d="M305.10193 131.68533C305.10193 133.3422 303.7588 134.68533 302.10193 134.68533C300.44507 134.68533 299.10193 133.3422 299.10193 131.68533C299.10193 130.02849 300.44507 128.68533 302.10193 128.68533C303.7588 128.68533 305.10193 130.02849 305.10193 131.68533Z" fill-rule="nonzero"/><path fill="#000000" fill-opacity="0.0" clip-path="url(#id_0)" d="M314.73462 132.61455C314.73462 134.27141 313.39148 135.61455 311.73462 135.61455C310.07776 135.61455 308.73462 134.27141 308.73462 132.61455C308.73462 130.9577 310.07776 129.61455 311.73462 129.61455C313.39148 129.61455 314.73462 130.9577 314.73462 132.61455Z" fill-rule="nonzero"/><path fill="#000000" fill-opacity="0.0" clip-path="url(#id_0)" d="M324.3673 134.00838C324.3673 135.66524 323.02417 137.00838 321.3673 137.00838C319.71045 137.00838 318.3673 135.66524 318.3673 134.00838C318.3673 132.35153 319.71045 131.00838 321.3673 131.00838C323.02417 131.00838 324.3673 132.35153 324.3673 134.00838Z" fill-rule="nonzero"/><path fill="#000000" fill-opacity="0.0" clip-path="url(#id_0)" d="M334.0 136.79604C334.0 138.4529 332.65686 139.79604 331.0 139.79604C329.34314 139.79604 328.0 138.4529 328.0 136.79604C328.0 135.13919 329.34314 133.79604 331.0 133.79604C332.65686 133.79604 334.0 135.13919 334.0 136.79604Z" fill-rule="nonzero"/><path fill="#000000" fill-opacity="0.0" clip-path="url(#id_0)" d="M343.6327 142.37135C343.6327 144.0282 342.28955 145.37135 340.6327 145.37135C338.97583 145.37135 337.6327 144.0282 337.6327 142.37135C337.6327 140.7145 338.97583 139.37135 340.6327 139.37135C342.28955 139.37135 343.6327 140.7145 343.6327 142.37135Z" fill-rule="nonzero"/><path fill="#000000" fill-opacity="0.0" clip-path="url(#id_0)" d="M353.26538 142.37135C353.26538 144.0282 351.92224 145.37135 350.26538 145.37135C348.60852 145.37135 347.26538 144.0282 347.26538 142.37135C347.26538 140.7145 348.60852 139.37135 350.26538 139.37135C351.92224 139.37135 353.26538 140.7145 353.26538 142.37135Z" fill-rule="nonzero"/><path fill="#000000" fill-opacity="0.0" clip-path="url(#id_0)" d="M362.89807 145.15901C362.89807 146.81586 361.55493 148.15901 359.89807 148.15901C358.2412 148.15901 356.89807 146.81586 356.89807 145.15901C356.89807 143.50215 358.2412 142.15901 359.89807 142.15901C361.55493 142.15901 362.89807 143.50215 362.89807 145.15901Z" fill-rule="nonzero"/><path fill="#000000" fill-opacity="0.0" clip-path="url(#id_0)" d="M372.53076 145.15901C372.53076 146.81586 371.18762 148.15901 369.53076 148.15901C367.8739 148.15901 366.53076 146.81586 366.53076 145.15901C366.53076 143.50215 367.8739 142.15901 369.53076 142.15901C371.18762 142.15901 372.53076 143.50215 372.53076 145.15901Z" fill-rule="nonzero"/><path fill="#000000" fill-opacity="0.0" clip-path="url(#id_0)" d="M382.16345 145.15901C382.16345 146.81586 380.8203 148.15901 379.16345 148.15901C377.50662 148.15901 376.16345 146.81586 376.16345 145.15901C376.16345 143.50215 377.50662 142.15901 379.16345 142.15901C380.8203 142.15901 382.16345 143.50215 382.16345 145.15901Z" fill-rule="nonzero"/><path fill="#000000" fill-opacity="0.0" clip-path="url(#id_0)" d="M391.79614 151.66353C391.79614 153.32039 390.453 154.66353 388.79614 154.66353C387.1393 154.66353 385.79614 153.32039 385.79614 151.66353C385.79614 150.00668 387.1393 148.66353 388.79614 148.66353C390.453 148.66353 391.79614 150.00668 391.79614 151.66353Z" fill-rule="nonzero"/><path fill="#000000" fill-opacity="0.0" clip-path="url(#id_0)" d="M401.42883 150.73431C401.42883 152.39117 400.0857 153.73431 398.42883 153.73431C396.772 153.73431 395.42883 152.39117 395.42883 150.73431C395.42883 149.07747 396.772 147.73431 398.42883 147.73431C400.0857 147.73431 401.42883 149.07747 401.42883 150.73431Z" fill-rule="nonzero"/><path fill="#000000" fill-opacity="0.0" clip-path="url(#id_0)" d="M411.06152 152.59276C411.06152 154.2496 409.71838 155.59276 408.06152 155.59276C406.4047 155.59276 405.06152 154.2496 405.06152 152.59276C405.06152 150.9359 406.4047 149.59276 408.06152 149.59276C409.71838 149.59276 411.06152 150.9359 411.06152 152.59276Z" fill-rule="nonzero"/><path fill="#000000" fill-opacity="0.0" clip-path="url(#id_0)" d="M420.69424 150.73431C420.69424 152.39117 419.35107 153.73431 417.69424 153.73431C416.03738 153.73431 414.69424 152.39117 414.69424 150.73431C414.69424 149.07747 416.03738 147.73431 417.69424 147.73431C419.35107 147.73431 420.69424 149.07747 420.69424 150.73431Z" fill-rule="nonzero"/><path fill="#000000" fill-opacity="0.0" clip-path="url(#id_0)" d="M430.32693 157.23885C430.32693 158.8957 428.98376 160.23885 427.32693 160.23885C425.67007 160.23885 424.32693 158.8957 424.32693 157.23885C424.32693 155.58199 425.67007 154.23885 427.32693 154.23885C428.98376 154.23885 430.32693 155.58199 430.32693 157.23885Z" fill-rule="nonzero"/><path fill="#000000" fill-opacity="0.0" clip-path="url(#id_0)" d="M439.95963 161.42033C439.95963 163.07718 438.61646 164.42033 436.95963 164.42033C435.30276 164.42033 433.95963 163.07718 433.95963 161.42033C433.95963 159.76347 435.30276 158.42033 436.95963 158.42033C438.61646 158.42033 439.95963 159.76347 439.95963 161.42033Z" fill-rule="nonzero"/><path fill="#000000" fill-opacity="0.0" clip-path="url(#id_0)" d="M449.59232 160.0265C449.59232 161.68335 448.24918 163.0265 446.59232 163.0265C444.93546 163.0265 443.59232 161.68335 443.59232 160.0265C443.59232 158.36964 444.93546 157.0265 446.59232 157.0265C448.24918 157.0265 449.59232 158.36964 449.59232 160.0265Z" fill-rule="nonzero"/><path fill="#000000" fill-opacity="0.0" clip-path="url(#id_0)" d="M459.225 162.81416C459.225 164.47101 457.88187 165.81416 456.225 165.81416C454.56815 165.81416 453.225 164.47101 453.225 162.81416C453.225 161.1573 454.56815 159.81416 456.225 159.81416C457.88187 159.81416 459.225 161.1573 459.225 162.81416Z" fill-rule="nonzero"/><path fill="#000000" fill-opacity="0.0" clip-path="url(#id_0)" d="M468.8577 167.46025C468.8577 169.1171 467.51456 170.46025 465.8577 170.46025C464.20084 170.46025 462.8577 169.1171 462.8577 167.46025C462.8577 165.80339 464.20084 164.46025 465.8577 164.46025C467.51456 164.46025 468.8577 165.80339 468.8577 167.46025Z" fill-rule="nonzero"/><path fill="#000000" fill-opacity="0.0" clip-path="url(#id_0)" d="M478.4904 164.20798C478.4904 165.86484 477.14725 167.20798 475.4904 167.20798C473.83353 167.20798 472.4904 165.86484 472.4904 164.20798C472.4904 162.55113 473.83353 161.20798 475.4904 161.20798C477.14725 161.20798 478.4904 162.55113 478.4904 164.20798Z" fill-rule="nonzero"/><path fill="#000000" fill-opacity="0.0" clip-path="url(#id_0)" d="M488.12308 164.20798C488.12308 165.86484 486.77994 167.20798 485.12308 167.20798C483.46622 167.20798 482.12308 165.86484 482.12308 164.20798C482.12308 162.55113 483.46622 161.20798 485.12308 161.20798C486.77994 161.20798 488.12308 162.55113 488.12308 164.20798Z" fill-rule="nonzero"/><path fill="#000000" fill-opacity="0.0" clip-path="url(#id_0)" d="M497.75577 166.53104C497.75577 168.18788 496.41263 169.53104 494.75577 169.53104C493.0989 169.53104 491.75577 168.18788 491.75577 166.53104C491.75577 164.87418 493.0989 163.53104 494.75577 163.53104C496.41263 163.53104 497.75577 164.87418 497.75577 166.53104Z" fill-rule="nonzero"/><path fill="#000000" fill-opacity="0.0" clip-path="url(#id_0)" d="M507.38846 171.17712C507.38846 172.83398 506.04532 174.17712 504.38846 174.17712C502.7316 174.17712 501.38846 172.83398 501.38846 171.17712C501.38846 169.52026 502.7316 168.17712 504.38846 168.17712C506.04532 168.17712 507.38846 169.52026 507.38846 171.17712Z" fill-rule="nonzero"/><path fill="#000000" d="M317.92188 349.45L315.64062 340.85626L316.8125 340.85626L318.125 346.4969Q318.32812 347.3719 318.48438 348.2469Q318.8125 346.8719 318.875 346.65314L320.5 340.85626L321.875 340.85626L323.10938 345.2Q323.5625 346.825 323.78125 348.2469Q323.9375 347.4344 324.20312 346.3719L325.54688 340.85626L326.6875 340.85626L324.34375 349.45L323.23438 349.45L321.4375 342.90314Q321.20312 342.09064 321.15625 341.90314Q321.03125 342.48126 320.90625 342.90314L319.09375 349.45L317.92188 349.45ZM331.54688 347.45L332.64062 347.575Q332.39062 348.52814 331.6875 349.0594Q330.98438 349.59064 329.90625 349.59064Q328.54688 349.59064 327.73438 348.7469Q326.9375 347.90314 326.9375 346.3875Q326.9375 344.825 327.75 343.96564Q328.5625 343.09064 329.84375 343.09064Q331.09375 343.09064 331.875 343.9344Q332.67188 344.77814 332.67188 346.325Q332.67188 346.41876 332.67188 346.60626L328.03125 346.60626Q328.09375 347.6375 328.60938 348.1844Q329.125 348.71564 329.90625 348.71564Q330.48438 348.71564 330.89062 348.41876Q331.3125 348.10626 331.54688 347.45ZM328.09375 345.7469L331.5625 345.7469Q331.5 344.95 331.17188 344.5594Q330.65625 343.95 329.85938 343.95Q329.125 343.95 328.625 344.4344Q328.14062 344.91876 328.09375 345.7469ZM338.54688 347.45L339.64062 347.575Q339.39062 348.52814 338.6875 349.0594Q337.98438 349.59064 336.90625 349.59064Q335.54688 349.59064 334.73438 348.7469Q333.9375 347.90314 333.9375 346.3875Q333.9375 344.825 334.75 343.96564Q335.5625 343.09064 336.84375 343.09064Q338.09375 343.09064 338.875 343.9344Q339.67188 344.77814 339.67188 346.325Q339.67188 346.41876 339.67188 346.60626L335.03125 346.60626Q335.09375 347.6375 335.60938 348.1844Q336.125 348.71564 336.90625 348.71564Q337.48438 348.71564 337.89062 348.41876Q338.3125 348.10626 338.54688 347.45ZM335.09375 345.7469L338.5625 345.7469Q338.5 344.95 338.17188 344.5594Q337.65625 343.95 336.85938 343.95Q336.125 343.95 335.625 344.4344Q335.14062 344.91876 335.09375 345.7469ZM341.29688 349.45L341.29688 340.85626L342.35938 340.85626L342.35938 345.7625L344.84375 343.23126L346.21875 343.23126L343.82812 345.52814L346.45312 349.45L345.15625 349.45L343.09375 346.2625L342.35938 346.98126L342.35938 349.45L341.29688 349.45Z" fill-rule="nonzero"/><path fill="#000000" d="M29.550013 178.625L20.956263 178.625L20.956263 175.39062Q20.956263 174.40625 21.221888 173.8125Q21.487513 173.21875 22.034388 172.89062Q22.565638 172.54688 23.159388 172.54688Q23.706263 172.54688 24.190638 172.84375Q24.675013 173.14062 24.971888 173.75Q25.206263 172.96875 25.768763 172.5625Q26.315638 172.14062 27.065638 172.14062Q27.659388 172.14062 28.190638 172.39062Q28.706263 172.64062 28.987513 173.01562Q29.268763 173.39062 29.409388 173.96875Q29.550013 174.53125 29.550013 175.34375L29.550013 178.625ZM24.565638 177.48438L24.565638 175.625Q24.565638 174.875 24.471888 174.54688Q24.346888 174.10938 24.050013 173.89062Q23.737513 173.67188 23.284388 173.67188Q22.862513 173.67188 22.534388 173.875Q22.206263 174.07812 22.096888 174.46875Q21.971888 174.84375 21.971888 175.76562L21.971888 177.48438L24.565638 177.48438ZM28.534388 177.48438L28.534388 175.34375Q28.534388 174.79688 28.487513 174.57812Q28.425013 174.17188 28.268763 173.92188Q28.096888 173.65625 27.784388 173.48438Q27.471888 173.3125 27.065638 173.3125Q26.581263 173.3125 26.221888 173.5625Q25.862513 173.79688 25.721888 174.23438Q25.581263 174.67188 25.581263 175.5L25.581263 177.48438L28.534388 177.48438ZM29.550013 170.60938L20.956263 170.60938L20.956263 168.89062L27.034388 166.85938Q27.893763 166.57812 28.315638 166.45312Q27.846888 166.3125 26.940638 166.0L20.956263 163.9375L20.956263 162.40625L29.550013 162.40625L29.550013 163.5L22.362513 163.5L29.550013 166.0L29.550013 167.03125L22.237513 169.51562L29.550013 169.51562L29.550013 170.60938ZM29.550013 161.375L20.956263 161.375L20.956263 160.25L29.550013 160.25L29.550013 161.375Z" fill-rule="nonzero"/><path fill="#000000" d="M55.01875 304.45L53.971874 304.45L53.971874 297.73126Q53.58125 298.09064 52.95625 298.46564Q52.346874 298.825 51.8625 298.9969L51.8625 297.98126Q52.7375 297.5594 53.39375 296.98126Q54.065624 296.3875 54.346874 295.825L55.01875 295.825L55.01875 304.45ZM58.05 302.2L59.159374 302.10626Q59.284374 302.91876 59.721874 303.325Q60.175 303.73126 60.815624 303.73126Q61.565624 303.73126 62.096874 303.15314Q62.628124 302.575 62.628124 301.6375Q62.628124 300.73126 62.1125 300.21564Q61.6125 299.6844 60.784374 299.6844Q60.284374 299.6844 59.8625 299.91876Q59.45625 300.15314 59.221874 300.5125L58.2375 300.3875L59.065624 295.98126L63.346874 295.98126L63.346874 296.98126L59.909374 296.98126L59.45625 299.29376Q60.221874 298.7469 61.065624 298.7469Q62.190624 298.7469 62.95625 299.52814Q63.7375 300.3094 63.7375 301.54376Q63.7375 302.7 63.065624 303.5594Q62.2375 304.59064 60.815624 304.59064Q59.64375 304.59064 58.89375 303.9344Q58.159374 303.27814 58.05 302.2ZM65.64375 304.45L65.64375 303.2469L66.84688 303.2469L66.84688 304.45L65.64375 304.45ZM68.05 300.21564Q68.05 298.6844 68.3625 297.7625Q68.675 296.825 69.28438 296.325Q69.90938 295.825 70.84688 295.825Q71.53438 295.825 72.05 296.10626Q72.58125 296.3875 72.925 296.91876Q73.26875 297.4344 73.45625 298.1844Q73.64375 298.9344 73.64375 300.21564Q73.64375 301.73126 73.33125 302.65314Q73.03438 303.575 72.40938 304.09064Q71.8 304.59064 70.84688 304.59064Q69.6125 304.59064 68.89375 303.7Q68.05 302.6375 68.05 300.21564ZM69.12813 300.21564Q69.12813 302.325 69.62813 303.02814Q70.12813 303.73126 70.84688 303.73126Q71.58125 303.73126 72.06563 303.02814Q72.56563 302.325 72.56563 300.21564Q72.56563 298.09064 72.06563 297.40314Q71.58125 296.7 70.83125 296.7Q70.1125 296.7 69.675 297.3094Q69.12813 298.09064 69.12813 300.21564Z" fill-rule="nonzero"/><path fill="#000000" d="M56.596874 234.70938L56.596874 235.725L50.909374 235.725Q50.909374 235.35 51.034374 234.99063Q51.253124 234.4125 51.721874 233.85Q52.20625 233.2875 53.1125 232.55313Q54.51875 231.39688 55.003124 230.725Q55.503124 230.05313 55.503124 229.45938Q55.503124 228.83438 55.05 228.4125Q54.596874 227.975 53.878124 227.975Q53.1125 227.975 52.659374 228.42813Q52.20625 228.88126 52.190624 229.69376L51.1125 229.58438Q51.221874 228.36563 51.940624 227.74063Q52.675 227.1 53.909374 227.1Q55.14375 227.1 55.8625 227.7875Q56.58125 228.475 56.58125 229.49063Q56.58125 230.00626 56.3625 230.50626Q56.159374 230.99063 55.659374 231.55313Q55.175 232.1 54.05 233.05313Q53.096874 233.85 52.815624 234.14688Q52.55 234.42813 52.378124 234.70938L56.596874 234.70938ZM58.05 231.49063Q58.05 229.95938 58.3625 229.0375Q58.675 228.1 59.284374 227.6Q59.909374 227.1 60.846874 227.1Q61.534374 227.1 62.05 227.38126Q62.58125 227.6625 62.925 228.19376Q63.26875 228.70938 63.45625 229.45938Q63.64375 230.20938 63.64375 231.49063Q63.64375 233.00626 63.33125 233.92813Q63.034374 234.85 62.409374 235.36563Q61.8 235.86563 60.846874 235.86563Q59.6125 235.86563 58.89375 234.975Q58.05 233.9125 58.05 231.49063ZM59.128124 231.49063Q59.128124 233.6 59.628124 234.30313Q60.128124 235.00626 60.846874 235.00626Q61.58125 235.00626 62.065624 234.30313Q62.565624 233.6 62.565624 231.49063Q62.565624 229.36563 62.065624 228.67813Q61.58125 227.975 60.83125 227.975Q60.1125 227.975 59.675 228.58438Q59.128124 229.36563 59.128124 231.49063ZM65.64375 235.725L65.64375 234.52188L66.84688 234.52188L66.84688 235.725L65.64375 235.725ZM68.05 231.49063Q68.05 229.95938 68.3625 229.0375Q68.675 228.1 69.28438 227.6Q69.90938 227.1 70.84688 227.1Q71.53438 227.1 72.05 227.38126Q72.58125 227.6625 72.925 228.19376Q73.26875 228.70938 73.45625 229.45938Q73.64375 230.20938 73.64375 231.49063Q73.64375 233.00626 73.33125 233.92813Q73.03438 234.85 72.40938 235.36563Q71.8 235.86563 70.84688 235.86563Q69.6125 235.86563 68.89375 234.975Q68.05 233.9125 68.05 231.49063ZM69.12813 231.49063Q69.12813 233.6 69.62813 234.30313Q70.12813 235.00626 70.84688 235.00626Q71.58125 235.00626 72.06563 234.30313Q72.56563 233.6 72.56563 231.49063Q72.56563 229.36563 72.06563 228.67813Q71.58125 227.975 70.83125 227.975Q70.1125 227.975 69.675 228.58438Q69.12813 229.36563 69.12813 231.49063Z" fill-rule="nonzero"/><path fill="#000000" d="M56.596874 165.98438L56.596874 167.0L50.909374 167.0Q50.909374 166.625 51.034374 166.26562Q51.253124 165.6875 51.721874 165.125Q52.20625 164.5625 53.1125 163.82812Q54.51875 162.67188 55.003124 162.0Q55.503124 161.32812 55.503124 160.73438Q55.503124 160.10938 55.05 159.6875Q54.596874 159.25 53.878124 159.25Q53.1125 159.25 52.659374 159.70312Q52.20625 160.15625 52.190624 160.96875L51.1125 160.85938Q51.221874 159.64062 51.940624 159.01562Q52.675 158.375 53.909374 158.375Q55.14375 158.375 55.8625 159.0625Q56.58125 159.75 56.58125 160.76562Q56.58125 161.28125 56.3625 161.78125Q56.159374 162.26562 55.659374 162.82812Q55.175 163.375 54.05 164.32812Q53.096874 165.125 52.815624 165.42188Q52.55 165.70312 52.378124 165.98438L56.596874 165.98438ZM58.05 164.75L59.159374 164.65625Q59.284374 165.46875 59.721874 165.875Q60.175 166.28125 60.815624 166.28125Q61.565624 166.28125 62.096874 165.70312Q62.628124 165.125 62.628124 164.1875Q62.628124 163.28125 62.1125 162.76562Q61.6125 162.23438 60.784374 162.23438Q60.284374 162.23438 59.8625 162.46875Q59.45625 162.70312 59.221874 163.0625L58.2375 162.9375L59.065624 158.53125L63.346874 158.53125L63.346874 159.53125L59.909374 159.53125L59.45625 161.84375Q60.221874 161.29688 61.065624 161.29688Q62.190624 161.29688 62.95625 162.07812Q63.7375 162.85938 63.7375 164.09375Q63.7375 165.25 63.065624 166.10938Q62.2375 167.14062 60.815624 167.14062Q59.64375 167.14062 58.89375 166.48438Q58.159374 165.82812 58.05 164.75ZM65.64375 167.0L65.64375 165.79688L66.84688 165.79688L66.84688 167.0L65.64375 167.0ZM68.05 162.76562Q68.05 161.23438 68.3625 160.3125Q68.675 159.375 69.28438 158.875Q69.90938 158.375 70.84688 158.375Q71.53438 158.375 72.05 158.65625Q72.58125 158.9375 72.925 159.46875Q73.26875 159.98438 73.45625 160.73438Q73.64375 161.48438 73.64375 162.76562Q73.64375 164.28125 73.33125 165.20312Q73.03438 166.125 72.40938 166.64062Q71.8 167.14062 70.84688 167.14062Q69.6125 167.14062 68.89375 166.25Q68.05 165.1875 68.05 162.76562ZM69.12813 162.76562Q69.12813 164.875 69.62813 165.57812Q70.12813 166.28125 70.84688 166.28125Q71.58125 166.28125 72.06563 165.57812Q72.56563 164.875 72.56563 162.76562Q72.56563 160.64062 72.06563 159.95312Q71.58125 159.25 70.83125 159.25Q70.1125 159.25 69.675 159.85938Q69.12813 160.64062 69.12813 162.76562Z" fill-rule="nonzero"/><path fill="#000000" d="M51.05 96.00938L52.1125 95.86875Q52.284374 96.75938 52.721874 97.16563Q53.159374 97.55625 53.784374 97.55625Q54.534374 97.55625 55.05 97.04063Q55.565624 96.525 55.565624 95.75938Q55.565624 95.04063 55.08125 94.57188Q54.6125 94.0875 53.878124 94.0875Q53.58125 94.0875 53.128124 94.2125L53.253124 93.275Q53.3625 93.29063 53.425 93.29063Q54.096874 93.29063 54.628124 92.94688Q55.175 92.5875 55.175 91.85313Q55.175 91.275 54.784374 90.9Q54.39375 90.50938 53.76875 90.50938Q53.159374 90.50938 52.7375 90.9Q52.33125 91.29063 52.221874 92.05625L51.159374 91.86875Q51.346874 90.82188 52.034374 90.24375Q52.721874 89.65 53.7375 89.65Q54.440624 89.65 55.034374 89.9625Q55.628124 90.25938 55.940624 90.775Q56.253124 91.29063 56.253124 91.88438Q56.253124 92.43125 55.95625 92.9Q55.659374 93.35313 55.08125 93.61875Q55.83125 93.79063 56.253124 94.35313Q56.675 94.9 56.675 95.74375Q56.675 96.86875 55.846874 97.65Q55.034374 98.43125 53.784374 98.43125Q52.659374 98.43125 51.909374 97.75938Q51.159374 97.07188 51.05 96.00938ZM58.05 94.04063Q58.05 92.50938 58.3625 91.5875Q58.675 90.65 59.284374 90.15Q59.909374 89.65 60.846874 89.65Q61.534374 89.65 62.05 89.93125Q62.58125 90.2125 62.925 90.74375Q63.26875 91.25938 63.45625 92.00938Q63.64375 92.75938 63.64375 94.04063Q63.64375 95.55625 63.33125 96.47813Q63.034374 97.4 62.409374 97.91563Q61.8 98.41563 60.846874 98.41563Q59.6125 98.41563 58.89375 97.525Q58.05 96.4625 58.05 94.04063ZM59.128124 94.04063Q59.128124 96.15 59.628124 96.85313Q60.128124 97.55625 60.846874 97.55625Q61.58125 97.55625 62.065624 96.85313Q62.565624 96.15 62.565624 94.04063Q62.565624 91.91563 62.065624 91.22813Q61.58125 90.525 60.83125 90.525Q60.1125 90.525 59.675 91.13438Q59.128124 91.91563 59.128124 94.04063ZM65.64375 98.275L65.64375 97.07188L66.84688 97.07188L66.84688 98.275L65.64375 98.275ZM68.05 94.04063Q68.05 92.50938 68.3625 91.5875Q68.675 90.65 69.28438 90.15Q69.90938 89.65 70.84688 89.65Q71.53438 89.65 72.05 89.93125Q72.58125 90.2125 72.925 90.74375Q73.26875 91.25938 73.45625 92.00938Q73.64375 92.75938 73.64375 94.04063Q73.64375 95.55625 73.33125 96.47813Q73.03438 97.4 72.40938 97.91563Q71.8 98.41563 70.84688 98.41563Q69.6125 98.41563 68.89375 97.525Q68.05 96.4625 68.05 94.04063ZM69.12813 94.04063Q69.12813 96.15 69.62813 96.85313Q70.12813 97.55625 70.84688 97.55625Q71.58125 97.55625 72.06563 96.85313Q72.56563 96.15 72.56563 94.04063Q72.56563 91.91563 72.06563 91.22813Q71.58125 90.525 70.83125 90.525Q70.1125 90.525 69.675 91.13438Q69.12813 91.91563 69.12813 94.04063Z" fill-rule="nonzero"/><path fill="#000000" d="M51.05 27.284374L52.1125 27.14375Q52.284374 28.034374 52.721874 28.440624Q53.159374 28.83125 53.784374 28.83125Q54.534374 28.83125 55.05 28.315624Q55.565624 27.8 55.565624 27.034374Q55.565624 26.315624 55.08125 25.846874Q54.6125 25.3625 53.878124 25.3625Q53.58125 25.3625 53.128124 25.4875L53.253124 24.55Q53.3625 24.565624 53.425 24.565624Q54.096874 24.565624 54.628124 24.221874Q55.175 23.8625 55.175 23.128124Q55.175 22.55 54.784374 22.175Q54.39375 21.784374 53.76875 21.784374Q53.159374 21.784374 52.7375 22.175Q52.33125 22.565624 52.221874 23.33125L51.159374 23.14375Q51.346874 22.096874 52.034374 21.51875Q52.721874 20.925 53.7375 20.925Q54.440624 20.925 55.034374 21.2375Q55.628124 21.534374 55.940624 22.05Q56.253124 22.565624 56.253124 23.159374Q56.253124 23.70625 55.95625 24.175Q55.659374 24.628124 55.08125 24.89375Q55.83125 25.065624 56.253124 25.628124Q56.675 26.175 56.675 27.01875Q56.675 28.14375 55.846874 28.925Q55.034374 29.70625 53.784374 29.70625Q52.659374 29.70625 51.909374 29.034374Q51.159374 28.346874 51.05 27.284374ZM58.05 27.3L59.159374 27.20625Q59.284374 28.01875 59.721874 28.425Q60.175 28.83125 60.815624 28.83125Q61.565624 28.83125 62.096874 28.253124Q62.628124 27.675 62.628124 26.7375Q62.628124 25.83125 62.1125 25.315624Q61.6125 24.784374 60.784374 24.784374Q60.284374 24.784374 59.8625 25.01875Q59.45625 25.253124 59.221874 25.6125L58.2375 25.4875L59.065624 21.08125L63.346874 21.08125L63.346874 22.08125L59.909374 22.08125L59.45625 24.39375Q60.221874 23.846874 61.065624 23.846874Q62.190624 23.846874 62.95625 24.628124Q63.7375 25.409374 63.7375 26.64375Q63.7375 27.8 63.065624 28.659374Q62.2375 29.690624 60.815624 29.690624Q59.64375 29.690624 58.89375 29.034374Q58.159374 28.378124 58.05 27.3ZM65.64375 29.55L65.64375 28.346874L66.84688 28.346874L66.84688 29.55L65.64375 29.55ZM68.05 25.315624Q68.05 23.784374 68.3625 22.8625Q68.675 21.925 69.28438 21.425Q69.90938 20.925 70.84688 20.925Q71.53438 20.925 72.05 21.20625Q72.58125 21.4875 72.925 22.01875Q73.26875 22.534374 73.45625 23.284374Q73.64375 24.034374 73.64375 25.315624Q73.64375 26.83125 73.33125 27.753124Q73.03438 28.675 72.40938 29.190624Q71.8 29.690624 70.84688 29.690624Q69.6125 29.690624 68.89375 28.8Q68.05 27.7375 68.05 25.315624ZM69.12813 25.315624Q69.12813 27.425 69.62813 28.128124Q70.12813 28.83125 70.84688 28.83125Q71.58125 28.83125 72.06563 28.128124Q72.56563 27.425 72.56563 25.315624Q72.56563 23.190624 72.06563 22.503124Q71.58125 21.8 70.83125 21.8Q70.1125 21.8 69.675 22.409374Q69.12813 23.190624 69.12813 25.315624Z" fill-rule="nonzero"/><path fill="#000000" d="M77.55 313.21564Q77.55 311.6844 77.8625 310.7625Q78.175 309.825 78.78438 309.325Q79.40938 308.825 80.34688 308.825Q81.03438 308.825 81.55 309.10626Q82.08125 309.3875 82.425 309.91876Q82.76875 310.4344 82.95625 311.1844Q83.14375 311.9344 83.14375 313.21564Q83.14375 314.73126 82.83125 315.65314Q82.53438 316.575 81.90938 317.09064Q81.3 317.59064 80.34688 317.59064Q79.1125 317.59064 78.39375 316.7Q77.55 315.6375 77.55 313.21564ZM78.62813 313.21564Q78.62813 315.325 79.12813 316.02814Q79.62813 316.73126 80.34688 316.73126Q81.08125 316.73126 81.56563 316.02814Q82.06563 315.325 82.06563 313.21564Q82.06563 311.09064 81.56563 310.40314Q81.08125 309.7 80.33125 309.7Q79.6125 309.7 79.175 310.3094Q78.62813 311.09064 78.62813 313.21564Z" fill-rule="nonzero"/><path fill="#000000" d="M174.34567 317.45L173.2988 317.45L173.2988 310.73126Q172.90817 311.09064 172.28317 311.46564Q171.6738 311.825 171.18942 311.9969L171.18942 310.98126Q172.06442 310.5594 172.72067 309.98126Q173.39255 309.3875 173.6738 308.825L174.34567 308.825L174.34567 317.45ZM177.37692 313.21564Q177.37692 311.6844 177.68942 310.7625Q178.00192 309.825 178.6113 309.325Q179.2363 308.825 180.1738 308.825Q180.8613 308.825 181.37692 309.10626Q181.90817 309.3875 182.25192 309.91876Q182.59567 310.4344 182.78317 311.1844Q182.97067 311.9344 182.97067 313.21564Q182.97067 314.73126 182.65817 315.65314Q182.3613 316.575 181.7363 317.09064Q181.12692 317.59064 180.1738 317.59064Q178.93942 317.59064 178.22067 316.7Q177.37692 315.6375 177.37692 313.21564ZM178.45505 313.21564Q178.45505 315.325 178.95505 316.02814Q179.45505 316.73126 180.1738 316.73126Q180.90817 316.73126 181.39255 316.02814Q181.89255 315.325 181.89255 313.21564Q181.89255 311.09064 181.39255 310.40314Q180.90817 309.7 180.15817 309.7Q179.43942 309.7 179.00192 310.3094Q178.45505 311.09064 178.45505 313.21564Z" fill-rule="nonzero"/><path fill="#000000" d="M272.25073 316.4344L272.25073 317.45L266.56323 317.45Q266.56323 317.075 266.68823 316.71564Q266.90698 316.1375 267.37573 315.575Q267.8601 315.0125 268.76636 314.27814Q270.1726 313.1219 270.65698 312.45Q271.15698 311.77814 271.15698 311.1844Q271.15698 310.5594 270.70386 310.1375Q270.25073 309.7 269.53198 309.7Q268.76636 309.7 268.31323 310.15314Q267.8601 310.60626 267.84448 311.41876L266.76636 311.3094Q266.87573 310.09064 267.59448 309.46564Q268.32886 308.825 269.56323 308.825Q270.7976 308.825 271.51636 309.5125Q272.2351 310.2 272.2351 311.21564Q272.2351 311.73126 272.01636 312.23126Q271.81323 312.71564 271.31323 313.27814Q270.82886 313.825 269.70386 314.77814Q268.75073 315.575 268.46948 315.8719Q268.20386 316.15314 268.03198 316.4344L272.25073 316.4344ZM273.70386 313.21564Q273.70386 311.6844 274.01636 310.7625Q274.32886 309.825 274.93823 309.325Q275.56323 308.825 276.50073 308.825Q277.18823 308.825 277.70386 309.10626Q278.2351 309.3875 278.57886 309.91876Q278.9226 310.4344 279.1101 311.1844Q279.2976 311.9344 279.2976 313.21564Q279.2976 314.73126 278.9851 315.65314Q278.68823 316.575 278.06323 317.09064Q277.45386 317.59064 276.50073 317.59064Q275.26636 317.59064 274.5476 316.7Q273.70386 315.6375 273.70386 313.21564ZM274.78198 313.21564Q274.78198 315.325 275.28198 316.02814Q275.78198 316.73126 276.50073 316.73126Q277.2351 316.73126 277.71948 316.02814Q278.21948 315.325 278.21948 313.21564Q278.21948 311.09064 277.71948 310.40314Q277.2351 309.7 276.4851 309.7Q275.76636 309.7 275.32886 310.3094Q274.78198 311.09064 274.78198 313.21564Z" fill-rule="nonzero"/><path fill="#000000" d="M363.03076 315.1844L364.09326 315.04376Q364.26514 315.9344 364.70264 316.34064Q365.14014 316.73126 365.76514 316.73126Q366.51514 316.73126 367.03076 316.21564Q367.5464 315.7 367.5464 314.9344Q367.5464 314.21564 367.062 313.7469Q366.59326 313.2625 365.8589 313.2625Q365.562 313.2625 365.1089 313.3875L365.2339 312.45Q365.34326 312.46564 365.40576 312.46564Q366.07764 312.46564 366.6089 312.1219Q367.15576 311.7625 367.15576 311.02814Q367.15576 310.45 366.76514 310.075Q366.3745 309.6844 365.7495 309.6844Q365.14014 309.6844 364.71826 310.075Q364.312 310.46564 364.20264 311.23126L363.14014 311.04376Q363.32764 309.9969 364.01514 309.41876Q364.70264 308.825 365.71826 308.825Q366.4214 308.825 367.01514 309.1375Q367.6089 309.4344 367.9214 309.95Q368.2339 310.46564 368.2339 311.0594Q368.2339 311.60626 367.937 312.075Q367.64014 312.52814 367.062 312.79376Q367.812 312.96564 368.2339 313.52814Q368.65576 314.075 368.65576 314.91876Q368.65576 316.04376 367.82764 316.825Q367.01514 317.60626 365.76514 317.60626Q364.64014 317.60626 363.89014 316.9344Q363.14014 316.2469 363.03076 315.1844ZM370.03076 313.21564Q370.03076 311.6844 370.34326 310.7625Q370.65576 309.825 371.26514 309.325Q371.89014 308.825 372.82764 308.825Q373.51514 308.825 374.03076 309.10626Q374.562 309.3875 374.90576 309.91876Q375.2495 310.4344 375.437 311.1844Q375.6245 311.9344 375.6245 313.21564Q375.6245 314.73126 375.312 315.65314Q375.01514 316.575 374.39014 317.09064Q373.78076 317.59064 372.82764 317.59064Q371.59326 317.59064 370.8745 316.7Q370.03076 315.6375 370.03076 313.21564ZM371.1089 313.21564Q371.1089 315.325 371.6089 316.02814Q372.1089 316.73126 372.82764 316.73126Q373.562 316.73126 374.0464 316.02814Q374.5464 315.325 374.5464 313.21564Q374.5464 311.09064 374.0464 310.40314Q373.562 309.7 372.812 309.7Q372.09326 309.7 371.65576 310.3094Q371.1089 311.09064 371.1089 313.21564Z" fill-rule="nonzero"/><path fill="#000000" d="M462.7327 317.45L462.7327 315.3875L459.01395 315.3875L459.01395 314.41876L462.93582 308.85626L463.7952 308.85626L463.7952 314.41876L464.95145 314.41876L464.95145 315.3875L463.7952 315.3875L463.7952 317.45L462.7327 317.45ZM462.7327 314.41876L462.7327 310.5594L460.0452 314.41876L462.7327 314.41876ZM466.3577 313.21564Q466.3577 311.6844 466.6702 310.7625Q466.9827 309.825 467.59207 309.325Q468.21707 308.825 469.15457 308.825Q469.84207 308.825 470.3577 309.10626Q470.88895 309.3875 471.2327 309.91876Q471.57645 310.4344 471.76395 311.1844Q471.95145 311.9344 471.95145 313.21564Q471.95145 314.73126 471.63895 315.65314Q471.34207 316.575 470.71707 317.09064Q470.1077 317.59064 469.15457 317.59064Q467.9202 317.59064 467.20145 316.7Q466.3577 315.6375 466.3577 313.21564ZM467.43582 313.21564Q467.43582 315.325 467.93582 316.02814Q468.43582 316.73126 469.15457 316.73126Q469.88895 316.73126 470.37332 316.02814Q470.87332 315.325 470.87332 313.21564Q470.87332 311.09064 470.37332 310.40314Q469.88895 309.7 469.13895 309.7Q468.4202 309.7 467.9827 310.3094Q467.43582 311.09064 467.43582 313.21564Z" fill-rule="nonzero"/><path fill="#000000" d="M555.68463 315.2L556.794 315.10626Q556.919 315.91876 557.3565 316.325Q557.80963 316.73126 558.45026 316.73126Q559.20026 316.73126 559.7315 316.15314Q560.26276 315.575 560.26276 314.6375Q560.26276 313.73126 559.74713 313.21564Q559.24713 312.6844 558.419 312.6844Q557.919 312.6844 557.49713 312.91876Q557.0909 313.15314 556.8565 313.5125L555.87213 313.3875L556.70026 308.98126L560.9815 308.98126L560.9815 309.98126L557.544 309.98126L557.0909 312.29376Q557.8565 311.7469 558.70026 311.7469Q559.82526 311.7469 560.5909 312.52814Q561.37213 313.3094 561.37213 314.54376Q561.37213 315.7 560.70026 316.5594Q559.87213 317.59064 558.45026 317.59064Q557.2784 317.59064 556.5284 316.9344Q555.794 316.27814 555.68463 315.2ZM562.68463 313.21564Q562.68463 311.6844 562.99713 310.7625Q563.30963 309.825 563.919 309.325Q564.544 308.825 565.4815 308.825Q566.169 308.825 566.68463 309.10626Q567.2159 309.3875 567.55963 309.91876Q567.9034 310.4344 568.0909 311.1844Q568.2784 311.9344 568.2784 313.21564Q568.2784 314.73126 567.9659 315.65314Q567.669 316.575 567.044 317.09064Q566.43463 317.59064 565.4815 317.59064Q564.24713 317.59064 563.5284 316.7Q562.68463 315.6375 562.68463 313.21564ZM563.76276 313.21564Q563.76276 315.325 564.26276 316.02814Q564.76276 316.73126 565.4815 316.73126Q566.2159 316.73126 566.70026 316.02814Q567.20026 315.325 567.20026 313.21564Q567.20026 311.09064 566.70026 310.40314Q566.2159 309.7 565.4659 309.7Q564.74713 309.7 564.30963 310.3094Q563.76276 311.09064 563.76276 313.21564Z" fill-rule="nonzero"/></svg>