<svg version="1.1" viewBox="0.0 0.0 600.0 371.0" fill="none" stroke="none" stroke-linecap="square" stroke-miterlimit="10" width="600" height="371" xmlns:xlink="http://www.w3.org/1999/xlink" xmlns="http://www.w3.org/2000/svg"><path fill="#ffffff" d="M0 0L600.0 0L600.0 371.0L0 371.0L0 0Z" fill-rule="nonzero"/><path stroke="#333333" stroke-width="1.0" stroke-linecap="butt" d="M77.5 25.5L77.5 300.5" fill-rule="nonzero"/><path stroke="#cccccc" stroke-width="1.0" stroke-linecap="butt" d="M174.5 25.5L174.5 300.5" fill-rule="nonzero"/><path stroke="#cccccc" stroke-width="1.0" stroke-linecap="butt" d="M271.5 25.5L271.5 300.5" fill-rule="nonzero"/><path stroke="#cccccc" stroke-width="1.0" stroke-linecap="butt" d="M368.5 25.5L368.5 300.5" fill-rule="nonzero"/><path stroke="#cccccc" stroke-width="1.0" stroke-linecap="butt" d="M465.5 25.5L465.5 300.5" fill-rule="nonzero"/><path stroke="#cccccc" stroke-width="1.0" stroke-linecap="butt" d="M562.5 25.5L562.5 300.5" fill-rule="nonzero"/><path stroke="#cccccc" stroke-width="1.0" stroke-linecap="butt" d="M77.5 300.5L581.5 300.5" fill-rule="nonzero"/><path stroke="#cccccc" stroke-width="1.0" stroke-linecap="butt" d="M77.5 208.5L581.5 208.5" fill-rule="nonzero"/><path stroke="#cccccc" stroke-width="1.0" stroke-linecap="butt" d="M77.5 117.5L581.5 117.5" fill-rule="nonzero"/><path stroke="#cccccc" stroke-width="1.0" stroke-linecap="butt" d="M77.5 25.5L581.5 25.5" fill-rule="nonzero"/><clipPath id="id_0"><path d="M77.55 25.55L581.45 25.55L581.45 300.45L77.55 300.45L77.55 25.55Z" clip-rule="nonzero"/></clipPath><path stroke="#4285f4" stroke-width="2.0" stroke-linecap="butt" clip-path="url(#id_0)" d="M77.55 108.02C77.55 108.02 84.010254 112.60167 87.24039 108.02C90.47051 103.43833 93.70064 88.166115 96.93077 80.53C100.1609 72.89389 103.39103 60.67611 106.621155 62.203335C109.85128 63.730556 113.08141 82.05722 116.31154 89.69334C119.541664 97.329445 122.7718 104.96555 126.00192 108.02C129.23206 111.07445 132.46217 109.547226 135.6923 108.02C138.92244 106.492775 142.15256 98.85667 145.38269 98.85667C148.61282 98.85667 151.84294 104.96555 155.07307 108.02C158.3032 111.07445 164.76346 117.183334 164.76346 117.183334" fill-rule="nonzero"/><path stroke="#4285f4" stroke-width="2.0" stroke-linecap="butt" stroke-opacity="0.4" clip-path="url(#id_0)" d="M0 72.58452C0 72.58452 2.6666667 73.17203 4.0 73.46546C5.3333335 73.75889 6.6666665 74.0521 8.0 74.3451C9.333333 74.6381 10.666667 74.93088 12.0 75.223434C13.333333 75.516 14.666667 75.80834 16.0 76.10047C17.333334 76.3926 18.666666 76.68451 20.0 76.976204C21.333334 77.2679 22.666666 77.55938 24.0 77.85064C25.333334 78.14191 26.666666 78.43295 28.0 78.723785C29.333334 79.01462 30.666666 79.30523 32.0 79.59563C33.333332 79.88603 34.666668 80.176216 36.0 80.46619C37.333332 80.75616 38.666668 81.045906 40.0 81.33545C41.333332 81.62499 42.666668 81.914314 44.0 82.20342C45.333332 82.49254 46.666668 82.78143 48.0 83.070114C49.333332 83.358795 50.666668 83.64726 52.0 83.935524C53.333332 84.22378 54.666668 84.51182 56.0 84.799644C57.333332 85.08747 58.666668 85.375084 60.0 85.66248C61.333332 85.94988 62.666668 86.237076 64.0 86.52405C65.333336 86.81102 66.666664 87.097786 68.0 87.38433C69.333336 87.67088 70.666664 87.95722 72.0 88.24335C73.333336 88.52947 74.666664 88.815384 76.0 89.10108C77.333336 89.38679 78.666664 89.67227 80.0 89.95755C81.333336 90.24283 82.666664 90.52789 84.0 90.812744C85.333336 91.0976 86.666664 91.38225 88.0 91.66668C89.333336 91.95111 90.666664 92.23533 92.0 92.51934C93.333336 92.80335 94.666664 93.08715 96.0 93.37074C97.333336 93.654335 98.666664 93.93771 100.0 94.22088C101.333336 94.50405 102.666664 94.78701 104.0 95.06976C105.333336 95.35251 106.666664 95.63505 108.0 95.91738C109.333336 96.199715 110.666664 96.481834 112.0 96.76375C113.333336 97.045654 114.666664 97.32736 116.0 97.60886C117.333336 97.89035 118.666664 98.17164 120.0 98.45271C121.333336 98.73379 122.666664 99.014656 124.0 99.29532C125.333336 99.57598 126.666664 99.85643 128.0 100.13668C129.33333 100.41692 130.66667 100.69696 132.0 100.97679C133.33333 101.256615 134.66667 101.53624 136.0 101.81566C137.33333 102.09507 138.66667 102.374275 140.0 102.653275C141.33333 102.93228 142.66667 103.211075 144.0 103.48966C145.33333 103.76825 146.66667 104.04662 148.0 104.3248C149.33333 104.602974 150.66667 104.88094 152.0 105.15871C153.33333 105.43647 154.66667 105.71402 156.0 105.99137C157.33333 106.26872 158.66667 106.54587 160.0 106.82281C161.33333 107.09975 162.66667 107.37648 164.0 107.65301C165.33333 107.929535 166.66667 108.205864 168.0 108.48198C169.33333 108.7581 170.66667 109.03401 172.0 109.30972C173.33333 109.585434 174.66667 109.86094 176.0 110.13624C177.33333 110.41154 178.66667 110.68664 180.0 110.96153C181.33333 111.23642 182.66667 111.51111 184.0 111.7856C185.33333 112.06008 186.66667 112.334366 188.0 112.608444C189.33333 112.88252 190.66667 113.156395 192.0 113.43007C193.33333 113.70374 194.66667 113.97721 196.0 114.25048C197.33333 114.52375 198.66667 114.796814 200.0 115.06967C201.33333 115.34254 202.66667 115.6152 204.0 115.88765C205.33333 116.16011 206.66667 116.432365 208.0 116.70442C209.33333 116.97647 210.66667 117.24833 212.0 117.51997C213.33333 117.791626 214.66667 118.06308 216.0 118.33433C217.33333 118.605576 218.66667 118.87662 220.0 119.14747C221.33333 119.41831 222.66667 119.68896 224.0 119.959404C225.33333 120.22984 226.66667 120.50009 228.0 120.770134C229.33333 121.04018 230.66667 121.31002 232.0 121.579666C233.33333 121.849304 234.66667 122.11875 236.0 122.38799C237.33333 122.65724 238.66667 122.926285 240.0 123.19513C241.33333 123.463974 242.66667 123.73262 244.0 124.00107C245.33333 124.26951 246.66667 124.53776 248.0 124.80581C249.33333 125.07385 250.66667 125.341705 252.0 125.60936C253.33333 125.87701 254.66667 126.14446 256.0 126.41171C257.33334 126.67897 258.66666 126.94603 260.0 127.21288C261.33334 127.479744 262.66666 127.74641 264.0 128.01286C265.33334 128.27933 266.66666 128.5456 268.0 128.81166C269.33334 129.07773 270.66666 129.3436 272.0 129.60927C273.33334 129.87495 274.66666 130.14043 276.0 130.4057C277.33334 130.67099 278.66666 130.93607 280.0 131.20096C281.33334 131.46585 282.66666 131.73053 284.0 131.99503C285.33334 132.25952 286.66666 132.52382 288.0 132.78792C289.33334 133.05202 290.66666 133.31593 292.0 133.57964C293.33334 133.84335 294.66666 134.10687 296.0 134.3702C297.33334 134.63351 298.66666 134.89664 300.0 135.15956C301.33334 135.42249 302.66666 135.68523 304.0 135.94777C305.33334 136.21031 306.66666 136.47266 308.0 136.7348C309.33334 136.99695 310.66666 137.25891 312.0 137.52068C313.33334 137.78244 314.66666 138.044 316.0 138.30537C317.33334 138.56676 318.66666 138.82793 320.0 139.08891C321.33334 139.34991 322.66666 139.6107 324.0 139.8713C325.33334 140.1319 326.66666 140.3923 328.0 140.65253C329.33334 140.91273 330.66666 141.17276 332.0 141.43259C333.33334 141.69241 334.66666 141.95206 336.0 142.21149C337.33334 142.47093 338.66666 142.7302 340.0 142.98924C341.33334 143.2483 342.66666 143.50717 344.0 143.76585C345.33334 144.02452 346.66666 144.283 348.0 144.54129C349.33334 144.79959 350.66666 145.0577 352.0 145.3156C353.33334 145.5735 354.66666 145.83122 356.0 146.08875C357.33334 146.34627 358.66666 146.6036 360.0 146.86075C361.33334 147.1179 362.66666 147.37485 364.0 147.63162C365.33334 147.88838 366.66666 148.14496 368.0 148.40134C369.33334 148.65771 370.66666 148.91391 372.0 149.16992C373.33334 149.42592 374.66666 149.68173 376.0 149.93736C377.33334 150.19298 378.66666 150.44841 380.0 150.70366C381.33334 150.95891 382.66666 151.21396 384.0 151.46883C385.33334 151.7237 386.66666 151.97836 388.0 152.23286C389.33334 152.48735 390.66666 152.74165 392.0 152.99576C393.33334 153.24988 394.66666 153.5038 396.0 153.75752C397.33334 154.01126 398.66666 154.26482 400.0 154.51817C401.33334 154.77153 402.66666 155.0247 404.0 155.27768C405.33334 155.53067 406.66666 155.78346 408.0 156.03607C409.33334 156.28868 410.66666 156.5411 412.0 156.79333C413.33334 157.04556 414.66666 157.29762 416.0 157.54948C417.33334 157.80133 418.66666 158.05301 420.0 158.3045C421.33334 158.55598 422.66666 158.80728 424.0 159.0584C425.33334 159.30951 426.66666 159.56044 428.0 159.81119C429.33334 160.06192 430.66666 160.31248 432.0 160.56285C433.33334 160.81322 434.66666 161.06342 436.0 161.31342C437.33334 161.5634 438.66666 161.81322 440.0 162.06285C441.33334 162.31248 442.66666 162.56192 444.0 162.81119C445.33334 163.06044 446.66666 163.30951 448.0 163.55841C449.33334 163.8073 450.66666 164.056 452.0 164.30452C453.33334 164.55304 454.66666 164.80138 456.0 165.04953C457.33334 165.29768 458.66666 165.54565 460.0 165.79344C461.33334 166.04121 462.66666 166.28882 464.0 166.53624C465.33334 166.78366 466.66666 167.03088 468.0 167.27794C469.33334 167.525 470.66666 167.77185 472.0 168.01854C473.33334 168.26523 474.66666 168.51173 476.0 168.75804C477.33334 169.00436 478.66666 169.2505 480.0 169.49646C481.33334 169.74242 482.66666 169.98817 484.0 170.23376C485.33334 170.47935 486.66666 170.72476 488.0 170.96999C489.33334 171.21521 490.66666 171.46027 492.0 171.70512C493.33334 171.94998 494.66666 172.19467 496.0 172.43916C497.33334 172.68367 498.66666 172.92798 500.0 173.17212C501.33334 173.41626 502.66666 173.6602 504.0 173.90398C505.33334 174.14775 506.66666 174.39136 508.0 174.63477C509.33334 174.87817 510.66666 175.12141 512.0 175.36447C513.3333 175.60751 514.6667 175.85039 516.0 176.09308C517.3333 176.33577 518.6667 176.5783 520.0 176.82062C521.3333 177.06296 522.6667 177.3051 524.0 177.54707C525.3333 177.78905 526.6667 178.03085 528.0 178.27246C529.3333 178.51408 530.6667 178.75551 532.0 178.99677C533.3333 179.23802 534.6667 179.47911 536.0 179.72C537.3333 179.9609 538.6667 180.20163 540.0 180.44217C541.3333 180.68271 542.6667 180.92308 544.0 181.16325C545.3333 181.40344 546.6667 181.64345 548.0 181.88329C549.3333 182.12311 550.6667 182.36276 552.0 182.60223C553.3333 182.84172 554.6667 183.08101 556.0 183.32013C557.3333 183.55925 558.6667 183.79819 560.0 184.03696C561.3333 184.27573 562.6667 184.51431 564.0 184.75272C565.3333 184.99113 566.6667 185.22937 568.0 185.46742C569.3333 185.70549 570.6667 185.94336 572.0 186.18108C573.3333 186.41878 574.6667 186.6563 576.0 186.89366C577.3333 187.13101 580.0 187.60518 580.0 187.60518" fill-rule="nonzero"/><path fill="#000000" fill-opacity="0.0" clip-path="url(#id_0)" d="M80.55 108.02C80.55 109.67686 79.206856 111.02 77.55 111.02C75.89314 111.02 74.55 109.67686 74.55 108.02C74.55 106.363144 75.89314 105.02 77.55 105.02C79.206856 105.02 80.55 106.363144 80.55 108.02Z" fill-rule="nonzero"/><path fill="#000000" fill-opacity="0.0" clip-path="url(#id_0)" d="M90.24039 108.02C90.24039 109.67686 88.89724 111.02 87.24039 111.02C85.58353 111.02 84.24039 109.67686 84.24039 108.02C84.24039 106.363144 85.58353 105.02 87.24039 105.02C88.89724 105.02 90.24039 106.363144 90.24039 108.02Z" fill-rule="nonzero"/><path fill="#000000" fill-opacity="0.0" clip-path="url(#id_0)" d="M99.93077 80.53C99.93077 82.18685 98.58762 83.53 96.93077 83.53C95.27392 83.53 93.93077 82.18685 93.93077 80.53C93.93077 78.873146 95.27392 77.53 96.93077 77.53C98.58762 77.53 99.93077 78.873146 99.93077 80.53Z" fill-rule="nonzero"/><path fill="#000000" fill-opacity="0.0" clip-path="url(#id_0)" d="M109.621155 62.203335C109.621155 63.860188 108.27801 65.20333 106.621155 65.20333C104.9643 65.20333 103.621155 63.860188 103.621155 62.203335C103.621155 60.54648 104.9643 59.203335 106.621155 59.203335C108.27801 59.203335 109.621155 60.54648 109.621155 62.203335Z" fill-rule="nonzero"/><path fill="#000000" fill-opacity="0.0" clip-path="url(#id_0)" d="M119.31154 89.69334C119.31154 91.35019 117.96839 92.69334 116.31154 92.69334C114.654686 92.69334 113.31154 91.35019 113.31154 89.69334C113.31154 88.036476 114.654686 86.69334 116.31154 86.69334C117.96839 86.69334 119.31154 88.036476 119.31154 89.69334Z" fill-rule="nonzero"/><path fill="#000000" fill-opacity="0.0" clip-path="url(#id_0)" d="M129.00192 108.02C129.00192 109.67686 127.658775 111.02 126.00192 111.02C124.34507 111.02 123.00192 109.67686 123.00192 108.02C123.00192 106.363144 124.34507 105.02 126.00192 105.02C127.658775 105.02 129.00192 106.363144 129.00192 108.02Z" fill-rule="nonzero"/><path fill="#000000" fill-opacity="0.0" clip-path="url(#id_0)" d="M138.6923 108.02C138.6923 109.67686 137.34917 111.02 135.6923 111.02C134.03545 111.02 132.6923 109.67686 132.6923 108.02C132.6923 106.363144 134.03545 105.02 135.6923 105.02C137.34917 105.02 138.6923 106.363144 138.6923 108.02Z" fill-rule="nonzero"/><path fill="#000000" fill-opacity="0.0" clip-path="url(#id_0)" d="M148.38269 98.85667C148.38269 100.51352 147.03955 101.85667 145.38269 101.85667C143.72585 101.85667 142.38269 100.51352 142.38269 98.85667C142.38269 97.199814 143.72585 95.85667 145.38269 95.85667C147.03955 95.85667 148.38269 97.199814 148.38269 98.85667Z" fill-rule="nonzero"/><path fill="#000000" fill-opacity="0.0" clip-path="url(#id_0)" d="M158.07307 108.02C158.07307 109.67686 156.72993 111.02 155.07307 111.02C153.41623 111.02 152.07307 109.67686 152.07307 108.02C152.07307 106.363144 153.41623 105.02 155.07307 105.02C156.72993 105.02 158.07307 106.363144 158.07307 108.02Z" fill-rule="nonzero"/><path fill="#000000" fill-opacity="0.0" clip-path="url(#id_0)" d="M167.76346 117.183334C167.76346 118.84019 166.42032 120.183334 164.76346 120.183334C163.10661 120.183334 161.76346 118.84019 161.76346 117.183334C161.76346 115.52648 163.10661 114.183334 164.76346 114.183334C166.42032 114.183334 167.76346 115.52648 167.76346 117.183334Z" fill-rule="nonzero"/><path fill="#000000" d="M316.42188 349.45L314.14062 340.85626L315.3125 340.85626L316.625 346.4969Q316.82812 347.3719 316.98438 348.2469Q317.3125 346.8719 317.375 346.65314L319.0 340.85626L320.375 340.85626L321.60938 345.2Q322.0625 346.825 322.28125 348.2469Q322.4375 347.4344 322.70312 346.3719L324.04688 340.85626L325.1875 340.85626L322.84375 349.45L321.73438 349.45L319.9375 342.90314Q319.70312 342.09064 319.65625 341.90314Q319.53125 342.48126 319.40625 342.90314L317.59375 349.45L316.42188 349.45ZM330.04688 347.45L331.14062 347.575Q330.89062 348.52814 330.1875 349.0594Q329.48438 349.59064 328.40625 349.59064Q327.04688 349.59064 326.23438 348.7469Q325.4375 347.90314 325.4375 346.3875Q325.4375 344.825 326.25 343.96564Q327.0625 343.09064 328.34375 343.09064Q329.59375 343.09064 330.375 343.9344Q331.17188 344.77814 331.17188 346.325Q331.17188 346.41876 331.17188 346.60626L326.53125 346.60626Q326.59375 347.6375 327.10938 348.1844Q327.625 348.71564 328.40625 348.71564Q328.98438 348.71564 329.39062 348.41876Q329.8125 348.10626 330.04688 347.45ZM326.59375 345.7469L330.0625 345.7469Q330.0 344.95 329.67188 344.5594Q329.15625 343.95 328.35938 343.95Q327.625 343.95 327.125 344.4344Q326.64062 344.91876 326.59375 345.7469ZM337.04688 347.45L338.14062 347.575Q337.89062 348.52814 337.1875 349.0594Q336.48438 349.59064 335.40625 349.59064Q334.04688 349.59064 333.23438 348.7469Q332.4375 347.90314 332.4375 346.3875Q332.4375 344.825 333.25 343.96564Q334.0625 343.09064 335.34375 343.09064Q336.59375 343.09064 337.375 343.9344Q338.17188 344.77814 338.17188 346.325Q338.17188 346.41876 338.17188 346.60626L333.53125 346.60626Q333.59375 347.6375 334.10938 348.1844Q334.625 348.71564 335.40625 348.71564Q335.98438 348.71564 336.39062 348.41876Q336.8125 348.10626 337.04688 347.45ZM333.59375 345.7469L337.0625 345.7469Q337.0 344.95 336.67188 344.5594Q336.15625 343.95 335.35938 343.95Q334.625 343.95 334.125 344.4344Q333.64062 344.91876 333.59375 345.7469ZM339.79688 349.45L339.79688 340.85626L340.85938 340.85626L340.85938 345.7625L343.34375 343.23126L344.71875 343.23126L342.32812 345.52814L344.95312 349.45L343.65625 349.45L341.59375 346.2625L340.85938 346.98126L340.85938 349.45L339.79688 349.45Z" fill-rule="nonzero"/><path fill="#000000" d="M29.550013 239.0625L20.956263 239.0625L20.956263 235.25Q20.956263 234.09375 21.190638 233.5Q21.425013 232.90625 22.018763 232.54688Q22.596888 232.1875 23.300013 232.1875Q24.221888 232.1875 24.846888 232.78125Q25.471888 233.375 25.643763 234.60938Q25.862513 234.15625 26.065638 233.92188Q26.518763 233.42188 27.206263 232.98438L29.550013 231.48438L29.550013 232.92188L27.768763 234.04688Q26.987513 234.54688 26.581263 234.875Q26.175013 235.1875 26.018763 235.45312Q25.846888 235.70312 25.768763 235.96875Q25.737513 236.15625 25.737513 236.59375L25.737513 237.92188L29.550013 237.92188L29.550013 239.0625ZM24.753138 237.92188L24.753138 235.46875Q24.753138 234.70312 24.596888 234.26562Q24.425013 233.8125 24.081263 233.59375Q23.721888 233.35938 23.300013 233.35938Q22.690638 233.35938 22.300013 233.8125Q21.909388 234.25 21.909388 235.20312L21.909388 237.92188L24.753138 237.92188ZM27.550013 225.95312L27.675013 224.85938Q28.628138 225.10938 29.159388 225.8125Q29.690638 226.51562 29.690638 227.59375Q29.690638 228.95312 28.846888 229.76562Q28.003138 230.5625 26.487513 230.5625Q24.925013 230.5625 24.065638 229.75Q23.190638 228.9375 23.190638 227.65625Q23.190638 226.40625 24.034388 225.625Q24.878138 224.82812 26.425013 224.82812Q26.518763 224.82812 26.706263 224.82812L26.706263 229.46875Q27.737513 229.40625 28.284388 228.89062Q28.815638 228.375 28.815638 227.59375Q28.815638 227.01562 28.518763 226.60938Q28.206263 226.1875 27.550013 225.95312ZM25.846888 229.40625L25.846888 225.9375Q25.050013 226.0 24.659388 226.32812Q24.050013 226.84375 24.050013 227.64062Q24.050013 228.375 24.534388 228.875Q25.018763 229.35938 25.846888 229.40625ZM27.690638 223.625L27.534388 222.59375Q28.159388 222.5 28.487513 222.10938Q28.815638 221.70312 28.815638 220.96875Q28.815638 220.25 28.534388 219.90625Q28.237513 219.54688 27.831263 219.54688Q27.471888 219.54688 27.268763 219.85938Q27.128138 220.07812 26.909388 220.9375Q26.612513 222.09375 26.409388 222.54688Q26.190638 222.98438 25.815638 223.21875Q25.440638 223.45312 24.971888 223.45312Q24.565638 223.45312 24.206263 223.26562Q23.846888 223.07812 23.612513 222.75Q23.440638 222.5 23.315638 222.07812Q23.190638 221.65625 23.190638 221.15625Q23.190638 220.4375 23.409388 219.89062Q23.612513 219.32812 23.971888 219.0625Q24.331263 218.79688 24.925013 218.70312L25.065638 219.73438Q24.596888 219.79688 24.331263 220.14062Q24.050013 220.46875 24.050013 221.09375Q24.050013 221.8125 24.300013 222.125Q24.534388 222.4375 24.862513 222.4375Q25.065638 222.4375 25.221888 222.3125Q25.393763 222.17188 25.503138 221.90625Q25.565638 221.75 25.768763 220.96875Q26.081263 219.84375 26.268763 219.40625Q26.456263 218.96875 26.815638 218.71875Q27.175013 218.46875 27.721888 218.46875Q28.253138 218.46875 28.721888 218.78125Q29.175013 219.07812 29.440638 219.65625Q29.690638 220.23438 29.690638 220.96875Q29.690638 222.1875 29.190638 222.82812Q28.675013 223.45312 27.690638 223.625ZM28.612513 213.90625L29.534388 213.75Q29.628138 214.20312 29.628138 214.54688Q29.628138 215.125 29.456263 215.4375Q29.268763 215.75 28.971888 215.89062Q28.675013 216.01562 27.721888 216.01562L24.143763 216.01562L24.143763 216.78125L23.331263 216.78125L23.331263 216.01562L21.784388 216.01562L21.159388 214.96875L23.331263 214.96875L23.331263 213.90625L24.143763 213.90625L24.143763 214.96875L27.784388 214.96875Q28.237513 214.96875 28.362513 214.92188Q28.487513 214.85938 28.565638 214.73438Q28.643763 214.60938 28.643763 214.375Q28.643763 214.1875 28.612513 213.90625ZM22.175013 213.20312L20.956263 213.20312L20.956263 212.14062L22.175013 212.14062L22.175013 213.20312ZM29.550013 213.20312L23.331263 213.20312L23.331263 212.14062L29.550013 212.14062L29.550013 213.20312ZM29.550013 210.20312L23.331263 210.20312L23.331263 209.26562L24.206263 209.26562Q23.190638 208.57812 23.190638 207.28125Q23.190638 206.71875 23.393763 206.25Q23.596888 205.76562 23.925013 205.53125Q24.253138 205.29688 24.690638 205.20312Q24.987513 205.15625 25.721888 205.15625L29.550013 205.15625L29.550013 206.20312L25.768763 206.20312Q25.112513 206.20312 24.800013 206.32812Q24.487513 206.45312 24.300013 206.76562Q24.096888 207.07812 24.096888 207.5Q24.096888 208.17188 24.534388 208.67188Q24.956263 209.15625 26.143763 209.15625L29.550013 209.15625L29.550013 210.20312ZM30.065638 203.40625L30.221888 202.375Q30.690638 202.3125 30.909388 202.01562Q31.206263 201.625 31.206263 200.95312Q31.206263 200.21875 30.909388 199.82812Q30.612513 199.42188 30.096888 199.28125Q29.768763 199.1875 28.737513 199.20312Q29.550013 199.89062 29.550013 200.92188Q29.550013 202.20312 28.628138 202.90625Q27.690638 203.60938 26.409388 203.60938Q25.518763 203.60938 24.768763 203.29688Q24.003138 202.96875 23.596888 202.35938Q23.190638 201.75 23.190638 200.92188Q23.190638 199.8125 24.081263 199.09375L23.331263 199.09375L23.331263 198.125L28.706263 198.125Q30.159388 198.125 30.768763 198.42188Q31.378138 198.71875 31.721888 199.35938Q32.08126 200.0 32.08126 200.9375Q32.08126 202.04688 31.581263 202.73438Q31.081263 203.42188 30.065638 203.40625ZM26.331263 202.53125Q27.550013 202.53125 28.112513 202.04688Q28.675013 201.5625 28.675013 200.82812Q28.675013 200.09375 28.112513 199.60938Q27.550013 199.10938 26.362513 199.10938Q25.221888 199.10938 24.643763 199.625Q24.065638 200.125 24.065638 200.84375Q24.065638 201.54688 24.643763 202.04688Q25.206263 202.53125 26.331263 202.53125ZM29.550013 193.03125L20.956263 193.03125L20.956263 191.90625L24.487513 191.90625L24.487513 187.4375L20.956263 187.4375L20.956263 186.29688L29.550013 186.29688L29.550013 187.4375L25.503138 187.4375L25.503138 191.90625L29.550013 191.90625L29.550013 193.03125ZM27.550013 179.95312L27.675013 178.85938Q28.628138 179.10938 29.159388 179.8125Q29.690638 180.51562 29.690638 181.59375Q29.690638 182.95312 28.846888 183.76562Q28.003138 184.5625 26.487513 184.5625Q24.925013 184.5625 24.065638 183.75Q23.190638 182.9375 23.190638 181.65625Q23.190638 180.40625 24.034388 179.625Q24.878138 178.82812 26.425013 178.82812Q26.518763 178.82812 26.706263 178.82812L26.706263 183.46875Q27.737513 183.40625 28.284388 182.89062Q28.815638 182.375 28.815638 181.59375Q28.815638 181.01562 28.518763 180.60938Q28.206263 180.1875 27.550013 179.95312ZM25.846888 183.40625L25.846888 179.9375Q25.050013 180.0 24.659388 180.32812Q24.050013 180.84375 24.050013 181.64062Q24.050013 182.375 24.534388 182.875Q25.018763 183.35938 25.846888 183.40625ZM28.784388 173.14062Q29.284388 173.73438 29.487513 174.28125Q29.690638 174.8125 29.690638 175.4375Q29.690638 176.46875 29.190638 177.01562Q28.690638 177.5625 27.909388 177.5625Q27.456263 177.5625 27.081263 177.35938Q26.690638 177.15625 26.471888 176.8125Q26.237513 176.46875 26.128138 176.04688Q26.034388 175.75 25.956263 175.10938Q25.815638 173.84375 25.596888 173.23438Q25.378138 173.23438 25.331263 173.23438Q24.675013 173.23438 24.409388 173.53125Q24.065638 173.9375 24.065638 174.73438Q24.065638 175.46875 24.331263 175.82812Q24.581263 176.1875 25.237513 176.35938L25.096888 177.39062Q24.440638 177.25 24.034388 176.92188Q23.628138 176.59375 23.409388 175.98438Q23.190638 175.375 23.190638 174.57812Q23.190638 173.78125 23.378138 173.28125Q23.565638 172.78125 23.846888 172.54688Q24.128138 172.3125 24.565638 172.21875Q24.831263 172.17188 25.534388 172.17188L26.940638 172.17188Q28.409388 172.17188 28.800013 172.10938Q29.190638 172.03125 29.550013 171.82812L29.550013 172.9375Q29.221888 173.09375 28.784388 173.14062ZM26.425013 173.23438Q26.659388 173.8125 26.831263 174.95312Q26.925013 175.60938 27.050013 175.875Q27.159388 176.14062 27.378138 176.29688Q27.596888 176.4375 27.878138 176.4375Q28.300013 176.4375 28.581263 176.125Q28.862513 175.79688 28.862513 175.1875Q28.862513 174.57812 28.596888 174.10938Q28.331263 173.625 27.862513 173.40625Q27.503138 173.23438 26.815638 173.23438L26.425013 173.23438ZM29.550013 170.21875L23.331263 170.21875L23.331263 169.26562L24.268763 169.26562Q23.612513 168.90625 23.409388 168.60938Q23.190638 168.29688 23.190638 167.92188Q23.190638 167.39062 23.518763 166.84375L24.503138 167.20312Q24.268763 167.59375 24.268763 167.96875Q24.268763 168.32812 24.487513 168.60938Q24.690638 168.875 25.065638 168.98438Q25.628138 169.17188 26.284388 169.17188L29.550013 169.17188L29.550013 170.21875ZM28.612513 163.90625L29.534388 163.75Q29.628138 164.20312 29.628138 164.54688Q29.628138 165.125 29.456263 165.4375Q29.268763 165.75 28.971888 165.89062Q28.675013 166.01562 27.721888 166.01562L24.143763 166.01562L24.143763 166.78125L23.331263 166.78125L23.331263 166.01562L21.784388 166.01562L21.159388 164.96875L23.331263 164.96875L23.331263 163.90625L24.143763 163.90625L24.143763 164.96875L27.784388 164.96875Q28.237513 164.96875 28.362513 164.92188Q28.487513 164.85938 28.565638 164.73438Q28.643763 164.60938 28.643763 164.375Q28.643763 164.1875 28.612513 163.90625ZM29.550013 160.0625L20.956263 160.0625L20.956263 156.25Q20.956263 155.09375 21.190638 154.5Q21.425013 153.90625 22.018763 153.54688Q22.596888 153.1875 23.300013 153.1875Q24.221888 153.1875 24.846888 153.78125Q25.471888 154.375 25.643763 155.60938Q25.862513 155.15625 26.065638 154.92188Q26.518763 154.42188 27.206263 153.98438L29.550013 152.48438L29.550013 153.92188L27.768763 155.04688Q26.987513 155.54688 26.581263 155.875Q26.175013 156.1875 26.018763 156.45312Q25.846888 156.70312 25.768763 156.96875Q25.737513 157.15625 25.737513 157.59375L25.737513 158.92188L29.550013 158.92188L29.550013 160.0625ZM24.753138 158.92188L24.753138 156.46875Q24.753138 155.70312 24.596888 155.26562Q24.425013 154.8125 24.081263 154.59375Q23.721888 154.35938 23.300013 154.35938Q22.690638 154.35938 22.300013 154.8125Q21.909388 155.25 21.909388 156.20312L21.909388 158.92188L24.753138 158.92188ZM28.784388 147.14062Q29.284388 147.73438 29.487513 148.28125Q29.690638 148.8125 29.690638 149.4375Q29.690638 150.46875 29.190638 151.01562Q28.690638 151.5625 27.909388 151.5625Q27.456263 151.5625 27.081263 151.35938Q26.690638 151.15625 26.471888 150.8125Q26.237513 150.46875 26.128138 150.04688Q26.034388 149.75 25.956263 149.10938Q25.815638 147.84375 25.596888 147.23438Q25.378138 147.23438 25.331263 147.23438Q24.675013 147.23438 24.409388 147.53125Q24.065638 147.9375 24.065638 148.73438Q24.065638 149.46875 24.331263 149.82812Q24.581263 150.1875 25.237513 150.35938L25.096888 151.39062Q24.440638 151.25 24.034388 150.92188Q23.628138 150.59375 23.409388 149.98438Q23.190638 149.375 23.190638 148.57812Q23.190638 147.78125 23.378138 147.28125Q23.565638 146.78125 23.846888 146.54688Q24.128138 146.3125 24.565638 146.21875Q24.831263 146.17188 25.534388 146.17188L26.940638 146.17188Q28.409388 146.17188 28.800013 146.10938Q29.190638 146.03125 29.550013 145.82812L29.550013 146.9375Q29.221888 147.09375 28.784388 147.14062ZM26.425013 147.23438Q26.659388 147.8125 26.831263 148.95312Q26.925013 149.60938 27.050013 149.875Q27.159388 150.14062 27.378138 150.29688Q27.596888 150.4375 27.878138 150.4375Q28.300013 150.4375 28.581263 150.125Q28.862513 149.79688 28.862513 149.1875Q28.862513 148.57812 28.596888 148.10938Q28.331263 147.625 27.862513 147.40625Q27.503138 147.23438 26.815638 147.23438L26.425013 147.23438ZM28.612513 141.90625L29.534388 141.75Q29.628138 142.20312 29.628138 142.54688Q29.628138 143.125 29.456263 143.4375Q29.268763 143.75 28.971888 143.89062Q28.675013 144.01562 27.721888 144.01562L24.143763 144.01562L24.143763 144.78125L23.331263 144.78125L23.331263 144.01562L21.784388 144.01562L21.159388 142.96875L23.331263 142.96875L23.331263 141.90625L24.143763 141.90625L24.143763 142.96875L27.784388 142.96875Q28.237513 142.96875 28.362513 142.92188Q28.487513 142.85938 28.565638 142.73438Q28.643763 142.60938 28.643763 142.375Q28.643763 142.1875 28.612513 141.90625ZM27.550013 136.95312L27.675013 135.85938Q28.628138 136.10938 29.159388 136.8125Q29.690638 137.51562 29.690638 138.59375Q29.690638 139.95312 28.846888 140.76562Q28.003138 141.5625 26.487513 141.5625Q24.925013 141.5625 24.065638 140.75Q23.190638 139.9375 23.190638 138.65625Q23.190638 137.40625 24.034388 136.625Q24.878138 135.82812 26.425013 135.82812Q26.518763 135.82812 26.706263 135.82812L26.706263 140.46875Q27.737513 140.40625 28.284388 139.89062Q28.815638 139.375 28.815638 138.59375Q28.815638 138.01562 28.518763 137.60938Q28.206263 137.1875 27.550013 136.95312ZM25.846888 140.40625L25.846888 136.9375Q25.050013 137.0 24.659388 137.32812Q24.050013 137.84375 24.050013 138.64062Q24.050013 139.375 24.534388 139.875Q25.018763 140.35938 25.846888 140.40625ZM32.08126 129.1875Q30.971888 130.0625 29.503138 130.67188Q28.018763 131.26562 26.440638 131.26562Q25.050013 131.26562 23.768763 130.82812Q22.284388 130.29688 20.815638 129.1875L20.815638 128.4375Q22.034388 129.14062 22.550013 129.375Q23.362513 129.73438 24.237513 129.9375Q25.331263 130.1875 26.440638 130.1875Q29.268763 130.1875 32.08126 128.4375L32.08126 129.1875ZM29.550013 126.234375L29.550013 127.21875L20.956263 127.21875L20.956263 126.15625L24.018763 126.15625Q23.190638 125.484375 23.190638 124.453125Q23.190638 123.875 23.425013 123.375Q23.643763 122.859375 24.065638 122.53125Q24.487513 122.1875 25.081263 122.0Q25.675013 121.8125 26.346888 121.8125Q27.940638 121.8125 28.815638 122.609375Q29.690638 123.40625 29.690638 124.5Q29.690638 125.609375 28.768763 126.234375L29.550013 126.234375ZM26.393763 126.25Q27.503138 126.25 28.003138 125.9375Q28.815638 125.4375 28.815638 124.59375Q28.815638 123.90625 28.221888 123.40625Q27.628138 122.890625 26.425013 122.890625Q25.206263 122.890625 24.628138 123.375Q24.050013 123.859375 24.050013 124.546875Q24.050013 125.234375 24.659388 125.75Q25.253138 126.25 26.393763 126.25ZM31.940638 120.203125L23.331263 120.203125L23.331263 119.25L24.128138 119.25Q23.659388 118.90625 23.425013 118.484375Q23.190638 118.046875 23.190638 117.4375Q23.190638 116.640625 23.596888 116.03125Q24.003138 115.421875 24.753138 115.125Q25.503138 114.8125 26.393763 114.8125Q27.346888 114.8125 28.112513 115.15625Q28.878138 115.484375 29.284388 116.140625Q29.690638 116.796875 29.690638 117.515625Q29.690638 118.046875 29.471888 118.46875Q29.237513 118.890625 28.909388 119.15625L31.940638 119.15625L31.940638 120.203125ZM26.471888 119.25Q27.675013 119.25 28.253138 118.765625Q28.815638 118.28125 28.815638 117.59375Q28.815638 116.890625 28.221888 116.390625Q27.628138 115.890625 26.378138 115.890625Q25.190638 115.890625 24.612513 116.375Q24.018763 116.859375 24.018763 117.546875Q24.018763 118.21875 24.643763 118.734375Q25.268763 119.25 26.471888 119.25ZM29.550013 113.203125L23.331263 113.203125L23.331263 112.265625L24.206263 112.265625Q23.737513 111.96875 23.471888 111.484375Q23.190638 111.0 23.190638 110.375Q23.190638 109.6875 23.471888 109.25Q23.753138 108.796875 24.268763 108.625Q23.190638 107.875 23.190638 106.703125Q23.190638 105.765625 23.706263 105.28125Q24.206263 104.78125 25.284388 104.78125L29.550013 104.78125L29.550013 105.828125L25.628138 105.828125Q25.003138 105.828125 24.721888 105.9375Q24.440638 106.03125 24.268763 106.296875Q24.096888 106.5625 24.096888 106.9375Q24.096888 107.59375 24.534388 108.03125Q24.971888 108.453125 25.940638 108.453125L29.550013 108.453125L29.550013 109.515625L25.503138 109.515625Q24.800013 109.515625 24.456263 109.78125Q24.096888 110.03125 24.096888 110.609375Q24.096888 111.0625 24.331263 111.4375Q24.565638 111.8125 25.018763 111.984375Q25.471888 112.15625 26.315638 112.15625L29.550013 112.15625L29.550013 113.203125ZM32.08126 101.515625L32.08126 102.265625Q29.268763 100.515625 26.440638 100.515625Q25.346888 100.515625 24.253138 100.765625Q23.378138 100.96875 22.565638 101.328125Q22.050013 101.5625 20.815638 102.265625L20.815638 101.515625Q22.284388 100.421875 23.768763 99.890625Q25.050013 99.4375 26.440638 99.4375Q28.018763 99.4375 29.503138 100.046875Q30.971888 100.65625 32.08126 101.515625Z" fill-rule="nonzero"/><path fill="#000000" d="M61.425 304.45L61.425 302.3875L57.70625 302.3875L57.70625 301.41876L61.628124 295.85626L62.4875 295.85626L62.4875 301.41876L63.64375 301.41876L63.64375 302.3875L62.4875 302.3875L62.4875 304.45L61.425 304.45ZM61.425 301.41876L61.425 297.5594L58.7375 301.41876L61.425 301.41876ZM65.05 300.21564Q65.05 298.6844 65.3625 297.7625Q65.675 296.825 66.28438 296.325Q66.90938 295.825 67.84688 295.825Q68.53438 295.825 69.05 296.10626Q69.58125 296.3875 69.925 296.91876Q70.26875 297.4344 70.45625 298.1844Q70.64375 298.9344 70.64375 300.21564Q70.64375 301.73126 70.33125 302.65314Q70.03438 303.575 69.40938 304.09064Q68.8 304.59064 67.84688 304.59064Q66.6125 304.59064 65.89375 303.7Q65.05 302.6375 65.05 300.21564ZM66.12813 300.21564Q66.12813 302.325 66.62813 303.02814Q67.12813 303.73126 67.84688 303.73126Q68.58125 303.73126 69.06563 303.02814Q69.56563 302.325 69.56563 300.21564Q69.56563 298.09064 69.06563 297.40314Q68.58125 296.7 67.83125 296.7Q67.1125 296.7 66.675 297.3094Q66.12813 298.09064 66.12813 300.21564Z" fill-rule="nonzero"/><path fill="#000000" d="M58.05 210.56667L59.159374 210.47292Q59.284374 211.28542 59.721874 211.69167Q60.175 212.09792 60.815624 212.09792Q61.565624 212.09792 62.096874 211.51979Q62.628124 210.94167 62.628124 210.00417Q62.628124 209.09792 62.1125 208.58229Q61.6125 208.05104 60.784374 208.05104Q60.284374 208.05104 59.8625 208.28542Q59.45625 208.51979 59.221874 208.87917L58.2375 208.75417L59.065624 204.34792L63.346874 204.34792L63.346874 205.34792L59.909374 205.34792L59.45625 207.66042Q60.221874 207.11354 61.065624 207.11354Q62.190624 207.11354 62.95625 207.89479Q63.7375 208.67604 63.7375 209.91042Q63.7375 211.06667 63.065624 211.92604Q62.2375 212.95729 60.815624 212.95729Q59.64375 212.95729 58.89375 212.30104Q58.159374 211.64479 58.05 210.56667ZM65.05 208.58229Q65.05 207.05104 65.3625 206.12917Q65.675 205.19167 66.28438 204.69167Q66.90938 204.19167 67.84688 204.19167Q68.53438 204.19167 69.05 204.47292Q69.58125 204.75417 69.925 205.28542Q70.26875 205.80104 70.45625 206.55104Q70.64375 207.30104 70.64375 208.58229Q70.64375 210.09792 70.33125 211.01979Q70.03438 211.94167 69.40938 212.45729Q68.8 212.95729 67.84688 212.95729Q66.6125 212.95729 65.89375 212.06667Q65.05 211.00417 65.05 208.58229ZM66.12813 208.58229Q66.12813 210.69167 66.62813 211.39479Q67.12813 212.09792 67.84688 212.09792Q68.58125 212.09792 69.06563 211.39479Q69.56563 210.69167 69.56563 208.58229Q69.56563 206.45729 69.06563 205.76979Q68.58125 205.06667 67.83125 205.06667Q67.1125 205.06667 66.675 205.67604Q66.12813 206.45729 66.12813 208.58229Z" fill-rule="nonzero"/><path fill="#000000" d="M63.51875 114.69896L62.471874 114.777084Q62.33125 114.152084 62.08125 113.870834Q61.64375 113.41771 61.01875 113.41771Q60.51875 113.41771 60.128124 113.69896Q59.64375 114.07396 59.346874 114.777084Q59.065624 115.464584 59.05 116.745834Q59.425 116.16771 59.971874 115.88646Q60.534374 115.60521 61.14375 115.60521Q62.190624 115.60521 62.925 116.38646Q63.675 117.16771 63.675 118.38646Q63.675 119.19896 63.315624 119.902084Q62.971874 120.589584 62.3625 120.964584Q61.753124 121.32396 60.9875 121.32396Q59.659374 121.32396 58.83125 120.35521Q58.003124 119.38646 58.003124 117.16771Q58.003124 114.66771 58.925 113.54271Q59.721874 112.558334 61.08125 112.558334Q62.096874 112.558334 62.7375 113.13646Q63.39375 113.69896 63.51875 114.69896ZM59.221874 118.402084Q59.221874 118.94896 59.440624 119.44896Q59.675 119.933334 60.08125 120.19896Q60.503124 120.464584 60.971874 120.464584Q61.628124 120.464584 62.1125 119.933334Q62.596874 119.38646 62.596874 118.464584Q62.596874 117.57396 62.1125 117.058334Q61.64375 116.54271 60.925 116.54271Q60.20625 116.54271 59.70625 117.058334Q59.221874 117.57396 59.221874 118.402084ZM65.05 116.94896Q65.05 115.41771 65.3625 114.495834Q65.675 113.558334 66.28438 113.058334Q66.90938 112.558334 67.84688 112.558334Q68.53438 112.558334 69.05 112.839584Q69.58125 113.120834 69.925 113.652084Q70.26875 114.16771 70.45625 114.91771Q70.64375 115.66771 70.64375 116.94896Q70.64375 118.464584 70.33125 119.38646Q70.03438 120.308334 69.40938 120.82396Q68.8 121.32396 67.84688 121.32396Q66.6125 121.32396 65.89375 120.433334Q65.05 119.370834 65.05 116.94896ZM66.12813 116.94896Q66.12813 119.058334 66.62813 119.76146Q67.12813 120.464584 67.84688 120.464584Q68.58125 120.464584 69.06563 119.76146Q69.56563 119.058334 69.56563 116.94896Q69.56563 114.82396 69.06563 114.13646Q68.58125 113.433334 67.83125 113.433334Q67.1125 113.433334 66.675 114.04271Q66.12813 114.82396 66.12813 116.94896Z" fill-rule="nonzero"/><path fill="#000000" d="M58.1125 22.08125L58.1125 21.065624L63.675 21.065624L63.675 21.89375Q62.8625 22.76875 62.05 24.221874Q61.253124 25.659374 60.815624 27.190624Q60.4875 28.26875 60.409374 29.55L59.315624 29.55Q59.33125 28.534374 59.70625 27.096874Q60.096874 25.659374 60.8 24.33125Q61.51875 23.003124 62.33125 22.08125L58.1125 22.08125ZM65.05 25.315624Q65.05 23.784374 65.3625 22.8625Q65.675 21.925 66.28438 21.425Q66.90938 20.925 67.84688 20.925Q68.53438 20.925 69.05 21.20625Q69.58125 21.4875 69.925 22.01875Q70.26875 22.534374 70.45625 23.284374Q70.64375 24.034374 70.64375 25.315624Q70.64375 26.83125 70.33125 27.753124Q70.03438 28.675 69.40938 29.190624Q68.8 29.690624 67.84688 29.690624Q66.6125 29.690624 65.89375 28.8Q65.05 27.7375 65.05 25.315624ZM66.12813 25.315624Q66.12813 27.425 66.62813 28.128124Q67.12813 28.83125 67.84688 28.83125Q68.58125 28.83125 69.06563 28.128124Q69.56563 27.425 69.56563 25.315624Q69.56563 23.190624 69.06563 22.503124Q68.58125 21.8 67.83125 21.8Q67.1125 21.8 66.675 22.409374Q66.12813 23.190624 66.12813 25.315624Z" fill-rule="nonzero"/><path fill="#000000" d="M74.55 313.21564Q74.55 311.6844 74.8625 310.7625Q75.175 309.825 75.78438 309.325Q76.40938 308.825 77.34688 308.825Q78.03438 308.825 78.55 309.10626Q79.08125 309.3875 79.425 309.91876Q79.76875 310.4344 79.95625 311.1844Q80.14375 311.9344 80.14375 313.21564Q80.14375 314.73126 79.83125 315.65314Q79.53438 316.575 78.90938 317.09064Q78.3 317.59064 77.34688 317.59064Q76.1125 317.59064 75.39375 316.7Q74.55 315.6375 74.55 313.21564ZM75.62813 313.21564Q75.62813 315.325 76.12813 316.02814Q76.62813 316.73126 77.34688 316.73126Q78.08125 316.73126 78.56563 316.02814Q79.06563 315.325 79.06563 313.21564Q79.06563 311.09064 78.56563 310.40314Q78.08125 309.7 77.33125 309.7Q76.6125 309.7 76.175 310.3094Q75.62813 311.09064 75.62813 313.21564Z" fill-rule="nonzero"/><path fill="#000000" d="M171.92259 317.45L170.87572 317.45L170.87572 310.73126Q170.48509 311.09064 169.86009 311.46564Q169.25072 311.825 168.76634 311.9969L168.76634 310.98126Q169.64134 310.5594 170.29759 309.98126Q170.96947 309.3875 171.25072 308.825L171.92259 308.825L171.92259 317.45ZM174.95384 313.21564Q174.95384 311.6844 175.26634 310.7625Q175.57884 309.825 176.18822 309.325Q176.81322 308.825 177.75072 308.825Q178.43822 308.825 178.95384 309.10626Q179.48509 309.3875 179.82884 309.91876Q180.17259 310.4344 180.36009 311.1844Q180.54759 311.9344 180.54759 313.21564Q180.54759 314.73126 180.23509 315.65314Q179.93822 316.575 179.31322 317.09064Q178.70384 317.59064 177.75072 317.59064Q176.51634 317.59064 175.79759 316.7Q174.95384 315.6375 174.95384 313.21564ZM176.03197 313.21564Q176.03197 315.325 176.53197 316.02814Q177.03197 316.73126 177.75072 316.73126Q178.48509 316.73126 178.96947 316.02814Q179.46947 315.325 179.46947 313.21564Q179.46947 311.09064 178.96947 310.40314Q178.48509 309.7 177.73509 309.7Q177.01634 309.7 176.57884 310.3094Q176.03197 311.09064 176.03197 313.21564Z" fill-rule="nonzero"/><path fill="#000000" d="M270.40457 316.4344L270.40457 317.45L264.71707 317.45Q264.71707 317.075 264.84207 316.71564Q265.06082 316.1375 265.52957 315.575Q266.01395 315.0125 266.9202 314.27814Q268.32645 313.1219 268.81082 312.45Q269.31082 311.77814 269.31082 311.1844Q269.31082 310.5594 268.8577 310.1375Q268.40457 309.7 267.68582 309.7Q266.9202 309.7 266.46707 310.15314Q266.01395 310.60626 265.99832 311.41876L264.9202 311.3094Q265.02957 310.09064 265.74832 309.46564Q266.4827 308.825 267.71707 308.825Q268.95145 308.825 269.6702 309.5125Q270.38895 310.2 270.38895 311.21564Q270.38895 311.73126 270.1702 312.23126Q269.96707 312.71564 269.46707 313.27814Q268.9827 313.825 267.8577 314.77814Q266.90457 315.575 266.62332 315.8719Q266.3577 316.15314 266.18582 316.4344L270.40457 316.4344ZM271.8577 313.21564Q271.8577 311.6844 272.1702 310.7625Q272.4827 309.825 273.09207 309.325Q273.71707 308.825 274.65457 308.825Q275.34207 308.825 275.8577 309.10626Q276.38895 309.3875 276.7327 309.91876Q277.07645 310.4344 277.26395 311.1844Q277.45145 311.9344 277.45145 313.21564Q277.45145 314.73126 277.13895 315.65314Q276.84207 316.575 276.21707 317.09064Q275.6077 317.59064 274.65457 317.59064Q273.4202 317.59064 272.70145 316.7Q271.8577 315.6375 271.8577 313.21564ZM272.93582 313.21564Q272.93582 315.325 273.43582 316.02814Q273.93582 316.73126 274.65457 316.73126Q275.38895 316.73126 275.87332 316.02814Q276.37332 315.325 276.37332 313.21564Q276.37332 311.09064 275.87332 310.40314Q275.38895 309.7 274.63895 309.7Q273.9202 309.7 273.4827 310.3094Q272.93582 311.09064 272.93582 313.21564Z" fill-rule="nonzero"/><path fill="#000000" d="M361.76154 315.1844L362.82404 315.04376Q362.9959 315.9344 363.4334 316.34064Q363.8709 316.73126 364.4959 316.73126Q365.2459 316.73126 365.76154 316.21564Q366.27716 315.7 366.27716 314.9344Q366.27716 314.21564 365.7928 313.7469Q365.32404 313.2625 364.58966 313.2625Q364.2928 313.2625 363.83966 313.3875L363.96466 312.45Q364.07404 312.46564 364.13654 312.46564Q364.8084 312.46564 365.33966 312.1219Q365.88654 311.7625 365.88654 311.02814Q365.88654 310.45 365.4959 310.075Q365.1053 309.6844 364.4803 309.6844Q363.8709 309.6844 363.44904 310.075Q363.0428 310.46564 362.9334 311.23126L361.8709 311.04376Q362.0584 309.9969 362.7459 309.41876Q363.4334 308.825 364.44904 308.825Q365.15216 308.825 365.7459 309.1375Q366.33966 309.4344 366.65216 309.95Q366.96466 310.46564 366.96466 311.0594Q366.96466 311.60626 366.6678 312.075Q366.3709 312.52814 365.7928 312.79376Q366.5428 312.96564 366.96466 313.52814Q367.38654 314.075 367.38654 314.91876Q367.38654 316.04376 366.5584 316.825Q365.7459 317.60626 364.4959 317.60626Q363.3709 317.60626 362.6209 316.9344Q361.8709 316.2469 361.76154 315.1844ZM368.76154 313.21564Q368.76154 311.6844 369.07404 310.7625Q369.38654 309.825 369.9959 309.325Q370.6209 308.825 371.5584 308.825Q372.2459 308.825 372.76154 309.10626Q373.2928 309.3875 373.63654 309.91876Q373.9803 310.4344 374.1678 311.1844Q374.3553 311.9344 374.3553 313.21564Q374.3553 314.73126 374.0428 315.65314Q373.7459 316.575 373.1209 317.09064Q372.51154 317.59064 371.5584 317.59064Q370.32404 317.59064 369.6053 316.7Q368.76154 315.6375 368.76154 313.21564ZM369.83966 313.21564Q369.83966 315.325 370.33966 316.02814Q370.83966 316.73126 371.5584 316.73126Q372.2928 316.73126 372.77716 316.02814Q373.27716 315.325 373.27716 313.21564Q373.27716 311.09064 372.77716 310.40314Q372.2928 309.7 371.5428 309.7Q370.82404 309.7 370.38654 310.3094Q369.83966 311.09064 369.83966 313.21564Z" fill-rule="nonzero"/><path fill="#000000" d="M462.04037 317.45L462.04037 315.3875L458.32162 315.3875L458.32162 314.41876L462.2435 308.85626L463.10287 308.85626L463.10287 314.41876L464.25912 314.41876L464.25912 315.3875L463.10287 315.3875L463.10287 317.45L462.04037 317.45ZM462.04037 314.41876L462.04037 310.5594L459.35287 314.41876L462.04037 314.41876ZM465.66537 313.21564Q465.66537 311.6844 465.97787 310.7625Q466.29037 309.825 466.89975 309.325Q467.52475 308.825 468.46225 308.825Q469.14975 308.825 469.66537 309.10626Q470.19662 309.3875 470.54037 309.91876Q470.88412 310.4344 471.07162 311.1844Q471.25912 311.9344 471.25912 313.21564Q471.25912 314.73126 470.94662 315.65314Q470.64975 316.575 470.02475 317.09064Q469.41537 317.59064 468.46225 317.59064Q467.22787 317.59064 466.50912 316.7Q465.66537 315.6375 465.66537 313.21564ZM466.7435 313.21564Q466.7435 315.325 467.2435 316.02814Q467.7435 316.73126 468.46225 316.73126Q469.19662 316.73126 469.681 316.02814Q470.181 315.325 470.181 313.21564Q470.181 311.09064 469.681 310.40314Q469.19662 309.7 468.44662 309.7Q467.72787 309.7 467.29037 310.3094Q466.7435 311.09064 466.7435 313.21564Z" fill-rule="nonzero"/><path fill="#000000" d="M555.5692 315.2L556.6786 315.10626Q556.8036 315.91876 557.2411 316.325Q557.6942 316.73126 558.33484 316.73126Q559.08484 316.73126 559.6161 316.15314Q560.14734 315.575 560.14734 314.6375Q560.14734 313.73126 559.6317 313.21564Q559.1317 312.6844 558.3036 312.6844Q557.8036 312.6844 557.3817 312.91876Q556.97546 313.15314 556.7411 313.5125L555.7567 313.3875L556.58484 308.98126L560.8661 308.98126L560.8661 309.98126L557.4286 309.98126L556.97546 312.29376Q557.7411 311.7469 558.58484 311.7469Q559.70984 311.7469 560.47546 312.52814Q561.2567 313.3094 561.2567 314.54376Q561.2567 315.7 560.58484 316.5594Q559.7567 317.59064 558.33484 317.59064Q557.16296 317.59064 556.41296 316.9344Q555.6786 316.27814 555.5692 315.2ZM562.5692 313.21564Q562.5692 311.6844 562.8817 310.7625Q563.1942 309.825 563.8036 309.325Q564.4286 308.825 565.3661 308.825Q566.0536 308.825 566.5692 309.10626Q567.10046 309.3875 567.4442 309.91876Q567.78796 310.4344 567.97546 311.1844Q568.16296 311.9344 568.16296 313.21564Q568.16296 314.73126 567.85046 315.65314Q567.5536 316.575 566.9286 317.09064Q566.3192 317.59064 565.3661 317.59064Q564.1317 317.59064 563.41296 316.7Q562.5692 315.6375 562.5692 313.21564ZM563.64734 313.21564Q563.64734 315.325 564.14734 316.02814Q564.64734 316.73126 565.3661 316.73126Q566.10046 316.73126 566.58484 316.02814Q567.08484 315.325 567.08484 313.21564Q567.08484 311.09064 566.58484 310.40314Q566.10046 309.7 565.35046 309.7Q564.6317 309.7 564.1942 310.3094Q563.64734 311.09064 563.64734 313.21564Z" fill-rule="nonzero"/></svg>