<svg version="1.1" viewBox="0.0 0.0 600.0 371.0" fill="none" stroke="none" stroke-linecap="square" stroke-miterlimit="10" width="600" height="371" xmlns:xlink="http://www.w3.org/1999/xlink" xmlns="http://www.w3.org/2000/svg"><path fill="#ffffff" d="M0 0L600.0 0L600.0 371.0L0 371.0L0 0Z" fill-rule="nonzero"/><path stroke="#cccccc" stroke-width="1.0" stroke-linecap="butt" d="M85.5 25.5L85.5 300.5" fill-rule="nonzero"/><path stroke="#cccccc" stroke-width="1.0" stroke-linecap="butt" d="M170.5 25.5L170.5 300.5" fill-rule="nonzero"/><path stroke="#cccccc" stroke-width="1.0" stroke-linecap="butt" d="M254.5 25.5L254.5 300.5" fill-rule="nonzero"/><path stroke="#cccccc" stroke-width="1.0" stroke-linecap="butt" d="M336.5 25.5L336.5 300.5" fill-rule="nonzero"/><path stroke="#cccccc" stroke-width="1.0" stroke-linecap="butt" d="M420.5 25.5L420.5 300.5" fill-rule="nonzero"/><path stroke="#cccccc" stroke-width="1.0" stroke-linecap="butt" d="M505.5 25.5L505.5 300.5" fill-rule="nonzero"/><path stroke="#cccccc" stroke-width="1.0" stroke-linecap="butt" d="M77.5 300.5L581.5 300.5" fill-rule="nonzero"/><path stroke="#cccccc" stroke-width="1.0" stroke-linecap="butt" d="M77.5 231.5L581.5 231.5" fill-rule="nonzero"/><path stroke="#cccccc" stroke-width="1.0" stroke-linecap="butt" d="M77.5 163.5L581.5 163.5" fill-rule="nonzero"/><path stroke="#cccccc" stroke-width="1.0" stroke-linecap="butt" d="M77.5 94.5L581.5 94.5" fill-rule="nonzero"/><path stroke="#cccccc" stroke-width="1.0" stroke-linecap="butt" d="M77.5 25.5L581.5 25.5" fill-rule="nonzero"/><clipPath id="id_0"><path d="M77.55 25.55L581.45 25.55L581.45 300.45L77.55 300.45L77.55 25.55Z" clip-rule="nonzero"/></clipPath><path stroke="#4285f4" stroke-width="2.0" stroke-linecap="butt" clip-path="url(#id_0)" d="M77.55 149.255C77.55 149.255 84.010254 156.1275 87.24039 149.255C90.47051 142.3825 93.70064 119.47417 96.93077 108.02C100.1609 96.565834 103.39103 78.23917 106.621155 80.53C109.85128 82.82083 113.08141 110.31084 116.31154 121.765C119.541664 133.21916 122.7718 144.67334 126.00192 149.255C129.23206 153.83667 132.46217 151.54584 135.6923 149.255C138.92244 146.96417 142.15256 135.51 145.38269 135.51C148.61282 135.51 151.84294 144.67334 155.07307 149.255C158.3032 153.83667 161.53334 158.41833 164.76346 163.0C167.99359 167.58167 171.22372 174.45416 174.45384 176.745C177.68398 179.03583 180.91411 181.32666 184.14423 176.745C187.37436 172.16333 190.60449 153.83667 193.83461 149.255C197.06474 144.67334 200.29488 156.1275 203.525 149.255C206.75513 142.3825 209.98526 108.02 213.21538 108.02C216.44551 108.02 219.67564 146.96417 222.90576 149.255C226.1359 151.54584 229.36603 124.05583 232.59616 121.765C235.82628 119.47417 239.05641 128.6375 242.28654 135.51C245.51666 142.3825 248.7468 158.41833 251.97693 163.0C255.20705 167.58167 258.43716 160.70917 261.6673 163.0C264.89743 165.29083 268.12756 172.16333 271.3577 176.745C274.58783 181.32666 277.81796 185.90834 281.04807 190.49C284.2782 195.07167 287.50833 199.65334 290.73846 204.235C293.9686 208.81667 297.19873 222.56166 300.42883 217.98C303.65897 213.39833 306.8891 181.32666 310.11923 176.745C313.34937 172.16333 316.5795 183.6175 319.8096 190.49C323.03973 197.3625 326.26987 215.68916 329.5 217.98C332.73013 220.27083 335.96027 213.39833 339.1904 204.235C342.4205 195.07167 345.65063 169.8725 348.88077 163.0C352.1109 156.1275 355.34103 160.70917 358.57117 163.0C361.80127 165.29083 365.0314 172.16333 368.26154 176.745C371.49167 181.32666 374.7218 188.19917 377.95193 190.49C381.18204 192.78084 384.41217 188.19917 387.6423 190.49C390.87244 192.78084 394.10257 201.94417 397.3327 204.235C400.56284 206.52583 403.79294 206.52583 407.02307 204.235C410.2532 201.94417 413.48334 192.78084 416.71347 190.49C419.9436 188.19917 423.1737 185.90834 426.40384 190.49C429.63397 195.07167 432.8641 217.98 436.09424 217.98C439.32437 217.98 442.55447 192.78084 445.7846 190.49C449.01474 188.19917 452.24487 197.3625 455.475 204.235C458.70514 211.1075 461.93524 231.725 465.16537 231.725C468.3955 231.725 471.62564 204.235 474.85577 204.235C478.0859 204.235 481.31604 234.01584 484.54614 231.725C487.77628 229.43417 491.0064 204.235 494.23654 190.49C497.46667 176.745 500.6968 167.58167 503.9269 149.255C507.15704 130.92833 510.38718 82.82083 513.6173 80.53C516.8474 78.23917 520.0776 112.60167 523.3077 135.51C526.53784 158.41833 529.76794 199.65334 532.99805 217.98C536.2282 236.30667 539.4583 238.5975 542.6885 245.47C545.9186 252.3425 549.14874 263.79666 552.37885 259.215C555.60895 254.63333 558.8391 224.8525 562.0692 217.98C565.2994 211.1075 568.5295 215.68916 571.75964 217.98C574.98975 220.27083 581.45 231.725 581.45 231.725" fill-rule="nonzero"/><path fill="#000000" fill-opacity="0.0" clip-path="url(#id_0)" d="M80.55 149.255C80.55 150.91185 79.206856 152.255 77.55 152.255C75.89314 152.255 74.55 150.91185 74.55 149.255C74.55 147.59814 75.89314 146.255 77.55 146.255C79.206856 146.255 80.55 147.59814 80.55 149.255Z" fill-rule="nonzero"/><path fill="#000000" fill-opacity="0.0" clip-path="url(#id_0)" d="M90.24039 149.255C90.24039 150.91185 88.89724 152.255 87.24039 152.255C85.58353 152.255 84.24039 150.91185 84.24039 149.255C84.24039 147.59814 85.58353 146.255 87.24039 146.255C88.89724 146.255 90.24039 147.59814 90.24039 149.255Z" fill-rule="nonzero"/><path fill="#000000" fill-opacity="0.0" clip-path="url(#id_0)" d="M99.93077 108.02C99.93077 109.67686 98.58762 111.02 96.93077 111.02C95.27392 111.02 93.93077 109.67686 93.93077 108.02C93.93077 106.363144 95.27392 105.02 96.93077 105.02C98.58762 105.02 99.93077 106.363144 99.93077 108.02Z" fill-rule="nonzero"/><path fill="#000000" fill-opacity="0.0" clip-path="url(#id_0)" d="M109.621155 80.53C109.621155 82.18685 108.27801 83.53 106.621155 83.53C104.9643 83.53 103.621155 82.18685 103.621155 80.53C103.621155 78.873146 104.9643 77.53 106.621155 77.53C108.27801 77.53 109.621155 78.873146 109.621155 80.53Z" fill-rule="nonzero"/><path fill="#000000" fill-opacity="0.0" clip-path="url(#id_0)" d="M119.31154 121.765C119.31154 123.42185 117.96839 124.765 116.31154 124.765C114.654686 124.765 113.31154 123.42185 113.31154 121.765C113.31154 120.10815 114.654686 118.765 116.31154 118.765C117.96839 118.765 119.31154 120.10815 119.31154 121.765Z" fill-rule="nonzero"/><path fill="#000000" fill-opacity="0.0" clip-path="url(#id_0)" d="M129.00192 149.255C129.00192 150.91185 127.658775 152.255 126.00192 152.255C124.34507 152.255 123.00192 150.91185 123.00192 149.255C123.00192 147.59814 124.34507 146.255 126.00192 146.255C127.658775 146.255 129.00192 147.59814 129.00192 149.255Z" fill-rule="nonzero"/><path fill="#000000" fill-opacity="0.0" clip-path="url(#id_0)" d="M138.6923 149.255C138.6923 150.91185 137.34917 152.255 135.6923 152.255C134.03545 152.255 132.6923 150.91185 132.6923 149.255C132.6923 147.59814 134.03545 146.255 135.6923 146.255C137.34917 146.255 138.6923 147.59814 138.6923 149.255Z" fill-rule="nonzero"/><path fill="#000000" fill-opacity="0.0" clip-path="url(#id_0)" d="M148.38269 135.51C148.38269 137.16685 147.03955 138.51 145.38269 138.51C143.72585 138.51 142.38269 137.16685 142.38269 135.51C142.38269 133.85315 143.72585 132.51 145.38269 132.51C147.03955 132.51 148.38269 133.85315 148.38269 135.51Z" fill-rule="nonzero"/><path fill="#000000" fill-opacity="0.0" clip-path="url(#id_0)" d="M158.07307 149.255C158.07307 150.91185 156.72993 152.255 155.07307 152.255C153.41623 152.255 152.07307 150.91185 152.07307 149.255C152.07307 147.59814 153.41623 146.255 155.07307 146.255C156.72993 146.255 158.07307 147.59814 158.07307 149.255Z" fill-rule="nonzero"/><path fill="#000000" fill-opacity="0.0" clip-path="url(#id_0)" d="M167.76346 163.0C167.76346 164.65686 166.42032 166.0 164.76346 166.0C163.10661 166.0 161.76346 164.65686 161.76346 163.0C161.76346 161.34314 163.10661 160.0 164.76346 160.0C166.42032 160.0 167.76346 161.34314 167.76346 163.0Z" fill-rule="nonzero"/><path fill="#000000" fill-opacity="0.0" clip-path="url(#id_0)" d="M177.45384 176.745C177.45384 178.40186 176.1107 179.745 174.45384 179.745C172.797 179.745 171.45384 178.40186 171.45384 176.745C171.45384 175.08815 172.797 173.745 174.45384 173.745C176.1107 173.745 177.45384 175.08815 177.45384 176.745Z" fill-rule="nonzero"/><path fill="#000000" fill-opacity="0.0" clip-path="url(#id_0)" d="M187.14423 176.745C187.14423 178.40186 185.80109 179.745 184.14423 179.745C182.48738 179.745 181.14423 178.40186 181.14423 176.745C181.14423 175.08815 182.48738 173.745 184.14423 173.745C185.80109 173.745 187.14423 175.08815 187.14423 176.745Z" fill-rule="nonzero"/><path fill="#000000" fill-opacity="0.0" clip-path="url(#id_0)" d="M196.83461 149.255C196.83461 150.91185 195.49147 152.255 193.83461 152.255C192.17776 152.255 190.83461 150.91185 190.83461 149.255C190.83461 147.59814 192.17776 146.255 193.83461 146.255C195.49147 146.255 196.83461 147.59814 196.83461 149.255Z" fill-rule="nonzero"/><path fill="#000000" fill-opacity="0.0" clip-path="url(#id_0)" d="M206.525 149.255C206.525 150.91185 205.18185 152.255 203.525 152.255C201.86815 152.255 200.525 150.91185 200.525 149.255C200.525 147.59814 201.86815 146.255 203.525 146.255C205.18185 146.255 206.525 147.59814 206.525 149.255Z" fill-rule="nonzero"/><path fill="#000000" fill-opacity="0.0" clip-path="url(#id_0)" d="M216.21538 108.02C216.21538 109.67686 214.87224 111.02 213.21538 111.02C211.55853 111.02 210.21538 109.67686 210.21538 108.02C210.21538 106.363144 211.55853 105.02 213.21538 105.02C214.87224 105.02 216.21538 106.363144 216.21538 108.02Z" fill-rule="nonzero"/><path fill="#000000" fill-opacity="0.0" clip-path="url(#id_0)" d="M225.90576 149.255C225.90576 150.91185 224.56262 152.255 222.90576 152.255C221.24892 152.255 219.90576 150.91185 219.90576 149.255C219.90576 147.59814 221.24892 146.255 222.90576 146.255C224.56262 146.255 225.90576 147.59814 225.90576 149.255Z" fill-rule="nonzero"/><path fill="#000000" fill-opacity="0.0" clip-path="url(#id_0)" d="M235.59616 121.765C235.59616 123.42185 234.253 124.765 232.59616 124.765C230.9393 124.765 229.59616 123.42185 229.59616 121.765C229.59616 120.10815 230.9393 118.765 232.59616 118.765C234.253 118.765 235.59616 120.10815 235.59616 121.765Z" fill-rule="nonzero"/><path fill="#000000" fill-opacity="0.0" clip-path="url(#id_0)" d="M245.28654 135.51C245.28654 137.16685 243.94339 138.51 242.28654 138.51C240.62968 138.51 239.28654 137.16685 239.28654 135.51C239.28654 133.85315 240.62968 132.51 242.28654 132.51C243.94339 132.51 245.28654 133.85315 245.28654 135.51Z" fill-rule="nonzero"/><path fill="#000000" fill-opacity="0.0" clip-path="url(#id_0)" d="M254.97693 163.0C254.97693 164.65686 253.63377 166.0 251.97693 166.0C250.32007 166.0 248.97693 164.65686 248.97693 163.0C248.97693 161.34314 250.32007 160.0 251.97693 160.0C253.63377 160.0 254.97693 161.34314 254.97693 163.0Z" fill-rule="nonzero"/><path fill="#000000" fill-opacity="0.0" clip-path="url(#id_0)" d="M264.6673 163.0C264.6673 164.65686 263.32416 166.0 261.6673 166.0C260.01047 166.0 258.6673 164.65686 258.6673 163.0C258.6673 161.34314 260.01047 160.0 261.6673 160.0C263.32416 160.0 264.6673 161.34314 264.6673 163.0Z" fill-rule="nonzero"/><path fill="#000000" fill-opacity="0.0" clip-path="url(#id_0)" d="M274.3577 176.745C274.3577 178.40186 273.01456 179.745 271.3577 179.745C269.70084 179.745 268.3577 178.40186 268.3577 176.745C268.3577 175.08815 269.70084 173.745 271.3577 173.745C273.01456 173.745 274.3577 175.08815 274.3577 176.745Z" fill-rule="nonzero"/><path fill="#000000" fill-opacity="0.0" clip-path="url(#id_0)" d="M284.04807 190.49C284.04807 192.14685 282.70493 193.49 281.04807 193.49C279.39124 193.49 278.04807 192.14685 278.04807 190.49C278.04807 188.83315 279.39124 187.49 281.04807 187.49C282.70493 187.49 284.04807 188.83315 284.04807 190.49Z" fill-rule="nonzero"/><path fill="#000000" fill-opacity="0.0" clip-path="url(#id_0)" d="M293.73846 204.235C293.73846 205.89186 292.39532 207.235 290.73846 207.235C289.0816 207.235 287.73846 205.89186 287.73846 204.235C287.73846 202.57814 289.0816 201.235 290.73846 201.235C292.39532 201.235 293.73846 202.57814 293.73846 204.235Z" fill-rule="nonzero"/><path fill="#000000" fill-opacity="0.0" clip-path="url(#id_0)" d="M303.42883 217.98C303.42883 219.63686 302.0857 220.98 300.42883 220.98C298.772 220.98 297.42883 219.63686 297.42883 217.98C297.42883 216.32315 298.772 214.98 300.42883 214.98C302.0857 214.98 303.42883 216.32315 303.42883 217.98Z" fill-rule="nonzero"/><path fill="#000000" fill-opacity="0.0" clip-path="url(#id_0)" d="M313.11923 176.745C313.11923 178.40186 311.7761 179.745 310.11923 179.745C308.46237 179.745 307.11923 178.40186 307.11923 176.745C307.11923 175.08815 308.46237 173.745 310.11923 173.745C311.7761 173.745 313.11923 175.08815 313.11923 176.745Z" fill-rule="nonzero"/><path fill="#000000" fill-opacity="0.0" clip-path="url(#id_0)" d="M322.8096 190.49C322.8096 192.14685 321.46646 193.49 319.8096 193.49C318.15277 193.49 316.8096 192.14685 316.8096 190.49C316.8096 188.83315 318.15277 187.49 319.8096 187.49C321.46646 187.49 322.8096 188.83315 322.8096 190.49Z" fill-rule="nonzero"/><path fill="#000000" fill-opacity="0.0" clip-path="url(#id_0)" d="M332.5 217.98C332.5 219.63686 331.15686 220.98 329.5 220.98C327.84314 220.98 326.5 219.63686 326.5 217.98C326.5 216.32315 327.84314 214.98 329.5 214.98C331.15686 214.98 332.5 216.32315 332.5 217.98Z" fill-rule="nonzero"/><path fill="#000000" fill-opacity="0.0" clip-path="url(#id_0)" d="M342.1904 204.235C342.1904 205.89186 340.84723 207.235 339.1904 207.235C337.53354 207.235 336.1904 205.89186 336.1904 204.235C336.1904 202.57814 337.53354 201.235 339.1904 201.235C340.84723 201.235 342.1904 202.57814 342.1904 204.235Z" fill-rule="nonzero"/><path fill="#000000" fill-opacity="0.0" clip-path="url(#id_0)" d="M351.88077 163.0C351.88077 164.65686 350.53763 166.0 348.88077 166.0C347.2239 166.0 345.88077 164.65686 345.88077 163.0C345.88077 161.34314 347.2239 160.0 348.88077 160.0C350.53763 160.0 351.88077 161.34314 351.88077 163.0Z" fill-rule="nonzero"/><path fill="#000000" fill-opacity="0.0" clip-path="url(#id_0)" d="M361.57117 163.0C361.57117 164.65686 360.228 166.0 358.57117 166.0C356.9143 166.0 355.57117 164.65686 355.57117 163.0C355.57117 161.34314 356.9143 160.0 358.57117 160.0C360.228 160.0 361.57117 161.34314 361.57117 163.0Z" fill-rule="nonzero"/><path fill="#000000" fill-opacity="0.0" clip-path="url(#id_0)" d="M371.26154 176.745C371.26154 178.40186 369.9184 179.745 368.26154 179.745C366.60468 179.745 365.26154 178.40186 365.26154 176.745C365.26154 175.08815 366.60468 173.745 368.26154 173.745C369.9184 173.745 371.26154 175.08815 371.26154 176.745Z" fill-rule="nonzero"/><path fill="#000000" fill-opacity="0.0" clip-path="url(#id_0)" d="M380.95193 190.49C380.95193 192.14685 379.60876 193.49 377.95193 193.49C376.29507 193.49 374.95193 192.14685 374.95193 190.49C374.95193 188.83315 376.29507 187.49 377.95193 187.49C379.60876 187.49 380.95193 188.83315 380.95193 190.49Z" fill-rule="nonzero"/><path fill="#000000" fill-opacity="0.0" clip-path="url(#id_0)" d="M390.6423 190.49C390.6423 192.14685 389.29916 193.49 387.6423 193.49C385.98544 193.49 384.6423 192.14685 384.6423 190.49C384.6423 188.83315 385.98544 187.49 387.6423 187.49C389.29916 187.49 390.6423 188.83315 390.6423 190.49Z" fill-rule="nonzero"/><path fill="#000000" fill-opacity="0.0" clip-path="url(#id_0)" d="M400.3327 204.235C400.3327 205.89186 398.98953 207.235 397.3327 207.235C395.67584 207.235 394.3327 205.89186 394.3327 204.235C394.3327 202.57814 395.67584 201.235 397.3327 201.235C398.98953 201.235 400.3327 202.57814 400.3327 204.235Z" fill-rule="nonzero"/><path fill="#000000" fill-opacity="0.0" clip-path="url(#id_0)" d="M410.02307 204.235C410.02307 205.89186 408.67993 207.235 407.02307 207.235C405.3662 207.235 404.02307 205.89186 404.02307 204.235C404.02307 202.57814 405.3662 201.235 407.02307 201.235C408.67993 201.235 410.02307 202.57814 410.02307 204.235Z" fill-rule="nonzero"/><path fill="#000000" fill-opacity="0.0" clip-path="url(#id_0)" d="M419.71347 190.49C419.71347 192.14685 418.37033 193.49 416.71347 193.49C415.0566 193.49 413.71347 192.14685 413.71347 190.49C413.71347 188.83315 415.0566 187.49 416.71347 187.49C418.37033 187.49 419.71347 188.83315 419.71347 190.49Z" fill-rule="nonzero"/><path fill="#000000" fill-opacity="0.0" clip-path="url(#id_0)" d="M429.40384 190.49C429.40384 192.14685 428.0607 193.49 426.40384 193.49C424.74698 193.49 423.40384 192.14685 423.40384 190.49C423.40384 188.83315 424.74698 187.49 426.40384 187.49C428.0607 187.49 429.40384 188.83315 429.40384 190.49Z" fill-rule="nonzero"/><path fill="#000000" fill-opacity="0.0" clip-path="url(#id_0)" d="M439.09424 217.98C439.09424 219.63686 437.7511 220.98 436.09424 220.98C434.43738 220.98 433.09424 219.63686 433.09424 217.98C433.09424 216.32315 434.43738 214.98 436.09424 214.98C437.7511 214.98 439.09424 216.32315 439.09424 217.98Z" fill-rule="nonzero"/><path fill="#000000" fill-opacity="0.0" clip-path="url(#id_0)" d="M448.7846 190.49C448.7846 192.14685 447.44147 193.49 445.7846 193.49C444.12775 193.49 442.7846 192.14685 442.7846 190.49C442.7846 188.83315 444.12775 187.49 445.7846 187.49C447.44147 187.49 448.7846 188.83315 448.7846 190.49Z" fill-rule="nonzero"/><path fill="#000000" fill-opacity="0.0" clip-path="url(#id_0)" d="M458.475 204.235C458.475 205.89186 457.13187 207.235 455.475 207.235C453.81815 207.235 452.475 205.89186 452.475 204.235C452.475 202.57814 453.81815 201.235 455.475 201.235C457.13187 201.235 458.475 202.57814 458.475 204.235Z" fill-rule="nonzero"/><path fill="#000000" fill-opacity="0.0" clip-path="url(#id_0)" d="M468.16537 231.725C468.16537 233.38185 466.82224 234.725 465.16537 234.725C463.50854 234.725 462.16537 233.38185 462.16537 231.725C462.16537 230.06815 463.50854 228.725 465.16537 228.725C466.82224 228.725 468.16537 230.06815 468.16537 231.725Z" fill-rule="nonzero"/><path fill="#000000" fill-opacity="0.0" clip-path="url(#id_0)" d="M477.85577 204.235C477.85577 205.89186 476.51263 207.235 474.85577 207.235C473.1989 207.235 471.85577 205.89186 471.85577 204.235C471.85577 202.57814 473.1989 201.235 474.85577 201.235C476.51263 201.235 477.85577 202.57814 477.85577 204.235Z" fill-rule="nonzero"/><path fill="#000000" fill-opacity="0.0" clip-path="url(#id_0)" d="M487.54614 231.725C487.54614 233.38185 486.203 234.725 484.54614 234.725C482.8893 234.725 481.54614 233.38185 481.54614 231.725C481.54614 230.06815 482.8893 228.725 484.54614 228.725C486.203 228.725 487.54614 230.06815 487.54614 231.725Z" fill-rule="nonzero"/><path fill="#000000" fill-opacity="0.0" clip-path="url(#id_0)" d="M497.23654 190.49C497.23654 192.14685 495.8934 193.49 494.23654 193.49C492.57968 193.49 491.23654 192.14685 491.23654 190.49C491.23654 188.83315 492.57968 187.49 494.23654 187.49C495.8934 187.49 497.23654 188.83315 497.23654 190.49Z" fill-rule="nonzero"/><path fill="#000000" fill-opacity="0.0" clip-path="url(#id_0)" d="M506.9269 149.255C506.9269 150.91185 505.58377 152.255 503.9269 152.255C502.27008 152.255 500.9269 150.91185 500.9269 149.255C500.9269 147.59814 502.27008 146.255 503.9269 146.255C505.58377 146.255 506.9269 147.59814 506.9269 149.255Z" fill-rule="nonzero"/><path fill="#000000" fill-opacity="0.0" clip-path="url(#id_0)" d="M516.6173 80.53C516.6173 82.18685 515.2742 83.53 513.6173 83.53C511.96045 83.53 510.6173 82.18685 510.6173 80.53C510.6173 78.873146 511.96045 77.53 513.6173 77.53C515.2742 77.53 516.6173 78.873146 516.6173 80.53Z" fill-rule="nonzero"/><path fill="#000000" fill-opacity="0.0" clip-path="url(#id_0)" d="M526.3077 135.51C526.3077 137.16685 524.96454 138.51 523.3077 138.51C521.6508 138.51 520.3077 137.16685 520.3077 135.51C520.3077 133.85315 521.6508 132.51 523.3077 132.51C524.96454 132.51 526.3077 133.85315 526.3077 135.51Z" fill-rule="nonzero"/><path fill="#000000" fill-opacity="0.0" clip-path="url(#id_0)" d="M535.99805 217.98C535.99805 219.63686 534.6549 220.98 532.99805 220.98C531.34125 220.98 529.99805 219.63686 529.99805 217.98C529.99805 216.32315 531.34125 214.98 532.99805 214.98C534.6549 214.98 535.99805 216.32315 535.99805 217.98Z" fill-rule="nonzero"/><path fill="#000000" fill-opacity="0.0" clip-path="url(#id_0)" d="M545.6885 245.47C545.6885 247.12686 544.34534 248.47 542.6885 248.47C541.0316 248.47 539.6885 247.12686 539.6885 245.47C539.6885 243.81314 541.0316 242.47 542.6885 242.47C544.34534 242.47 545.6885 243.81314 545.6885 245.47Z" fill-rule="nonzero"/><path fill="#000000" fill-opacity="0.0" clip-path="url(#id_0)" d="M555.37885 259.215C555.37885 260.87186 554.0357 262.215 552.37885 262.215C550.722 262.215 549.37885 260.87186 549.37885 259.215C549.37885 257.55814 550.722 256.215 552.37885 256.215C554.0357 256.215 555.37885 257.55814 555.37885 259.215Z" fill-rule="nonzero"/><path fill="#000000" fill-opacity="0.0" clip-path="url(#id_0)" d="M565.0692 217.98C565.0692 219.63686 563.7261 220.98 562.0692 220.98C560.41235 220.98 559.0692 219.63686 559.0692 217.98C559.0692 216.32315 560.41235 214.98 562.0692 214.98C563.7261 214.98 565.0692 216.32315 565.0692 217.98Z" fill-rule="nonzero"/><path fill="#000000" fill-opacity="0.0" clip-path="url(#id_0)" d="M574.75964 217.98C574.75964 219.63686 573.41644 220.98 571.75964 220.98C570.1028 220.98 568.75964 219.63686 568.75964 217.98C568.75964 216.32315 570.1028 214.98 571.75964 214.98C573.41644 214.98 574.75964 216.32315 574.75964 217.98Z" fill-rule="nonzero"/><path fill="#000000" fill-opacity="0.0" clip-path="url(#id_0)" d="M584.45 231.725C584.45 233.38185 583.1069 234.725 581.45 234.725C579.79315 234.725 578.45 233.38185 578.45 231.725C578.45 230.06815 579.79315 228.725 581.45 228.725C583.1069 228.725 584.45 230.06815 584.45 231.725Z" fill-rule="nonzero"/><path fill="#000000" d="M317.42188 349.45L317.42188 340.85626L320.39062 340.85626Q321.39062 340.85626 321.92188 340.98126Q322.65625 341.15314 323.17188 341.59064Q323.85938 342.16876 324.1875 343.075Q324.53125 343.96564 324.53125 345.10626Q324.53125 346.09064 324.29688 346.84064Q324.07812 347.59064 323.71875 348.09064Q323.35938 348.59064 322.92188 348.8719Q322.5 349.15314 321.90625 349.3094Q321.3125 349.45 320.53125 349.45L317.42188 349.45ZM318.5625 348.4344L320.39062 348.4344Q321.25 348.4344 321.73438 348.27814Q322.21875 348.1219 322.5 347.825Q322.90625 347.4344 323.125 346.7469Q323.35938 346.0594 323.35938 345.09064Q323.35938 343.7469 322.90625 343.02814Q322.46875 342.29376 321.84375 342.04376Q321.375 341.8719 320.375 341.8719L318.5625 341.8719L318.5625 348.4344ZM330.35938 348.6844Q329.76562 349.1844 329.21875 349.3875Q328.6875 349.59064 328.0625 349.59064Q327.03125 349.59064 326.48438 349.09064Q325.9375 348.59064 325.9375 347.8094Q325.9375 347.35626 326.14062 346.98126Q326.34375 346.59064 326.6875 346.3719Q327.03125 346.1375 327.45312 346.02814Q327.75 345.9344 328.39062 345.85626Q329.65625 345.71564 330.26562 345.4969Q330.26562 345.27814 330.26562 345.23126Q330.26562 344.575 329.96875 344.3094Q329.5625 343.96564 328.76562 343.96564Q328.03125 343.96564 327.67188 344.23126Q327.3125 344.48126 327.14062 345.1375L326.10938 344.9969Q326.25 344.34064 326.57812 343.9344Q326.90625 343.52814 327.51562 343.3094Q328.125 343.09064 328.92188 343.09064Q329.71875 343.09064 330.21875 343.27814Q330.71875 343.46564 330.95312 343.7469Q331.1875 344.02814 331.28125 344.46564Q331.32812 344.73126 331.32812 345.4344L331.32812 346.84064Q331.32812 348.3094 331.39062 348.7Q331.46875 349.09064 331.67188 349.45L330.5625 349.45Q330.40625 349.1219 330.35938 348.6844ZM330.26562 346.325Q329.6875 346.5594 328.54688 346.73126Q327.89062 346.825 327.625 346.95Q327.35938 347.0594 327.20312 347.27814Q327.0625 347.4969 327.0625 347.77814Q327.0625 348.2 327.375 348.48126Q327.70312 348.7625 328.3125 348.7625Q328.92188 348.7625 329.39062 348.4969Q329.875 348.23126 330.09375 347.7625Q330.26562 347.40314 330.26562 346.71564L330.26562 346.325ZM335.59375 348.5125L335.75 349.4344Q335.29688 349.52814 334.95312 349.52814Q334.375 349.52814 334.0625 349.35626Q333.75 349.16876 333.60938 348.8719Q333.48438 348.575 333.48438 347.6219L333.48438 344.04376L332.71875 344.04376L332.71875 343.23126L333.48438 343.23126L333.48438 341.6844L334.53125 341.0594L334.53125 343.23126L335.59375 343.23126L335.59375 344.04376L334.53125 344.04376L334.53125 347.6844Q334.53125 348.1375 334.57812 348.2625Q334.64062 348.3875 334.76562 348.46564Q334.89062 348.54376 335.125 348.54376Q335.3125 348.54376 335.59375 348.5125ZM340.54688 347.45L341.64062 347.575Q341.39062 348.52814 340.6875 349.0594Q339.98438 349.59064 338.90625 349.59064Q337.54688 349.59064 336.73438 348.7469Q335.9375 347.90314 335.9375 346.3875Q335.9375 344.825 336.75 343.96564Q337.5625 343.09064 338.84375 343.09064Q340.09375 343.09064 340.875 343.9344Q341.67188 344.77814 341.67188 346.325Q341.67188 346.41876 341.67188 346.60626L337.03125 346.60626Q337.09375 347.6375 337.60938 348.1844Q338.125 348.71564 338.90625 348.71564Q339.48438 348.71564 339.89062 348.41876Q340.3125 348.10626 340.54688 347.45ZM337.09375 345.7469L340.5625 345.7469Q340.5 344.95 340.17188 344.5594Q339.65625 343.95 338.85938 343.95Q338.125 343.95 337.625 344.4344Q337.14062 344.91876 337.09375 345.7469Z" fill-rule="nonzero"/><path fill="#000000" d="M29.550013 239.0625L20.956263 239.0625L20.956263 235.25Q20.956263 234.09375 21.190638 233.5Q21.425013 232.90625 22.018763 232.54688Q22.596888 232.1875 23.300013 232.1875Q24.221888 232.1875 24.846888 232.78125Q25.471888 233.375 25.643763 234.60938Q25.862513 234.15625 26.065638 233.92188Q26.518763 233.42188 27.206263 232.98438L29.550013 231.48438L29.550013 232.92188L27.768763 234.04688Q26.987513 234.54688 26.581263 234.875Q26.175013 235.1875 26.018763 235.45312Q25.846888 235.70312 25.768763 235.96875Q25.737513 236.15625 25.737513 236.59375L25.737513 237.92188L29.550013 237.92188L29.550013 239.0625ZM24.753138 237.92188L24.753138 235.46875Q24.753138 234.70312 24.596888 234.26562Q24.425013 233.8125 24.081263 233.59375Q23.721888 233.35938 23.300013 233.35938Q22.690638 233.35938 22.300013 233.8125Q21.909388 234.25 21.909388 235.20312L21.909388 237.92188L24.753138 237.92188ZM27.550013 225.95312L27.675013 224.85938Q28.628138 225.10938 29.159388 225.8125Q29.690638 226.51562 29.690638 227.59375Q29.690638 228.95312 28.846888 229.76562Q28.003138 230.5625 26.487513 230.5625Q24.925013 230.5625 24.065638 229.75Q23.190638 228.9375 23.190638 227.65625Q23.190638 226.40625 24.034388 225.625Q24.878138 224.82812 26.425013 224.82812Q26.518763 224.82812 26.706263 224.82812L26.706263 229.46875Q27.737513 229.40625 28.284388 228.89062Q28.815638 228.375 28.815638 227.59375Q28.815638 227.01562 28.518763 226.60938Q28.206263 226.1875 27.550013 225.95312ZM25.846888 229.40625L25.846888 225.9375Q25.050013 226.0 24.659388 226.32812Q24.050013 226.84375 24.050013 227.64062Q24.050013 228.375 24.534388 228.875Q25.018763 229.35938 25.846888 229.40625ZM27.690638 223.625L27.534388 222.59375Q28.159388 222.5 28.487513 222.10938Q28.815638 221.70312 28.815638 220.96875Q28.815638 220.25 28.534388 219.90625Q28.237513 219.54688 27.831263 219.54688Q27.471888 219.54688 27.268763 219.85938Q27.128138 220.07812 26.909388 220.9375Q26.612513 222.09375 26.409388 222.54688Q26.190638 222.98438 25.815638 223.21875Q25.440638 223.45312 24.971888 223.45312Q24.565638 223.45312 24.206263 223.26562Q23.846888 223.07812 23.612513 222.75Q23.440638 222.5 23.315638 222.07812Q23.190638 221.65625 23.190638 221.15625Q23.190638 220.4375 23.409388 219.89062Q23.612513 219.32812 23.971888 219.0625Q24.331263 218.79688 24.925013 218.70312L25.065638 219.73438Q24.596888 219.79688 24.331263 220.14062Q24.050013 220.46875 24.050013 221.09375Q24.050013 221.8125 24.300013 222.125Q24.534388 222.4375 24.862513 222.4375Q25.065638 222.4375 25.221888 222.3125Q25.393763 222.17188 25.503138 221.90625Q25.565638 221.75 25.768763 220.96875Q26.081263 219.84375 26.268763 219.40625Q26.456263 218.96875 26.815638 218.71875Q27.175013 218.46875 27.721888 218.46875Q28.253138 218.46875 28.721888 218.78125Q29.175013 219.07812 29.440638 219.65625Q29.690638 220.23438 29.690638 220.96875Q29.690638 222.1875 29.190638 222.82812Q28.675013 223.45312 27.690638 223.625ZM28.612513 213.90625L29.534388 213.75Q29.628138 214.20312 29.628138 214.54688Q29.628138 215.125 29.456263 215.4375Q29.268763 215.75 28.971888 215.89062Q28.675013 216.01562 27.721888 216.01562L24.143763 216.01562L24.143763 216.78125L23.331263 216.78125L23.331263 216.01562L21.784388 216.01562L21.159388 214.96875L23.331263 214.96875L23.331263 213.90625L24.143763 213.90625L24.143763 214.96875L27.784388 214.96875Q28.237513 214.96875 28.362513 214.92188Q28.487513 214.85938 28.565638 214.73438Q28.643763 214.60938 28.643763 214.375Q28.643763 214.1875 28.612513 213.90625ZM22.175013 213.20312L20.956263 213.20312L20.956263 212.14062L22.175013 212.14062L22.175013 213.20312ZM29.550013 213.20312L23.331263 213.20312L23.331263 212.14062L29.550013 212.14062L29.550013 213.20312ZM29.550013 210.20312L23.331263 210.20312L23.331263 209.26562L24.206263 209.26562Q23.190638 208.57812 23.190638 207.28125Q23.190638 206.71875 23.393763 206.25Q23.596888 205.76562 23.925013 205.53125Q24.253138 205.29688 24.690638 205.20312Q24.987513 205.15625 25.721888 205.15625L29.550013 205.15625L29.550013 206.20312L25.768763 206.20312Q25.112513 206.20312 24.800013 206.32812Q24.487513 206.45312 24.300013 206.76562Q24.096888 207.07812 24.096888 207.5Q24.096888 208.17188 24.534388 208.67188Q24.956263 209.15625 26.143763 209.15625L29.550013 209.15625L29.550013 210.20312ZM30.065638 203.40625L30.221888 202.375Q30.690638 202.3125 30.909388 202.01562Q31.206263 201.625 31.206263 200.95312Q31.206263 200.21875 30.909388 199.82812Q30.612513 199.42188 30.096888 199.28125Q29.768763 199.1875 28.737513 199.20312Q29.550013 199.89062 29.550013 200.92188Q29.550013 202.20312 28.628138 202.90625Q27.690638 203.60938 26.409388 203.60938Q25.518763 203.60938 24.768763 203.29688Q24.003138 202.96875 23.596888 202.35938Q23.190638 201.75 23.190638 200.92188Q23.190638 199.8125 24.081263 199.09375L23.331263 199.09375L23.331263 198.125L28.706263 198.125Q30.159388 198.125 30.768763 198.42188Q31.378138 198.71875 31.721888 199.35938Q32.08126 200.0 32.08126 200.9375Q32.08126 202.04688 31.581263 202.73438Q31.081263 203.42188 30.065638 203.40625ZM26.331263 202.53125Q27.550013 202.53125 28.112513 202.04688Q28.675013 201.5625 28.675013 200.82812Q28.675013 200.09375 28.112513 199.60938Q27.550013 199.10938 26.362513 199.10938Q25.221888 199.10938 24.643763 199.625Q24.065638 200.125 24.065638 200.84375Q24.065638 201.54688 24.643763 202.04688Q25.206263 202.53125 26.331263 202.53125ZM29.550013 193.03125L20.956263 193.03125L20.956263 191.90625L24.487513 191.90625L24.487513 187.4375L20.956263 187.4375L20.956263 186.29688L29.550013 186.29688L29.550013 187.4375L25.503138 187.4375L25.503138 191.90625L29.550013 191.90625L29.550013 193.03125ZM27.550013 179.95312L27.675013 178.85938Q28.628138 179.10938 29.159388 179.8125Q29.690638 180.51562 29.690638 181.59375Q29.690638 182.95312 28.846888 183.76562Q28.003138 184.5625 26.487513 184.5625Q24.925013 184.5625 24.065638 183.75Q23.190638 182.9375 23.190638 181.65625Q23.190638 180.40625 24.034388 179.625Q24.878138 178.82812 26.425013 178.82812Q26.518763 178.82812 26.706263 178.82812L26.706263 183.46875Q27.737513 183.40625 28.284388 182.89062Q28.815638 182.375 28.815638 181.59375Q28.815638 181.01562 28.518763 180.60938Q28.206263 180.1875 27.550013 179.95312ZM25.846888 183.40625L25.846888 179.9375Q25.050013 180.0 24.659388 180.32812Q24.050013 180.84375 24.050013 181.64062Q24.050013 182.375 24.534388 182.875Q25.018763 183.35938 25.846888 183.40625ZM28.784388 173.14062Q29.284388 173.73438 29.487513 174.28125Q29.690638 174.8125 29.690638 175.4375Q29.690638 176.46875 29.190638 177.01562Q28.690638 177.5625 27.909388 177.5625Q27.456263 177.5625 27.081263 177.35938Q26.690638 177.15625 26.471888 176.8125Q26.237513 176.46875 26.128138 176.04688Q26.034388 175.75 25.956263 175.10938Q25.815638 173.84375 25.596888 173.23438Q25.378138 173.23438 25.331263 173.23438Q24.675013 173.23438 24.409388 173.53125Q24.065638 173.9375 24.065638 174.73438Q24.065638 175.46875 24.331263 175.82812Q24.581263 176.1875 25.237513 176.35938L25.096888 177.39062Q24.440638 177.25 24.034388 176.92188Q23.628138 176.59375 23.409388 175.98438Q23.190638 175.375 23.190638 174.57812Q23.190638 173.78125 23.378138 173.28125Q23.565638 172.78125 23.846888 172.54688Q24.128138 172.3125 24.565638 172.21875Q24.831263 172.17188 25.534388 172.17188L26.940638 172.17188Q28.409388 172.17188 28.800013 172.10938Q29.190638 172.03125 29.550013 171.82812L29.550013 172.9375Q29.221888 173.09375 28.784388 173.14062ZM26.425013 173.23438Q26.659388 173.8125 26.831263 174.95312Q26.925013 175.60938 27.050013 175.875Q27.159388 176.14062 27.378138 176.29688Q27.596888 176.4375 27.878138 176.4375Q28.300013 176.4375 28.581263 176.125Q28.862513 175.79688 28.862513 175.1875Q28.862513 174.57812 28.596888 174.10938Q28.331263 173.625 27.862513 173.40625Q27.503138 173.23438 26.815638 173.23438L26.425013 173.23438ZM29.550013 170.21875L23.331263 170.21875L23.331263 169.26562L24.268763 169.26562Q23.612513 168.90625 23.409388 168.60938Q23.190638 168.29688 23.190638 167.92188Q23.190638 167.39062 23.518763 166.84375L24.503138 167.20312Q24.268763 167.59375 24.268763 167.96875Q24.268763 168.32812 24.487513 168.60938Q24.690638 168.875 25.065638 168.98438Q25.628138 169.17188 26.284388 169.17188L29.550013 169.17188L29.550013 170.21875ZM28.612513 163.90625L29.534388 163.75Q29.628138 164.20312 29.628138 164.54688Q29.628138 165.125 29.456263 165.4375Q29.268763 165.75 28.971888 165.89062Q28.675013 166.01562 27.721888 166.01562L24.143763 166.01562L24.143763 166.78125L23.331263 166.78125L23.331263 166.01562L21.784388 166.01562L21.159388 164.96875L23.331263 164.96875L23.331263 163.90625L24.143763 163.90625L24.143763 164.96875L27.784388 164.96875Q28.237513 164.96875 28.362513 164.92188Q28.487513 164.85938 28.565638 164.73438Q28.643763 164.60938 28.643763 164.375Q28.643763 164.1875 28.612513 163.90625ZM29.550013 160.0625L20.956263 160.0625L20.956263 156.25Q20.956263 155.09375 21.190638 154.5Q21.425013 153.90625 22.018763 153.54688Q22.596888 153.1875 23.300013 153.1875Q24.221888 153.1875 24.846888 153.78125Q25.471888 154.375 25.643763 155.60938Q25.862513 155.15625 26.065638 154.92188Q26.518763 154.42188 27.206263 153.98438L29.550013 152.48438L29.550013 153.92188L27.768763 155.04688Q26.987513 155.54688 26.581263 155.875Q26.175013 156.1875 26.018763 156.45312Q25.846888 156.70312 25.768763 156.96875Q25.737513 157.15625 25.737513 157.59375L25.737513 158.92188L29.550013 158.92188L29.550013 160.0625ZM24.753138 158.92188L24.753138 156.46875Q24.753138 155.70312 24.596888 155.26562Q24.425013 154.8125 24.081263 154.59375Q23.721888 154.35938 23.300013 154.35938Q22.690638 154.35938 22.300013 154.8125Q21.909388 155.25 21.909388 156.20312L21.909388 158.92188L24.753138 158.92188ZM28.784388 147.14062Q29.284388 147.73438 29.487513 148.28125Q29.690638 148.8125 29.690638 149.4375Q29.690638 150.46875 29.190638 151.01562Q28.690638 151.5625 27.909388 151.5625Q27.456263 151.5625 27.081263 151.35938Q26.690638 151.15625 26.471888 150.8125Q26.237513 150.46875 26.128138 150.04688Q26.034388 149.75 25.956263 149.10938Q25.815638 147.84375 25.596888 147.23438Q25.378138 147.23438 25.331263 147.23438Q24.675013 147.23438 24.409388 147.53125Q24.065638 147.9375 24.065638 148.73438Q24.065638 149.46875 24.331263 149.82812Q24.581263 150.1875 25.237513 150.35938L25.096888 151.39062Q24.440638 151.25 24.034388 150.92188Q23.628138 150.59375 23.409388 149.98438Q23.190638 149.375 23.190638 148.57812Q23.190638 147.78125 23.378138 147.28125Q23.565638 146.78125 23.846888 146.54688Q24.128138 146.3125 24.565638 146.21875Q24.831263 146.17188 25.534388 146.17188L26.940638 146.17188Q28.409388 146.17188 28.800013 146.10938Q29.190638 146.03125 29.550013 145.82812L29.550013 146.9375Q29.221888 147.09375 28.784388 147.14062ZM26.425013 147.23438Q26.659388 147.8125 26.831263 148.95312Q26.925013 149.60938 27.050013 149.875Q27.159388 150.14062 27.378138 150.29688Q27.596888 150.4375 27.878138 150.4375Q28.300013 150.4375 28.581263 150.125Q28.862513 149.79688 28.862513 149.1875Q28.862513 148.57812 28.596888 148.10938Q28.331263 147.625 27.862513 147.40625Q27.503138 147.23438 26.815638 147.23438L26.425013 147.23438ZM28.612513 141.90625L29.534388 141.75Q29.628138 142.20312 29.628138 142.54688Q29.628138 143.125 29.456263 143.4375Q29.268763 143.75 28.971888 143.89062Q28.675013 144.01562 27.721888 144.01562L24.143763 144.01562L24.143763 144.78125L23.331263 144.78125L23.331263 144.01562L21.784388 144.01562L21.159388 142.96875L23.331263 142.96875L23.331263 141.90625L24.143763 141.90625L24.143763 142.96875L27.784388 142.96875Q28.237513 142.96875 28.362513 142.92188Q28.487513 142.85938 28.565638 142.73438Q28.643763 142.60938 28.643763 142.375Q28.643763 142.1875 28.612513 141.90625ZM27.550013 136.95312L27.675013 135.85938Q28.628138 136.10938 29.159388 136.8125Q29.690638 137.51562 29.690638 138.59375Q29.690638 139.95312 28.846888 140.76562Q28.003138 141.5625 26.487513 141.5625Q24.925013 141.5625 24.065638 140.75Q23.190638 139.9375 23.190638 138.65625Q23.190638 137.40625 24.034388 136.625Q24.878138 135.82812 26.425013 135.82812Q26.518763 135.82812 26.706263 135.82812L26.706263 140.46875Q27.737513 140.40625 28.284388 139.89062Q28.815638 139.375 28.815638 138.59375Q28.815638 138.01562 28.518763 137.60938Q28.206263 137.1875 27.550013 136.95312ZM25.846888 140.40625L25.846888 136.9375Q25.050013 137.0 24.659388 137.32812Q24.050013 137.84375 24.050013 138.64062Q24.050013 139.375 24.534388 139.875Q25.018763 140.35938 25.846888 140.40625ZM32.08126 129.1875Q30.971888 130.0625 29.503138 130.67188Q28.018763 131.26562 26.440638 131.26562Q25.050013 131.26562 23.768763 130.82812Q22.284388 130.29688 20.815638 129.1875L20.815638 128.4375Q22.034388 129.14062 22.550013 129.375Q23.362513 129.73438 24.237513 129.9375Q25.331263 130.1875 26.440638 130.1875Q29.268763 130.1875 32.08126 128.4375L32.08126 129.1875ZM29.550013 126.234375L29.550013 127.21875L20.956263 127.21875L20.956263 126.15625L24.018763 126.15625Q23.190638 125.484375 23.190638 124.453125Q23.190638 123.875 23.425013 123.375Q23.643763 122.859375 24.065638 122.53125Q24.487513 122.1875 25.081263 122.0Q25.675013 121.8125 26.346888 121.8125Q27.940638 121.8125 28.815638 122.609375Q29.690638 123.40625 29.690638 124.5Q29.690638 125.609375 28.768763 126.234375L29.550013 126.234375ZM26.393763 126.25Q27.503138 126.25 28.003138 125.9375Q28.815638 125.4375 28.815638 124.59375Q28.815638 123.90625 28.221888 123.40625Q27.628138 122.890625 26.425013 122.890625Q25.206263 122.890625 24.628138 123.375Q24.050013 123.859375 24.050013 124.546875Q24.050013 125.234375 24.659388 125.75Q25.253138 126.25 26.393763 126.25ZM31.940638 120.203125L23.331263 120.203125L23.331263 119.25L24.128138 119.25Q23.659388 118.90625 23.425013 118.484375Q23.190638 118.046875 23.190638 117.4375Q23.190638 116.640625 23.596888 116.03125Q24.003138 115.421875 24.753138 115.125Q25.503138 114.8125 26.393763 114.8125Q27.346888 114.8125 28.112513 115.15625Q28.878138 115.484375 29.284388 116.140625Q29.690638 116.796875 29.690638 117.515625Q29.690638 118.046875 29.471888 118.46875Q29.237513 118.890625 28.909388 119.15625L31.940638 119.15625L31.940638 120.203125ZM26.471888 119.25Q27.675013 119.25 28.253138 118.765625Q28.815638 118.28125 28.815638 117.59375Q28.815638 116.890625 28.221888 116.390625Q27.628138 115.890625 26.378138 115.890625Q25.190638 115.890625 24.612513 116.375Q24.018763 116.859375 24.018763 117.546875Q24.018763 118.21875 24.643763 118.734375Q25.268763 119.25 26.471888 119.25ZM29.550013 113.203125L23.331263 113.203125L23.331263 112.265625L24.206263 112.265625Q23.737513 111.96875 23.471888 111.484375Q23.190638 111.0 23.190638 110.375Q23.190638 109.6875 23.471888 109.25Q23.753138 108.796875 24.268763 108.625Q23.190638 107.875 23.190638 106.703125Q23.190638 105.765625 23.706263 105.28125Q24.206263 104.78125 25.284388 104.78125L29.550013 104.78125L29.550013 105.828125L25.628138 105.828125Q25.003138 105.828125 24.721888 105.9375Q24.440638 106.03125 24.268763 106.296875Q24.096888 106.5625 24.096888 106.9375Q24.096888 107.59375 24.534388 108.03125Q24.971888 108.453125 25.940638 108.453125L29.550013 108.453125L29.550013 109.515625L25.503138 109.515625Q24.800013 109.515625 24.456263 109.78125Q24.096888 110.03125 24.096888 110.609375Q24.096888 111.0625 24.331263 111.4375Q24.565638 111.8125 25.018763 111.984375Q25.471888 112.15625 26.315638 112.15625L29.550013 112.15625L29.550013 113.203125ZM32.08126 101.515625L32.08126 102.265625Q29.268763 100.515625 26.440638 100.515625Q25.346888 100.515625 24.253138 100.765625Q23.378138 100.96875 22.565638 101.328125Q22.050013 101.5625 20.815638 102.265625L20.815638 101.515625Q22.284388 100.421875 23.768763 99.890625Q25.050013 99.4375 26.440638 99.4375Q28.018763 99.4375 29.503138 100.046875Q30.971888 100.65625 32.08126 101.515625Z" fill-rule="nonzero"/><path fill="#000000" d="M58.05 302.2L59.159374 302.10626Q59.284374 302.91876 59.721874 303.325Q60.175 303.73126 60.815624 303.73126Q61.565624 303.73126 62.096874 303.15314Q62.628124 302.575 62.628124 301.6375Q62.628124 300.73126 62.1125 300.21564Q61.6125 299.6844 60.784374 299.6844Q60.284374 299.6844 59.8625 299.91876Q59.45625 300.15314 59.221874 300.5125L58.2375 300.3875L59.065624 295.98126L63.346874 295.98126L63.346874 296.98126L59.909374 296.98126L59.45625 299.29376Q60.221874 298.7469 61.065624 298.7469Q62.190624 298.7469 62.95625 299.52814Q63.7375 300.3094 63.7375 301.54376Q63.7375 302.7 63.065624 303.5594Q62.2375 304.59064 60.815624 304.59064Q59.64375 304.59064 58.89375 303.9344Q58.159374 303.27814 58.05 302.2ZM65.05 300.21564Q65.05 298.6844 65.3625 297.7625Q65.675 296.825 66.28438 296.325Q66.90938 295.825 67.84688 295.825Q68.53438 295.825 69.05 296.10626Q69.58125 296.3875 69.925 296.91876Q70.26875 297.4344 70.45625 298.1844Q70.64375 298.9344 70.64375 300.21564Q70.64375 301.73126 70.33125 302.65314Q70.03438 303.575 69.40938 304.09064Q68.8 304.59064 67.84688 304.59064Q66.6125 304.59064 65.89375 303.7Q65.05 302.6375 65.05 300.21564ZM66.12813 300.21564Q66.12813 302.325 66.62813 303.02814Q67.12813 303.73126 67.84688 303.73126Q68.58125 303.73126 69.06563 303.02814Q69.56563 302.325 69.56563 300.21564Q69.56563 298.09064 69.06563 297.40314Q68.58125 296.7 67.83125 296.7Q67.1125 296.7 66.675 297.3094Q66.12813 298.09064 66.12813 300.21564Z" fill-rule="nonzero"/><path fill="#000000" d="M58.05 233.475L59.159374 233.38126Q59.284374 234.19376 59.721874 234.6Q60.175 235.00626 60.815624 235.00626Q61.565624 235.00626 62.096874 234.42813Q62.628124 233.85 62.628124 232.9125Q62.628124 232.00626 62.1125 231.49063Q61.6125 230.95938 60.784374 230.95938Q60.284374 230.95938 59.8625 231.19376Q59.45625 231.42813 59.221874 231.7875L58.2375 231.6625L59.065624 227.25626L63.346874 227.25626L63.346874 228.25626L59.909374 228.25626L59.45625 230.56876Q60.221874 230.02188 61.065624 230.02188Q62.190624 230.02188 62.95625 230.80313Q63.7375 231.58438 63.7375 232.81876Q63.7375 233.975 63.065624 234.83438Q62.2375 235.86563 60.815624 235.86563Q59.64375 235.86563 58.89375 235.20938Q58.159374 234.55313 58.05 233.475ZM65.05 233.475L66.15938 233.38126Q66.28438 234.19376 66.72188 234.6Q67.175 235.00626 67.81563 235.00626Q68.56563 235.00626 69.09688 234.42813Q69.62813 233.85 69.62813 232.9125Q69.62813 232.00626 69.1125 231.49063Q68.6125 230.95938 67.78438 230.95938Q67.28438 230.95938 66.8625 231.19376Q66.45625 231.42813 66.22188 231.7875L65.2375 231.6625L66.06563 227.25626L70.34688 227.25626L70.34688 228.25626L66.90938 228.25626L66.45625 230.56876Q67.22188 230.02188 68.06563 230.02188Q69.19063 230.02188 69.95625 230.80313Q70.7375 231.58438 70.7375 232.81876Q70.7375 233.975 70.06563 234.83438Q69.2375 235.86563 67.81563 235.86563Q66.64375 235.86563 65.89375 235.20938Q65.15938 234.55313 65.05 233.475Z" fill-rule="nonzero"/><path fill="#000000" d="M63.51875 160.51562L62.471874 160.59375Q62.33125 159.96875 62.08125 159.6875Q61.64375 159.23438 61.01875 159.23438Q60.51875 159.23438 60.128124 159.51562Q59.64375 159.89062 59.346874 160.59375Q59.065624 161.28125 59.05 162.5625Q59.425 161.98438 59.971874 161.70312Q60.534374 161.42188 61.14375 161.42188Q62.190624 161.42188 62.925 162.20312Q63.675 162.98438 63.675 164.20312Q63.675 165.01562 63.315624 165.71875Q62.971874 166.40625 62.3625 166.78125Q61.753124 167.14062 60.9875 167.14062Q59.659374 167.14062 58.83125 166.17188Q58.003124 165.20312 58.003124 162.98438Q58.003124 160.48438 58.925 159.35938Q59.721874 158.375 61.08125 158.375Q62.096874 158.375 62.7375 158.95312Q63.39375 159.51562 63.51875 160.51562ZM59.221874 164.21875Q59.221874 164.76562 59.440624 165.26562Q59.675 165.75 60.08125 166.01562Q60.503124 166.28125 60.971874 166.28125Q61.628124 166.28125 62.1125 165.75Q62.596874 165.20312 62.596874 164.28125Q62.596874 163.39062 62.1125 162.875Q61.64375 162.35938 60.925 162.35938Q60.20625 162.35938 59.70625 162.875Q59.221874 163.39062 59.221874 164.21875ZM65.05 162.76562Q65.05 161.23438 65.3625 160.3125Q65.675 159.375 66.28438 158.875Q66.90938 158.375 67.84688 158.375Q68.53438 158.375 69.05 158.65625Q69.58125 158.9375 69.925 159.46875Q70.26875 159.98438 70.45625 160.73438Q70.64375 161.48438 70.64375 162.76562Q70.64375 164.28125 70.33125 165.20312Q70.03438 166.125 69.40938 166.64062Q68.8 167.14062 67.84688 167.14062Q66.6125 167.14062 65.89375 166.25Q65.05 165.1875 65.05 162.76562ZM66.12813 162.76562Q66.12813 164.875 66.62813 165.57812Q67.12813 166.28125 67.84688 166.28125Q68.58125 166.28125 69.06563 165.57812Q69.56563 164.875 69.56563 162.76562Q69.56563 160.64062 69.06563 159.95312Q68.58125 159.25 67.83125 159.25Q67.1125 159.25 66.675 159.85938Q66.12813 160.64062 66.12813 162.76562Z" fill-rule="nonzero"/><path fill="#000000" d="M63.51875 91.79063L62.471874 91.86875Q62.33125 91.24375 62.08125 90.9625Q61.64375 90.50938 61.01875 90.50938Q60.51875 90.50938 60.128124 90.79063Q59.64375 91.16563 59.346874 91.86875Q59.065624 92.55625 59.05 93.8375Q59.425 93.25938 59.971874 92.97813Q60.534374 92.69688 61.14375 92.69688Q62.190624 92.69688 62.925 93.47813Q63.675 94.25938 63.675 95.47813Q63.675 96.29063 63.315624 96.99375Q62.971874 97.68125 62.3625 98.05625Q61.753124 98.41563 60.9875 98.41563Q59.659374 98.41563 58.83125 97.44688Q58.003124 96.47813 58.003124 94.25938Q58.003124 91.75938 58.925 90.63438Q59.721874 89.65 61.08125 89.65Q62.096874 89.65 62.7375 90.22813Q63.39375 90.79063 63.51875 91.79063ZM59.221874 95.49375Q59.221874 96.04063 59.440624 96.54063Q59.675 97.025 60.08125 97.29063Q60.503124 97.55625 60.971874 97.55625Q61.628124 97.55625 62.1125 97.025Q62.596874 96.47813 62.596874 95.55625Q62.596874 94.66563 62.1125 94.15Q61.64375 93.63438 60.925 93.63438Q60.20625 93.63438 59.70625 94.15Q59.221874 94.66563 59.221874 95.49375ZM65.05 96.025L66.15938 95.93125Q66.28438 96.74375 66.72188 97.15Q67.175 97.55625 67.81563 97.55625Q68.56563 97.55625 69.09688 96.97813Q69.62813 96.4 69.62813 95.4625Q69.62813 94.55625 69.1125 94.04063Q68.6125 93.50938 67.78438 93.50938Q67.28438 93.50938 66.8625 93.74375Q66.45625 93.97813 66.22188 94.3375L65.2375 94.2125L66.06563 89.80625L70.34688 89.80625L70.34688 90.80625L66.90938 90.80625L66.45625 93.11875Q67.22188 92.57188 68.06563 92.57188Q69.19063 92.57188 69.95625 93.35313Q70.7375 94.13438 70.7375 95.36875Q70.7375 96.525 70.06563 97.38438Q69.2375 98.41563 67.81563 98.41563Q66.64375 98.41563 65.89375 97.75938Q65.15938 97.10313 65.05 96.025Z" fill-rule="nonzero"/><path fill="#000000" d="M58.1125 22.08125L58.1125 21.065624L63.675 21.065624L63.675 21.89375Q62.8625 22.76875 62.05 24.221874Q61.253124 25.659374 60.815624 27.190624Q60.4875 28.26875 60.409374 29.55L59.315624 29.55Q59.33125 28.534374 59.70625 27.096874Q60.096874 25.659374 60.8 24.33125Q61.51875 23.003124 62.33125 22.08125L58.1125 22.08125ZM65.05 25.315624Q65.05 23.784374 65.3625 22.8625Q65.675 21.925 66.28438 21.425Q66.90938 20.925 67.84688 20.925Q68.53438 20.925 69.05 21.20625Q69.58125 21.4875 69.925 22.01875Q70.26875 22.534374 70.45625 23.284374Q70.64375 24.034374 70.64375 25.315624Q70.64375 26.83125 70.33125 27.753124Q70.03438 28.675 69.40938 29.190624Q68.8 29.690624 67.84688 29.690624Q66.6125 29.690624 65.89375 28.8Q65.05 27.7375 65.05 25.315624ZM66.12813 25.315624Q66.12813 27.425 66.62813 28.128124Q67.12813 28.83125 67.84688 28.83125Q68.58125 28.83125 69.06563 28.128124Q69.56563 27.425 69.56563 25.315624Q69.56563 23.190624 69.06563 22.503124Q68.58125 21.8 67.83125 21.8Q67.1125 21.8 66.675 22.409374Q66.12813 23.190624 66.12813 25.315624Z" fill-rule="nonzero"/><path fill="#000000" d="M55.356045 313.21564Q55.356045 311.6844 55.668545 310.7625Q55.981045 309.825 56.59042 309.325Q57.21542 308.825 58.15292 308.825Q58.84042 308.825 59.356045 309.10626Q59.887295 309.3875 60.231045 309.91876Q60.574795 310.4344 60.762295 311.1844Q60.949795 311.9344 60.949795 313.21564Q60.949795 314.73126 60.637295 315.65314Q60.34042 316.575 59.71542 317.09064Q59.106045 317.59064 58.15292 317.59064Q56.918545 317.59064 56.199795 316.7Q55.356045 315.6375 55.356045 313.21564ZM56.43417 313.21564Q56.43417 315.325 56.93417 316.02814Q57.43417 316.73126 58.15292 316.73126Q58.887295 316.73126 59.37167 316.02814Q59.87167 315.325 59.87167 313.21564Q59.87167 311.09064 59.37167 310.40314Q58.887295 309.7 58.137295 309.7Q57.418545 309.7 56.981045 310.3094Q56.43417 311.09064 56.43417 313.21564ZM66.3248 317.45L65.27792 317.45L65.27792 310.73126Q64.8873 311.09064 64.2623 311.46564Q63.65292 311.825 63.168545 311.9969L63.168545 310.98126Q64.04355 310.5594 64.6998 309.98126Q65.37167 309.3875 65.65292 308.825L66.3248 308.825L66.3248 317.45ZM68.85605 317.59064L71.34042 308.71564L72.18417 308.71564L69.6998 317.59064L68.85605 317.59064ZM72.35605 313.21564Q72.35605 311.6844 72.66855 310.7625Q72.98105 309.825 73.59042 309.325Q74.21542 308.825 75.15292 308.825Q75.84042 308.825 76.35605 309.10626Q76.8873 309.3875 77.23105 309.91876Q77.5748 310.4344 77.7623 311.1844Q77.9498 311.9344 77.9498 313.21564Q77.9498 314.73126 77.6373 315.65314Q77.34042 316.575 76.71542 317.09064Q76.10605 317.59064 75.15292 317.59064Q73.91855 317.59064 73.1998 316.7Q72.35605 315.6375 72.35605 313.21564ZM73.43417 313.21564Q73.43417 315.325 73.93417 316.02814Q74.43417 316.73126 75.15292 316.73126Q75.8873 316.73126 76.37167 316.02814Q76.87167 315.325 76.87167 313.21564Q76.87167 311.09064 76.37167 310.40314Q75.8873 309.7 75.1373 309.7Q74.41855 309.7 73.98105 310.3094Q73.43417 311.09064 73.43417 313.21564ZM79.5123 315.46564L80.52792 315.3719Q80.65292 316.09064 81.0123 316.41876Q81.3873 316.73126 81.9498 316.73126Q82.43417 316.73126 82.79355 316.5125Q83.16855 316.27814 83.40292 315.91876Q83.6373 315.54376 83.79355 314.91876Q83.9498 314.27814 83.9498 313.6219Q83.9498 313.54376 83.9498 313.40314Q83.6373 313.90314 83.09042 314.23126Q82.54355 314.54376 81.90292 314.54376Q80.8248 314.54376 80.09042 313.77814Q79.35605 312.9969 79.35605 311.73126Q79.35605 310.41876 80.12167 309.6219Q80.90292 308.825 82.05917 308.825Q82.8873 308.825 83.5748 309.27814Q84.27792 309.73126 84.6373 310.575Q84.99667 311.40314 84.99667 312.98126Q84.99667 314.6219 84.6373 315.60626Q84.29355 316.575 83.5748 317.09064Q82.87167 317.59064 81.93417 317.59064Q80.91855 317.59064 80.27792 317.04376Q79.6373 316.48126 79.5123 315.46564ZM83.8248 311.66876Q83.8248 310.7625 83.34042 310.23126Q82.87167 309.7 82.18417 309.7Q81.48105 309.7 80.9498 310.27814Q80.43417 310.84064 80.43417 311.7625Q80.43417 312.575 80.93417 313.09064Q81.43417 313.60626 82.15292 313.60626Q82.8873 313.60626 83.35605 313.09064Q83.8248 312.575 83.8248 311.66876ZM85.85605 317.59064L88.34042 308.71564L89.18417 308.71564L86.6998 317.59064L85.85605 317.59064ZM94.90292 316.4344L94.90292 317.45L89.21542 317.45Q89.21542 317.075 89.34042 316.71564Q89.55917 316.1375 90.02792 315.575Q90.5123 315.0125 91.41855 314.27814Q92.8248 313.1219 93.30917 312.45Q93.80917 311.77814 93.80917 311.1844Q93.80917 310.5594 93.35605 310.1375Q92.90292 309.7 92.18417 309.7Q91.41855 309.7 90.96542 310.15314Q90.5123 310.60626 90.49667 311.41876L89.41855 311.3094Q89.52792 310.09064 90.24667 309.46564Q90.98105 308.825 92.21542 308.825Q93.4498 308.825 94.16855 309.5125Q94.8873 310.2 94.8873 311.21564Q94.8873 311.73126 94.66855 312.23126Q94.46542 312.71564 93.96542 313.27814Q93.48105 313.825 92.35605 314.77814Q91.40292 315.575 91.12167 315.8719Q90.85605 316.15314 90.68417 316.4344L94.90292 316.4344ZM96.35605 313.21564Q96.35605 311.6844 96.66855 310.7625Q96.98105 309.825 97.59042 309.325Q98.21542 308.825 99.15292 308.825Q99.84042 308.825 100.35605 309.10626Q100.8873 309.3875 101.23105 309.91876Q101.5748 310.4344 101.7623 311.1844Q101.9498 311.9344 101.9498 313.21564Q101.9498 314.73126 101.6373 315.65314Q101.34042 316.575 100.71542 317.09064Q100.10605 317.59064 99.15292 317.59064Q97.91855 317.59064 97.1998 316.7Q96.35605 315.6375 96.35605 313.21564ZM97.43417 313.21564Q97.43417 315.325 97.93417 316.02814Q98.43417 316.73126 99.15292 316.73126Q99.8873 316.73126 100.37167 316.02814Q100.87167 315.325 100.87167 313.21564Q100.87167 311.09064 100.37167 310.40314Q99.8873 309.7 99.1373 309.7Q98.41855 309.7 97.98105 310.3094Q97.43417 311.09064 97.43417 313.21564ZM108.90292 316.4344L108.90292 317.45L103.21542 317.45Q103.21542 317.075 103.34042 316.71564Q103.55917 316.1375 104.02792 315.575Q104.5123 315.0125 105.41855 314.27814Q106.8248 313.1219 107.30917 312.45Q107.80917 311.77814 107.80917 311.1844Q107.80917 310.5594 107.35605 310.1375Q106.90292 309.7 106.18417 309.7Q105.41855 309.7 104.96542 310.15314Q104.5123 310.60626 104.49667 311.41876L103.41855 311.3094Q103.52792 310.09064 104.24667 309.46564Q104.98105 308.825 106.21542 308.825Q107.4498 308.825 108.16855 309.5125Q108.8873 310.2 108.8873 311.21564Q108.8873 311.73126 108.66855 312.23126Q108.46542 312.71564 107.96542 313.27814Q107.48105 313.825 106.35605 314.77814Q105.40292 315.575 105.12167 315.8719Q104.85605 316.15314 104.68417 316.4344L108.90292 316.4344ZM113.73105 317.45L113.73105 315.3875L110.0123 315.3875L110.0123 314.41876L113.93417 308.85626L114.79355 308.85626L114.79355 314.41876L115.9498 314.41876L115.9498 315.3875L114.79355 315.3875L114.79355 317.45L113.73105 317.45ZM113.73105 314.41876L113.73105 310.5594L111.04355 314.41876L113.73105 314.41876Z" fill-rule="nonzero"/><path fill="#000000" d="M139.80083 313.21564Q139.80083 311.6844 140.11333 310.7625Q140.42583 309.825 141.0352 309.325Q141.6602 308.825 142.5977 308.825Q143.2852 308.825 143.80083 309.10626Q144.33208 309.3875 144.67583 309.91876Q145.01958 310.4344 145.20708 311.1844Q145.39458 311.9344 145.39458 313.21564Q145.39458 314.73126 145.08208 315.65314Q144.7852 316.575 144.1602 317.09064Q143.55083 317.59064 142.5977 317.59064Q141.36333 317.59064 140.64458 316.7Q139.80083 315.6375 139.80083 313.21564ZM140.87895 313.21564Q140.87895 315.325 141.37895 316.02814Q141.87895 316.73126 142.5977 316.73126Q143.33208 316.73126 143.81645 316.02814Q144.31645 315.325 144.31645 313.21564Q144.31645 311.09064 143.81645 310.40314Q143.33208 309.7 142.58208 309.7Q141.86333 309.7 141.42583 310.3094Q140.87895 311.09064 140.87895 313.21564ZM150.76958 317.45L149.7227 317.45L149.7227 310.73126Q149.33208 311.09064 148.70708 311.46564Q148.0977 311.825 147.61333 311.9969L147.61333 310.98126Q148.48833 310.5594 149.14458 309.98126Q149.81645 309.3875 150.0977 308.825L150.76958 308.825L150.76958 317.45ZM153.30083 317.59064L155.7852 308.71564L156.62895 308.71564L154.14458 317.59064L153.30083 317.59064ZM160.76958 317.45L159.7227 317.45L159.7227 310.73126Q159.33208 311.09064 158.70708 311.46564Q158.0977 311.825 157.61333 311.9969L157.61333 310.98126Q158.48833 310.5594 159.14458 309.98126Q159.81645 309.3875 160.0977 308.825L160.76958 308.825L160.76958 317.45ZM167.76958 317.45L166.7227 317.45L166.7227 310.73126Q166.33208 311.09064 165.70708 311.46564Q165.0977 311.825 164.61333 311.9969L164.61333 310.98126Q165.48833 310.5594 166.14458 309.98126Q166.81645 309.3875 167.0977 308.825L167.76958 308.825L167.76958 317.45ZM170.30083 317.59064L172.7852 308.71564L173.62895 308.71564L171.14458 317.59064L170.30083 317.59064ZM179.3477 316.4344L179.3477 317.45L173.6602 317.45Q173.6602 317.075 173.7852 316.71564Q174.00395 316.1375 174.4727 315.575Q174.95708 315.0125 175.86333 314.27814Q177.26958 313.1219 177.75395 312.45Q178.25395 311.77814 178.25395 311.1844Q178.25395 310.5594 177.80083 310.1375Q177.3477 309.7 176.62895 309.7Q175.86333 309.7 175.4102 310.15314Q174.95708 310.60626 174.94145 311.41876L173.86333 311.3094Q173.9727 310.09064 174.69145 309.46564Q175.42583 308.825 176.6602 308.825Q177.89458 308.825 178.61333 309.5125Q179.33208 310.2 179.33208 311.21564Q179.33208 311.73126 179.11333 312.23126Q178.9102 312.71564 178.4102 313.27814Q177.92583 313.825 176.80083 314.77814Q175.8477 315.575 175.56645 315.8719Q175.30083 316.15314 175.12895 316.4344L179.3477 316.4344ZM180.80083 313.21564Q180.80083 311.6844 181.11333 310.7625Q181.42583 309.825 182.0352 309.325Q182.6602 308.825 183.5977 308.825Q184.2852 308.825 184.80083 309.10626Q185.33208 309.3875 185.67583 309.91876Q186.01958 310.4344 186.20708 311.1844Q186.39458 311.9344 186.39458 313.21564Q186.39458 314.73126 186.08208 315.65314Q185.7852 316.575 185.1602 317.09064Q184.55083 317.59064 183.5977 317.59064Q182.36333 317.59064 181.64458 316.7Q180.80083 315.6375 180.80083 313.21564ZM181.87895 313.21564Q181.87895 315.325 182.37895 316.02814Q182.87895 316.73126 183.5977 316.73126Q184.33208 316.73126 184.81645 316.02814Q185.31645 315.325 185.31645 313.21564Q185.31645 311.09064 184.81645 310.40314Q184.33208 309.7 183.58208 309.7Q182.86333 309.7 182.42583 310.3094Q181.87895 311.09064 181.87895 313.21564ZM193.3477 316.4344L193.3477 317.45L187.6602 317.45Q187.6602 317.075 187.7852 316.71564Q188.00395 316.1375 188.4727 315.575Q188.95708 315.0125 189.86333 314.27814Q191.26958 313.1219 191.75395 312.45Q192.25395 311.77814 192.25395 311.1844Q192.25395 310.5594 191.80083 310.1375Q191.3477 309.7 190.62895 309.7Q189.86333 309.7 189.4102 310.15314Q188.95708 310.60626 188.94145 311.41876L187.86333 311.3094Q187.9727 310.09064 188.69145 309.46564Q189.42583 308.825 190.6602 308.825Q191.89458 308.825 192.61333 309.5125Q193.33208 310.2 193.33208 311.21564Q193.33208 311.73126 193.11333 312.23126Q192.9102 312.71564 192.4102 313.27814Q191.92583 313.825 190.80083 314.77814Q189.8477 315.575 189.56645 315.8719Q189.30083 316.15314 189.12895 316.4344L193.3477 316.4344ZM198.17583 317.45L198.17583 315.3875L194.45708 315.3875L194.45708 314.41876L198.37895 308.85626L199.23833 308.85626L199.23833 314.41876L200.39458 314.41876L200.39458 315.3875L199.23833 315.3875L199.23833 317.45L198.17583 317.45ZM198.17583 314.41876L198.17583 310.5594L195.48833 314.41876L198.17583 314.41876Z" fill-rule="nonzero"/><path fill="#000000" d="M224.2456 313.21564Q224.2456 311.6844 224.5581 310.7625Q224.8706 309.825 225.47998 309.325Q226.10498 308.825 227.04248 308.825Q227.72998 308.825 228.2456 309.10626Q228.77686 309.3875 229.1206 309.91876Q229.46436 310.4344 229.65186 311.1844Q229.83936 311.9344 229.83936 313.21564Q229.83936 314.73126 229.52686 315.65314Q229.22998 316.575 228.60498 317.09064Q227.9956 317.59064 227.04248 317.59064Q225.8081 317.59064 225.08936 316.7Q224.2456 315.6375 224.2456 313.21564ZM225.32373 313.21564Q225.32373 315.325 225.82373 316.02814Q226.32373 316.73126 227.04248 316.73126Q227.77686 316.73126 228.26123 316.02814Q228.76123 315.325 228.76123 313.21564Q228.76123 311.09064 228.26123 310.40314Q227.77686 309.7 227.02686 309.7Q226.3081 309.7 225.8706 310.3094Q225.32373 311.09064 225.32373 313.21564ZM235.21436 317.45L234.16748 317.45L234.16748 310.73126Q233.77686 311.09064 233.15186 311.46564Q232.54248 311.825 232.0581 311.9969L232.0581 310.98126Q232.9331 310.5594 233.58936 309.98126Q234.26123 309.3875 234.54248 308.825L235.21436 308.825L235.21436 317.45ZM237.7456 317.59064L240.22998 308.71564L241.07373 308.71564L238.58936 317.59064L237.7456 317.59064ZM241.2456 313.21564Q241.2456 311.6844 241.5581 310.7625Q241.8706 309.825 242.47998 309.325Q243.10498 308.825 244.04248 308.825Q244.72998 308.825 245.2456 309.10626Q245.77686 309.3875 246.1206 309.91876Q246.46436 310.4344 246.65186 311.1844Q246.83936 311.9344 246.83936 313.21564Q246.83936 314.73126 246.52686 315.65314Q246.22998 316.575 245.60498 317.09064Q244.9956 317.59064 244.04248 317.59064Q242.8081 317.59064 242.08936 316.7Q241.2456 315.6375 241.2456 313.21564ZM242.32373 313.21564Q242.32373 315.325 242.82373 316.02814Q243.32373 316.73126 244.04248 316.73126Q244.77686 316.73126 245.26123 316.02814Q245.76123 315.325 245.76123 313.21564Q245.76123 311.09064 245.26123 310.40314Q244.77686 309.7 244.02686 309.7Q243.3081 309.7 242.8706 310.3094Q242.32373 311.09064 242.32373 313.21564ZM252.21436 317.45L251.16748 317.45L251.16748 310.73126Q250.77686 311.09064 250.15186 311.46564Q249.54248 311.825 249.0581 311.9969L249.0581 310.98126Q249.9331 310.5594 250.58936 309.98126Q251.26123 309.3875 251.54248 308.825L252.21436 308.825L252.21436 317.45ZM254.7456 317.59064L257.22998 308.71564L258.07373 308.71564L255.58936 317.59064L254.7456 317.59064ZM263.79248 316.4344L263.79248 317.45L258.10498 317.45Q258.10498 317.075 258.22998 316.71564Q258.44873 316.1375 258.91748 315.575Q259.40186 315.0125 260.3081 314.27814Q261.71436 313.1219 262.19873 312.45Q262.69873 311.77814 262.69873 311.1844Q262.69873 310.5594 262.2456 310.1375Q261.79248 309.7 261.07373 309.7Q260.3081 309.7 259.85498 310.15314Q259.40186 310.60626 259.38623 311.41876L258.3081 311.3094Q258.41748 310.09064 259.13623 309.46564Q259.8706 308.825 261.10498 308.825Q262.33936 308.825 263.0581 309.5125Q263.77686 310.2 263.77686 311.21564Q263.77686 311.73126 263.5581 312.23126Q263.35498 312.71564 262.85498 313.27814Q262.3706 313.825 261.2456 314.77814Q260.29248 315.575 260.01123 315.8719Q259.7456 316.15314 259.57373 316.4344L263.79248 316.4344ZM265.2456 313.21564Q265.2456 311.6844 265.5581 310.7625Q265.8706 309.825 266.47998 309.325Q267.10498 308.825 268.04248 308.825Q268.72998 308.825 269.2456 309.10626Q269.77686 309.3875 270.1206 309.91876Q270.46436 310.4344 270.65186 311.1844Q270.83936 311.9344 270.83936 313.21564Q270.83936 314.73126 270.52686 315.65314Q270.22998 316.575 269.60498 317.09064Q268.9956 317.59064 268.04248 317.59064Q266.8081 317.59064 266.08936 316.7Q265.2456 315.6375 265.2456 313.21564ZM266.32373 313.21564Q266.32373 315.325 266.82373 316.02814Q267.32373 316.73126 268.04248 316.73126Q268.77686 316.73126 269.26123 316.02814Q269.76123 315.325 269.76123 313.21564Q269.76123 311.09064 269.26123 310.40314Q268.77686 309.7 268.02686 309.7Q267.3081 309.7 266.8706 310.3094Q266.32373 311.09064 266.32373 313.21564ZM277.79248 316.4344L277.79248 317.45L272.10498 317.45Q272.10498 317.075 272.22998 316.71564Q272.44873 316.1375 272.91748 315.575Q273.40186 315.0125 274.3081 314.27814Q275.71436 313.1219 276.19873 312.45Q276.69873 311.77814 276.69873 311.1844Q276.69873 310.5594 276.2456 310.1375Q275.79248 309.7 275.07373 309.7Q274.3081 309.7 273.85498 310.15314Q273.40186 310.60626 273.38623 311.41876L272.3081 311.3094Q272.41748 310.09064 273.13623 309.46564Q273.8706 308.825 275.10498 308.825Q276.33936 308.825 277.0581 309.5125Q277.77686 310.2 277.77686 311.21564Q277.77686 311.73126 277.5581 312.23126Q277.35498 312.71564 276.85498 313.27814Q276.3706 313.825 275.2456 314.77814Q274.29248 315.575 274.01123 315.8719Q273.7456 316.15314 273.57373 316.4344L277.79248 316.4344ZM279.2456 315.2L280.35498 315.10626Q280.47998 315.91876 280.91748 316.325Q281.3706 316.73126 282.01123 316.73126Q282.76123 316.73126 283.29248 316.15314Q283.82373 315.575 283.82373 314.6375Q283.82373 313.73126 283.3081 313.21564Q282.8081 312.6844 281.97998 312.6844Q281.47998 312.6844 281.0581 312.91876Q280.65186 313.15314 280.41748 313.5125L279.4331 313.3875L280.26123 308.98126L284.54248 308.98126L284.54248 309.98126L281.10498 309.98126L280.65186 312.29376Q281.41748 311.7469 282.26123 311.7469Q283.38623 311.7469 284.15186 312.52814Q284.9331 313.3094 284.9331 314.54376Q284.9331 315.7 284.26123 316.5594Q283.4331 317.59064 282.01123 317.59064Q280.83936 317.59064 280.08936 316.9344Q279.35498 316.27814 279.2456 315.2Z" fill-rule="nonzero"/><path fill="#000000" d="M305.9217 313.21564Q305.9217 311.6844 306.2342 310.7625Q306.5467 309.825 307.15607 309.325Q307.78107 308.825 308.71857 308.825Q309.40607 308.825 309.9217 309.10626Q310.45294 309.3875 310.7967 309.91876Q311.14044 310.4344 311.32794 311.1844Q311.51544 311.9344 311.51544 313.21564Q311.51544 314.73126 311.20294 315.65314Q310.90607 316.575 310.28107 317.09064Q309.6717 317.59064 308.71857 317.59064Q307.4842 317.59064 306.76544 316.7Q305.9217 315.6375 305.9217 313.21564ZM306.99982 313.21564Q306.99982 315.325 307.49982 316.02814Q307.99982 316.73126 308.71857 316.73126Q309.45294 316.73126 309.93732 316.02814Q310.43732 315.325 310.43732 313.21564Q310.43732 311.09064 309.93732 310.40314Q309.45294 309.7 308.70294 309.7Q307.9842 309.7 307.5467 310.3094Q306.99982 311.09064 306.99982 313.21564ZM316.89044 317.45L315.84357 317.45L315.84357 310.73126Q315.45294 311.09064 314.82794 311.46564Q314.21857 311.825 313.7342 311.9969L313.7342 310.98126Q314.6092 310.5594 315.26544 309.98126Q315.93732 309.3875 316.21857 308.825L316.89044 308.825L316.89044 317.45ZM319.4217 317.59064L321.90607 308.71564L322.74982 308.71564L320.26544 317.59064L319.4217 317.59064ZM322.9217 313.21564Q322.9217 311.6844 323.2342 310.7625Q323.5467 309.825 324.15607 309.325Q324.78107 308.825 325.71857 308.825Q326.40607 308.825 326.9217 309.10626Q327.45294 309.3875 327.7967 309.91876Q328.14044 310.4344 328.32794 311.1844Q328.51544 311.9344 328.51544 313.21564Q328.51544 314.73126 328.20294 315.65314Q327.90607 316.575 327.28107 317.09064Q326.6717 317.59064 325.71857 317.59064Q324.4842 317.59064 323.76544 316.7Q322.9217 315.6375 322.9217 313.21564ZM323.99982 313.21564Q323.99982 315.325 324.49982 316.02814Q324.99982 316.73126 325.71857 316.73126Q326.45294 316.73126 326.93732 316.02814Q327.43732 315.325 327.43732 313.21564Q327.43732 311.09064 326.93732 310.40314Q326.45294 309.7 325.70294 309.7Q324.9842 309.7 324.5467 310.3094Q323.99982 311.09064 323.99982 313.21564ZM329.9217 315.1844L330.9842 315.04376Q331.15607 315.9344 331.59357 316.34064Q332.03107 316.73126 332.65607 316.73126Q333.40607 316.73126 333.9217 316.21564Q334.43732 315.7 334.43732 314.9344Q334.43732 314.21564 333.95294 313.7469Q333.4842 313.2625 332.74982 313.2625Q332.45294 313.2625 331.99982 313.3875L332.12482 312.45Q332.2342 312.46564 332.2967 312.46564Q332.96857 312.46564 333.49982 312.1219Q334.0467 311.7625 334.0467 311.02814Q334.0467 310.45 333.65607 310.075Q333.26544 309.6844 332.64044 309.6844Q332.03107 309.6844 331.6092 310.075Q331.20294 310.46564 331.09357 311.23126L330.03107 311.04376Q330.21857 309.9969 330.90607 309.41876Q331.59357 308.825 332.6092 308.825Q333.31232 308.825 333.90607 309.1375Q334.49982 309.4344 334.81232 309.95Q335.12482 310.46564 335.12482 311.0594Q335.12482 311.60626 334.82794 312.075Q334.53107 312.52814 333.95294 312.79376Q334.70294 312.96564 335.12482 313.52814Q335.5467 314.075 335.5467 314.91876Q335.5467 316.04376 334.71857 316.825Q333.90607 317.60626 332.65607 317.60626Q331.53107 317.60626 330.78107 316.9344Q330.03107 316.2469 329.9217 315.1844ZM336.4217 317.59064L338.90607 308.71564L339.74982 308.71564L337.26544 317.59064L336.4217 317.59064ZM345.46857 316.4344L345.46857 317.45L339.78107 317.45Q339.78107 317.075 339.90607 316.71564Q340.12482 316.1375 340.59357 315.575Q341.07794 315.0125 341.9842 314.27814Q343.39044 313.1219 343.87482 312.45Q344.37482 311.77814 344.37482 311.1844Q344.37482 310.5594 343.9217 310.1375Q343.46857 309.7 342.74982 309.7Q341.9842 309.7 341.53107 310.15314Q341.07794 310.60626 341.06232 311.41876L339.9842 311.3094Q340.09357 310.09064 340.81232 309.46564Q341.5467 308.825 342.78107 308.825Q344.01544 308.825 344.7342 309.5125Q345.45294 310.2 345.45294 311.21564Q345.45294 311.73126 345.2342 312.23126Q345.03107 312.71564 344.53107 313.27814Q344.0467 313.825 342.9217 314.77814Q341.96857 315.575 341.68732 315.8719Q341.4217 316.15314 341.24982 316.4344L345.46857 316.4344ZM346.9217 313.21564Q346.9217 311.6844 347.2342 310.7625Q347.5467 309.825 348.15607 309.325Q348.78107 308.825 349.71857 308.825Q350.40607 308.825 350.9217 309.10626Q351.45294 309.3875 351.7967 309.91876Q352.14044 310.4344 352.32794 311.1844Q352.51544 311.9344 352.51544 313.21564Q352.51544 314.73126 352.20294 315.65314Q351.90607 316.575 351.28107 317.09064Q350.6717 317.59064 349.71857 317.59064Q348.4842 317.59064 347.76544 316.7Q346.9217 315.6375 346.9217 313.21564ZM347.99982 313.21564Q347.99982 315.325 348.49982 316.02814Q348.99982 316.73126 349.71857 316.73126Q350.45294 316.73126 350.93732 316.02814Q351.43732 315.325 351.43732 313.21564Q351.43732 311.09064 350.93732 310.40314Q350.45294 309.7 349.70294 309.7Q348.9842 309.7 348.5467 310.3094Q347.99982 311.09064 347.99982 313.21564ZM359.46857 316.4344L359.46857 317.45L353.78107 317.45Q353.78107 317.075 353.90607 316.71564Q354.12482 316.1375 354.59357 315.575Q355.07794 315.0125 355.9842 314.27814Q357.39044 313.1219 357.87482 312.45Q358.37482 311.77814 358.37482 311.1844Q358.37482 310.5594 357.9217 310.1375Q357.46857 309.7 356.74982 309.7Q355.9842 309.7 355.53107 310.15314Q355.07794 310.60626 355.06232 311.41876L353.9842 311.3094Q354.09357 310.09064 354.81232 309.46564Q355.5467 308.825 356.78107 308.825Q358.01544 308.825 358.7342 309.5125Q359.45294 310.2 359.45294 311.21564Q359.45294 311.73126 359.2342 312.23126Q359.03107 312.71564 358.53107 313.27814Q358.0467 313.825 356.9217 314.77814Q355.96857 315.575 355.68732 315.8719Q355.4217 316.15314 355.24982 316.4344L359.46857 316.4344ZM360.9217 315.2L362.03107 315.10626Q362.15607 315.91876 362.59357 316.325Q363.0467 316.73126 363.68732 316.73126Q364.43732 316.73126 364.96857 316.15314Q365.49982 315.575 365.49982 314.6375Q365.49982 313.73126 364.9842 313.21564Q364.4842 312.6844 363.65607 312.6844Q363.15607 312.6844 362.7342 312.91876Q362.32794 313.15314 362.09357 313.5125L361.1092 313.3875L361.93732 308.98126L366.21857 308.98126L366.21857 309.98126L362.78107 309.98126L362.32794 312.29376Q363.09357 311.7469 363.93732 311.7469Q365.06232 311.7469 365.82794 312.52814Q366.6092 313.3094 366.6092 314.54376Q366.6092 315.7 365.93732 316.5594Q365.1092 317.59064 363.68732 317.59064Q362.51544 317.59064 361.76544 316.9344Q361.03107 316.27814 360.9217 315.2Z" fill-rule="nonzero"/><path fill="#000000" d="M390.3665 313.21564Q390.3665 311.6844 390.679 310.7625Q390.9915 309.825 391.60086 309.325Q392.22586 308.825 393.16336 308.825Q393.85086 308.825 394.3665 309.10626Q394.89774 309.3875 395.2415 309.91876Q395.58524 310.4344 395.77274 311.1844Q395.96024 311.9344 395.96024 313.21564Q395.96024 314.73126 395.64774 315.65314Q395.35086 316.575 394.72586 317.09064Q394.1165 317.59064 393.16336 317.59064Q391.929 317.59064 391.21024 316.7Q390.3665 315.6375 390.3665 313.21564ZM391.4446 313.21564Q391.4446 315.325 391.9446 316.02814Q392.4446 316.73126 393.16336 316.73126Q393.89774 316.73126 394.3821 316.02814Q394.8821 315.325 394.8821 313.21564Q394.8821 311.09064 394.3821 310.40314Q393.89774 309.7 393.14774 309.7Q392.429 309.7 391.9915 310.3094Q391.4446 311.09064 391.4446 313.21564ZM401.33524 317.45L400.28836 317.45L400.28836 310.73126Q399.89774 311.09064 399.27274 311.46564Q398.66336 311.825 398.179 311.9969L398.179 310.98126Q399.054 310.5594 399.71024 309.98126Q400.3821 309.3875 400.66336 308.825L401.33524 308.825L401.33524 317.45ZM403.8665 317.59064L406.35086 308.71564L407.1946 308.71564L404.71024 317.59064L403.8665 317.59064ZM407.3665 313.21564Q407.3665 311.6844 407.679 310.7625Q407.9915 309.825 408.60086 309.325Q409.22586 308.825 410.16336 308.825Q410.85086 308.825 411.3665 309.10626Q411.89774 309.3875 412.2415 309.91876Q412.58524 310.4344 412.77274 311.1844Q412.96024 311.9344 412.96024 313.21564Q412.96024 314.73126 412.64774 315.65314Q412.35086 316.575 411.72586 317.09064Q411.1165 317.59064 410.16336 317.59064Q408.929 317.59064 408.21024 316.7Q407.3665 315.6375 407.3665 313.21564ZM408.4446 313.21564Q408.4446 315.325 408.9446 316.02814Q409.4446 316.73126 410.16336 316.73126Q410.89774 316.73126 411.3821 316.02814Q411.8821 315.325 411.8821 313.21564Q411.8821 311.09064 411.3821 310.40314Q410.89774 309.7 410.14774 309.7Q409.429 309.7 408.9915 310.3094Q408.4446 311.09064 408.4446 313.21564ZM414.3665 315.2L415.47586 315.10626Q415.60086 315.91876 416.03836 316.325Q416.4915 316.73126 417.1321 316.73126Q417.8821 316.73126 418.41336 316.15314Q418.9446 315.575 418.9446 314.6375Q418.9446 313.73126 418.429 313.21564Q417.929 312.6844 417.10086 312.6844Q416.60086 312.6844 416.179 312.91876Q415.77274 313.15314 415.53836 313.5125L414.554 313.3875L415.3821 308.98126L419.66336 308.98126L419.66336 309.98126L416.22586 309.98126L415.77274 312.29376Q416.53836 311.7469 417.3821 311.7469Q418.5071 311.7469 419.27274 312.52814Q420.054 313.3094 420.054 314.54376Q420.054 315.7 419.3821 316.5594Q418.554 317.59064 417.1321 317.59064Q415.96024 317.59064 415.21024 316.9344Q414.47586 316.27814 414.3665 315.2ZM420.8665 317.59064L423.35086 308.71564L424.1946 308.71564L421.71024 317.59064L420.8665 317.59064ZM429.91336 316.4344L429.91336 317.45L424.22586 317.45Q424.22586 317.075 424.35086 316.71564Q424.5696 316.1375 425.03836 315.575Q425.52274 315.0125 426.429 314.27814Q427.83524 313.1219 428.3196 312.45Q428.8196 311.77814 428.8196 311.1844Q428.8196 310.5594 428.3665 310.1375Q427.91336 309.7 427.1946 309.7Q426.429 309.7 425.97586 310.15314Q425.52274 310.60626 425.5071 311.41876L424.429 311.3094Q424.53836 310.09064 425.2571 309.46564Q425.9915 308.825 427.22586 308.825Q428.46024 308.825 429.179 309.5125Q429.89774 310.2 429.89774 311.21564Q429.89774 311.73126 429.679 312.23126Q429.47586 312.71564 428.97586 313.27814Q428.4915 313.825 427.3665 314.77814Q426.41336 315.575 426.1321 315.8719Q425.8665 316.15314 425.6946 316.4344L429.91336 316.4344ZM431.3665 313.21564Q431.3665 311.6844 431.679 310.7625Q431.9915 309.825 432.60086 309.325Q433.22586 308.825 434.16336 308.825Q434.85086 308.825 435.3665 309.10626Q435.89774 309.3875 436.2415 309.91876Q436.58524 310.4344 436.77274 311.1844Q436.96024 311.9344 436.96024 313.21564Q436.96024 314.73126 436.64774 315.65314Q436.35086 316.575 435.72586 317.09064Q435.1165 317.59064 434.16336 317.59064Q432.929 317.59064 432.21024 316.7Q431.3665 315.6375 431.3665 313.21564ZM432.4446 313.21564Q432.4446 315.325 432.9446 316.02814Q433.4446 316.73126 434.16336 316.73126Q434.89774 316.73126 435.3821 316.02814Q435.8821 315.325 435.8821 313.21564Q435.8821 311.09064 435.3821 310.40314Q434.89774 309.7 434.14774 309.7Q433.429 309.7 432.9915 310.3094Q432.4446 311.09064 432.4446 313.21564ZM443.91336 316.4344L443.91336 317.45L438.22586 317.45Q438.22586 317.075 438.35086 316.71564Q438.5696 316.1375 439.03836 315.575Q439.52274 315.0125 440.429 314.27814Q441.83524 313.1219 442.3196 312.45Q442.8196 311.77814 442.8196 311.1844Q442.8196 310.5594 442.3665 310.1375Q441.91336 309.7 441.1946 309.7Q440.429 309.7 439.97586 310.15314Q439.52274 310.60626 439.5071 311.41876L438.429 311.3094Q438.53836 310.09064 439.2571 309.46564Q439.9915 308.825 441.22586 308.825Q442.46024 308.825 443.179 309.5125Q443.89774 310.2 443.89774 311.21564Q443.89774 311.73126 443.679 312.23126Q443.47586 312.71564 442.97586 313.27814Q442.4915 313.825 441.3665 314.77814Q440.41336 315.575 440.1321 315.8719Q439.8665 316.15314 439.6946 316.4344L443.91336 316.4344ZM445.3665 315.2L446.47586 315.10626Q446.60086 315.91876 447.03836 316.325Q447.4915 316.73126 448.1321 316.73126Q448.8821 316.73126 449.41336 316.15314Q449.9446 315.575 449.9446 314.6375Q449.9446 313.73126 449.429 313.21564Q448.929 312.6844 448.10086 312.6844Q447.60086 312.6844 447.179 312.91876Q446.77274 313.15314 446.53836 313.5125L445.554 313.3875L446.3821 308.98126L450.66336 308.98126L450.66336 309.98126L447.22586 309.98126L446.77274 312.29376Q447.53836 311.7469 448.3821 311.7469Q449.5071 311.7469 450.27274 312.52814Q451.054 313.3094 451.054 314.54376Q451.054 315.7 450.3821 316.5594Q449.554 317.59064 448.1321 317.59064Q446.96024 317.59064 446.21024 316.9344Q445.47586 316.27814 445.3665 315.2Z" fill-rule="nonzero"/><path fill="#000000" d="M474.81125 313.21564Q474.81125 311.6844 475.12375 310.7625Q475.43625 309.825 476.04562 309.325Q476.67062 308.825 477.60812 308.825Q478.29562 308.825 478.81125 309.10626Q479.3425 309.3875 479.68625 309.91876Q480.03 310.4344 480.2175 311.1844Q480.405 311.9344 480.405 313.21564Q480.405 314.73126 480.0925 315.65314Q479.79562 316.575 479.17062 317.09064Q478.56125 317.59064 477.60812 317.59064Q476.37375 317.59064 475.655 316.7Q474.81125 315.6375 474.81125 313.21564ZM475.88937 313.21564Q475.88937 315.325 476.38937 316.02814Q476.88937 316.73126 477.60812 316.73126Q478.3425 316.73126 478.82687 316.02814Q479.32687 315.325 479.32687 313.21564Q479.32687 311.09064 478.82687 310.40314Q478.3425 309.7 477.5925 309.7Q476.87375 309.7 476.43625 310.3094Q475.88937 311.09064 475.88937 313.21564ZM485.78 317.45L484.73312 317.45L484.73312 310.73126Q484.3425 311.09064 483.7175 311.46564Q483.10812 311.825 482.62375 311.9969L482.62375 310.98126Q483.49875 310.5594 484.155 309.98126Q484.82687 309.3875 485.10812 308.825L485.78 308.825L485.78 317.45ZM488.31125 317.59064L490.79562 308.71564L491.63937 308.71564L489.155 317.59064L488.31125 317.59064ZM491.81125 313.21564Q491.81125 311.6844 492.12375 310.7625Q492.43625 309.825 493.04562 309.325Q493.67062 308.825 494.60812 308.825Q495.29562 308.825 495.81125 309.10626Q496.3425 309.3875 496.68625 309.91876Q497.03 310.4344 497.2175 311.1844Q497.405 311.9344 497.405 313.21564Q497.405 314.73126 497.0925 315.65314Q496.79562 316.575 496.17062 317.09064Q495.56125 317.59064 494.60812 317.59064Q493.37375 317.59064 492.655 316.7Q491.81125 315.6375 491.81125 313.21564ZM492.88937 313.21564Q492.88937 315.325 493.38937 316.02814Q493.88937 316.73126 494.60812 316.73126Q495.3425 316.73126 495.82687 316.02814Q496.32687 315.325 496.32687 313.21564Q496.32687 311.09064 495.82687 310.40314Q495.3425 309.7 494.5925 309.7Q493.87375 309.7 493.43625 310.3094Q492.88937 311.09064 492.88937 313.21564ZM498.87375 309.98126L498.87375 308.96564L504.43625 308.96564L504.43625 309.79376Q503.62375 310.66876 502.81125 312.1219Q502.01437 313.5594 501.57687 315.09064Q501.24875 316.16876 501.17062 317.45L500.07687 317.45Q500.0925 316.4344 500.4675 314.9969Q500.85812 313.5594 501.56125 312.23126Q502.28 310.90314 503.0925 309.98126L498.87375 309.98126ZM505.31125 317.59064L507.79562 308.71564L508.63937 308.71564L506.155 317.59064L505.31125 317.59064ZM514.35815 316.4344L514.35815 317.45L508.67062 317.45Q508.67062 317.075 508.79562 316.71564Q509.01437 316.1375 509.48312 315.575Q509.9675 315.0125 510.87375 314.27814Q512.28 313.1219 512.7644 312.45Q513.2644 311.77814 513.2644 311.1844Q513.2644 310.5594 512.8113 310.1375Q512.35815 309.7 511.63937 309.7Q510.87375 309.7 510.42062 310.15314Q509.9675 310.60626 509.95187 311.41876L508.87375 311.3094Q508.98312 310.09064 509.70187 309.46564Q510.43625 308.825 511.67062 308.825Q512.905 308.825 513.6238 309.5125Q514.3425 310.2 514.3425 311.21564Q514.3425 311.73126 514.1238 312.23126Q513.92065 312.71564 513.42065 313.27814Q512.9363 313.825 511.81125 314.77814Q510.85812 315.575 510.57687 315.8719Q510.31125 316.15314 510.13937 316.4344L514.35815 316.4344ZM515.8113 313.21564Q515.8113 311.6844 516.1238 310.7625Q516.4363 309.825 517.04565 309.325Q517.67065 308.825 518.60815 308.825Q519.29565 308.825 519.8113 309.10626Q520.3425 309.3875 520.6863 309.91876Q521.03 310.4344 521.2175 311.1844Q521.405 311.9344 521.405 313.21564Q521.405 314.73126 521.0925 315.65314Q520.79565 316.575 520.17065 317.09064Q519.5613 317.59064 518.60815 317.59064Q517.3738 317.59064 516.655 316.7Q515.8113 315.6375 515.8113 313.21564ZM516.8894 313.21564Q516.8894 315.325 517.3894 316.02814Q517.8894 316.73126 518.60815 316.73126Q519.3425 316.73126 519.8269 316.02814Q520.3269 315.325 520.3269 313.21564Q520.3269 311.09064 519.8269 310.40314Q519.3425 309.7 518.5925 309.7Q517.8738 309.7 517.4363 310.3094Q516.8894 311.09064 516.8894 313.21564ZM528.35815 316.4344L528.35815 317.45L522.67065 317.45Q522.67065 317.075 522.79565 316.71564Q523.0144 316.1375 523.48315 315.575Q523.9675 315.0125 524.8738 314.27814Q526.28 313.1219 526.7644 312.45Q527.2644 311.77814 527.2644 311.1844Q527.2644 310.5594 526.8113 310.1375Q526.35815 309.7 525.6394 309.7Q524.8738 309.7 524.42065 310.15314Q523.9675 310.60626 523.9519 311.41876L522.8738 311.3094Q522.98315 310.09064 523.7019 309.46564Q524.4363 308.825 525.67065 308.825Q526.905 308.825 527.6238 309.5125Q528.3425 310.2 528.3425 311.21564Q528.3425 311.73126 528.1238 312.23126Q527.92065 312.71564 527.42065 313.27814Q526.9363 313.825 525.8113 314.77814Q524.85815 315.575 524.5769 315.8719Q524.3113 316.15314 524.1394 316.4344L528.35815 316.4344ZM529.8113 315.2L530.92065 315.10626Q531.04565 315.91876 531.48315 316.325Q531.9363 316.73126 532.5769 316.73126Q533.3269 316.73126 533.85815 316.15314Q534.3894 315.575 534.3894 314.6375Q534.3894 313.73126 533.8738 313.21564Q533.3738 312.6844 532.54565 312.6844Q532.04565 312.6844 531.6238 312.91876Q531.2175 313.15314 530.98315 313.5125L529.9988 313.3875L530.8269 308.98126L535.10815 308.98126L535.10815 309.98126L531.67065 309.98126L531.2175 312.29376Q531.98315 311.7469 532.8269 311.7469Q533.9519 311.7469 534.7175 312.52814Q535.4988 313.3094 535.4988 314.54376Q535.4988 315.7 534.8269 316.5594Q533.9988 317.59064 532.5769 317.59064Q531.405 317.59064 530.655 316.9344Q529.92065 316.27814 529.8113 315.2Z" fill-rule="nonzero"/></svg>