<svg version="1.1" viewBox="0.0 0.0 600.0 371.0" fill="none" stroke="none" stroke-linecap="square" stroke-miterlimit="10" width="600" height="371" xmlns:xlink="http://www.w3.org/1999/xlink" xmlns="http://www.w3.org/2000/svg"><path fill="#ffffff" d="M0 0L600.0 0L600.0 371.0L0 371.0L0 0Z" fill-rule="nonzero"/><path stroke="#cccccc" stroke-width="1.0" stroke-linecap="butt" d="M84.5 51.5L84.5 300.5" fill-rule="nonzero"/><path stroke="#cccccc" stroke-width="1.0" stroke-linecap="butt" d="M168.5 51.5L168.5 300.5" fill-rule="nonzero"/><path stroke="#cccccc" stroke-width="1.0" stroke-linecap="butt" d="M253.5 51.5L253.5 300.5" fill-rule="nonzero"/><path stroke="#cccccc" stroke-width="1.0" stroke-linecap="butt" d="M334.5 51.5L334.5 300.5" fill-rule="nonzero"/><path stroke="#cccccc" stroke-width="1.0" stroke-linecap="butt" d="M418.5 51.5L418.5 300.5" fill-rule="nonzero"/><path stroke="#cccccc" stroke-width="1.0" stroke-linecap="butt" d="M502.5 51.5L502.5 300.5" fill-rule="nonzero"/><path stroke="#cccccc" stroke-width="1.0" stroke-linecap="butt" d="M80.5 300.5L581.5 300.5" fill-rule="nonzero"/><path stroke="#cccccc" stroke-width="1.0" stroke-linecap="butt" d="M80.5 217.5L581.5 217.5" fill-rule="nonzero"/><path stroke="#cccccc" stroke-width="1.0" stroke-linecap="butt" d="M80.5 134.5L581.5 134.5" fill-rule="nonzero"/><path stroke="#cccccc" stroke-width="1.0" stroke-linecap="butt" d="M80.5 51.5L581.5 51.5" fill-rule="nonzero"/><clipPath id="id_0"><path d="M80.55 51.916668L581.45 51.916668L581.45 300.45L80.55 300.45L80.55 51.916668Z" clip-rule="nonzero"/></clipPath><path stroke="#4285f4" stroke-width="2.0" stroke-linecap="butt" clip-path="url(#id_0)" d="M80.55 56.887333L90.20923 61.858L99.868454 67.65711L113.66736 77.59844L123.326584 90.02511L132.98581 100.79489L142.64503 99.138L152.30428 102.451775L161.9635 114.05L171.62273 119.02067L182.66185 119.84911L190.94118 130.6189L200.60042 130.6189L210.25964 134.76111L222.67865 139.73178L229.5781 135.58955L239.23734 142.21712L248.89656 142.21712L258.5558 145.53088L269.5949 156.30066L279.25412 160.44289L288.91336 160.44289L297.1927 167.07045L306.85193 170.38422L316.51117 172.0411L326.17038 174.52644L337.2095 179.49712L345.48883 189.43845L357.90784 189.43845L367.56708 194.40912L374.46652 194.40912L384.12576 194.40912L393.78497 206.00734L403.4442 204.35045L413.10345 207.66422L424.14255 204.35045L432.4219 215.94867L442.08112 223.40466L451.74036 220.91933L462.77948 225.89L472.4387 234.17444L483.4778 228.37534L491.75717 228.37534L501.41638 232.51756L511.07562 240.802L520.73486 245.77266L531.774 245.77266L541.43317 245.77266L551.0924 255.714L560.75165 260.68466L564.8913 264.82687L581.45 261.51312" fill-rule="nonzero"/><path stroke="#ea4335" stroke-width="2.0" stroke-linecap="butt" clip-path="url(#id_0)" d="M80.55 95.82422L90.20923 95.82422L99.868454 95.82422L113.66736 95.82422L123.326584 95.82422L132.98581 95.82422L142.64503 133.10422L152.30428 133.10422L161.9635 133.10422L171.62273 133.10422L182.66185 133.10422L190.94118 133.10422L200.60042 133.10422L210.25964 133.10422L222.67865 168.72734L229.5781 168.72734L239.23734 168.72734L248.89656 168.72734L258.5558 168.72734L269.5949 168.72734L279.25412 168.72734L288.91336 168.72734L297.1927 168.72734L306.85193 168.72734L316.51117 201.86511L326.17038 201.86511L337.2095 201.86511L345.48883 201.86511L357.90784 201.86511L367.56708 201.86511L374.46652 201.86511L384.12576 201.86511L393.78497 201.86511L403.4442 234.17444L413.10345 234.17444L424.14255 234.17444L432.4219 234.17444L442.08112 234.17444L451.74036 234.17444L462.77948 234.17444L472.4387 234.17444L483.4778 234.17444L491.75717 234.17444L501.41638 234.17444L511.07562 234.17444L520.73486 263.99844L531.774 263.99844L541.43317 263.99844L551.0924 263.99844L560.75165 263.99844L564.8913 263.99844L581.45 263.99844" fill-rule="nonzero"/><path fill="#000000" fill-opacity="0.0" clip-path="url(#id_0)" d="M83.55 56.887333C83.55 58.54419 82.206856 59.887333 80.55 59.887333C78.89314 59.887333 77.55 58.54419 77.55 56.887333C77.55 55.23048 78.89314 53.887333 80.55 53.887333C82.206856 53.887333 83.55 55.23048 83.55 56.887333Z" fill-rule="nonzero"/><path fill="#000000" fill-opacity="0.0" clip-path="url(#id_0)" d="M93.20923 61.858C93.20923 63.514854 91.86608 64.858 90.20923 64.858C88.552376 64.858 87.20923 63.514854 87.20923 61.858C87.20923 60.201145 88.552376 58.858 90.20923 58.858C91.86608 58.858 93.20923 60.201145 93.20923 61.858Z" fill-rule="nonzero"/><path fill="#000000" fill-opacity="0.0" clip-path="url(#id_0)" d="M102.868454 67.65711C102.868454 69.313965 101.525314 70.65711 99.868454 70.65711C98.2116 70.65711 96.868454 69.313965 96.868454 67.65711C96.868454 66.00026 98.2116 64.65711 99.868454 64.65711C101.525314 64.65711 102.868454 66.00026 102.868454 67.65711Z" fill-rule="nonzero"/><path fill="#000000" fill-opacity="0.0" clip-path="url(#id_0)" d="M116.66736 77.59844C116.66736 79.2553 115.32421 80.59844 113.66736 80.59844C112.0105 80.59844 110.66736 79.2553 110.66736 77.59844C110.66736 75.94159 112.0105 74.59844 113.66736 74.59844C115.32421 74.59844 116.66736 75.94159 116.66736 77.59844Z" fill-rule="nonzero"/><path fill="#000000" fill-opacity="0.0" clip-path="url(#id_0)" d="M126.326584 90.02511C126.326584 91.68197 124.98344 93.02511 123.326584 93.02511C121.66973 93.02511 120.326584 91.68197 120.326584 90.02511C120.326584 88.368256 121.66973 87.02511 123.326584 87.02511C124.98344 87.02511 126.326584 88.368256 126.326584 90.02511Z" fill-rule="nonzero"/><path fill="#000000" fill-opacity="0.0" clip-path="url(#id_0)" d="M135.98581 100.79489C135.98581 102.451744 134.64267 103.79489 132.98581 103.79489C131.32896 103.79489 129.98581 102.451744 129.98581 100.79489C129.98581 99.13803 131.32896 97.79489 132.98581 97.79489C134.64267 97.79489 135.98581 99.13803 135.98581 100.79489Z" fill-rule="nonzero"/><path fill="#000000" fill-opacity="0.0" clip-path="url(#id_0)" d="M145.64503 99.138C145.64503 100.79485 144.3019 102.138 142.64503 102.138C140.98819 102.138 139.64503 100.79485 139.64503 99.138C139.64503 97.48115 140.98819 96.138 142.64503 96.138C144.3019 96.138 145.64503 97.48115 145.64503 99.138Z" fill-rule="nonzero"/><path fill="#000000" fill-opacity="0.0" clip-path="url(#id_0)" d="M155.30428 102.451775C155.30428 104.108635 153.96112 105.451775 152.30428 105.451775C150.64742 105.451775 149.30428 104.108635 149.30428 102.451775C149.30428 100.79492 150.64742 99.451775 152.30428 99.451775C153.96112 99.451775 155.30428 100.79492 155.30428 102.451775Z" fill-rule="nonzero"/><path fill="#000000" fill-opacity="0.0" clip-path="url(#id_0)" d="M164.9635 114.05C164.9635 115.706856 163.62035 117.05 161.9635 117.05C160.30664 117.05 158.9635 115.706856 158.9635 114.05C158.9635 112.39314 160.30664 111.05 161.9635 111.05C163.62035 111.05 164.9635 112.39314 164.9635 114.05Z" fill-rule="nonzero"/><path fill="#000000" fill-opacity="0.0" clip-path="url(#id_0)" d="M174.62273 119.02067C174.62273 120.67752 173.27959 122.02067 171.62273 122.02067C169.96587 122.02067 168.62273 120.67752 168.62273 119.02067C168.62273 117.363815 169.96587 116.02067 171.62273 116.02067C173.27959 116.02067 174.62273 117.363815 174.62273 119.02067Z" fill-rule="nonzero"/><path fill="#000000" fill-opacity="0.0" clip-path="url(#id_0)" d="M185.66185 119.84911C185.66185 121.50597 184.3187 122.84911 182.66185 122.84911C181.00499 122.84911 179.66185 121.50597 179.66185 119.84911C179.66185 118.19225 181.00499 116.84911 182.66185 116.84911C184.3187 116.84911 185.66185 118.19225 185.66185 119.84911Z" fill-rule="nonzero"/><path fill="#000000" fill-opacity="0.0" clip-path="url(#id_0)" d="M193.94118 130.6189C193.94118 132.27574 192.59804 133.6189 190.94118 133.6189C189.28433 133.6189 187.94118 132.27574 187.94118 130.6189C187.94118 128.96204 189.28433 127.61889 190.94118 127.61889C192.59804 127.61889 193.94118 128.96204 193.94118 130.6189Z" fill-rule="nonzero"/><path fill="#000000" fill-opacity="0.0" clip-path="url(#id_0)" d="M203.60042 130.6189C203.60042 132.27574 202.25726 133.6189 200.60042 133.6189C198.94356 133.6189 197.60042 132.27574 197.60042 130.6189C197.60042 128.96204 198.94356 127.61889 200.60042 127.61889C202.25726 127.61889 203.60042 128.96204 203.60042 130.6189Z" fill-rule="nonzero"/><path fill="#000000" fill-opacity="0.0" clip-path="url(#id_0)" d="M213.25964 134.76111C213.25964 136.41797 211.91649 137.76111 210.25964 137.76111C208.60278 137.76111 207.25964 136.41797 207.25964 134.76111C207.25964 133.10426 208.60278 131.76111 210.25964 131.76111C211.91649 131.76111 213.25964 133.10426 213.25964 134.76111Z" fill-rule="nonzero"/><path fill="#000000" fill-opacity="0.0" clip-path="url(#id_0)" d="M225.67865 139.73178C225.67865 141.38863 224.33551 142.73178 222.67865 142.73178C221.02179 142.73178 219.67865 141.38863 219.67865 139.73178C219.67865 138.07492 221.02179 136.73178 222.67865 136.73178C224.33551 136.73178 225.67865 138.07492 225.67865 139.73178Z" fill-rule="nonzero"/><path fill="#000000" fill-opacity="0.0" clip-path="url(#id_0)" d="M232.5781 135.58955C232.5781 137.24641 231.23495 138.58955 229.5781 138.58955C227.92125 138.58955 226.5781 137.24641 226.5781 135.58955C226.5781 133.93271 227.92125 132.58955 229.5781 132.58955C231.23495 132.58955 232.5781 133.93271 232.5781 135.58955Z" fill-rule="nonzero"/><path fill="#000000" fill-opacity="0.0" clip-path="url(#id_0)" d="M242.23734 142.21712C242.23734 143.87396 240.89418 145.21712 239.23734 145.21712C237.58047 145.21712 236.23734 143.87396 236.23734 142.21712C236.23734 140.56026 237.58047 139.21712 239.23734 139.21712C240.89418 139.21712 242.23734 140.56026 242.23734 142.21712Z" fill-rule="nonzero"/><path fill="#000000" fill-opacity="0.0" clip-path="url(#id_0)" d="M251.89656 142.21712C251.89656 143.87396 250.5534 145.21712 248.89656 145.21712C247.2397 145.21712 245.89656 143.87396 245.89656 142.21712C245.89656 140.56026 247.2397 139.21712 248.89656 139.21712C250.5534 139.21712 251.89656 140.56026 251.89656 142.21712Z" fill-rule="nonzero"/><path fill="#000000" fill-opacity="0.0" clip-path="url(#id_0)" d="M261.5558 145.53088C261.5558 147.18774 260.21265 148.53088 258.5558 148.53088C256.89893 148.53088 255.55579 147.18774 255.55579 145.53088C255.55579 143.87404 256.89893 142.53088 258.5558 142.53088C260.21265 142.53088 261.5558 143.87404 261.5558 145.53088Z" fill-rule="nonzero"/><path fill="#000000" fill-opacity="0.0" clip-path="url(#id_0)" d="M272.5949 156.30066C272.5949 157.95752 271.25177 159.30066 269.5949 159.30066C267.93805 159.30066 266.5949 157.95752 266.5949 156.30066C266.5949 154.64381 267.93805 153.30066 269.5949 153.30066C271.25177 153.30066 272.5949 154.64381 272.5949 156.30066Z" fill-rule="nonzero"/><path fill="#000000" fill-opacity="0.0" clip-path="url(#id_0)" d="M282.25412 160.44289C282.25412 162.09975 280.91098 163.44289 279.25412 163.44289C277.5973 163.44289 276.25412 162.09975 276.25412 160.44289C276.25412 158.78604 277.5973 157.44289 279.25412 157.44289C280.91098 157.44289 282.25412 158.78604 282.25412 160.44289Z" fill-rule="nonzero"/><path fill="#000000" fill-opacity="0.0" clip-path="url(#id_0)" d="M291.91336 160.44289C291.91336 162.09975 290.57022 163.44289 288.91336 163.44289C287.2565 163.44289 285.91336 162.09975 285.91336 160.44289C285.91336 158.78604 287.2565 157.44289 288.91336 157.44289C290.57022 157.44289 291.91336 158.78604 291.91336 160.44289Z" fill-rule="nonzero"/><path fill="#000000" fill-opacity="0.0" clip-path="url(#id_0)" d="M300.1927 167.07045C300.1927 168.7273 298.84955 170.07045 297.1927 170.07045C295.53586 170.07045 294.1927 168.7273 294.1927 167.07045C294.1927 165.41359 295.53586 164.07045 297.1927 164.07045C298.84955 164.07045 300.1927 165.41359 300.1927 167.07045Z" fill-rule="nonzero"/><path fill="#000000" fill-opacity="0.0" clip-path="url(#id_0)" d="M309.85193 170.38422C309.85193 172.04108 308.5088 173.38422 306.85193 173.38422C305.19507 173.38422 303.85193 172.04108 303.85193 170.38422C303.85193 168.72737 305.19507 167.38422 306.85193 167.38422C308.5088 167.38422 309.85193 168.72737 309.85193 170.38422Z" fill-rule="nonzero"/><path fill="#000000" fill-opacity="0.0" clip-path="url(#id_0)" d="M319.51117 172.0411C319.51117 173.69797 318.168 175.0411 316.51117 175.0411C314.8543 175.0411 313.51117 173.69797 313.51117 172.0411C313.51117 170.38426 314.8543 169.0411 316.51117 169.0411C318.168 169.0411 319.51117 170.38426 319.51117 172.0411Z" fill-rule="nonzero"/><path fill="#000000" fill-opacity="0.0" clip-path="url(#id_0)" d="M329.17038 174.52644C329.17038 176.1833 327.82724 177.52644 326.17038 177.52644C324.51352 177.52644 323.17038 176.1833 323.17038 174.52644C323.17038 172.86958 324.51352 171.52644 326.17038 171.52644C327.82724 171.52644 329.17038 172.86958 329.17038 174.52644Z" fill-rule="nonzero"/><path fill="#000000" fill-opacity="0.0" clip-path="url(#id_0)" d="M340.2095 179.49712C340.2095 181.15396 338.86636 182.49712 337.2095 182.49712C335.55264 182.49712 334.2095 181.15396 334.2095 179.49712C334.2095 177.84026 335.55264 176.49712 337.2095 176.49712C338.86636 176.49712 340.2095 177.84026 340.2095 179.49712Z" fill-rule="nonzero"/><path fill="#000000" fill-opacity="0.0" clip-path="url(#id_0)" d="M348.48883 189.43845C348.48883 191.09529 347.1457 192.43845 345.48883 192.43845C343.832 192.43845 342.48883 191.09529 342.48883 189.43845C342.48883 187.78159 343.832 186.43845 345.48883 186.43845C347.1457 186.43845 348.48883 187.78159 348.48883 189.43845Z" fill-rule="nonzero"/><path fill="#000000" fill-opacity="0.0" clip-path="url(#id_0)" d="M360.90784 189.43845C360.90784 191.09529 359.5647 192.43845 357.90784 192.43845C356.251 192.43845 354.90784 191.09529 354.90784 189.43845C354.90784 187.78159 356.251 186.43845 357.90784 186.43845C359.5647 186.43845 360.90784 187.78159 360.90784 189.43845Z" fill-rule="nonzero"/><path fill="#000000" fill-opacity="0.0" clip-path="url(#id_0)" d="M370.56708 194.40912C370.56708 196.06596 369.22394 197.40912 367.56708 197.40912C365.91022 197.40912 364.56708 196.06596 364.56708 194.40912C364.56708 192.75226 365.91022 191.40912 367.56708 191.40912C369.22394 191.40912 370.56708 192.75226 370.56708 194.40912Z" fill-rule="nonzero"/><path fill="#000000" fill-opacity="0.0" clip-path="url(#id_0)" d="M377.46652 194.40912C377.46652 196.06596 376.12338 197.40912 374.46652 197.40912C372.80966 197.40912 371.46652 196.06596 371.46652 194.40912C371.46652 192.75226 372.80966 191.40912 374.46652 191.40912C376.12338 191.40912 377.46652 192.75226 377.46652 194.40912Z" fill-rule="nonzero"/><path fill="#000000" fill-opacity="0.0" clip-path="url(#id_0)" d="M387.12576 194.40912C387.12576 196.06596 385.78262 197.40912 384.12576 197.40912C382.4689 197.40912 381.12576 196.06596 381.12576 194.40912C381.12576 192.75226 382.4689 191.40912 384.12576 191.40912C385.78262 191.40912 387.12576 192.75226 387.12576 194.40912Z" fill-rule="nonzero"/><path fill="#000000" fill-opacity="0.0" clip-path="url(#id_0)" d="M396.78497 206.00734C396.78497 207.66418 395.44183 209.00734 393.78497 209.00734C392.12814 209.00734 390.78497 207.66418 390.78497 206.00734C390.78497 204.35048 392.12814 203.00734 393.78497 203.00734C395.44183 203.00734 396.78497 204.35048 396.78497 206.00734Z" fill-rule="nonzero"/><path fill="#000000" fill-opacity="0.0" clip-path="url(#id_0)" d="M406.4442 204.35045C406.4442 206.0073 405.10107 207.35045 403.4442 207.35045C401.78735 207.35045 400.4442 206.0073 400.4442 204.35045C400.4442 202.69359 401.78735 201.35045 403.4442 201.35045C405.10107 201.35045 406.4442 202.69359 406.4442 204.35045Z" fill-rule="nonzero"/><path fill="#000000" fill-opacity="0.0" clip-path="url(#id_0)" d="M416.10345 207.66422C416.10345 209.32108 414.76028 210.66422 413.10345 210.66422C411.4466 210.66422 410.10345 209.32108 410.10345 207.66422C410.10345 206.00737 411.4466 204.66422 413.10345 204.66422C414.76028 204.66422 416.10345 206.00737 416.10345 207.66422Z" fill-rule="nonzero"/><path fill="#000000" fill-opacity="0.0" clip-path="url(#id_0)" d="M427.14255 204.35045C427.14255 206.0073 425.7994 207.35045 424.14255 207.35045C422.48572 207.35045 421.14255 206.0073 421.14255 204.35045C421.14255 202.69359 422.48572 201.35045 424.14255 201.35045C425.7994 201.35045 427.14255 202.69359 427.14255 204.35045Z" fill-rule="nonzero"/><path fill="#000000" fill-opacity="0.0" clip-path="url(#id_0)" d="M435.4219 215.94867C435.4219 217.60551 434.07877 218.94867 432.4219 218.94867C430.76505 218.94867 429.4219 217.60551 429.4219 215.94867C429.4219 214.29181 430.76505 212.94867 432.4219 212.94867C434.07877 212.94867 435.4219 214.29181 435.4219 215.94867Z" fill-rule="nonzero"/><path fill="#000000" fill-opacity="0.0" clip-path="url(#id_0)" d="M445.08112 223.40466C445.08112 225.06152 443.73798 226.40466 442.08112 226.40466C440.4243 226.40466 439.08112 225.06152 439.08112 223.40466C439.08112 221.74782 440.4243 220.40466 442.08112 220.40466C443.73798 220.40466 445.08112 221.74782 445.08112 223.40466Z" fill-rule="nonzero"/><path fill="#000000" fill-opacity="0.0" clip-path="url(#id_0)" d="M454.74036 220.91933C454.74036 222.57619 453.39722 223.91933 451.74036 223.91933C450.0835 223.91933 448.74036 222.57619 448.74036 220.91933C448.74036 219.26248 450.0835 217.91933 451.74036 217.91933C453.39722 217.91933 454.74036 219.26248 454.74036 220.91933Z" fill-rule="nonzero"/><path fill="#000000" fill-opacity="0.0" clip-path="url(#id_0)" d="M465.77948 225.89C465.77948 227.54686 464.43634 228.89 462.77948 228.89C461.12262 228.89 459.77948 227.54686 459.77948 225.89C459.77948 224.23314 461.12262 222.89 462.77948 222.89C464.43634 222.89 465.77948 224.23314 465.77948 225.89Z" fill-rule="nonzero"/><path fill="#000000" fill-opacity="0.0" clip-path="url(#id_0)" d="M475.4387 234.17444C475.4387 235.8313 474.09555 237.17444 472.4387 237.17444C470.78186 237.17444 469.4387 235.8313 469.4387 234.17444C469.4387 232.5176 470.78186 231.17444 472.4387 231.17444C474.09555 231.17444 475.4387 232.5176 475.4387 234.17444Z" fill-rule="nonzero"/><path fill="#000000" fill-opacity="0.0" clip-path="url(#id_0)" d="M486.4778 228.37534C486.4778 230.03218 485.13467 231.37534 483.4778 231.37534C481.82098 231.37534 480.4778 230.03218 480.4778 228.37534C480.4778 226.71848 481.82098 225.37534 483.4778 225.37534C485.13467 225.37534 486.4778 226.71848 486.4778 228.37534Z" fill-rule="nonzero"/><path fill="#000000" fill-opacity="0.0" clip-path="url(#id_0)" d="M494.75717 228.37534C494.75717 230.03218 493.41403 231.37534 491.75717 231.37534C490.1003 231.37534 488.75717 230.03218 488.75717 228.37534C488.75717 226.71848 490.1003 225.37534 491.75717 225.37534C493.41403 225.37534 494.75717 226.71848 494.75717 228.37534Z" fill-rule="nonzero"/><path fill="#000000" fill-opacity="0.0" clip-path="url(#id_0)" d="M504.41638 232.51756C504.41638 234.17441 503.07324 235.51756 501.41638 235.51756C499.75955 235.51756 498.41638 234.17441 498.41638 232.51756C498.41638 230.8607 499.75955 229.51756 501.41638 229.51756C503.07324 229.51756 504.41638 230.8607 504.41638 232.51756Z" fill-rule="nonzero"/><path fill="#000000" fill-opacity="0.0" clip-path="url(#id_0)" d="M514.0756 240.802C514.0756 242.45885 512.7325 243.802 511.07562 243.802C509.41876 243.802 508.07562 242.45885 508.07562 240.802C508.07562 239.14514 509.41876 237.802 511.07562 237.802C512.7325 237.802 514.0756 239.14514 514.0756 240.802Z" fill-rule="nonzero"/><path fill="#000000" fill-opacity="0.0" clip-path="url(#id_0)" d="M523.73486 245.77266C523.73486 247.42952 522.3917 248.77266 520.73486 248.77266C519.078 248.77266 517.73486 247.42952 517.73486 245.77266C517.73486 244.11581 519.078 242.77266 520.73486 242.77266C522.3917 242.77266 523.73486 244.11581 523.73486 245.77266Z" fill-rule="nonzero"/><path fill="#000000" fill-opacity="0.0" clip-path="url(#id_0)" d="M534.774 245.77266C534.774 247.42952 533.43085 248.77266 531.774 248.77266C530.1171 248.77266 528.774 247.42952 528.774 245.77266C528.774 244.11581 530.1171 242.77266 531.774 242.77266C533.43085 242.77266 534.774 244.11581 534.774 245.77266Z" fill-rule="nonzero"/><path fill="#000000" fill-opacity="0.0" clip-path="url(#id_0)" d="M544.43317 245.77266C544.43317 247.42952 543.09 248.77266 541.43317 248.77266C539.77637 248.77266 538.43317 247.42952 538.43317 245.77266C538.43317 244.11581 539.77637 242.77266 541.43317 242.77266C543.09 242.77266 544.43317 244.11581 544.43317 245.77266Z" fill-rule="nonzero"/><path fill="#000000" fill-opacity="0.0" clip-path="url(#id_0)" d="M554.0924 255.714C554.0924 257.37085 552.74927 258.714 551.0924 258.714C549.43555 258.714 548.0924 257.37085 548.0924 255.714C548.0924 254.05714 549.43555 252.714 551.0924 252.714C552.74927 252.714 554.0924 254.05714 554.0924 255.714Z" fill-rule="nonzero"/><path fill="#000000" fill-opacity="0.0" clip-path="url(#id_0)" d="M563.75165 260.68466C563.75165 262.34152 562.4085 263.68466 560.75165 263.68466C559.0948 263.68466 557.75165 262.34152 557.75165 260.68466C557.75165 259.0278 559.0948 257.68466 560.75165 257.68466C562.4085 257.68466 563.75165 259.0278 563.75165 260.68466Z" fill-rule="nonzero"/><path fill="#000000" fill-opacity="0.0" clip-path="url(#id_0)" d="M567.8913 264.82687C567.8913 266.48373 566.54816 267.82687 564.8913 267.82687C563.2345 267.82687 561.8913 266.48373 561.8913 264.82687C561.8913 263.17004 563.2345 261.82687 564.8913 261.82687C566.54816 261.82687 567.8913 263.17004 567.8913 264.82687Z" fill-rule="nonzero"/><path fill="#000000" fill-opacity="0.0" clip-path="url(#id_0)" d="M584.45 261.51312C584.45 263.16995 583.1069 264.51312 581.45 264.51312C579.79315 264.51312 578.45 263.16995 578.45 261.51312C578.45 259.85626 579.79315 258.51312 581.45 258.51312C583.1069 258.51312 584.45 259.85626 584.45 261.51312Z" fill-rule="nonzero"/><path fill="#000000" fill-opacity="0.0" clip-path="url(#id_0)" d="M83.55 95.82422C83.55 97.48108 82.206856 98.82422 80.55 98.82422C78.89314 98.82422 77.55 97.48108 77.55 95.82422C77.55 94.167366 78.89314 92.82422 80.55 92.82422C82.206856 92.82422 83.55 94.167366 83.55 95.82422Z" fill-rule="nonzero"/><path fill="#000000" fill-opacity="0.0" clip-path="url(#id_0)" d="M93.20923 95.82422C93.20923 97.48108 91.86608 98.82422 90.20923 98.82422C88.552376 98.82422 87.20923 97.48108 87.20923 95.82422C87.20923 94.167366 88.552376 92.82422 90.20923 92.82422C91.86608 92.82422 93.20923 94.167366 93.20923 95.82422Z" fill-rule="nonzero"/><path fill="#000000" fill-opacity="0.0" clip-path="url(#id_0)" d="M102.868454 95.82422C102.868454 97.48108 101.525314 98.82422 99.868454 98.82422C98.2116 98.82422 96.868454 97.48108 96.868454 95.82422C96.868454 94.167366 98.2116 92.82422 99.868454 92.82422C101.525314 92.82422 102.868454 94.167366 102.868454 95.82422Z" fill-rule="nonzero"/><path fill="#000000" fill-opacity="0.0" clip-path="url(#id_0)" d="M116.66736 95.82422C116.66736 97.48108 115.32421 98.82422 113.66736 98.82422C112.0105 98.82422 110.66736 97.48108 110.66736 95.82422C110.66736 94.167366 112.0105 92.82422 113.66736 92.82422C115.32421 92.82422 116.66736 94.167366 116.66736 95.82422Z" fill-rule="nonzero"/><path fill="#000000" fill-opacity="0.0" clip-path="url(#id_0)" d="M126.326584 95.82422C126.326584 97.48108 124.98344 98.82422 123.326584 98.82422C121.66973 98.82422 120.326584 97.48108 120.326584 95.82422C120.326584 94.167366 121.66973 92.82422 123.326584 92.82422C124.98344 92.82422 126.326584 94.167366 126.326584 95.82422Z" fill-rule="nonzero"/><path fill="#000000" fill-opacity="0.0" clip-path="url(#id_0)" d="M135.98581 95.82422C135.98581 97.48108 134.64267 98.82422 132.98581 98.82422C131.32896 98.82422 129.98581 97.48108 129.98581 95.82422C129.98581 94.167366 131.32896 92.82422 132.98581 92.82422C134.64267 92.82422 135.98581 94.167366 135.98581 95.82422Z" fill-rule="nonzero"/><path fill="#000000" fill-opacity="0.0" clip-path="url(#id_0)" d="M145.64503 133.10422C145.64503 134.76108 144.3019 136.10422 142.64503 136.10422C140.98819 136.10422 139.64503 134.76108 139.64503 133.10422C139.64503 131.44737 140.98819 130.10422 142.64503 130.10422C144.3019 130.10422 145.64503 131.44737 145.64503 133.10422Z" fill-rule="nonzero"/><path fill="#000000" fill-opacity="0.0" clip-path="url(#id_0)" d="M155.30428 133.10422C155.30428 134.76108 153.96112 136.10422 152.30428 136.10422C150.64742 136.10422 149.30428 134.76108 149.30428 133.10422C149.30428 131.44737 150.64742 130.10422 152.30428 130.10422C153.96112 130.10422 155.30428 131.44737 155.30428 133.10422Z" fill-rule="nonzero"/><path fill="#000000" fill-opacity="0.0" clip-path="url(#id_0)" d="M164.9635 133.10422C164.9635 134.76108 163.62035 136.10422 161.9635 136.10422C160.30664 136.10422 158.9635 134.76108 158.9635 133.10422C158.9635 131.44737 160.30664 130.10422 161.9635 130.10422C163.62035 130.10422 164.9635 131.44737 164.9635 133.10422Z" fill-rule="nonzero"/><path fill="#000000" fill-opacity="0.0" clip-path="url(#id_0)" d="M174.62273 133.10422C174.62273 134.76108 173.27959 136.10422 171.62273 136.10422C169.96587 136.10422 168.62273 134.76108 168.62273 133.10422C168.62273 131.44737 169.96587 130.10422 171.62273 130.10422C173.27959 130.10422 174.62273 131.44737 174.62273 133.10422Z" fill-rule="nonzero"/><path fill="#000000" fill-opacity="0.0" clip-path="url(#id_0)" d="M185.66185 133.10422C185.66185 134.76108 184.3187 136.10422 182.66185 136.10422C181.00499 136.10422 179.66185 134.76108 179.66185 133.10422C179.66185 131.44737 181.00499 130.10422 182.66185 130.10422C184.3187 130.10422 185.66185 131.44737 185.66185 133.10422Z" fill-rule="nonzero"/><path fill="#000000" fill-opacity="0.0" clip-path="url(#id_0)" d="M193.94118 133.10422C193.94118 134.76108 192.59804 136.10422 190.94118 136.10422C189.28433 136.10422 187.94118 134.76108 187.94118 133.10422C187.94118 131.44737 189.28433 130.10422 190.94118 130.10422C192.59804 130.10422 193.94118 131.44737 193.94118 133.10422Z" fill-rule="nonzero"/><path fill="#000000" fill-opacity="0.0" clip-path="url(#id_0)" d="M203.60042 133.10422C203.60042 134.76108 202.25726 136.10422 200.60042 136.10422C198.94356 136.10422 197.60042 134.76108 197.60042 133.10422C197.60042 131.44737 198.94356 130.10422 200.60042 130.10422C202.25726 130.10422 203.60042 131.44737 203.60042 133.10422Z" fill-rule="nonzero"/><path fill="#000000" fill-opacity="0.0" clip-path="url(#id_0)" d="M213.25964 133.10422C213.25964 134.76108 211.91649 136.10422 210.25964 136.10422C208.60278 136.10422 207.25964 134.76108 207.25964 133.10422C207.25964 131.44737 208.60278 130.10422 210.25964 130.10422C211.91649 130.10422 213.25964 131.44737 213.25964 133.10422Z" fill-rule="nonzero"/><path fill="#000000" fill-opacity="0.0" clip-path="url(#id_0)" d="M225.67865 168.72734C225.67865 170.38419 224.33551 171.72734 222.67865 171.72734C221.02179 171.72734 219.67865 170.38419 219.67865 168.72734C219.67865 167.07048 221.02179 165.72734 222.67865 165.72734C224.33551 165.72734 225.67865 167.07048 225.67865 168.72734Z" fill-rule="nonzero"/><path fill="#000000" fill-opacity="0.0" clip-path="url(#id_0)" d="M232.5781 168.72734C232.5781 170.38419 231.23495 171.72734 229.5781 171.72734C227.92125 171.72734 226.5781 170.38419 226.5781 168.72734C226.5781 167.07048 227.92125 165.72734 229.5781 165.72734C231.23495 165.72734 232.5781 167.07048 232.5781 168.72734Z" fill-rule="nonzero"/><path fill="#000000" fill-opacity="0.0" clip-path="url(#id_0)" d="M242.23734 168.72734C242.23734 170.38419 240.89418 171.72734 239.23734 171.72734C237.58047 171.72734 236.23734 170.38419 236.23734 168.72734C236.23734 167.07048 237.58047 165.72734 239.23734 165.72734C240.89418 165.72734 242.23734 167.07048 242.23734 168.72734Z" fill-rule="nonzero"/><path fill="#000000" fill-opacity="0.0" clip-path="url(#id_0)" d="M251.89656 168.72734C251.89656 170.38419 250.5534 171.72734 248.89656 171.72734C247.2397 171.72734 245.89656 170.38419 245.89656 168.72734C245.89656 167.07048 247.2397 165.72734 248.89656 165.72734C250.5534 165.72734 251.89656 167.07048 251.89656 168.72734Z" fill-rule="nonzero"/><path fill="#000000" fill-opacity="0.0" clip-path="url(#id_0)" d="M261.5558 168.72734C261.5558 170.38419 260.21265 171.72734 258.5558 171.72734C256.89893 171.72734 255.55579 170.38419 255.55579 168.72734C255.55579 167.07048 256.89893 165.72734 258.5558 165.72734C260.21265 165.72734 261.5558 167.07048 261.5558 168.72734Z" fill-rule="nonzero"/><path fill="#000000" fill-opacity="0.0" clip-path="url(#id_0)" d="M272.5949 168.72734C272.5949 170.38419 271.25177 171.72734 269.5949 171.72734C267.93805 171.72734 266.5949 170.38419 266.5949 168.72734C266.5949 167.07048 267.93805 165.72734 269.5949 165.72734C271.25177 165.72734 272.5949 167.07048 272.5949 168.72734Z" fill-rule="nonzero"/><path fill="#000000" fill-opacity="0.0" clip-path="url(#id_0)" d="M282.25412 168.72734C282.25412 170.38419 280.91098 171.72734 279.25412 171.72734C277.5973 171.72734 276.25412 170.38419 276.25412 168.72734C276.25412 167.07048 277.5973 165.72734 279.25412 165.72734C280.91098 165.72734 282.25412 167.07048 282.25412 168.72734Z" fill-rule="nonzero"/><path fill="#000000" fill-opacity="0.0" clip-path="url(#id_0)" d="M291.91336 168.72734C291.91336 170.38419 290.57022 171.72734 288.91336 171.72734C287.2565 171.72734 285.91336 170.38419 285.91336 168.72734C285.91336 167.07048 287.2565 165.72734 288.91336 165.72734C290.57022 165.72734 291.91336 167.07048 291.91336 168.72734Z" fill-rule="nonzero"/><path fill="#000000" fill-opacity="0.0" clip-path="url(#id_0)" d="M300.1927 168.72734C300.1927 170.38419 298.84955 171.72734 297.1927 171.72734C295.53586 171.72734 294.1927 170.38419 294.1927 168.72734C294.1927 167.07048 295.53586 165.72734 297.1927 165.72734C298.84955 165.72734 300.1927 167.07048 300.1927 168.72734Z" fill-rule="nonzero"/><path fill="#000000" fill-opacity="0.0" clip-path="url(#id_0)" d="M309.85193 168.72734C309.85193 170.38419 308.5088 171.72734 306.85193 171.72734C305.19507 171.72734 303.85193 170.38419 303.85193 168.72734C303.85193 167.07048 305.19507 165.72734 306.85193 165.72734C308.5088 165.72734 309.85193 167.07048 309.85193 168.72734Z" fill-rule="nonzero"/><path fill="#000000" fill-opacity="0.0" clip-path="url(#id_0)" d="M319.51117 201.86511C319.51117 203.52197 318.168 204.86511 316.51117 204.86511C314.8543 204.86511 313.51117 203.52197 313.51117 201.86511C313.51117 200.20825 314.8543 198.86511 316.51117 198.86511C318.168 198.86511 319.51117 200.20825 319.51117 201.86511Z" fill-rule="nonzero"/><path fill="#000000" fill-opacity="0.0" clip-path="url(#id_0)" d="M329.17038 201.86511C329.17038 203.52197 327.82724 204.86511 326.17038 204.86511C324.51352 204.86511 323.17038 203.52197 323.17038 201.86511C323.17038 200.20825 324.51352 198.86511 326.17038 198.86511C327.82724 198.86511 329.17038 200.20825 329.17038 201.86511Z" fill-rule="nonzero"/><path fill="#000000" fill-opacity="0.0" clip-path="url(#id_0)" d="M340.2095 201.86511C340.2095 203.52197 338.86636 204.86511 337.2095 204.86511C335.55264 204.86511 334.2095 203.52197 334.2095 201.86511C334.2095 200.20825 335.55264 198.86511 337.2095 198.86511C338.86636 198.86511 340.2095 200.20825 340.2095 201.86511Z" fill-rule="nonzero"/><path fill="#000000" fill-opacity="0.0" clip-path="url(#id_0)" d="M348.48883 201.86511C348.48883 203.52197 347.1457 204.86511 345.48883 204.86511C343.832 204.86511 342.48883 203.52197 342.48883 201.86511C342.48883 200.20825 343.832 198.86511 345.48883 198.86511C347.1457 198.86511 348.48883 200.20825 348.48883 201.86511Z" fill-rule="nonzero"/><path fill="#000000" fill-opacity="0.0" clip-path="url(#id_0)" d="M360.90784 201.86511C360.90784 203.52197 359.5647 204.86511 357.90784 204.86511C356.251 204.86511 354.90784 203.52197 354.90784 201.86511C354.90784 200.20825 356.251 198.86511 357.90784 198.86511C359.5647 198.86511 360.90784 200.20825 360.90784 201.86511Z" fill-rule="nonzero"/><path fill="#000000" fill-opacity="0.0" clip-path="url(#id_0)" d="M370.56708 201.86511C370.56708 203.52197 369.22394 204.86511 367.56708 204.86511C365.91022 204.86511 364.56708 203.52197 364.56708 201.86511C364.56708 200.20825 365.91022 198.86511 367.56708 198.86511C369.22394 198.86511 370.56708 200.20825 370.56708 201.86511Z" fill-rule="nonzero"/><path fill="#000000" fill-opacity="0.0" clip-path="url(#id_0)" d="M377.46652 201.86511C377.46652 203.52197 376.12338 204.86511 374.46652 204.86511C372.80966 204.86511 371.46652 203.52197 371.46652 201.86511C371.46652 200.20825 372.80966 198.86511 374.46652 198.86511C376.12338 198.86511 377.46652 200.20825 377.46652 201.86511Z" fill-rule="nonzero"/><path fill="#000000" fill-opacity="0.0" clip-path="url(#id_0)" d="M387.12576 201.86511C387.12576 203.52197 385.78262 204.86511 384.12576 204.86511C382.4689 204.86511 381.12576 203.52197 381.12576 201.86511C381.12576 200.20825 382.4689 198.86511 384.12576 198.86511C385.78262 198.86511 387.12576 200.20825 387.12576 201.86511Z" fill-rule="nonzero"/><path fill="#000000" fill-opacity="0.0" clip-path="url(#id_0)" d="M396.78497 201.86511C396.78497 203.52197 395.44183 204.86511 393.78497 204.86511C392.12814 204.86511 390.78497 203.52197 390.78497 201.86511C390.78497 200.20825 392.12814 198.86511 393.78497 198.86511C395.44183 198.86511 396.78497 200.20825 396.78497 201.86511Z" fill-rule="nonzero"/><path fill="#000000" fill-opacity="0.0" clip-path="url(#id_0)" d="M406.4442 234.17444C406.4442 235.8313 405.10107 237.17444 403.4442 237.17444C401.78735 237.17444 400.4442 235.8313 400.4442 234.17444C400.4442 232.5176 401.78735 231.17444 403.4442 231.17444C405.10107 231.17444 406.4442 232.5176 406.4442 234.17444Z" fill-rule="nonzero"/><path fill="#000000" fill-opacity="0.0" clip-path="url(#id_0)" d="M416.10345 234.17444C416.10345 235.8313 414.76028 237.17444 413.10345 237.17444C411.4466 237.17444 410.10345 235.8313 410.10345 234.17444C410.10345 232.5176 411.4466 231.17444 413.10345 231.17444C414.76028 231.17444 416.10345 232.5176 416.10345 234.17444Z" fill-rule="nonzero"/><path fill="#000000" fill-opacity="0.0" clip-path="url(#id_0)" d="M427.14255 234.17444C427.14255 235.8313 425.7994 237.17444 424.14255 237.17444C422.48572 237.17444 421.14255 235.8313 421.14255 234.17444C421.14255 232.5176 422.48572 231.17444 424.14255 231.17444C425.7994 231.17444 427.14255 232.5176 427.14255 234.17444Z" fill-rule="nonzero"/><path fill="#000000" fill-opacity="0.0" clip-path="url(#id_0)" d="M435.4219 234.17444C435.4219 235.8313 434.07877 237.17444 432.4219 237.17444C430.76505 237.17444 429.4219 235.8313 429.4219 234.17444C429.4219 232.5176 430.76505 231.17444 432.4219 231.17444C434.07877 231.17444 435.4219 232.5176 435.4219 234.17444Z" fill-rule="nonzero"/><path fill="#000000" fill-opacity="0.0" clip-path="url(#id_0)" d="M445.08112 234.17444C445.08112 235.8313 443.73798 237.17444 442.08112 237.17444C440.4243 237.17444 439.08112 235.8313 439.08112 234.17444C439.08112 232.5176 440.4243 231.17444 442.08112 231.17444C443.73798 231.17444 445.08112 232.5176 445.08112 234.17444Z" fill-rule="nonzero"/><path fill="#000000" fill-opacity="0.0" clip-path="url(#id_0)" d="M454.74036 234.17444C454.74036 235.8313 453.39722 237.17444 451.74036 237.17444C450.0835 237.17444 448.74036 235.8313 448.74036 234.17444C448.74036 232.5176 450.0835 231.17444 451.74036 231.17444C453.39722 231.17444 454.74036 232.5176 454.74036 234.17444Z" fill-rule="nonzero"/><path fill="#000000" fill-opacity="0.0" clip-path="url(#id_0)" d="M465.77948 234.17444C465.77948 235.8313 464.43634 237.17444 462.77948 237.17444C461.12262 237.17444 459.77948 235.8313 459.77948 234.17444C459.77948 232.5176 461.12262 231.17444 462.77948 231.17444C464.43634 231.17444 465.77948 232.5176 465.77948 234.17444Z" fill-rule="nonzero"/><path fill="#000000" fill-opacity="0.0" clip-path="url(#id_0)" d="M475.4387 234.17444C475.4387 235.8313 474.09555 237.17444 472.4387 237.17444C470.78186 237.17444 469.4387 235.8313 469.4387 234.17444C469.4387 232.5176 470.78186 231.17444 472.4387 231.17444C474.09555 231.17444 475.4387 232.5176 475.4387 234.17444Z" fill-rule="nonzero"/><path fill="#000000" fill-opacity="0.0" clip-path="url(#id_0)" d="M486.4778 234.17444C486.4778 235.8313 485.13467 237.17444 483.4778 237.17444C481.82098 237.17444 480.4778 235.8313 480.4778 234.17444C480.4778 232.5176 481.82098 231.17444 483.4778 231.17444C485.13467 231.17444 486.4778 232.5176 486.4778 234.17444Z" fill-rule="nonzero"/><path fill="#000000" fill-opacity="0.0" clip-path="url(#id_0)" d="M494.75717 234.17444C494.75717 235.8313 493.41403 237.17444 491.75717 237.17444C490.1003 237.17444 488.75717 235.8313 488.75717 234.17444C488.75717 232.5176 490.1003 231.17444 491.75717 231.17444C493.41403 231.17444 494.75717 232.5176 494.75717 234.17444Z" fill-rule="nonzero"/><path fill="#000000" fill-opacity="0.0" clip-path="url(#id_0)" d="M504.41638 234.17444C504.41638 235.8313 503.07324 237.17444 501.41638 237.17444C499.75955 237.17444 498.41638 235.8313 498.41638 234.17444C498.41638 232.5176 499.75955 231.17444 501.41638 231.17444C503.07324 231.17444 504.41638 232.5176 504.41638 234.17444Z" fill-rule="nonzero"/><path fill="#000000" fill-opacity="0.0" clip-path="url(#id_0)" d="M514.0756 234.17444C514.0756 235.8313 512.7325 237.17444 511.07562 237.17444C509.41876 237.17444 508.07562 235.8313 508.07562 234.17444C508.07562 232.5176 509.41876 231.17444 511.07562 231.17444C512.7325 231.17444 514.0756 232.5176 514.0756 234.17444Z" fill-rule="nonzero"/><path fill="#000000" fill-opacity="0.0" clip-path="url(#id_0)" d="M523.73486 263.99844C523.73486 265.6553 522.3917 266.99844 520.73486 266.99844C519.078 266.99844 517.73486 265.6553 517.73486 263.99844C517.73486 262.34158 519.078 260.99844 520.73486 260.99844C522.3917 260.99844 523.73486 262.34158 523.73486 263.99844Z" fill-rule="nonzero"/><path fill="#000000" fill-opacity="0.0" clip-path="url(#id_0)" d="M534.774 263.99844C534.774 265.6553 533.43085 266.99844 531.774 266.99844C530.1171 266.99844 528.774 265.6553 528.774 263.99844C528.774 262.34158 530.1171 260.99844 531.774 260.99844C533.43085 260.99844 534.774 262.34158 534.774 263.99844Z" fill-rule="nonzero"/><path fill="#000000" fill-opacity="0.0" clip-path="url(#id_0)" d="M544.43317 263.99844C544.43317 265.6553 543.09 266.99844 541.43317 266.99844C539.77637 266.99844 538.43317 265.6553 538.43317 263.99844C538.43317 262.34158 539.77637 260.99844 541.43317 260.99844C543.09 260.99844 544.43317 262.34158 544.43317 263.99844Z" fill-rule="nonzero"/><path fill="#000000" fill-opacity="0.0" clip-path="url(#id_0)" d="M554.0924 263.99844C554.0924 265.6553 552.74927 266.99844 551.0924 266.99844C549.43555 266.99844 548.0924 265.6553 548.0924 263.99844C548.0924 262.34158 549.43555 260.99844 551.0924 260.99844C552.74927 260.99844 554.0924 262.34158 554.0924 263.99844Z" fill-rule="nonzero"/><path fill="#000000" fill-opacity="0.0" clip-path="url(#id_0)" d="M563.75165 263.99844C563.75165 265.6553 562.4085 266.99844 560.75165 266.99844C559.0948 266.99844 557.75165 265.6553 557.75165 263.99844C557.75165 262.34158 559.0948 260.99844 560.75165 260.99844C562.4085 260.99844 563.75165 262.34158 563.75165 263.99844Z" fill-rule="nonzero"/><path fill="#000000" fill-opacity="0.0" clip-path="url(#id_0)" d="M567.8913 263.99844C567.8913 265.6553 566.54816 266.99844 564.8913 266.99844C563.2345 266.99844 561.8913 265.6553 561.8913 263.99844C561.8913 262.34158 563.2345 260.99844 564.8913 260.99844C566.54816 260.99844 567.8913 262.34158 567.8913 263.99844Z" fill-rule="nonzero"/><path fill="#000000" fill-opacity="0.0" clip-path="url(#id_0)" d="M584.45 263.99844C584.45 265.6553 583.1069 266.99844 581.45 266.99844C579.79315 266.99844 578.45 265.6553 578.45 263.99844C578.45 262.34158 579.79315 260.99844 581.45 260.99844C583.1069 260.99844 584.45 262.34158 584.45 263.99844Z" fill-rule="nonzero"/><path fill="#000000" d="M318.92188 349.45L318.92188 340.85626L321.89062 340.85626Q322.89062 340.85626 323.42188 340.98126Q324.15625 341.15314 324.67188 341.59064Q325.35938 342.16876 325.6875 343.075Q326.03125 343.96564 326.03125 345.10626Q326.03125 346.09064 325.79688 346.84064Q325.57812 347.59064 325.21875 348.09064Q324.85938 348.59064 324.42188 348.8719Q324.0 349.15314 323.40625 349.3094Q322.8125 349.45 322.03125 349.45L318.92188 349.45ZM320.0625 348.4344L321.89062 348.4344Q322.75 348.4344 323.23438 348.27814Q323.71875 348.1219 324.0 347.825Q324.40625 347.4344 324.625 346.7469Q324.85938 346.0594 324.85938 345.09064Q324.85938 343.7469 324.40625 343.02814Q323.96875 342.29376 323.34375 342.04376Q322.875 341.8719 321.875 341.8719L320.0625 341.8719L320.0625 348.4344ZM331.85938 348.6844Q331.26562 349.1844 330.71875 349.3875Q330.1875 349.59064 329.5625 349.59064Q328.53125 349.59064 327.98438 349.09064Q327.4375 348.59064 327.4375 347.8094Q327.4375 347.35626 327.64062 346.98126Q327.84375 346.59064 328.1875 346.3719Q328.53125 346.1375 328.95312 346.02814Q329.25 345.9344 329.89062 345.85626Q331.15625 345.71564 331.76562 345.4969Q331.76562 345.27814 331.76562 345.23126Q331.76562 344.575 331.46875 344.3094Q331.0625 343.96564 330.26562 343.96564Q329.53125 343.96564 329.17188 344.23126Q328.8125 344.48126 328.64062 345.1375L327.60938 344.9969Q327.75 344.34064 328.07812 343.9344Q328.40625 343.52814 329.01562 343.3094Q329.625 343.09064 330.42188 343.09064Q331.21875 343.09064 331.71875 343.27814Q332.21875 343.46564 332.45312 343.7469Q332.6875 344.02814 332.78125 344.46564Q332.82812 344.73126 332.82812 345.4344L332.82812 346.84064Q332.82812 348.3094 332.89062 348.7Q332.96875 349.09064 333.17188 349.45L332.0625 349.45Q331.90625 349.1219 331.85938 348.6844ZM331.76562 346.325Q331.1875 346.5594 330.04688 346.73126Q329.39062 346.825 329.125 346.95Q328.85938 347.0594 328.70312 347.27814Q328.5625 347.4969 328.5625 347.77814Q328.5625 348.2 328.875 348.48126Q329.20312 348.7625 329.8125 348.7625Q330.42188 348.7625 330.89062 348.4969Q331.375 348.23126 331.59375 347.7625Q331.76562 347.40314 331.76562 346.71564L331.76562 346.325ZM337.09375 348.5125L337.25 349.4344Q336.79688 349.52814 336.45312 349.52814Q335.875 349.52814 335.5625 349.35626Q335.25 349.16876 335.10938 348.8719Q334.98438 348.575 334.98438 347.6219L334.98438 344.04376L334.21875 344.04376L334.21875 343.23126L334.98438 343.23126L334.98438 341.6844L336.03125 341.0594L336.03125 343.23126L337.09375 343.23126L337.09375 344.04376L336.03125 344.04376L336.03125 347.6844Q336.03125 348.1375 336.07812 348.2625Q336.14062 348.3875 336.26562 348.46564Q336.39062 348.54376 336.625 348.54376Q336.8125 348.54376 337.09375 348.5125ZM342.04688 347.45L343.14062 347.575Q342.89062 348.52814 342.1875 349.0594Q341.48438 349.59064 340.40625 349.59064Q339.04688 349.59064 338.23438 348.7469Q337.4375 347.90314 337.4375 346.3875Q337.4375 344.825 338.25 343.96564Q339.0625 343.09064 340.34375 343.09064Q341.59375 343.09064 342.375 343.9344Q343.17188 344.77814 343.17188 346.325Q343.17188 346.41876 343.17188 346.60626L338.53125 346.60626Q338.59375 347.6375 339.10938 348.1844Q339.625 348.71564 340.40625 348.71564Q340.98438 348.71564 341.39062 348.41876Q341.8125 348.10626 342.04688 347.45ZM338.59375 345.7469L342.0625 345.7469Q342.0 344.95 341.67188 344.5594Q341.15625 343.95 340.35938 343.95Q339.625 343.95 339.125 344.4344Q338.64062 344.91876 338.59375 345.7469Z" fill-rule="nonzero"/><path fill="#000000" d="M29.550013 211.26146L20.956263 213.54271L20.956263 212.37083L26.596888 211.05833Q27.471888 210.85521 28.346888 210.69896Q26.971888 210.37083 26.753138 210.30833L20.956263 208.68333L20.956263 207.30833L25.300013 206.07396Q26.925013 205.62083 28.346888 205.40208Q27.534388 205.24583 26.471888 204.98021L20.956263 203.63646L20.956263 202.49583L29.550013 204.83958L29.550013 205.94896L23.003138 207.74583Q22.190638 207.98021 22.003138 208.02708Q22.581263 208.15208 23.003138 208.27708L29.550013 210.08958L29.550013 211.26146ZM27.550013 197.63646L27.675013 196.54271Q28.628138 196.79271 29.159388 197.49583Q29.690638 198.19896 29.690638 199.27708Q29.690638 200.63646 28.846888 201.44896Q28.003138 202.24583 26.487513 202.24583Q24.925013 202.24583 24.065638 201.43333Q23.190638 200.62083 23.190638 199.33958Q23.190638 198.08958 24.034388 197.30833Q24.878138 196.51146 26.425013 196.51146Q26.518763 196.51146 26.706263 196.51146L26.706263 201.15208Q27.737513 201.08958 28.284388 200.57396Q28.815638 200.05833 28.815638 199.27708Q28.815638 198.69896 28.518763 198.29271Q28.206263 197.87083 27.550013 197.63646ZM25.846888 201.08958L25.846888 197.62083Q25.050013 197.68333 24.659388 198.01146Q24.050013 198.52708 24.050013 199.32396Q24.050013 200.05833 24.534388 200.55833Q25.018763 201.04271 25.846888 201.08958ZM22.175013 194.88646L20.956263 194.88646L20.956263 193.82396L22.175013 193.82396L22.175013 194.88646ZM29.550013 194.88646L23.331263 194.88646L23.331263 193.82396L29.550013 193.82396L29.550013 194.88646ZM30.065638 192.08958L30.221888 191.05833Q30.690638 190.99583 30.909388 190.69896Q31.206263 190.30833 31.206263 189.63646Q31.206263 188.90208 30.909388 188.51146Q30.612513 188.10521 30.096888 187.96458Q29.768763 187.87083 28.737513 187.88646Q29.550013 188.57396 29.550013 189.60521Q29.550013 190.88646 28.628138 191.58958Q27.690638 192.29271 26.409388 192.29271Q25.518763 192.29271 24.768763 191.98021Q24.003138 191.65208 23.596888 191.04271Q23.190638 190.43333 23.190638 189.60521Q23.190638 188.49583 24.081263 187.77708L23.331263 187.77708L23.331263 186.80833L28.706263 186.80833Q30.159388 186.80833 30.768763 187.10521Q31.378138 187.40208 31.721888 188.04271Q32.08126 188.68333 32.08126 189.62083Q32.08126 190.73021 31.581263 191.41771Q31.081263 192.10521 30.065638 192.08958ZM26.331263 191.21458Q27.550013 191.21458 28.112513 190.73021Q28.675013 190.24583 28.675013 189.51146Q28.675013 188.77708 28.112513 188.29271Q27.550013 187.79271 26.362513 187.79271Q25.221888 187.79271 24.643763 188.30833Q24.065638 188.80833 24.065638 189.52708Q24.065638 190.23021 24.643763 190.73021Q25.206263 191.21458 26.331263 191.21458ZM29.550013 184.88646L20.956263 184.88646L20.956263 183.83958L24.034388 183.83958Q23.190638 183.10521 23.190638 181.98021Q23.190638 181.27708 23.471888 180.77708Q23.737513 180.26146 24.221888 180.04271Q24.690638 179.82396 25.612513 179.82396L29.550013 179.82396L29.550013 180.87083L25.612513 180.87083Q24.815638 180.87083 24.456263 181.21458Q24.096888 181.55833 24.096888 182.18333Q24.096888 182.65208 24.346888 183.07396Q24.581263 183.48021 25.003138 183.66771Q25.409388 183.83958 26.143763 183.83958L29.550013 183.83958L29.550013 184.88646ZM28.612513 175.58958L29.534388 175.43333Q29.628138 175.88646 29.628138 176.23021Q29.628138 176.80833 29.456263 177.12083Q29.268763 177.43333 28.971888 177.57396Q28.675013 177.69896 27.721888 177.69896L24.143763 177.69896L24.143763 178.46458L23.331263 178.46458L23.331263 177.69896L21.784388 177.69896L21.159388 176.65208L23.331263 176.65208L23.331263 175.58958L24.143763 175.58958L24.143763 176.65208L27.784388 176.65208Q28.237513 176.65208 28.362513 176.60521Q28.487513 176.54271 28.565638 176.41771Q28.643763 176.29271 28.643763 176.05833Q28.643763 175.87083 28.612513 175.58958ZM32.08126 169.87083Q30.971888 170.74583 29.503138 171.35521Q28.018763 171.94896 26.440638 171.94896Q25.050013 171.94896 23.768763 171.51146Q22.284388 170.98021 20.815638 169.87083L20.815638 169.12083Q22.034388 169.82396 22.550013 170.05833Q23.362513 170.41771 24.237513 170.62083Q25.331263 170.87083 26.440638 170.87083Q29.268763 170.87083 32.08126 169.12083L32.08126 169.87083ZM29.550013 167.88646L20.956263 167.88646L20.956263 166.82396L25.862513 166.82396L23.331263 164.33958L23.331263 162.96458L25.628138 165.35521L29.550013 162.73021L29.550013 164.02708L26.362513 166.08958L27.081263 166.82396L29.550013 166.82396L29.550013 167.88646ZM30.065638 162.08958L30.221888 161.05833Q30.690638 160.99583 30.909388 160.69896Q31.206263 160.30833 31.206263 159.63646Q31.206263 158.90208 30.909388 158.51146Q30.612513 158.10521 30.096888 157.96458Q29.768763 157.87083 28.737513 157.88646Q29.550013 158.57396 29.550013 159.60521Q29.550013 160.88646 28.628138 161.58958Q27.690638 162.29271 26.409388 162.29271Q25.518763 162.29271 24.768763 161.98021Q24.003138 161.65208 23.596888 161.04271Q23.190638 160.43333 23.190638 159.60521Q23.190638 158.49583 24.081263 157.77708L23.331263 157.77708L23.331263 156.80833L28.706263 156.80833Q30.159388 156.80833 30.768763 157.10521Q31.378138 157.40208 31.721888 158.04271Q32.08126 158.68333 32.08126 159.62083Q32.08126 160.73021 31.581263 161.41771Q31.081263 162.10521 30.065638 162.08958ZM26.331263 161.21458Q27.550013 161.21458 28.112513 160.73021Q28.675013 160.24583 28.675013 159.51146Q28.675013 158.77708 28.112513 158.29271Q27.550013 157.79271 26.362513 157.79271Q25.221888 157.79271 24.643763 158.30833Q24.065638 158.80833 24.065638 159.52708Q24.065638 160.23021 24.643763 160.73021Q25.206263 161.21458 26.331263 161.21458ZM32.08126 154.19896L32.08126 154.94896Q29.268763 153.19896 26.440638 153.19896Q25.346888 153.19896 24.253138 153.44896Q23.378138 153.65208 22.565638 154.01146Q22.050013 154.24583 20.815638 154.94896L20.815638 154.19896Q22.284388 153.10521 23.768763 152.57396Q25.050013 152.12083 26.440638 152.12083Q28.018763 152.12083 29.503138 152.73021Q30.971888 153.33958 32.08126 154.19896Z" fill-rule="nonzero"/><path fill="#000000" d="M56.51875 297.96564L55.471874 298.04376Q55.33125 297.41876 55.08125 297.1375Q54.64375 296.6844 54.01875 296.6844Q53.51875 296.6844 53.128124 296.96564Q52.64375 297.34064 52.346874 298.04376Q52.065624 298.73126 52.05 300.0125Q52.425 299.4344 52.971874 299.15314Q53.534374 298.8719 54.14375 298.8719Q55.190624 298.8719 55.925 299.65314Q56.675 300.4344 56.675 301.65314Q56.675 302.46564 56.315624 303.16876Q55.971874 303.85626 55.3625 304.23126Q54.753124 304.59064 53.9875 304.59064Q52.659374 304.59064 51.83125 303.6219Q51.003124 302.65314 51.003124 300.4344Q51.003124 297.9344 51.925 296.8094Q52.721874 295.825 54.08125 295.825Q55.096874 295.825 55.7375 296.40314Q56.39375 296.96564 56.51875 297.96564ZM52.221874 301.66876Q52.221874 302.21564 52.440624 302.71564Q52.675 303.2 53.08125 303.46564Q53.503124 303.73126 53.971874 303.73126Q54.628124 303.73126 55.1125 303.2Q55.596874 302.65314 55.596874 301.73126Q55.596874 300.84064 55.1125 300.325Q54.64375 299.8094 53.925 299.8094Q53.20625 299.8094 52.70625 300.325Q52.221874 300.84064 52.221874 301.66876ZM58.05 302.2L59.159374 302.10626Q59.284374 302.91876 59.721874 303.325Q60.175 303.73126 60.815624 303.73126Q61.565624 303.73126 62.096874 303.15314Q62.628124 302.575 62.628124 301.6375Q62.628124 300.73126 62.1125 300.21564Q61.6125 299.6844 60.784374 299.6844Q60.284374 299.6844 59.8625 299.91876Q59.45625 300.15314 59.221874 300.5125L58.2375 300.3875L59.065624 295.98126L63.346874 295.98126L63.346874 296.98126L59.909374 296.98126L59.45625 299.29376Q60.221874 298.7469 61.065624 298.7469Q62.190624 298.7469 62.95625 299.52814Q63.7375 300.3094 63.7375 301.54376Q63.7375 302.7 63.065624 303.5594Q62.2375 304.59064 60.815624 304.59064Q59.64375 304.59064 58.89375 303.9344Q58.159374 303.27814 58.05 302.2ZM65.64375 304.45L65.64375 303.2469L66.84688 303.2469L66.84688 304.45L65.64375 304.45ZM68.05 300.21564Q68.05 298.6844 68.3625 297.7625Q68.675 296.825 69.28438 296.325Q69.90938 295.825 70.84688 295.825Q71.53438 295.825 72.05 296.10626Q72.58125 296.3875 72.925 296.91876Q73.26875 297.4344 73.45625 298.1844Q73.64375 298.9344 73.64375 300.21564Q73.64375 301.73126 73.33125 302.65314Q73.03438 303.575 72.40938 304.09064Q71.8 304.59064 70.84688 304.59064Q69.6125 304.59064 68.89375 303.7Q68.05 302.6375 68.05 300.21564ZM69.12813 300.21564Q69.12813 302.325 69.62813 303.02814Q70.12813 303.73126 70.84688 303.73126Q71.58125 303.73126 72.06563 303.02814Q72.56563 302.325 72.56563 300.21564Q72.56563 298.09064 72.06563 297.40314Q71.58125 296.7 70.83125 296.7Q70.1125 296.7 69.675 297.3094Q69.12813 298.09064 69.12813 300.21564Z" fill-rule="nonzero"/><path fill="#000000" d="M51.1125 214.13681L51.1125 213.12119L56.675 213.12119L56.675 213.94931Q55.8625 214.82431 55.05 216.27744Q54.253124 217.71494 53.815624 219.24619Q53.4875 220.32431 53.409374 221.60556L52.315624 221.60556Q52.33125 220.58994 52.70625 219.15244Q53.096874 217.71494 53.8 216.38681Q54.51875 215.05869 55.33125 214.13681L51.1125 214.13681ZM58.05 219.35556L59.159374 219.26181Q59.284374 220.07431 59.721874 220.48056Q60.175 220.88681 60.815624 220.88681Q61.565624 220.88681 62.096874 220.30869Q62.628124 219.73056 62.628124 218.79306Q62.628124 217.88681 62.1125 217.37119Q61.6125 216.83994 60.784374 216.83994Q60.284374 216.83994 59.8625 217.07431Q59.45625 217.30869 59.221874 217.66806L58.2375 217.54306L59.065624 213.13681L63.346874 213.13681L63.346874 214.13681L59.909374 214.13681L59.45625 216.44931Q60.221874 215.90244 61.065624 215.90244Q62.190624 215.90244 62.95625 216.68369Q63.7375 217.46494 63.7375 218.69931Q63.7375 219.85556 63.065624 220.71494Q62.2375 221.74619 60.815624 221.74619Q59.64375 221.74619 58.89375 221.08994Q58.159374 220.43369 58.05 219.35556ZM65.64375 221.60556L65.64375 220.40244L66.84688 220.40244L66.84688 221.60556L65.64375 221.60556ZM68.05 217.37119Q68.05 215.83994 68.3625 214.91806Q68.675 213.98056 69.28438 213.48056Q69.90938 212.98056 70.84688 212.98056Q71.53438 212.98056 72.05 213.26181Q72.58125 213.54306 72.925 214.07431Q73.26875 214.58994 73.45625 215.33994Q73.64375 216.08994 73.64375 217.37119Q73.64375 218.88681 73.33125 219.80869Q73.03438 220.73056 72.40938 221.24619Q71.8 221.74619 70.84688 221.74619Q69.6125 221.74619 68.89375 220.85556Q68.05 219.79306 68.05 217.37119ZM69.12813 217.37119Q69.12813 219.48056 69.62813 220.18369Q70.12813 220.88681 70.84688 220.88681Q71.58125 220.88681 72.06563 220.18369Q72.56563 219.48056 72.56563 217.37119Q72.56563 215.24619 72.06563 214.55869Q71.58125 213.85556 70.83125 213.85556Q70.1125 213.85556 69.675 214.46494Q69.12813 215.24619 69.12813 217.37119Z" fill-rule="nonzero"/><path fill="#000000" d="M52.675 134.10486Q52.01875 133.85486 51.690624 133.41736Q51.378124 132.96423 51.378124 132.35486Q51.378124 131.41736 52.05 130.77673Q52.7375 130.13611 53.846874 130.13611Q54.971874 130.13611 55.659374 130.79236Q56.346874 131.44861 56.346874 132.38611Q56.346874 132.97986 56.034374 133.41736Q55.721874 133.85486 55.08125 134.10486Q55.878124 134.35486 56.284374 134.93298Q56.690624 135.51111 56.690624 136.30798Q56.690624 137.40173 55.909374 138.15173Q55.14375 138.90173 53.8625 138.90173Q52.596874 138.90173 51.815624 138.15173Q51.034374 137.40173 51.034374 136.27673Q51.034374 135.43298 51.45625 134.87048Q51.89375 134.30798 52.675 134.10486ZM52.45625 132.30798Q52.45625 132.91736 52.846874 133.30798Q53.253124 133.69861 53.878124 133.69861Q54.4875 133.69861 54.878124 133.32361Q55.26875 132.93298 55.26875 132.37048Q55.26875 131.79236 54.8625 131.40173Q54.45625 130.99548 53.8625 130.99548Q53.253124 130.99548 52.846874 131.38611Q52.45625 131.77673 52.45625 132.30798ZM52.128124 136.27673Q52.128124 136.72986 52.33125 137.15173Q52.55 137.57361 52.971874 137.80798Q53.39375 138.04236 53.878124 138.04236Q54.628124 138.04236 55.1125 137.55798Q55.6125 137.07361 55.6125 136.32361Q55.6125 135.55798 55.1125 135.05798Q54.6125 134.55798 53.846874 134.55798Q53.096874 134.55798 52.6125 135.05798Q52.128124 135.54236 52.128124 136.27673ZM58.05 136.51111L59.159374 136.41736Q59.284374 137.22986 59.721874 137.63611Q60.175 138.04236 60.815624 138.04236Q61.565624 138.04236 62.096874 137.46423Q62.628124 136.88611 62.628124 135.94861Q62.628124 135.04236 62.1125 134.52673Q61.6125 133.99548 60.784374 133.99548Q60.284374 133.99548 59.8625 134.22986Q59.45625 134.46423 59.221874 134.82361L58.2375 134.69861L59.065624 130.29236L63.346874 130.29236L63.346874 131.29236L59.909374 131.29236L59.45625 133.60486Q60.221874 133.05798 61.065624 133.05798Q62.190624 133.05798 62.95625 133.83923Q63.7375 134.62048 63.7375 135.85486Q63.7375 137.01111 63.065624 137.87048Q62.2375 138.90173 60.815624 138.90173Q59.64375 138.90173 58.89375 138.24548Q58.159374 137.58923 58.05 136.51111ZM65.64375 138.76111L65.64375 137.55798L66.84688 137.55798L66.84688 138.76111L65.64375 138.76111ZM68.05 134.52673Q68.05 132.99548 68.3625 132.07361Q68.675 131.13611 69.28438 130.63611Q69.90938 130.13611 70.84688 130.13611Q71.53438 130.13611 72.05 130.41736Q72.58125 130.69861 72.925 131.22986Q73.26875 131.74548 73.45625 132.49548Q73.64375 133.24548 73.64375 134.52673Q73.64375 136.04236 73.33125 136.96423Q73.03438 137.88611 72.40938 138.40173Q71.8 138.90173 70.84688 138.90173Q69.6125 138.90173 68.89375 138.01111Q68.05 136.94861 68.05 134.52673ZM69.12813 134.52673Q69.12813 136.63611 69.62813 137.33923Q70.12813 138.04236 70.84688 138.04236Q71.58125 138.04236 72.06563 137.33923Q72.56563 136.63611 72.56563 134.52673Q72.56563 132.40173 72.06563 131.71423Q71.58125 131.01111 70.83125 131.01111Q70.1125 131.01111 69.675 131.62048Q69.12813 132.40173 69.12813 134.52673Z" fill-rule="nonzero"/><path fill="#000000" d="M51.20625 53.932293L52.221874 53.838543Q52.346874 54.557293 52.70625 54.885418Q53.08125 55.197918 53.64375 55.197918Q54.128124 55.197918 54.4875 54.979168Q54.8625 54.744793 55.096874 54.385418Q55.33125 54.010418 55.4875 53.385418Q55.64375 52.744793 55.64375 52.088543Q55.64375 52.010418 55.64375 51.869793Q55.33125 52.369793 54.784374 52.697918Q54.2375 53.010418 53.596874 53.010418Q52.51875 53.010418 51.784374 52.244793Q51.05 51.463543 51.05 50.197918Q51.05 48.885418 51.815624 48.088543Q52.596874 47.291668 53.753124 47.291668Q54.58125 47.291668 55.26875 47.744793Q55.971874 48.197918 56.33125 49.041668Q56.690624 49.869793 56.690624 51.447918Q56.690624 53.088543 56.33125 54.072918Q55.9875 55.041668 55.26875 55.557293Q54.565624 56.057293 53.628124 56.057293Q52.6125 56.057293 51.971874 55.510418Q51.33125 54.947918 51.20625 53.932293ZM55.51875 50.135418Q55.51875 49.229168 55.034374 48.697918Q54.565624 48.166668 53.878124 48.166668Q53.175 48.166668 52.64375 48.744793Q52.128124 49.307293 52.128124 50.229168Q52.128124 51.041668 52.628124 51.557293Q53.128124 52.072918 53.846874 52.072918Q54.58125 52.072918 55.05 51.557293Q55.51875 51.041668 55.51875 50.135418ZM58.05 53.666668L59.159374 53.572918Q59.284374 54.385418 59.721874 54.791668Q60.175 55.197918 60.815624 55.197918Q61.565624 55.197918 62.096874 54.619793Q62.628124 54.041668 62.628124 53.104168Q62.628124 52.197918 62.1125 51.682293Q61.6125 51.151043 60.784374 51.151043Q60.284374 51.151043 59.8625 51.385418Q59.45625 51.619793 59.221874 51.979168L58.2375 51.854168L59.065624 47.447918L63.346874 47.447918L63.346874 48.447918L59.909374 48.447918L59.45625 50.760418Q60.221874 50.213543 61.065624 50.213543Q62.190624 50.213543 62.95625 50.994793Q63.7375 51.776043 63.7375 53.010418Q63.7375 54.166668 63.065624 55.026043Q62.2375 56.057293 60.815624 56.057293Q59.64375 56.057293 58.89375 55.401043Q58.159374 54.744793 58.05 53.666668ZM65.64375 55.916668L65.64375 54.713543L66.84688 54.713543L66.84688 55.916668L65.64375 55.916668ZM68.05 51.682293Q68.05 50.151043 68.3625 49.229168Q68.675 48.291668 69.28438 47.791668Q69.90938 47.291668 70.84688 47.291668Q71.53438 47.291668 72.05 47.572918Q72.58125 47.854168 72.925 48.385418Q73.26875 48.901043 73.45625 49.651043Q73.64375 50.401043 73.64375 51.682293Q73.64375 53.197918 73.33125 54.119793Q73.03438 55.041668 72.40938 55.557293Q71.8 56.057293 70.84688 56.057293Q69.6125 56.057293 68.89375 55.166668Q68.05 54.104168 68.05 51.682293ZM69.12813 51.682293Q69.12813 53.791668 69.62813 54.494793Q70.12813 55.197918 70.84688 55.197918Q71.58125 55.197918 72.06563 54.494793Q72.56563 53.791668 72.56563 51.682293Q72.56563 49.557293 72.06563 48.869793Q71.58125 48.166668 70.83125 48.166668Q70.1125 48.166668 69.675 48.776043Q69.12813 49.557293 69.12813 51.682293Z" fill-rule="nonzero"/><path fill="#000000" d="M54.18967 313.21564Q54.18967 311.6844 54.50217 310.7625Q54.81467 309.825 55.424046 309.325Q56.049046 308.825 56.986546 308.825Q57.674046 308.825 58.18967 309.10626Q58.72092 309.3875 59.06467 309.91876Q59.40842 310.4344 59.59592 311.1844Q59.78342 311.9344 59.78342 313.21564Q59.78342 314.73126 59.47092 315.65314Q59.174046 316.575 58.549046 317.09064Q57.93967 317.59064 56.986546 317.59064Q55.75217 317.59064 55.03342 316.7Q54.18967 315.6375 54.18967 313.21564ZM55.267796 313.21564Q55.267796 315.325 55.767796 316.02814Q56.267796 316.73126 56.986546 316.73126Q57.72092 316.73126 58.205296 316.02814Q58.705296 315.325 58.705296 313.21564Q58.705296 311.09064 58.205296 310.40314Q57.72092 309.7 56.97092 309.7Q56.25217 309.7 55.81467 310.3094Q55.267796 311.09064 55.267796 313.21564ZM65.15842 317.45L64.11154 317.45L64.11154 310.73126Q63.72092 311.09064 63.09592 311.46564Q62.486546 311.825 62.00217 311.9969L62.00217 310.98126Q62.87717 310.5594 63.53342 309.98126Q64.20529 309.3875 64.48654 308.825L65.15842 308.825L65.15842 317.45ZM67.68967 317.59064L70.17404 308.71564L71.01779 308.71564L68.53342 317.59064L67.68967 317.59064ZM71.18967 313.21564Q71.18967 311.6844 71.50217 310.7625Q71.81467 309.825 72.42404 309.325Q73.04904 308.825 73.98654 308.825Q74.67404 308.825 75.18967 309.10626Q75.72092 309.3875 76.06467 309.91876Q76.40842 310.4344 76.59592 311.1844Q76.78342 311.9344 76.78342 313.21564Q76.78342 314.73126 76.47092 315.65314Q76.17404 316.575 75.54904 317.09064Q74.93967 317.59064 73.98654 317.59064Q72.75217 317.59064 72.03342 316.7Q71.18967 315.6375 71.18967 313.21564ZM72.26779 313.21564Q72.26779 315.325 72.76779 316.02814Q73.26779 316.73126 73.98654 316.73126Q74.72092 316.73126 75.20529 316.02814Q75.70529 315.325 75.70529 313.21564Q75.70529 311.09064 75.20529 310.40314Q74.72092 309.7 73.97092 309.7Q73.25217 309.7 72.81467 310.3094Q72.26779 311.09064 72.26779 313.21564ZM78.34592 315.46564L79.36154 315.3719Q79.48654 316.09064 79.84592 316.41876Q80.22092 316.73126 80.78342 316.73126Q81.26779 316.73126 81.62717 316.5125Q82.00217 316.27814 82.23654 315.91876Q82.47092 315.54376 82.62717 314.91876Q82.78342 314.27814 82.78342 313.6219Q82.78342 313.54376 82.78342 313.40314Q82.47092 313.90314 81.92404 314.23126Q81.37717 314.54376 80.73654 314.54376Q79.65842 314.54376 78.92404 313.77814Q78.18967 312.9969 78.18967 311.73126Q78.18967 310.41876 78.95529 309.6219Q79.73654 308.825 80.89279 308.825Q81.72092 308.825 82.40842 309.27814Q83.11154 309.73126 83.47092 310.575Q83.83029 311.40314 83.83029 312.98126Q83.83029 314.6219 83.47092 315.60626Q83.12717 316.575 82.40842 317.09064Q81.70529 317.59064 80.76779 317.59064Q79.75217 317.59064 79.11154 317.04376Q78.47092 316.48126 78.34592 315.46564ZM82.65842 311.66876Q82.65842 310.7625 82.17404 310.23126Q81.70529 309.7 81.01779 309.7Q80.31467 309.7 79.78342 310.27814Q79.26779 310.84064 79.26779 311.7625Q79.26779 312.575 79.76779 313.09064Q80.26779 313.60626 80.98654 313.60626Q81.72092 313.60626 82.18967 313.09064Q82.65842 312.575 82.65842 311.66876ZM84.68967 317.59064L87.17404 308.71564L88.01779 308.71564L85.53342 317.59064L84.68967 317.59064ZM93.73654 316.4344L93.73654 317.45L88.04904 317.45Q88.04904 317.075 88.17404 316.71564Q88.39279 316.1375 88.86154 315.575Q89.34592 315.0125 90.25217 314.27814Q91.65842 313.1219 92.14279 312.45Q92.64279 311.77814 92.64279 311.1844Q92.64279 310.5594 92.18967 310.1375Q91.73654 309.7 91.01779 309.7Q90.25217 309.7 89.79904 310.15314Q89.34592 310.60626 89.33029 311.41876L88.25217 311.3094Q88.36154 310.09064 89.08029 309.46564Q89.81467 308.825 91.04904 308.825Q92.28342 308.825 93.00217 309.5125Q93.72092 310.2 93.72092 311.21564Q93.72092 311.73126 93.50217 312.23126Q93.29904 312.71564 92.79904 313.27814Q92.31467 313.825 91.18967 314.77814Q90.23654 315.575 89.95529 315.8719Q89.68967 316.15314 89.51779 316.4344L93.73654 316.4344ZM95.18967 313.21564Q95.18967 311.6844 95.50217 310.7625Q95.81467 309.825 96.42404 309.325Q97.04904 308.825 97.98654 308.825Q98.67404 308.825 99.18967 309.10626Q99.72092 309.3875 100.06467 309.91876Q100.40842 310.4344 100.59592 311.1844Q100.78342 311.9344 100.78342 313.21564Q100.78342 314.73126 100.47092 315.65314Q100.17404 316.575 99.54904 317.09064Q98.93967 317.59064 97.98654 317.59064Q96.75217 317.59064 96.03342 316.7Q95.18967 315.6375 95.18967 313.21564ZM96.26779 313.21564Q96.26779 315.325 96.76779 316.02814Q97.26779 316.73126 97.98654 316.73126Q98.72092 316.73126 99.20529 316.02814Q99.70529 315.325 99.70529 313.21564Q99.70529 311.09064 99.20529 310.40314Q98.72092 309.7 97.97092 309.7Q97.25217 309.7 96.81467 310.3094Q96.26779 311.09064 96.26779 313.21564ZM107.73654 316.4344L107.73654 317.45L102.04904 317.45Q102.04904 317.075 102.17404 316.71564Q102.39279 316.1375 102.86154 315.575Q103.34592 315.0125 104.25217 314.27814Q105.65842 313.1219 106.14279 312.45Q106.64279 311.77814 106.64279 311.1844Q106.64279 310.5594 106.18967 310.1375Q105.73654 309.7 105.01779 309.7Q104.25217 309.7 103.79904 310.15314Q103.34592 310.60626 103.33029 311.41876L102.25217 311.3094Q102.36154 310.09064 103.08029 309.46564Q103.81467 308.825 105.04904 308.825Q106.28342 308.825 107.00217 309.5125Q107.72092 310.2 107.72092 311.21564Q107.72092 311.73126 107.50217 312.23126Q107.29904 312.71564 106.79904 313.27814Q106.31467 313.825 105.18967 314.77814Q104.23654 315.575 103.95529 315.8719Q103.68967 316.15314 103.51779 316.4344L107.73654 316.4344ZM112.56467 317.45L112.56467 315.3875L108.84592 315.3875L108.84592 314.41876L112.76779 308.85626L113.62717 308.85626L113.62717 314.41876L114.78342 314.41876L114.78342 315.3875L113.62717 315.3875L113.62717 317.45L112.56467 317.45ZM112.56467 314.41876L112.56467 310.5594L109.87717 314.41876L112.56467 314.41876Z" fill-rule="nonzero"/><path fill="#000000" d="M138.36295 313.21564Q138.36295 311.6844 138.67545 310.7625Q138.98795 309.825 139.59732 309.325Q140.22232 308.825 141.15982 308.825Q141.84732 308.825 142.36295 309.10626Q142.8942 309.3875 143.23795 309.91876Q143.5817 310.4344 143.7692 311.1844Q143.9567 311.9344 143.9567 313.21564Q143.9567 314.73126 143.6442 315.65314Q143.34732 316.575 142.72232 317.09064Q142.11295 317.59064 141.15982 317.59064Q139.92545 317.59064 139.2067 316.7Q138.36295 315.6375 138.36295 313.21564ZM139.44107 313.21564Q139.44107 315.325 139.94107 316.02814Q140.44107 316.73126 141.15982 316.73126Q141.8942 316.73126 142.37857 316.02814Q142.87857 315.325 142.87857 313.21564Q142.87857 311.09064 142.37857 310.40314Q141.8942 309.7 141.1442 309.7Q140.42545 309.7 139.98795 310.3094Q139.44107 311.09064 139.44107 313.21564ZM149.3317 317.45L148.28482 317.45L148.28482 310.73126Q147.8942 311.09064 147.2692 311.46564Q146.65982 311.825 146.17545 311.9969L146.17545 310.98126Q147.05045 310.5594 147.7067 309.98126Q148.37857 309.3875 148.65982 308.825L149.3317 308.825L149.3317 317.45ZM151.86295 317.59064L154.34732 308.71564L155.19107 308.71564L152.7067 317.59064L151.86295 317.59064ZM159.3317 317.45L158.28482 317.45L158.28482 310.73126Q157.8942 311.09064 157.2692 311.46564Q156.65982 311.825 156.17545 311.9969L156.17545 310.98126Q157.05045 310.5594 157.7067 309.98126Q158.37857 309.3875 158.65982 308.825L159.3317 308.825L159.3317 317.45ZM166.3317 317.45L165.28482 317.45L165.28482 310.73126Q164.8942 311.09064 164.2692 311.46564Q163.65982 311.825 163.17545 311.9969L163.17545 310.98126Q164.05045 310.5594 164.7067 309.98126Q165.37857 309.3875 165.65982 308.825L166.3317 308.825L166.3317 317.45ZM168.86295 317.59064L171.34732 308.71564L172.19107 308.71564L169.7067 317.59064L168.86295 317.59064ZM177.90982 316.4344L177.90982 317.45L172.22232 317.45Q172.22232 317.075 172.34732 316.71564Q172.56607 316.1375 173.03482 315.575Q173.5192 315.0125 174.42545 314.27814Q175.8317 313.1219 176.31607 312.45Q176.81607 311.77814 176.81607 311.1844Q176.81607 310.5594 176.36295 310.1375Q175.90982 309.7 175.19107 309.7Q174.42545 309.7 173.97232 310.15314Q173.5192 310.60626 173.50357 311.41876L172.42545 311.3094Q172.53482 310.09064 173.25357 309.46564Q173.98795 308.825 175.22232 308.825Q176.4567 308.825 177.17545 309.5125Q177.8942 310.2 177.8942 311.21564Q177.8942 311.73126 177.67545 312.23126Q177.47232 312.71564 176.97232 313.27814Q176.48795 313.825 175.36295 314.77814Q174.40982 315.575 174.12857 315.8719Q173.86295 316.15314 173.69107 316.4344L177.90982 316.4344ZM179.36295 313.21564Q179.36295 311.6844 179.67545 310.7625Q179.98795 309.825 180.59732 309.325Q181.22232 308.825 182.15982 308.825Q182.84732 308.825 183.36295 309.10626Q183.8942 309.3875 184.23795 309.91876Q184.5817 310.4344 184.7692 311.1844Q184.9567 311.9344 184.9567 313.21564Q184.9567 314.73126 184.6442 315.65314Q184.34732 316.575 183.72232 317.09064Q183.11295 317.59064 182.15982 317.59064Q180.92545 317.59064 180.2067 316.7Q179.36295 315.6375 179.36295 313.21564ZM180.44107 313.21564Q180.44107 315.325 180.94107 316.02814Q181.44107 316.73126 182.15982 316.73126Q182.8942 316.73126 183.37857 316.02814Q183.87857 315.325 183.87857 313.21564Q183.87857 311.09064 183.37857 310.40314Q182.8942 309.7 182.1442 309.7Q181.42545 309.7 180.98795 310.3094Q180.44107 311.09064 180.44107 313.21564ZM191.90982 316.4344L191.90982 317.45L186.22232 317.45Q186.22232 317.075 186.34732 316.71564Q186.56607 316.1375 187.03482 315.575Q187.5192 315.0125 188.42545 314.27814Q189.8317 313.1219 190.31607 312.45Q190.81607 311.77814 190.81607 311.1844Q190.81607 310.5594 190.36295 310.1375Q189.90982 309.7 189.19107 309.7Q188.42545 309.7 187.97232 310.15314Q187.5192 310.60626 187.50357 311.41876L186.42545 311.3094Q186.53482 310.09064 187.25357 309.46564Q187.98795 308.825 189.22232 308.825Q190.4567 308.825 191.17545 309.5125Q191.8942 310.2 191.8942 311.21564Q191.8942 311.73126 191.67545 312.23126Q191.47232 312.71564 190.97232 313.27814Q190.48795 313.825 189.36295 314.77814Q188.40982 315.575 188.12857 315.8719Q187.86295 316.15314 187.69107 316.4344L191.90982 316.4344ZM196.73795 317.45L196.73795 315.3875L193.0192 315.3875L193.0192 314.41876L196.94107 308.85626L197.80045 308.85626L197.80045 314.41876L198.9567 314.41876L198.9567 315.3875L197.80045 315.3875L197.80045 317.45L196.73795 317.45ZM196.73795 314.41876L196.73795 310.5594L194.05045 314.41876L196.73795 314.41876Z" fill-rule="nonzero"/><path fill="#000000" d="M222.53622 313.21564Q222.53622 311.6844 222.84872 310.7625Q223.16122 309.825 223.7706 309.325Q224.3956 308.825 225.3331 308.825Q226.0206 308.825 226.53622 309.10626Q227.06747 309.3875 227.41122 309.91876Q227.75497 310.4344 227.94247 311.1844Q228.12997 311.9344 228.12997 313.21564Q228.12997 314.73126 227.81747 315.65314Q227.5206 316.575 226.8956 317.09064Q226.28622 317.59064 225.3331 317.59064Q224.09872 317.59064 223.37997 316.7Q222.53622 315.6375 222.53622 313.21564ZM223.61435 313.21564Q223.61435 315.325 224.11435 316.02814Q224.61435 316.73126 225.3331 316.73126Q226.06747 316.73126 226.55185 316.02814Q227.05185 315.325 227.05185 313.21564Q227.05185 311.09064 226.55185 310.40314Q226.06747 309.7 225.31747 309.7Q224.59872 309.7 224.16122 310.3094Q223.61435 311.09064 223.61435 313.21564ZM233.50497 317.45L232.4581 317.45L232.4581 310.73126Q232.06747 311.09064 231.44247 311.46564Q230.8331 311.825 230.34872 311.9969L230.34872 310.98126Q231.22372 310.5594 231.87997 309.98126Q232.55185 309.3875 232.8331 308.825L233.50497 308.825L233.50497 317.45ZM236.03622 317.59064L238.5206 308.71564L239.36435 308.71564L236.87997 317.59064L236.03622 317.59064ZM239.53622 313.21564Q239.53622 311.6844 239.84872 310.7625Q240.16122 309.825 240.7706 309.325Q241.3956 308.825 242.3331 308.825Q243.0206 308.825 243.53622 309.10626Q244.06747 309.3875 244.41122 309.91876Q244.75497 310.4344 244.94247 311.1844Q245.12997 311.9344 245.12997 313.21564Q245.12997 314.73126 244.81747 315.65314Q244.5206 316.575 243.8956 317.09064Q243.28622 317.59064 242.3331 317.59064Q241.09872 317.59064 240.37997 316.7Q239.53622 315.6375 239.53622 313.21564ZM240.61435 313.21564Q240.61435 315.325 241.11435 316.02814Q241.61435 316.73126 242.3331 316.73126Q243.06747 316.73126 243.55185 316.02814Q244.05185 315.325 244.05185 313.21564Q244.05185 311.09064 243.55185 310.40314Q243.06747 309.7 242.31747 309.7Q241.59872 309.7 241.16122 310.3094Q240.61435 311.09064 240.61435 313.21564ZM250.50497 317.45L249.4581 317.45L249.4581 310.73126Q249.06747 311.09064 248.44247 311.46564Q247.8331 311.825 247.34872 311.9969L247.34872 310.98126Q248.22372 310.5594 248.87997 309.98126Q249.55185 309.3875 249.8331 308.825L250.50497 308.825L250.50497 317.45ZM253.03622 317.59064L255.5206 308.71564L256.36435 308.71564L253.87997 317.59064L253.03622 317.59064ZM262.0831 316.4344L262.0831 317.45L256.3956 317.45Q256.3956 317.075 256.5206 316.71564Q256.73935 316.1375 257.2081 315.575Q257.69247 315.0125 258.59872 314.27814Q260.00497 313.1219 260.48935 312.45Q260.98935 311.77814 260.98935 311.1844Q260.98935 310.5594 260.53622 310.1375Q260.0831 309.7 259.36435 309.7Q258.59872 309.7 258.1456 310.15314Q257.69247 310.60626 257.67685 311.41876L256.59872 311.3094Q256.7081 310.09064 257.42685 309.46564Q258.16122 308.825 259.3956 308.825Q260.62997 308.825 261.34872 309.5125Q262.06747 310.2 262.06747 311.21564Q262.06747 311.73126 261.84872 312.23126Q261.6456 312.71564 261.1456 313.27814Q260.66122 313.825 259.53622 314.77814Q258.5831 315.575 258.30185 315.8719Q258.03622 316.15314 257.86435 316.4344L262.0831 316.4344ZM263.53622 313.21564Q263.53622 311.6844 263.84872 310.7625Q264.16122 309.825 264.7706 309.325Q265.3956 308.825 266.3331 308.825Q267.0206 308.825 267.53622 309.10626Q268.06747 309.3875 268.41122 309.91876Q268.75497 310.4344 268.94247 311.1844Q269.12997 311.9344 269.12997 313.21564Q269.12997 314.73126 268.81747 315.65314Q268.5206 316.575 267.8956 317.09064Q267.28622 317.59064 266.3331 317.59064Q265.09872 317.59064 264.37997 316.7Q263.53622 315.6375 263.53622 313.21564ZM264.61435 313.21564Q264.61435 315.325 265.11435 316.02814Q265.61435 316.73126 266.3331 316.73126Q267.06747 316.73126 267.55185 316.02814Q268.05185 315.325 268.05185 313.21564Q268.05185 311.09064 267.55185 310.40314Q267.06747 309.7 266.31747 309.7Q265.59872 309.7 265.16122 310.3094Q264.61435 311.09064 264.61435 313.21564ZM276.0831 316.4344L276.0831 317.45L270.3956 317.45Q270.3956 317.075 270.5206 316.71564Q270.73935 316.1375 271.2081 315.575Q271.69247 315.0125 272.59872 314.27814Q274.00497 313.1219 274.48935 312.45Q274.98935 311.77814 274.98935 311.1844Q274.98935 310.5594 274.53622 310.1375Q274.0831 309.7 273.36435 309.7Q272.59872 309.7 272.1456 310.15314Q271.69247 310.60626 271.67685 311.41876L270.59872 311.3094Q270.7081 310.09064 271.42685 309.46564Q272.16122 308.825 273.3956 308.825Q274.62997 308.825 275.34872 309.5125Q276.06747 310.2 276.06747 311.21564Q276.06747 311.73126 275.84872 312.23126Q275.6456 312.71564 275.1456 313.27814Q274.66122 313.825 273.53622 314.77814Q272.5831 315.575 272.30185 315.8719Q272.03622 316.15314 271.86435 316.4344L276.0831 316.4344ZM277.53622 315.2L278.6456 315.10626Q278.7706 315.91876 279.2081 316.325Q279.66122 316.73126 280.30185 316.73126Q281.05185 316.73126 281.5831 316.15314Q282.11435 315.575 282.11435 314.6375Q282.11435 313.73126 281.59872 313.21564Q281.09872 312.6844 280.2706 312.6844Q279.7706 312.6844 279.34872 312.91876Q278.94247 313.15314 278.7081 313.5125L277.72372 313.3875L278.55185 308.98126L282.8331 308.98126L282.8331 309.98126L279.3956 309.98126L278.94247 312.29376Q279.7081 311.7469 280.55185 311.7469Q281.67685 311.7469 282.44247 312.52814Q283.22372 313.3094 283.22372 314.54376Q283.22372 315.7 282.55185 316.5594Q281.72372 317.59064 280.30185 317.59064Q279.12997 317.59064 278.37997 316.9344Q277.6456 316.27814 277.53622 315.2Z" fill-rule="nonzero"/><path fill="#000000" d="M303.94974 313.21564Q303.94974 311.6844 304.26224 310.7625Q304.57474 309.825 305.1841 309.325Q305.8091 308.825 306.7466 308.825Q307.4341 308.825 307.94974 309.10626Q308.481 309.3875 308.82474 309.91876Q309.1685 310.4344 309.356 311.1844Q309.5435 311.9344 309.5435 313.21564Q309.5435 314.73126 309.231 315.65314Q308.9341 316.575 308.3091 317.09064Q307.69974 317.59064 306.7466 317.59064Q305.51224 317.59064 304.7935 316.7Q303.94974 315.6375 303.94974 313.21564ZM305.02786 313.21564Q305.02786 315.325 305.52786 316.02814Q306.02786 316.73126 306.7466 316.73126Q307.481 316.73126 307.96536 316.02814Q308.46536 315.325 308.46536 313.21564Q308.46536 311.09064 307.96536 310.40314Q307.481 309.7 306.731 309.7Q306.01224 309.7 305.57474 310.3094Q305.02786 311.09064 305.02786 313.21564ZM314.9185 317.45L313.8716 317.45L313.8716 310.73126Q313.481 311.09064 312.856 311.46564Q312.2466 311.825 311.76224 311.9969L311.76224 310.98126Q312.63724 310.5594 313.2935 309.98126Q313.96536 309.3875 314.2466 308.825L314.9185 308.825L314.9185 317.45ZM317.44974 317.59064L319.9341 308.71564L320.77786 308.71564L318.2935 317.59064L317.44974 317.59064ZM320.94974 313.21564Q320.94974 311.6844 321.26224 310.7625Q321.57474 309.825 322.1841 309.325Q322.8091 308.825 323.7466 308.825Q324.4341 308.825 324.94974 309.10626Q325.481 309.3875 325.82474 309.91876Q326.1685 310.4344 326.356 311.1844Q326.5435 311.9344 326.5435 313.21564Q326.5435 314.73126 326.231 315.65314Q325.9341 316.575 325.3091 317.09064Q324.69974 317.59064 323.7466 317.59064Q322.51224 317.59064 321.7935 316.7Q320.94974 315.6375 320.94974 313.21564ZM322.02786 313.21564Q322.02786 315.325 322.52786 316.02814Q323.02786 316.73126 323.7466 316.73126Q324.481 316.73126 324.96536 316.02814Q325.46536 315.325 325.46536 313.21564Q325.46536 311.09064 324.96536 310.40314Q324.481 309.7 323.731 309.7Q323.01224 309.7 322.57474 310.3094Q322.02786 311.09064 322.02786 313.21564ZM327.94974 315.1844L329.01224 315.04376Q329.1841 315.9344 329.6216 316.34064Q330.0591 316.73126 330.6841 316.73126Q331.4341 316.73126 331.94974 316.21564Q332.46536 315.7 332.46536 314.9344Q332.46536 314.21564 331.981 313.7469Q331.51224 313.2625 330.77786 313.2625Q330.481 313.2625 330.02786 313.3875L330.15286 312.45Q330.26224 312.46564 330.32474 312.46564Q330.9966 312.46564 331.52786 312.1219Q332.07474 311.7625 332.07474 311.02814Q332.07474 310.45 331.6841 310.075Q331.2935 309.6844 330.6685 309.6844Q330.0591 309.6844 329.63724 310.075Q329.231 310.46564 329.1216 311.23126L328.0591 311.04376Q328.2466 309.9969 328.9341 309.41876Q329.6216 308.825 330.63724 308.825Q331.34036 308.825 331.9341 309.1375Q332.52786 309.4344 332.84036 309.95Q333.15286 310.46564 333.15286 311.0594Q333.15286 311.60626 332.856 312.075Q332.5591 312.52814 331.981 312.79376Q332.731 312.96564 333.15286 313.52814Q333.57474 314.075 333.57474 314.91876Q333.57474 316.04376 332.7466 316.825Q331.9341 317.60626 330.6841 317.60626Q329.5591 317.60626 328.8091 316.9344Q328.0591 316.2469 327.94974 315.1844ZM334.44974 317.59064L336.9341 308.71564L337.77786 308.71564L335.2935 317.59064L334.44974 317.59064ZM343.4966 316.4344L343.4966 317.45L337.8091 317.45Q337.8091 317.075 337.9341 316.71564Q338.15286 316.1375 338.6216 315.575Q339.106 315.0125 340.01224 314.27814Q341.4185 313.1219 341.90286 312.45Q342.40286 311.77814 342.40286 311.1844Q342.40286 310.5594 341.94974 310.1375Q341.4966 309.7 340.77786 309.7Q340.01224 309.7 339.5591 310.15314Q339.106 310.60626 339.09036 311.41876L338.01224 311.3094Q338.1216 310.09064 338.84036 309.46564Q339.57474 308.825 340.8091 308.825Q342.0435 308.825 342.76224 309.5125Q343.481 310.2 343.481 311.21564Q343.481 311.73126 343.26224 312.23126Q343.0591 312.71564 342.5591 313.27814Q342.07474 313.825 340.94974 314.77814Q339.9966 315.575 339.71536 315.8719Q339.44974 316.15314 339.27786 316.4344L343.4966 316.4344ZM344.94974 313.21564Q344.94974 311.6844 345.26224 310.7625Q345.57474 309.825 346.1841 309.325Q346.8091 308.825 347.7466 308.825Q348.4341 308.825 348.94974 309.10626Q349.481 309.3875 349.82474 309.91876Q350.1685 310.4344 350.356 311.1844Q350.5435 311.9344 350.5435 313.21564Q350.5435 314.73126 350.231 315.65314Q349.9341 316.575 349.3091 317.09064Q348.69974 317.59064 347.7466 317.59064Q346.51224 317.59064 345.7935 316.7Q344.94974 315.6375 344.94974 313.21564ZM346.02786 313.21564Q346.02786 315.325 346.52786 316.02814Q347.02786 316.73126 347.7466 316.73126Q348.481 316.73126 348.96536 316.02814Q349.46536 315.325 349.46536 313.21564Q349.46536 311.09064 348.96536 310.40314Q348.481 309.7 347.731 309.7Q347.01224 309.7 346.57474 310.3094Q346.02786 311.09064 346.02786 313.21564ZM357.4966 316.4344L357.4966 317.45L351.8091 317.45Q351.8091 317.075 351.9341 316.71564Q352.15286 316.1375 352.6216 315.575Q353.106 315.0125 354.01224 314.27814Q355.4185 313.1219 355.90286 312.45Q356.40286 311.77814 356.40286 311.1844Q356.40286 310.5594 355.94974 310.1375Q355.4966 309.7 354.77786 309.7Q354.01224 309.7 353.5591 310.15314Q353.106 310.60626 353.09036 311.41876L352.01224 311.3094Q352.1216 310.09064 352.84036 309.46564Q353.57474 308.825 354.8091 308.825Q356.0435 308.825 356.76224 309.5125Q357.481 310.2 357.481 311.21564Q357.481 311.73126 357.26224 312.23126Q357.0591 312.71564 356.5591 313.27814Q356.07474 313.825 354.94974 314.77814Q353.9966 315.575 353.71536 315.8719Q353.44974 316.15314 353.27786 316.4344L357.4966 316.4344ZM358.94974 315.2L360.0591 315.10626Q360.1841 315.91876 360.6216 316.325Q361.07474 316.73126 361.71536 316.73126Q362.46536 316.73126 362.9966 316.15314Q363.52786 315.575 363.52786 314.6375Q363.52786 313.73126 363.01224 313.21564Q362.51224 312.6844 361.6841 312.6844Q361.1841 312.6844 360.76224 312.91876Q360.356 313.15314 360.1216 313.5125L359.13724 313.3875L359.96536 308.98126L364.2466 308.98126L364.2466 309.98126L360.8091 309.98126L360.356 312.29376Q361.1216 311.7469 361.96536 311.7469Q363.09036 311.7469 363.856 312.52814Q364.63724 313.3094 364.63724 314.54376Q364.63724 315.7 363.96536 316.5594Q363.13724 317.59064 361.71536 317.59064Q360.5435 317.59064 359.7935 316.9344Q359.0591 316.27814 358.94974 315.2Z" fill-rule="nonzero"/><path fill="#000000" d="M388.12302 313.21564Q388.12302 311.6844 388.43552 310.7625Q388.74802 309.825 389.3574 309.325Q389.9824 308.825 390.9199 308.825Q391.6074 308.825 392.12302 309.10626Q392.65427 309.3875 392.99802 309.91876Q393.34177 310.4344 393.52927 311.1844Q393.71677 311.9344 393.71677 313.21564Q393.71677 314.73126 393.40427 315.65314Q393.1074 316.575 392.4824 317.09064Q391.87302 317.59064 390.9199 317.59064Q389.68552 317.59064 388.96677 316.7Q388.12302 315.6375 388.12302 313.21564ZM389.20114 313.21564Q389.20114 315.325 389.70114 316.02814Q390.20114 316.73126 390.9199 316.73126Q391.65427 316.73126 392.13864 316.02814Q392.63864 315.325 392.63864 313.21564Q392.63864 311.09064 392.13864 310.40314Q391.65427 309.7 390.90427 309.7Q390.18552 309.7 389.74802 310.3094Q389.20114 311.09064 389.20114 313.21564ZM399.09177 317.45L398.0449 317.45L398.0449 310.73126Q397.65427 311.09064 397.02927 311.46564Q396.4199 311.825 395.93552 311.9969L395.93552 310.98126Q396.81052 310.5594 397.46677 309.98126Q398.13864 309.3875 398.4199 308.825L399.09177 308.825L399.09177 317.45ZM401.62302 317.59064L404.1074 308.71564L404.95114 308.71564L402.46677 317.59064L401.62302 317.59064ZM405.12302 313.21564Q405.12302 311.6844 405.43552 310.7625Q405.74802 309.825 406.3574 309.325Q406.9824 308.825 407.9199 308.825Q408.6074 308.825 409.12302 309.10626Q409.65427 309.3875 409.99802 309.91876Q410.34177 310.4344 410.52927 311.1844Q410.71677 311.9344 410.71677 313.21564Q410.71677 314.73126 410.40427 315.65314Q410.1074 316.575 409.4824 317.09064Q408.87302 317.59064 407.9199 317.59064Q406.68552 317.59064 405.96677 316.7Q405.12302 315.6375 405.12302 313.21564ZM406.20114 313.21564Q406.20114 315.325 406.70114 316.02814Q407.20114 316.73126 407.9199 316.73126Q408.65427 316.73126 409.13864 316.02814Q409.63864 315.325 409.63864 313.21564Q409.63864 311.09064 409.13864 310.40314Q408.65427 309.7 407.90427 309.7Q407.18552 309.7 406.74802 310.3094Q406.20114 311.09064 406.20114 313.21564ZM412.12302 315.2L413.2324 315.10626Q413.3574 315.91876 413.7949 316.325Q414.24802 316.73126 414.88864 316.73126Q415.63864 316.73126 416.1699 316.15314Q416.70114 315.575 416.70114 314.6375Q416.70114 313.73126 416.18552 313.21564Q415.68552 312.6844 414.8574 312.6844Q414.3574 312.6844 413.93552 312.91876Q413.52927 313.15314 413.2949 313.5125L412.31052 313.3875L413.13864 308.98126L417.4199 308.98126L417.4199 309.98126L413.9824 309.98126L413.52927 312.29376Q414.2949 311.7469 415.13864 311.7469Q416.26364 311.7469 417.02927 312.52814Q417.81052 313.3094 417.81052 314.54376Q417.81052 315.7 417.13864 316.5594Q416.31052 317.59064 414.88864 317.59064Q413.71677 317.59064 412.96677 316.9344Q412.2324 316.27814 412.12302 315.2ZM418.62302 317.59064L421.1074 308.71564L421.95114 308.71564L419.46677 317.59064L418.62302 317.59064ZM427.6699 316.4344L427.6699 317.45L421.9824 317.45Q421.9824 317.075 422.1074 316.71564Q422.32614 316.1375 422.7949 315.575Q423.27927 315.0125 424.18552 314.27814Q425.59177 313.1219 426.07614 312.45Q426.57614 311.77814 426.57614 311.1844Q426.57614 310.5594 426.12302 310.1375Q425.6699 309.7 424.95114 309.7Q424.18552 309.7 423.7324 310.15314Q423.27927 310.60626 423.26364 311.41876L422.18552 311.3094Q422.2949 310.09064 423.01364 309.46564Q423.74802 308.825 424.9824 308.825Q426.21677 308.825 426.93552 309.5125Q427.65427 310.2 427.65427 311.21564Q427.65427 311.73126 427.43552 312.23126Q427.2324 312.71564 426.7324 313.27814Q426.24802 313.825 425.12302 314.77814Q424.1699 315.575 423.88864 315.8719Q423.62302 316.15314 423.45114 316.4344L427.6699 316.4344ZM429.12302 313.21564Q429.12302 311.6844 429.43552 310.7625Q429.74802 309.825 430.3574 309.325Q430.9824 308.825 431.9199 308.825Q432.6074 308.825 433.12302 309.10626Q433.65427 309.3875 433.99802 309.91876Q434.34177 310.4344 434.52927 311.1844Q434.71677 311.9344 434.71677 313.21564Q434.71677 314.73126 434.40427 315.65314Q434.1074 316.575 433.4824 317.09064Q432.87302 317.59064 431.9199 317.59064Q430.68552 317.59064 429.96677 316.7Q429.12302 315.6375 429.12302 313.21564ZM430.20114 313.21564Q430.20114 315.325 430.70114 316.02814Q431.20114 316.73126 431.9199 316.73126Q432.65427 316.73126 433.13864 316.02814Q433.63864 315.325 433.63864 313.21564Q433.63864 311.09064 433.13864 310.40314Q432.65427 309.7 431.90427 309.7Q431.18552 309.7 430.74802 310.3094Q430.20114 311.09064 430.20114 313.21564ZM441.6699 316.4344L441.6699 317.45L435.9824 317.45Q435.9824 317.075 436.1074 316.71564Q436.32614 316.1375 436.7949 315.575Q437.27927 315.0125 438.18552 314.27814Q439.59177 313.1219 440.07614 312.45Q440.57614 311.77814 440.57614 311.1844Q440.57614 310.5594 440.12302 310.1375Q439.6699 309.7 438.95114 309.7Q438.18552 309.7 437.7324 310.15314Q437.27927 310.60626 437.26364 311.41876L436.18552 311.3094Q436.2949 310.09064 437.01364 309.46564Q437.74802 308.825 438.9824 308.825Q440.21677 308.825 440.93552 309.5125Q441.65427 310.2 441.65427 311.21564Q441.65427 311.73126 441.43552 312.23126Q441.2324 312.71564 440.7324 313.27814Q440.24802 313.825 439.12302 314.77814Q438.1699 315.575 437.88864 315.8719Q437.62302 316.15314 437.45114 316.4344L441.6699 316.4344ZM443.12302 315.2L444.2324 315.10626Q444.3574 315.91876 444.7949 316.325Q445.24802 316.73126 445.88864 316.73126Q446.63864 316.73126 447.1699 316.15314Q447.70114 315.575 447.70114 314.6375Q447.70114 313.73126 447.18552 313.21564Q446.68552 312.6844 445.8574 312.6844Q445.3574 312.6844 444.93552 312.91876Q444.52927 313.15314 444.2949 313.5125L443.31052 313.3875L444.13864 308.98126L448.4199 308.98126L448.4199 309.98126L444.9824 309.98126L444.52927 312.29376Q445.2949 311.7469 446.13864 311.7469Q447.26364 311.7469 448.02927 312.52814Q448.81052 313.3094 448.81052 314.54376Q448.81052 315.7 448.13864 316.5594Q447.31052 317.59064 445.88864 317.59064Q444.71677 317.59064 443.96677 316.9344Q443.2324 316.27814 443.12302 315.2Z" fill-rule="nonzero"/><path fill="#000000" d="M472.2963 313.21564Q472.2963 311.6844 472.6088 310.7625Q472.9213 309.825 473.53067 309.325Q474.15567 308.825 475.09317 308.825Q475.78067 308.825 476.2963 309.10626Q476.82755 309.3875 477.1713 309.91876Q477.51505 310.4344 477.70255 311.1844Q477.89005 311.9344 477.89005 313.21564Q477.89005 314.73126 477.57755 315.65314Q477.28067 316.575 476.65567 317.09064Q476.0463 317.59064 475.09317 317.59064Q473.8588 317.59064 473.14005 316.7Q472.2963 315.6375 472.2963 313.21564ZM473.37442 313.21564Q473.37442 315.325 473.87442 316.02814Q474.37442 316.73126 475.09317 316.73126Q475.82755 316.73126 476.31192 316.02814Q476.81192 315.325 476.81192 313.21564Q476.81192 311.09064 476.31192 310.40314Q475.82755 309.7 475.07755 309.7Q474.3588 309.7 473.9213 310.3094Q473.37442 311.09064 473.37442 313.21564ZM483.26505 317.45L482.21817 317.45L482.21817 310.73126Q481.82755 311.09064 481.20255 311.46564Q480.59317 311.825 480.1088 311.9969L480.1088 310.98126Q480.9838 310.5594 481.64005 309.98126Q482.31192 309.3875 482.59317 308.825L483.26505 308.825L483.26505 317.45ZM485.7963 317.59064L488.28067 308.71564L489.12442 308.71564L486.64005 317.59064L485.7963 317.59064ZM489.2963 313.21564Q489.2963 311.6844 489.6088 310.7625Q489.9213 309.825 490.53067 309.325Q491.15567 308.825 492.09317 308.825Q492.78067 308.825 493.2963 309.10626Q493.82755 309.3875 494.1713 309.91876Q494.51505 310.4344 494.70255 311.1844Q494.89005 311.9344 494.89005 313.21564Q494.89005 314.73126 494.57755 315.65314Q494.28067 316.575 493.65567 317.09064Q493.0463 317.59064 492.09317 317.59064Q490.8588 317.59064 490.14005 316.7Q489.2963 315.6375 489.2963 313.21564ZM490.37442 313.21564Q490.37442 315.325 490.87442 316.02814Q491.37442 316.73126 492.09317 316.73126Q492.82755 316.73126 493.31192 316.02814Q493.81192 315.325 493.81192 313.21564Q493.81192 311.09064 493.31192 310.40314Q492.82755 309.7 492.07755 309.7Q491.3588 309.7 490.9213 310.3094Q490.37442 311.09064 490.37442 313.21564ZM496.3588 309.98126L496.3588 308.96564L501.9213 308.96564L501.9213 309.79376Q501.1088 310.66876 500.2963 312.1219Q499.49942 313.5594 499.06192 315.09064Q498.7338 316.16876 498.65567 317.45L497.56192 317.45Q497.57755 316.4344 497.95255 314.9969Q498.34317 313.5594 499.0463 312.23126Q499.76505 310.90314 500.57755 309.98126L496.3588 309.98126ZM502.7963 317.59064L505.28067 308.71564L506.12442 308.71564L503.64005 317.59064L502.7963 317.59064ZM511.84317 316.4344L511.84317 317.45L506.15567 317.45Q506.15567 317.075 506.28067 316.71564Q506.49942 316.1375 506.96817 315.575Q507.45255 315.0125 508.3588 314.27814Q509.76505 313.1219 510.24942 312.45Q510.74942 311.77814 510.74942 311.1844Q510.74942 310.5594 510.2963 310.1375Q509.84317 309.7 509.12442 309.7Q508.3588 309.7 507.90567 310.15314Q507.45255 310.60626 507.43692 311.41876L506.3588 311.3094Q506.46817 310.09064 507.18692 309.46564Q507.9213 308.825 509.15567 308.825Q510.39005 308.825 511.1088 309.5125Q511.82755 310.2 511.82755 311.21564Q511.82755 311.73126 511.6088 312.23126Q511.40567 312.71564 510.90567 313.27814Q510.4213 313.825 509.2963 314.77814Q508.34317 315.575 508.06192 315.8719Q507.7963 316.15314 507.62442 316.4344L511.84317 316.4344ZM513.29626 313.21564Q513.29626 311.6844 513.60876 310.7625Q513.92126 309.825 514.53064 309.325Q515.15564 308.825 516.09314 308.825Q516.78064 308.825 517.29626 309.10626Q517.8275 309.3875 518.17126 309.91876Q518.515 310.4344 518.7025 311.1844Q518.89 311.9344 518.89 313.21564Q518.89 314.73126 518.5775 315.65314Q518.28064 316.575 517.65564 317.09064Q517.04626 317.59064 516.09314 317.59064Q514.85876 317.59064 514.14 316.7Q513.29626 315.6375 513.29626 313.21564ZM514.3744 313.21564Q514.3744 315.325 514.8744 316.02814Q515.3744 316.73126 516.09314 316.73126Q516.8275 316.73126 517.3119 316.02814Q517.8119 315.325 517.8119 313.21564Q517.8119 311.09064 517.3119 310.40314Q516.8275 309.7 516.0775 309.7Q515.35876 309.7 514.92126 310.3094Q514.3744 311.09064 514.3744 313.21564ZM525.84314 316.4344L525.84314 317.45L520.15564 317.45Q520.15564 317.075 520.28064 316.71564Q520.4994 316.1375 520.96814 315.575Q521.4525 315.0125 522.35876 314.27814Q523.765 313.1219 524.2494 312.45Q524.7494 311.77814 524.7494 311.1844Q524.7494 310.5594 524.29626 310.1375Q523.84314 309.7 523.1244 309.7Q522.35876 309.7 521.90564 310.15314Q521.4525 310.60626 521.4369 311.41876L520.35876 311.3094Q520.46814 310.09064 521.1869 309.46564Q521.92126 308.825 523.15564 308.825Q524.39 308.825 525.10876 309.5125Q525.8275 310.2 525.8275 311.21564Q525.8275 311.73126 525.60876 312.23126Q525.40564 312.71564 524.90564 313.27814Q524.42126 313.825 523.29626 314.77814Q522.34314 315.575 522.0619 315.8719Q521.79626 316.15314 521.6244 316.4344L525.84314 316.4344ZM527.29626 315.2L528.40564 315.10626Q528.53064 315.91876 528.96814 316.325Q529.42126 316.73126 530.0619 316.73126Q530.8119 316.73126 531.34314 316.15314Q531.8744 315.575 531.8744 314.6375Q531.8744 313.73126 531.35876 313.21564Q530.85876 312.6844 530.03064 312.6844Q529.53064 312.6844 529.10876 312.91876Q528.7025 313.15314 528.46814 313.5125L527.48376 313.3875L528.3119 308.98126L532.59314 308.98126L532.59314 309.98126L529.15564 309.98126L528.7025 312.29376Q529.46814 311.7469 530.3119 311.7469Q531.4369 311.7469 532.2025 312.52814Q532.98376 313.3094 532.98376 314.54376Q532.98376 315.7 532.3119 316.5594Q531.48376 317.59064 530.0619 317.59064Q528.89 317.59064 528.14 316.9344Q527.40564 316.27814 527.29626 315.2Z" fill-rule="nonzero"/><path stroke="#4285f4" stroke-width="4.0" stroke-linecap="butt" d="M240.0 25.55L252.0 25.55" fill-rule="nonzero"/><path fill="#1a1a1a" d="M262.42188 29.55L260.14062 20.95625L261.3125 20.95625L262.625 26.596874Q262.82812 27.471874 262.98438 28.346874Q263.3125 26.971874 263.375 26.753124L265.0 20.95625L266.375 20.95625L267.60938 25.3Q268.0625 26.925 268.28125 28.346874Q268.4375 27.534374 268.70312 26.471874L270.04688 20.95625L271.1875 20.95625L268.84375 29.55L267.73438 29.55L265.9375 23.003124Q265.70312 22.190624 265.65625 22.003124Q265.53125 22.58125 265.40625 23.003124L263.59375 29.55L262.42188 29.55ZM276.04688 27.55L277.14062 27.675Q276.89062 28.628124 276.1875 29.159374Q275.48438 29.690624 274.40625 29.690624Q273.04688 29.690624 272.23438 28.846874Q271.4375 28.003124 271.4375 26.4875Q271.4375 24.925 272.25 24.065624Q273.0625 23.190624 274.34375 23.190624Q275.59375 23.190624 276.375 24.034374Q277.17188 24.878124 277.17188 26.425Q277.17188 26.51875 277.17188 26.70625L272.53125 26.70625Q272.59375 27.7375 273.10938 28.284374Q273.625 28.815624 274.40625 28.815624Q274.98438 28.815624 275.39062 28.51875Q275.8125 28.20625 276.04688 27.55ZM272.59375 25.846874L276.0625 25.846874Q276.0 25.05 275.67188 24.659374Q275.15625 24.05 274.35938 24.05Q273.625 24.05 273.125 24.534374Q272.64062 25.01875 272.59375 25.846874ZM278.79688 22.175L278.79688 20.95625L279.85938 20.95625L279.85938 22.175L278.79688 22.175ZM278.79688 29.55L278.79688 23.33125L279.85938 23.33125L279.85938 29.55L278.79688 29.55ZM281.59375 30.065624L282.625 30.221874Q282.6875 30.690624 282.98438 30.909374Q283.375 31.20625 284.04688 31.20625Q284.78125 31.20625 285.17188 30.909374Q285.57812 30.6125 285.71875 30.096874Q285.8125 29.76875 285.79688 28.7375Q285.10938 29.55 284.07812 29.55Q282.79688 29.55 282.09375 28.628124Q281.39062 27.690624 281.39062 26.409374Q281.39062 25.51875 281.70312 24.76875Q282.03125 24.003124 282.64062 23.596874Q283.25 23.190624 284.07812 23.190624Q285.1875 23.190624 285.90625 24.08125L285.90625 23.33125L286.875 23.33125L286.875 28.70625Q286.875 30.159374 286.57812 30.76875Q286.28125 31.378124 285.64062 31.721874Q285.0 32.08125 284.0625 32.08125Q282.95312 32.08125 282.26562 31.58125Q281.57812 31.08125 281.59375 30.065624ZM282.46875 26.33125Q282.46875 27.55 282.95312 28.1125Q283.4375 28.675 284.17188 28.675Q284.90625 28.675 285.39062 28.1125Q285.89062 27.55 285.89062 26.3625Q285.89062 25.221874 285.375 24.64375Q284.875 24.065624 284.15625 24.065624Q283.45312 24.065624 282.95312 24.64375Q282.46875 25.20625 282.46875 26.33125ZM288.79688 29.55L288.79688 20.95625L289.84375 20.95625L289.84375 24.034374Q290.57812 23.190624 291.70312 23.190624Q292.40625 23.190624 292.90625 23.471874Q293.42188 23.7375 293.64062 24.221874Q293.85938 24.690624 293.85938 25.6125L293.85938 29.55L292.8125 29.55L292.8125 25.6125Q292.8125 24.815624 292.46875 24.45625Q292.125 24.096874 291.5 24.096874Q291.03125 24.096874 290.60938 24.346874Q290.20312 24.58125 290.01562 25.003124Q289.84375 25.409374 289.84375 26.14375L289.84375 29.55L288.79688 29.55ZM298.09375 28.6125L298.25 29.534374Q297.79688 29.628124 297.45312 29.628124Q296.875 29.628124 296.5625 29.45625Q296.25 29.26875 296.10938 28.971874Q295.98438 28.675 295.98438 27.721874L295.98438 24.14375L295.21875 24.14375L295.21875 23.33125L295.98438 23.33125L295.98438 21.784374L297.03125 21.159374L297.03125 23.33125L298.09375 23.33125L298.09375 24.14375L297.03125 24.14375L297.03125 27.784374Q297.03125 28.2375 297.07812 28.3625Q297.14062 28.4875 297.26562 28.565624Q297.39062 28.64375 297.625 28.64375Q297.8125 28.64375 298.09375 28.6125Z" fill-rule="nonzero"/><path stroke="#ea4335" stroke-width="4.0" stroke-linecap="butt" d="M314.0 25.55L326.0 25.55" fill-rule="nonzero"/><path fill="#1a1a1a" d="M338.95312 26.175L338.95312 25.175L342.57812 25.159374L342.57812 28.346874Q341.75 29.01875 340.85938 29.3625Q339.96875 29.690624 339.03125 29.690624Q337.76562 29.690624 336.71875 29.159374Q335.6875 28.6125 335.15625 27.596874Q334.64062 26.565624 334.64062 25.3Q334.64062 24.034374 335.15625 22.95625Q335.6875 21.8625 336.67188 21.346874Q337.65625 20.815624 338.9375 20.815624Q339.875 20.815624 340.625 21.1125Q341.375 21.409374 341.79688 21.95625Q342.23438 22.4875 342.45312 23.3625L341.4375 23.64375Q341.23438 22.9875 340.9375 22.6125Q340.65625 22.2375 340.125 22.01875Q339.59375 21.784374 338.95312 21.784374Q338.17188 21.784374 337.59375 22.01875Q337.03125 22.253124 336.67188 22.64375Q336.32812 23.034374 336.14062 23.503124Q335.8125 24.3 335.8125 25.221874Q335.8125 26.378124 336.20312 27.159374Q336.60938 27.925 337.35938 28.3Q338.10938 28.675 338.96875 28.675Q339.70312 28.675 340.40625 28.39375Q341.10938 28.096874 341.46875 27.784374L341.46875 26.175L338.95312 26.175ZM343.40625 26.440624Q343.40625 24.70625 344.35938 23.878124Q345.15625 23.190624 346.3125 23.190624Q347.59375 23.190624 348.40625 24.034374Q349.23438 24.8625 349.23438 26.346874Q349.23438 27.55 348.875 28.2375Q348.51562 28.925 347.8125 29.315624Q347.125 29.690624 346.3125 29.690624Q345.01562 29.690624 344.20312 28.8625Q343.40625 28.01875 343.40625 26.440624ZM344.48438 26.440624Q344.48438 27.628124 345.0 28.221874Q345.53125 28.815624 346.3125 28.815624Q347.10938 28.815624 347.625 28.221874Q348.14062 27.628124 348.14062 26.409374Q348.14062 25.253124 347.60938 24.659374Q347.09375 24.065624 346.3125 24.065624Q345.53125 24.065624 345.0 24.659374Q344.48438 25.2375 344.48438 26.440624ZM354.85938 28.784374Q354.26562 29.284374 353.71875 29.4875Q353.1875 29.690624 352.5625 29.690624Q351.53125 29.690624 350.98438 29.190624Q350.4375 28.690624 350.4375 27.909374Q350.4375 27.45625 350.64062 27.08125Q350.84375 26.690624 351.1875 26.471874Q351.53125 26.2375 351.95312 26.128124Q352.25 26.034374 352.89062 25.95625Q354.15625 25.815624 354.76562 25.596874Q354.76562 25.378124 354.76562 25.33125Q354.76562 24.675 354.46875 24.409374Q354.0625 24.065624 353.26562 24.065624Q352.53125 24.065624 352.17188 24.33125Q351.8125 24.58125 351.64062 25.2375L350.60938 25.096874Q350.75 24.440624 351.07812 24.034374Q351.40625 23.628124 352.01562 23.409374Q352.625 23.190624 353.42188 23.190624Q354.21875 23.190624 354.71875 23.378124Q355.21875 23.565624 355.45312 23.846874Q355.6875 24.128124 355.78125 24.565624Q355.82812 24.83125 355.82812 25.534374L355.82812 26.940624Q355.82812 28.409374 355.89062 28.8Q355.96875 29.190624 356.17188 29.55L355.0625 29.55Q354.90625 29.221874 354.85938 28.784374ZM354.76562 26.425Q354.1875 26.659374 353.04688 26.83125Q352.39062 26.925 352.125 27.05Q351.85938 27.159374 351.70312 27.378124Q351.5625 27.596874 351.5625 27.878124Q351.5625 28.3 351.875 28.58125Q352.20312 28.8625 352.8125 28.8625Q353.42188 28.8625 353.89062 28.596874Q354.375 28.33125 354.59375 27.8625Q354.76562 27.503124 354.76562 26.815624L354.76562 26.425ZM357.76562 29.55L357.76562 20.95625L358.82812 20.95625L358.82812 29.55L357.76562 29.55Z" fill-rule="nonzero"/></svg>